<svg width="32" height="32" viewBox="0 0 32 32" fill="none" xmlns="http://www.w3.org/2000/svg">
<path fill-rule="evenodd" clip-rule="evenodd" d="M7.75011 7.64502H22.3861C23.1139 7.64502 23.812 7.93605 24.3266 8.4541C24.8412 8.97214 25.1304 9.67475 25.1304 10.4074V23.2984C25.1304 24.031 24.8412 24.7336 24.3266 25.2517C23.812 25.7697 23.1139 26.0607 22.3861 26.0607H7.75011C7.02229 26.0607 6.32428 25.7697 5.80963 25.2517C5.29499 24.7336 5.00586 24.031 5.00586 23.2984V10.4074C5.00586 9.67475 5.29499 8.97214 5.80963 8.4541C6.32428 7.93605 7.02229 7.64502 7.75011 7.64502ZM14.1534 10.4074H12.3239V12.2489H14.1534V10.4074ZM10.4944 10.4074H8.66486V12.2489H10.4944V10.4074ZM16.305 14.8416H8.6203V16.5419H16.305V14.8416ZM8.6203 18.2313H21.305V19.9316H8.6203V18.2313ZM21.305 21.6208H8.6203V23.3211H21.305V21.6208Z" fill="white" stroke="#383838"/>
<path fill-rule="evenodd" clip-rule="evenodd" d="M22.6573 14.2675L18.6203 15.6995C18.3456 15.7971 18.0399 15.7281 17.8341 15.5223C17.6284 15.3165 17.5594 15.0109 17.6569 14.7361L19.089 10.6992C19.0973 10.6766 19.1092 10.6563 19.127 10.6397L25.7511 4.0446C26.278 3.51768 27.1332 3.51768 27.6601 4.0446L29.342 5.72647C29.8689 6.25339 29.8689 7.10859 29.342 7.63551L22.7168 14.2294C22.7001 14.2472 22.6799 14.2591 22.6573 14.2675Z" fill="white" stroke="#383838"/>
</svg>
