<svg width="33" height="32" viewBox="0 0 33 32" fill="none" xmlns="http://www.w3.org/2000/svg">
<rect x="13.001" y="8.68701" width="15.2153" height="16.3446" fill="white" stroke="#383838"/>
<path fill-rule="evenodd" clip-rule="evenodd" d="M4.93262 6.59912C4.93262 5.49454 5.82812 4.59912 6.93262 4.59912H19.0693C20.1738 4.59912 21.0693 5.49454 21.0693 6.59912V25.4006C21.0693 26.5052 20.1738 27.4006 19.0693 27.4006H6.93262C5.82812 27.4006 4.93262 26.5052 4.93262 25.4006V6.59912ZM7.91992 8.83978C7.91992 8.28751 8.36768 7.83978 8.91992 7.83978H17.0825C17.6348 7.83978 18.0825 8.28751 18.0825 8.83978V11.9503C18.0825 12.5025 17.6348 12.9503 17.0825 12.9503H8.91992C8.36768 12.9503 7.91992 12.5025 7.91992 11.9503V8.83978ZM8.91992 14.6701C8.36768 14.6701 7.91992 15.1178 7.91992 15.6701V16.0197C7.91992 16.572 8.36768 17.0197 8.91992 17.0197H17.0825C17.6348 17.0197 18.0825 16.572 18.0825 16.0197V15.6701C18.0825 15.1178 17.6348 14.6701 17.0825 14.6701H8.91992ZM7.91992 19.7396C7.91992 19.1873 8.36768 18.7396 8.91992 18.7396H15.5825C16.1348 18.7396 16.5825 19.1873 16.5825 19.7396V20.0892C16.5825 20.6415 16.1348 21.0892 15.5825 21.0892H8.91992C8.36768 21.0892 7.91992 20.6415 7.91992 20.0892V19.7396Z" fill="white"/>
<path d="M8.91992 7.83978C8.36768 7.83978 7.91992 8.28751 7.91992 8.83978V11.9503C7.91992 12.5025 8.36768 12.9503 8.91992 12.9503H17.0825C17.6348 12.9503 18.0825 12.5025 18.0825 11.9503V8.83978C18.0825 8.28751 17.6348 7.83978 17.0825 7.83978H8.91992Z" fill="white"/>
<path d="M7.91992 15.6701C7.91992 15.1178 8.36768 14.6701 8.91992 14.6701H17.0825C17.6348 14.6701 18.0825 15.1178 18.0825 15.6701V16.0197C18.0825 16.572 17.6348 17.0197 17.0825 17.0197H8.91992C8.36768 17.0197 7.91992 16.572 7.91992 16.0197V15.6701Z" fill="white"/>
<path d="M8.91992 18.7396C8.36768 18.7396 7.91992 19.1873 7.91992 19.7396V20.0892C7.91992 20.6415 8.36768 21.0892 8.91992 21.0892H15.5825C16.1348 21.0892 16.5825 20.6415 16.5825 20.0892V19.7396C16.5825 19.1873 16.1348 18.7396 15.5825 18.7396H8.91992Z" fill="white"/>
<path fill-rule="evenodd" clip-rule="evenodd" d="M4.93262 6.59912C4.93262 5.49454 5.82812 4.59912 6.93262 4.59912H19.0693C20.1738 4.59912 21.0693 5.49454 21.0693 6.59912V25.4006C21.0693 26.5052 20.1738 27.4006 19.0693 27.4006H6.93262C5.82812 27.4006 4.93262 26.5052 4.93262 25.4006V6.59912ZM7.91992 8.83978C7.91992 8.28751 8.36768 7.83978 8.91992 7.83978H17.0825C17.6348 7.83978 18.0825 8.28751 18.0825 8.83978V11.9503C18.0825 12.5025 17.6348 12.9503 17.0825 12.9503H8.91992C8.36768 12.9503 7.91992 12.5025 7.91992 11.9503V8.83978ZM8.91992 14.6701C8.36768 14.6701 7.91992 15.1178 7.91992 15.6701V16.0197C7.91992 16.572 8.36768 17.0197 8.91992 17.0197H17.0825C17.6348 17.0197 18.0825 16.572 18.0825 16.0197V15.6701C18.0825 15.1178 17.6348 14.6701 17.0825 14.6701H8.91992ZM7.91992 19.7396C7.91992 19.1873 8.36768 18.7396 8.91992 18.7396H15.5825C16.1348 18.7396 16.5825 19.1873 16.5825 19.7396V20.0892C16.5825 20.6415 16.1348 21.0892 15.5825 21.0892H8.91992C8.36768 21.0892 7.91992 20.6415 7.91992 20.0892V19.7396Z" stroke="#383838"/>
<path d="M8.91992 7.83978C8.36768 7.83978 7.91992 8.28751 7.91992 8.83978V11.9503C7.91992 12.5025 8.36768 12.9503 8.91992 12.9503H17.0825C17.6348 12.9503 18.0825 12.5025 18.0825 11.9503V8.83978C18.0825 8.28751 17.6348 7.83978 17.0825 7.83978H8.91992Z" stroke="#383838"/>
<path d="M7.91992 15.6701C7.91992 15.1178 8.36768 14.6701 8.91992 14.6701H17.0825C17.6348 14.6701 18.0825 15.1178 18.0825 15.6701V16.0197C18.0825 16.572 17.6348 17.0197 17.0825 17.0197H8.91992C8.36768 17.0197 7.91992 16.572 7.91992 16.0197V15.6701Z" stroke="#383838"/>
<path d="M8.91992 18.7396C8.36768 18.7396 7.91992 19.1873 7.91992 19.7396V20.0892C7.91992 20.6415 8.36768 21.0892 8.91992 21.0892H15.5825C16.1348 21.0892 16.5825 20.6415 16.5825 20.0892V19.7396C16.5825 19.1873 16.1348 18.7396 15.5825 18.7396H8.91992Z" stroke="#383838"/>
</svg>
