<svg width="33" height="32" viewBox="0 0 33 32" fill="none" xmlns="http://www.w3.org/2000/svg">
<path d="M22.0609 6H9.82384C8.37402 6 7.20215 7.22266 7.20215 8.72656V23.2734C7.20215 24.7773 8.37778 26 9.82384 26H22.0609C22.5454 26 22.9361 25.5938 22.9361 25.0898V6.91016C22.9361 6.40625 22.5417 6 22.0609 6ZM21.1858 24.1836H9.82384C9.33932 24.1836 8.94869 23.7773 8.94869 23.2734C8.94869 22.7695 9.33932 22.3633 9.82384 22.3633H21.1858V24.1836Z" fill="white" stroke="#383838"/>
<path fill-rule="evenodd" clip-rule="evenodd" d="M22.9358 20.3613C26.0009 20.3613 28.4858 17.8765 28.4858 14.8113C28.4858 11.7461 26.0009 9.26123 22.9358 9.26123C19.8707 9.26123 17.3857 11.7461 17.3857 14.8113C17.3857 17.8765 19.8707 20.3613 22.9358 20.3613ZM22.8367 17.7463C22.8682 17.7569 22.9019 17.7624 22.9358 17.7624C23.0223 17.7624 23.1049 17.727 23.1643 17.6646L25.3778 15.3459C25.5697 15.1452 25.427 14.8113 25.1492 14.8113H23.9899V12.3872C23.9899 12.0967 23.7533 11.8602 23.4629 11.8602H22.409C22.1186 11.8602 21.8819 12.0967 21.8819 12.3872V14.8113H20.7227C20.4449 14.8113 20.3022 15.1452 20.4941 15.3459L22.7075 17.6646C22.7436 17.7023 22.788 17.7302 22.8367 17.7463Z" fill="white"/>
<path d="M22.9358 17.7624C22.9019 17.7624 22.8682 17.7569 22.8367 17.7463C22.788 17.7302 22.7436 17.7023 22.7075 17.6646L20.4941 15.3459C20.3022 15.1452 20.4449 14.8113 20.7227 14.8113H21.8819V12.3872C21.8819 12.0967 22.1186 11.8602 22.409 11.8602H23.4629C23.7533 11.8602 23.9899 12.0967 23.9899 12.3872V14.8113H25.1492C25.427 14.8113 25.5697 15.1452 25.3778 15.3459L23.1643 17.6646C23.1049 17.727 23.0223 17.7624 22.9358 17.7624Z" fill="white"/>
<path fill-rule="evenodd" clip-rule="evenodd" d="M22.9358 20.3613C26.0009 20.3613 28.4858 17.8765 28.4858 14.8113C28.4858 11.7461 26.0009 9.26123 22.9358 9.26123C19.8707 9.26123 17.3857 11.7461 17.3857 14.8113C17.3857 17.8765 19.8707 20.3613 22.9358 20.3613ZM22.8367 17.7463C22.8682 17.7569 22.9019 17.7624 22.9358 17.7624C23.0223 17.7624 23.1049 17.727 23.1643 17.6646L25.3778 15.3459C25.5697 15.1452 25.427 14.8113 25.1492 14.8113H23.9899V12.3872C23.9899 12.0967 23.7533 11.8602 23.4629 11.8602H22.409C22.1186 11.8602 21.8819 12.0967 21.8819 12.3872V14.8113H20.7227C20.4449 14.8113 20.3022 15.1452 20.4941 15.3459L22.7075 17.6646C22.7436 17.7023 22.788 17.7302 22.8367 17.7463Z" stroke="#383838"/>
<path d="M22.9358 17.7624C22.9019 17.7624 22.8682 17.7569 22.8367 17.7463C22.788 17.7302 22.7436 17.7023 22.7075 17.6646L20.4941 15.3459C20.3022 15.1452 20.4449 14.8113 20.7227 14.8113H21.8819V12.3872C21.8819 12.0967 22.1186 11.8602 22.409 11.8602H23.4629C23.7533 11.8602 23.9899 12.0967 23.9899 12.3872V14.8113H25.1492C25.427 14.8113 25.5697 15.1452 25.3778 15.3459L23.1643 17.6646C23.1049 17.727 23.0223 17.7624 22.9358 17.7624Z" stroke="#383838"/>
</svg>
