<svg width="48" height="48" viewBox="0 0 48 48" fill="none" xmlns="http://www.w3.org/2000/svg">
<g clip-path="url(#clip0_680_31463)">
<path d="M47.2601 22.0042C44.247 20.5051 41.4596 18.5899 38.9797 16.3148C40.2535 11.4979 41.1987 6.59997 41.8085 1.65493C41.9516 0.502931 41.3101 0.131171 41.1109 0.0448507C40.5496 -0.168845 39.9153 0.0414976 39.5929 0.548291C35.2149 5.78661 29.218 5.18893 22.8687 4.55261C16.4699 3.91261 9.86821 3.26333 4.97397 8.88173C4.28956 8.02742 3.16171 7.66345 2.10701 7.95653L1.99685 7.98741C0.545555 8.39503 -0.302174 9.90023 0.101574 11.3526L9.86869 46.3039C10.1521 47.3155 11.0729 48.0158 12.1234 48.0187C12.3376 48.0184 12.5507 47.989 12.757 47.9313L13.6117 47.6925C14.2105 47.5252 14.7192 47.1268 15.0242 46.585C15.3293 46.0431 15.4065 45.4023 15.239 44.8035L12.2141 33.9773C16.6193 28.3128 22.7581 28.9126 29.2531 29.5613C35.7406 30.2093 42.4421 30.8781 47.3651 24.991L47.3674 24.9879C47.851 24.3852 48.0501 23.6027 47.9135 22.8421C47.8415 22.4748 47.5989 22.1636 47.2601 22.0042ZM13.6297 45.7999C13.5335 45.9725 13.3721 46.0993 13.1817 46.1519L12.3269 46.3905C11.931 46.5006 11.5207 46.2694 11.4097 45.8737L1.64213 10.9221C1.47541 10.3202 1.82685 9.69683 2.42813 9.52789L2.53749 9.49741C2.63642 9.46956 2.73872 9.45548 2.84149 9.45557C3.34893 9.45639 3.79416 9.79393 3.93197 10.2823L4.01861 10.5924V10.5941L9.02093 28.4944L13.6984 45.2335C13.7519 45.4239 13.7272 45.6278 13.6297 45.7999ZM46.136 23.9659C41.7571 29.2026 35.7594 28.6038 29.4125 27.969C23.0899 27.337 16.5645 26.685 11.6884 32.0937L7.31797 16.4553L5.66653 10.5454C10.072 4.88189 16.2102 5.49589 22.7101 6.14485C28.882 6.76045 35.2531 7.39797 40.1 2.37725C39.5026 6.93734 38.6122 11.4542 37.4344 15.8999C37.2749 16.4747 37.4558 17.0902 37.9008 17.4874C40.4437 19.8154 43.2901 21.7884 46.3625 23.3526C46.3453 23.5741 46.2669 23.7864 46.136 23.9659Z" fill="#383838"/>
</g>
<defs>
<clipPath id="clip0_680_31463">
<rect width="48" height="48" fill="white"/>
</clipPath>
</defs>
</svg>
