<svg width="13" height="7" viewBox="0 0 13 7" fill="none" xmlns="http://www.w3.org/2000/svg">
<path d="M12.2631 3.18038C12.2313 3.09855 12.1838 3.02379 12.1231 2.96038L9.45641 0.293717C9.39425 0.231558 9.32046 0.182251 9.23925 0.148611C9.15803 0.114971 9.07099 0.0976562 8.98308 0.0976562C8.80555 0.0976562 8.63528 0.168182 8.50975 0.293717C8.38421 0.419253 8.31369 0.589516 8.31369 0.767051C8.31369 0.944585 8.38421 1.11485 8.50975 1.24038L10.0431 2.76705H0.98308C0.806269 2.76705 0.6367 2.83729 0.511675 2.96231C0.386651 3.08734 0.316413 3.25691 0.316413 3.43372C0.316413 3.61053 0.386651 3.7801 0.511675 3.90512C0.6367 4.03015 0.806269 4.10038 0.98308 4.10038H10.0431L8.50975 5.62705C8.44726 5.68903 8.39766 5.76276 8.36382 5.844C8.32997 5.92524 8.31255 6.01238 8.31255 6.10038C8.31255 6.18839 8.32997 6.27553 8.36382 6.35677C8.39766 6.43801 8.44726 6.51174 8.50975 6.57372C8.57172 6.6362 8.64546 6.6858 8.7267 6.71965C8.80793 6.75349 8.89507 6.77092 8.98308 6.77092C9.07109 6.77092 9.15823 6.75349 9.23946 6.71965C9.3207 6.6858 9.39444 6.6362 9.45641 6.57372L12.1231 3.90705C12.1838 3.84365 12.2313 3.76889 12.2631 3.68705C12.3298 3.52474 12.3298 3.34269 12.2631 3.18038Z" fill="#D50128"/>
</svg>
