<svg width="32" height="33" viewBox="0 0 32 33" fill="none" xmlns="http://www.w3.org/2000/svg">
<path d="M12.2052 29.175H12.205H12.2003H12.1957H12.191H12.1863H12.1816H12.177H12.1723H12.1676H12.163H12.1583H12.1536H12.149H12.1443H12.1396H12.135H12.1303H12.1256H12.121H12.1163H12.1116H12.107H12.1023H12.0976H12.093H12.0883H12.0836H12.079H12.0743H12.0696H12.065H12.0603H12.0556H12.051H12.0463H12.0416H12.037H12.0323H12.0276H12.023H12.0183H12.0136H12.009H12.0043H11.9996H11.995H11.9903H11.9856H11.981H11.9763H11.9716H11.967H11.9623H11.9576H11.953H11.9483H11.9436H11.939H11.9343H11.9296H11.925H11.9203H11.9156H11.911H11.9063H11.9016H11.8969H11.8923H11.8876H11.8829H11.8783H11.8736H11.8689H11.8643H11.8596H11.8549H11.8503H11.8456H11.8409H11.8363H11.8316H11.8269H11.8223H11.8176H11.8129H11.8083H11.8036H11.7989H11.7943H11.7896H11.7849H11.7803H11.7756H11.7709H11.7663H11.7616H11.7569H11.7523H11.7476H11.7429H11.7383H11.7336H11.7289H11.7243H11.7196H11.7149H11.7103H11.7056H11.7009H11.6963H11.6916H11.6869H11.6823H11.6776H11.6729H11.6683H11.6636H11.6589H11.6543H11.6496H11.6449H11.6403H11.6356H11.6309H11.6263H11.6216H11.6169H11.6123H11.6076H11.6029H11.5982H11.5936H11.5889H11.5842H11.5796H11.5749H11.5702H11.5656H11.5609H11.5562H11.5516H11.5469H11.5422H11.5376H11.5329H11.5282H11.5236H11.5189H11.5142H11.5096H11.5049H11.5002H11.4956H11.4909H11.4862H11.4816H11.4769H11.4722H11.4676H11.4629H11.4582H11.4536H11.4489H11.4442H11.4396H11.4349H11.4302H11.4256H11.4209H11.4162H11.4116H11.4069H11.4022H11.3976H11.3929H11.3882H11.3836H11.3789H11.3742H11.3696H11.3649H11.3602H11.3556H11.3509H11.3462H11.3416H11.3369H11.3322H11.3276H11.3229H11.3182H11.3135H11.3089H11.3042H11.2995H11.2949H11.2902H11.2855H11.2809H11.2762H11.2715H11.2669H11.2622H11.2575H11.2529H11.2482H11.2435H11.2389H11.2342H11.2295H11.2249H11.2202H11.2155H11.2109H11.2062H11.2015H11.1969H11.1922H11.1875H11.1829H11.1782H11.1735H11.1689H11.1642H11.1595H11.1549H11.1502H11.1455H11.1409H11.1362H11.1315H11.1269H11.1222H11.1175H11.1129H11.1082H11.1035H11.0989H11.0942H11.0895H11.0849H11.0802H11.0755H11.0709H11.0662H11.0615H11.0569H11.0522H11.0475H11.0429H11.0382H11.0335H11.0289H11.0242H11.0195H11.0148H11.0102H11.0055H11.0008H10.9962H10.9915H10.9868H10.9822H10.9775H10.9728H10.9682H10.9635H10.9588H10.9542H10.9495H10.9448H10.9402H10.9355H10.9308H10.9262H10.9215H10.9168H10.9122H10.9075H10.9028H10.8982H10.8935H10.8888H10.8842H10.8795H10.8748H10.8702H10.8655H10.8608H10.8562H10.8515H10.8468H10.8422H10.8375H10.8328H10.8282H10.8235H10.8188H10.8142H10.8095H10.8048H10.8002H10.7955H10.7908H10.7862H10.7815H10.7768H10.7722H10.7675H10.7628H10.7582H10.7535H10.7488H10.7442H10.7395H10.7348H10.7302H10.7255H10.7208H10.7161H10.7115H10.7068H10.7021H10.6975H10.6928H10.6881H10.6835H10.6788H10.6741H10.6695H10.6648H10.6601H10.6555H10.6508H10.6461H10.6415H10.6368H10.6321H10.6275H10.6228H10.6181H10.6135H10.6088H10.6041H10.5995H10.5948H10.5901H10.5855H10.5808H10.5761H10.5715H10.5668H10.5621H10.5575H10.5528H10.5481H10.5435H10.5388H10.5341H10.5295H10.5248H10.5201H10.5155H10.5108H10.5061H10.5015H10.4968H10.4921H10.4875H10.4828H10.4781H10.4735H10.4688H10.4641H10.4595H10.4548H10.4501H10.4455H10.4408H10.4361H10.4314H10.4268H10.4221H10.4174H10.4128H10.4081H10.4034H10.3988H10.3941H10.3894H10.3848H10.3801H10.3754H10.3708H10.3661H10.3614H10.3568H10.3521H10.3474H10.3428H10.3381H10.3334H10.3288H10.3241H10.3194H10.3148H10.3101H10.3054H10.3008H10.2961H10.2914H10.2868H10.2821H10.2774H10.2728H10.2681H10.2634H10.2588H10.2541H10.2494H10.2448H10.2401H10.2354H10.2308H10.2261H10.2214H10.2168H10.2121H10.2074H10.2028H10.1981H10.1934H10.1888H10.1841H10.1794H10.1748H10.1701H10.1654H10.1608H10.1561H10.1514H10.1468H10.1421H10.1374H10.1327H10.1281H10.1234H10.1187H10.1141H10.1094H10.1047H10.1001H10.0954H10.0907H10.0861H10.0814H10.0767H10.0721H10.0674H10.0627H10.0581H10.0534H10.0487H10.0441H10.0394H10.0347H10.0301H10.0254H10.0207H10.0161H10.0114H10.0067H10.0021H9.9974H9.99273H9.98807H9.9834H9.97873H9.97406H9.9694H9.96473H9.96006H9.9554H9.95073H9.94606H9.94139H9.93673H9.93206H9.92739H9.92273H9.91806H9.91339H9.90872H9.90406H9.89939H9.89472H9.89005H9.88539H9.88072H9.87605H9.87139H9.86672H9.86205H9.85738H9.85272H9.84805H9.84338H9.83872H9.83405H9.82938H9.82471H9.82005H9.81538C9.63022 29.175 9.525 29.1253 9.47648 29.086C9.43898 29.0556 9.41371 29.0162 9.41164 28.9441C9.45694 27.7498 9.42232 26.8472 9.39668 26.1788C9.39433 26.1175 9.39206 26.0582 9.38992 26.0008C9.37703 25.6536 9.37026 25.3947 9.38031 25.1916C9.39057 24.9843 9.41698 24.8862 9.43903 24.8393C9.43918 24.839 9.43931 24.8384 9.4395 24.8377C9.44298 24.8241 9.46456 24.7393 9.92527 24.7025C10.2608 24.6757 10.7085 24.6811 11.3385 24.6887C11.6124 24.6919 11.9208 24.6956 12.2695 24.6973L12.2695 24.6973L12.2748 24.6973C12.5824 24.6954 12.8571 24.6921 13.1033 24.6891C13.7426 24.6814 14.1897 24.676 14.5204 24.7048C14.7444 24.7243 14.8576 24.7563 14.9149 24.7839C14.9506 24.8011 14.9581 24.8114 14.9699 24.8374C14.9919 24.886 15.0172 24.9855 15.027 25.1911C15.0366 25.3927 15.0301 25.6486 15.0179 25.9906C15.0159 26.0447 15.0139 26.1006 15.0118 26.1582C14.9875 26.8175 14.9547 27.707 15.0003 28.8831C14.9987 29.0284 14.9569 29.0707 14.9361 29.0881C14.8991 29.119 14.793 29.1754 14.5426 29.1758C14.5425 29.1758 14.5423 29.1758 14.5422 29.1758L12.2052 29.175Z" fill="white" stroke="#383838"/>
<path d="M9.76533 21.272L9.75125 21.2721L9.73721 21.2729C9.68349 21.2764 9.66725 21.2651 9.66222 21.2616L9.66168 21.2612C9.64918 21.2527 9.61995 21.2265 9.58368 21.156C9.50491 21.0029 9.46251 20.7889 9.41684 20.538C9.22391 18.6879 9.98033 17.244 11.4011 16.0086L11.41 16.0008L11.4186 15.9926C11.8976 15.5344 12.4737 15.2008 13.1123 14.8518C13.1699 14.8203 13.2282 14.7886 13.287 14.7566C13.8618 14.4441 14.4839 14.1058 15.0347 13.6564L15.0348 13.6565L15.0452 13.6476C16.3513 12.5208 16.201 10.6102 14.8345 9.62707L14.8338 9.62654C14.1341 9.12505 13.2477 8.8598 12.3738 8.82564C11.5004 8.7915 10.5979 8.98681 9.87119 9.45681L9.86319 9.46198L9.85539 9.46746C9.1006 9.9975 8.4933 10.7337 7.94596 11.3973C7.80453 11.5687 7.66711 11.7353 7.53218 11.8923L7.53216 11.8922L7.52859 11.8965C7.36247 12.0941 7.26229 12.1244 7.22296 12.1292C7.18603 12.1336 7.0855 12.1298 6.88387 11.977L6.88385 11.977C5.81446 11.1666 4.74821 10.3534 3.6851 9.53744L3.68464 9.53709C3.52318 9.41346 3.49353 9.32849 3.48691 9.28943C3.47966 9.24665 3.48192 9.15025 3.59157 8.97102L3.59788 8.96071L3.60368 8.9501C6.40966 3.82223 13.5547 2.16386 18.2164 5.71819L18.2312 5.72951L18.2469 5.73969C21.3596 7.76475 22.6508 12.2605 20.3159 15.2229L20.308 15.2329L20.3006 15.2433C19.8566 15.8699 19.2475 16.3355 18.5476 16.7854C18.3448 16.9157 18.1293 17.0475 17.9083 17.1826C17.396 17.4958 16.8546 17.8269 16.3749 18.1994L16.3673 18.2053L16.3599 18.2116C15.2961 19.1061 15.0882 20.0024 14.9475 20.6196C14.8734 20.9442 14.8357 21.0711 14.7777 21.1486C14.7574 21.1758 14.7034 21.2481 14.4272 21.2719H14.4246H14.42H14.4154H14.4109H14.4063H14.4017H14.3972H14.3926H14.388H14.3835H14.3789H14.3743H14.3698H14.3652H14.3606H14.3561H14.3515H14.3469H14.3424H14.3378H14.3332H14.3286H14.3241H14.3195H14.3149H14.3104H14.3058H14.3012H14.2967H14.2921H14.2875H14.283H14.2784H14.2738H14.2693H14.2647H14.2601H14.2556H14.251H14.2464H14.2419H14.2373H14.2327H14.2281H14.2236H14.219H14.2144H14.2099H14.2053H14.2007H14.1962H14.1916H14.187H14.1825H14.1779H14.1733H14.1688H14.1642H14.1596H14.1551H14.1505H14.1459H14.1413H14.1368H14.1322H14.1276H14.1231H14.1185H14.1139H14.1094H14.1048H14.1002H14.0957H14.0911H14.0865H14.082H14.0774H14.0728H14.0683H14.0637H14.0591H14.0545H14.05H14.0454H14.0408H14.0363H14.0317H14.0271H14.0226H14.018H14.0134H14.0089H14.0043H13.9997H13.9952H13.9906H13.986H13.9815H13.9769H13.9723H13.9677H13.9632H13.9586H13.954H13.9495H13.9449H13.9403H13.9358H13.9312H13.9266H13.9221H13.9175H13.9129H13.9084H13.9038H13.8992H13.8946H13.8901H13.8855H13.8809H13.8764H13.8718H13.8672H13.8627H13.8581H13.8535H13.849H13.8444H13.8398H13.8353H13.8307H13.8261H13.8215H13.817H13.8124H13.8078H13.8033H13.7987H13.7941H13.7896H13.785H13.7804H13.7759H13.7713H13.7667H13.7621H13.7576H13.753H13.7484H13.7439H13.7393H13.7347H13.7302H13.7256H13.721H13.7165H13.7119H13.7073H13.7028H13.6982H13.6936H13.689H13.6845H13.6799H13.6753H13.6708H13.6662H13.6616H13.6571H13.6525H13.6479H13.6434H13.6388H13.6342H13.6296H13.6251H13.6205H13.6159H13.6114H13.6068H13.6022H13.5977H13.5931H13.5885H13.584H13.5794H13.5748H13.5702H13.5657H13.5611H13.5565H13.552H13.5474H13.5428H13.5383H13.5337H13.5291H13.5246H13.52H13.5154H13.5108H13.5063H13.5017H13.4971H13.4926H13.488H13.4834H13.4789H13.4743H13.4697H13.4652H13.4606H13.456H13.4514H13.4469H13.4423H13.4377H13.4332H13.4286H13.424H13.4195H13.4149H13.4103H13.4057H13.4012H13.3966H13.392H13.3875H13.3829H13.3783H13.3738H13.3692H13.3646H13.3601H13.3555H13.3509H13.3463H13.3418H13.3372H13.3326H13.3281H13.3235H13.3189H13.3144H13.3098H13.3052H13.3006H13.2961H13.2915H13.2869H13.2824H13.2778H13.2732H13.2687H13.2641H13.2595H13.2549H13.2504H13.2458H13.2412H13.2367H13.2321H13.2275H13.223H13.2184H13.2138H13.2093H13.2047H13.2001H13.1955H13.191H13.1864H13.1818H13.1773H13.1727H13.1681H13.1636H13.159H13.1544H13.1498H13.1453H13.1407H13.1361H13.1316H13.127H13.1224H13.1179H13.1133H13.1087H13.1041H13.0996H13.095H13.0904H13.0859H13.0813H13.0767H13.0722H13.0676H13.063H13.0584H13.0539H13.0493H13.0447H13.0402H13.0356H13.031H13.0265H13.0219H13.0173H13.0127H13.0082H13.0036H12.999H12.9945H12.9899H12.9853H12.9808H12.9762H12.9716H12.967H12.9625H12.9579H12.9533H12.9488H12.9442H12.9396H12.935H12.9305H12.9259H12.9213H12.9168H12.9122H12.9076H12.9031H12.8985H12.8939H12.8893H12.8848H12.8802H12.8756H12.8711H12.8665H12.8619H12.8574H12.8528H12.8482H12.8436H12.8391H12.8345H12.8299H12.8254H12.8208H12.8162H12.8116H12.8071H12.8025H12.7979H12.7934H12.7888H12.7842H12.7797H12.7751H12.7705H12.7659H12.7614H12.7568H12.7522H12.7477H12.7431H12.7385H12.7339H12.7294H12.7248H12.7202H12.7157H12.7111H12.7065H12.702H12.6974H12.6928H12.6882H12.6837H12.6791H12.6745H12.67H12.6654H12.6608H12.6562H12.6517H12.6471H12.6425H12.638H12.6334H12.6288H12.6243H12.6197H12.6151H12.6105H12.606H12.6014H12.5968H12.5923H12.5877H12.5831H12.5785H12.574H12.5694H12.5648H12.5603H12.5557H12.5511H12.5465H12.542H12.5374H12.5328H12.5283H12.5237H12.5191H12.5146H12.51H12.5054H12.5008H12.4963H12.4917H12.4871H12.4826H12.478H12.4734H12.4688H12.4643H12.4597H12.4551H12.4506H12.446H12.4414H12.4368H12.4323H12.4277H12.4231H12.4186H12.414H12.4094H12.4048H12.4003H12.3957H12.3911H12.3866H12.382H12.3774H12.3728H12.3683H12.3637H12.3591H12.3546H12.35H12.3454H12.3409H12.3363H12.3317H12.3271H12.3226H12.318H12.3134H12.3089H12.3043H12.2997H12.2951H12.2906H12.286H12.2814H12.2769H12.2723H12.2677H12.2631H12.2586H12.254H12.2494H12.2449H12.2403H12.2357H12.2311H12.2266H12.222H12.2174H12.2129H12.2083H12.2037H12.1991H12.1946H12.19H12.1854H12.1809H12.1763H12.1717H12.1671H12.1626H12.158H12.1534H12.1489H12.1443H12.1397H12.1351H12.1306H12.126H12.1214H12.1169H12.1123H12.1077C11.8505 21.2719 11.5919 21.2713 11.3327 21.2707C10.8114 21.2694 10.2874 21.2682 9.76533 21.272Z" fill="white" stroke="#383838"/>
<path d="M14.5848 17.6505L14.2169 17.3119L10.2931 13.7016C10.2028 13.6185 10.0623 13.6244 9.97916 13.7147L7.34531 16.5772C7.26222 16.6675 7.26807 16.808 7.35837 16.8911L14.676 23.6242L14.676 23.6242C14.6991 23.6455 14.7246 23.6605 14.7513 23.67L14.7513 23.67C14.8032 23.6886 14.8614 23.6871 14.9124 23.6659C14.9405 23.6542 14.9669 23.6363 14.9901 23.6112L24.6547 13.1076C24.7378 13.0173 24.7319 12.8767 24.6416 12.7936L21.7791 10.1598C21.6888 10.0767 21.5483 10.0825 21.4652 10.1728M14.5848 17.6505L21.4652 10.1728M14.5848 17.6505L14.9233 17.2825L21.4652 10.1728M14.5848 17.6505L21.0972 9.83427L21.4652 10.1728" fill="white" stroke="#383838"/>
</svg>
