<svg width="32" height="32" viewBox="0 0 32 32" fill="none" xmlns="http://www.w3.org/2000/svg">
<path d="M23.9959 3.86133H8.00429C7.20906 3.86133 6.4464 4.17932 5.88408 4.74534C5.32176 5.31137 5.00586 6.07906 5.00586 6.87954V18.9645C5.00586 19.765 5.32176 20.5327 5.88408 21.0987C6.4464 21.6648 7.20906 21.9828 8.00429 21.9828H23.9959C24.7912 21.9828 25.5538 21.6648 26.1162 21.0987C26.6785 20.5327 26.9944 19.765 26.9944 18.9645V6.87954C26.9944 6.07906 26.6785 5.31137 26.1162 4.74534C25.5538 4.17932 24.7912 3.86133 23.9959 3.86133ZM13.0017 6.87954H15.0006V8.89169H13.0017V6.87954ZM9.00377 6.87954H11.0027V8.89169H9.00377V6.87954Z" fill="white" stroke="#383838"/>
<path d="M16 15.5225C12.4234 15.5225 9.54004 18.4058 9.54004 21.9824C9.54004 25.559 12.4234 28.4424 16 28.4424C19.5766 28.4424 22.46 25.559 22.46 21.9824C22.46 18.4058 19.5766 15.5225 16 15.5225ZM18.8676 22.2818L14.5662 24.8027C14.5189 24.8343 14.4402 24.85 14.3929 24.85C14.3456 24.85 14.2668 24.8343 14.2196 24.8027C14.1093 24.724 14.0463 24.6294 14.0463 24.5034V19.4772H14.0305C14.0305 19.3512 14.1093 19.2251 14.2038 19.1779C14.2984 19.1306 14.4559 19.0991 14.5662 19.1779L18.8676 21.6831C18.9779 21.7618 19.0409 21.8564 19.0409 21.9824C19.0409 22.1085 18.9621 22.2345 18.8676 22.2818Z" fill="white" stroke="#383838"/>
</svg>
