<svg width="64" height="64" viewBox="0 0 64 64" fill="none" xmlns="http://www.w3.org/2000/svg">
<path d="M46.9919 8.97607H15.0086C13.4181 8.97607 11.8928 9.61205 10.7682 10.7441C9.64353 11.8762 9.01172 13.4115 9.01172 15.0125V43.1825C9.01172 44.7835 9.64353 46.3189 10.7682 47.4509C11.8928 48.583 13.4181 49.2189 15.0086 49.2189H46.9919C48.5823 49.2189 50.1077 48.583 51.2323 47.4509C52.3569 46.3189 52.9887 44.7835 52.9887 43.1825V15.0125C52.9887 13.4115 52.3569 11.8762 51.2323 10.7441C50.1077 9.61205 48.5823 8.97607 46.9919 8.97607ZM25.0034 15.0125H29.0013V19.0368H25.0034V15.0125ZM17.0075 15.0125H21.0055V19.0368H17.0075V15.0125Z" fill="#0096F0"/>
<g style="mix-blend-mode:multiply">
<path d="M47.6422 46.0604C47.8281 44.3658 46.9931 42.7238 45.516 41.8712L28.0224 31.7772C26.5769 30.9421 24.777 31.0228 23.4087 31.9772C22.0439 32.935 21.3527 34.598 21.6439 36.2435L25.1454 56.137C25.4401 57.814 26.6997 59.1578 28.3557 59.5648C30.0083 59.9683 31.7485 59.3578 32.7835 58.007L35.7326 54.1636L39.7507 59.9016C40.5823 61.091 42.2243 61.3822 43.4137 60.5472C44.6031 59.7157 44.8943 58.0737 44.0592 56.8843L40.0411 51.1463L44.6634 49.6883C46.2879 49.176 47.4562 47.7516 47.6422 46.0604Z" fill="#AFC300"/>
</g>
<mask id="mask0_619_11529" style="mask-type:alpha" maskUnits="userSpaceOnUse" x="9" y="8" width="44" height="42">
<path d="M46.9919 8.97607H15.0086C13.4181 8.97607 11.8928 9.61205 10.7682 10.7441C9.64353 11.8762 9.01172 13.4115 9.01172 15.0125V43.1825C9.01172 44.7835 9.64353 46.3189 10.7682 47.4509C11.8928 48.583 13.4181 49.2189 15.0086 49.2189H46.9919C48.5823 49.2189 50.1077 48.583 51.2323 47.4509C52.3569 46.3189 52.9887 44.7835 52.9887 43.1825V15.0125C52.9887 13.4115 52.3569 11.8762 51.2323 10.7441C50.1077 9.61205 48.5823 8.97607 46.9919 8.97607ZM25.0034 15.0125H29.0013V19.0368H25.0034V15.0125ZM17.0075 15.0125H21.0055V19.0368H17.0075V15.0125Z" fill="#6E7B00"/>
</mask>
<g mask="url(#mask0_619_11529)">
<g style="mix-blend-mode:multiply">
<path d="M47.6422 46.0604C47.8281 44.3658 46.9931 42.7238 45.516 41.8712L28.0224 31.7772C26.5769 30.9421 24.777 31.0228 23.4087 31.9772C22.0439 32.935 21.3527 34.598 21.6439 36.2435L25.1454 56.137C25.4401 57.814 26.6997 59.1578 28.3557 59.5648C30.0083 59.9683 31.7485 59.3578 32.7835 58.007L35.7326 54.1636L39.7507 59.9016C40.5823 61.091 42.2243 61.3822 43.4137 60.5472C44.6031 59.7157 44.8943 58.0737 44.0592 56.8843L40.0411 51.1463L44.6634 49.6883C46.2879 49.176 47.4562 47.7516 47.6422 46.0604Z" fill="#6E7B00"/>
</g>
</g>
</svg>
