<svg width="64" height="65" viewBox="0 0 64 65" fill="none" xmlns="http://www.w3.org/2000/svg">
<path d="M43.1178 8.82538H11.1346C9.54409 8.82538 8.01877 9.46136 6.89414 10.5934C5.76951 11.7255 5.1377 13.2608 5.1377 14.8618V43.0318C5.1377 44.6328 5.76951 46.1682 6.89414 47.3002C8.01877 48.4323 9.54409 49.0682 11.1346 49.0682H43.1178C44.7083 49.0682 46.2336 48.4323 47.3583 47.3002C48.4829 46.1682 49.1147 44.6328 49.1147 43.0318V14.8618C49.1147 13.2608 48.4829 11.7255 47.3583 10.5934C46.2336 9.46136 44.7083 8.82538 43.1178 8.82538ZM21.1293 14.8618H25.1272V18.8861H21.1293V14.8618ZM13.1335 14.8618H17.1314V18.8861H13.1335V14.8618Z" fill="white" stroke="#383838"/>
<path fill-rule="evenodd" clip-rule="evenodd" d="M53.3647 30.9044C53.3647 36.5315 49.0323 41.1315 43.732 41.1315C38.4317 41.1315 34.0993 36.5315 34.0993 30.9044C34.0993 25.2772 38.4317 20.6772 43.732 20.6772C49.0323 20.6772 53.3647 25.2772 53.3647 30.9044ZM60.0287 48.7471C60.1122 48.9294 60.1895 49.1151 60.2607 49.3044C60.3874 49.5722 60.3442 49.885 60.1339 50.1529C59.7999 50.7782 59.4195 51.3588 58.999 51.9393C58.4114 52.7878 57.7373 53.5471 57.0662 54.2617C56.4756 54.8869 55.8046 55.5122 55.1304 56.048C51.8061 58.683 47.8108 60.0675 43.6887 60.0675C39.5666 60.0675 35.5712 58.6831 32.2501 56.048C31.5759 55.4675 30.9049 54.8869 30.3142 54.2617C29.5999 53.5471 28.9691 52.7879 28.3784 51.9393C28.0011 51.4035 27.5806 50.7782 27.2435 50.1529C27.1167 49.885 27.0765 49.5723 27.2033 49.3044C27.4538 48.6791 27.7909 48.0092 28.1681 47.4286C30.0638 44.3917 33.0912 42.382 36.4557 41.8907C36.8762 41.8014 37.3401 41.9354 37.6741 42.2033C39.4429 43.5878 41.5457 44.3024 43.732 44.3024C45.9183 44.3024 48.0211 43.5878 49.7899 42.2033C50.1239 41.9354 50.5878 41.8461 51.0083 41.8907C54.3728 42.382 57.36 44.3917 59.2928 47.4286C59.5649 47.8451 59.8154 48.2847 60.0287 48.7471Z" fill="white" stroke="#383838"/>
</svg>
