<svg width="64" height="64" viewBox="0 0 64 64" fill="none" xmlns="http://www.w3.org/2000/svg">
<path d="M48.0036 9.77402H16.0203C14.4298 9.77402 12.9045 10.41 11.7799 11.542C10.6552 12.6741 10.0234 14.2095 10.0234 15.8104V43.9805C10.0234 45.5814 10.6552 47.1168 11.7799 48.2489C12.9045 49.3809 14.4298 50.0169 16.0203 50.0169H48.0036C49.5941 50.0169 51.1194 49.3809 52.244 48.2489C53.3686 47.1168 54.0005 45.5814 54.0005 43.9805V15.8104C54.0005 14.2095 53.3686 12.6741 52.244 11.542C51.1194 10.41 49.5941 9.77402 48.0036 9.77402ZM26.0151 15.8104H30.013V19.8347H26.0151V15.8104ZM18.0193 15.8104H22.0172V19.8347H18.0193V15.8104Z" fill="#FF2731"/>
<g style="mix-blend-mode:multiply">
<path fill-rule="evenodd" clip-rule="evenodd" d="M59.8666 32C59.8666 37.0427 55.7787 41.1306 50.7361 41.1306C45.6934 41.1306 41.6055 37.0427 41.6055 32C41.6055 26.9573 45.6934 22.8694 50.7361 22.8694C55.7787 22.8694 59.8666 26.9573 59.8666 32ZM46.7585 30.5847L49.395 33.2383L54.7136 27.8741L56.1573 29.3064L49.395 36.1259L45.3148 32.0114L46.7585 30.5847Z" fill="#0096F0"/>
</g>
<g style="mix-blend-mode:multiply">
<path d="M33.4299 36.7196C32.8122 36.6299 32.2227 36.402 31.7054 36.0529C31.188 35.7038 30.7561 35.2425 30.4417 34.7033C30.1274 34.1641 29.9387 33.5609 29.8897 32.9387C29.8408 32.3165 29.9329 31.6913 30.1591 31.1095C30.3029 30.7293 30.3241 30.3135 30.2197 29.9206C30.1152 29.5276 29.8905 29.1772 29.5769 28.9184C28.1924 27.7558 26.6165 26.8425 24.9195 26.2192C24.533 26.0757 24.1111 26.0578 23.7139 26.168C23.3167 26.2782 22.9644 26.511 22.7072 26.8332C22.3201 27.3282 21.8253 27.7286 21.2604 28.0039C20.6955 28.2792 20.0754 28.4223 19.447 28.4223C18.8186 28.4223 18.1984 28.2792 17.6335 28.0039C17.0687 27.7286 16.5739 27.3282 16.1868 26.8332C15.9296 26.511 15.5773 26.2782 15.18 26.168C14.7828 26.0578 14.3609 26.0757 13.9745 26.2192C12.4075 26.7947 10.9425 27.6166 9.63461 28.6538C9.30493 28.9148 9.06747 29.2745 8.95699 29.6802C8.84652 30.0859 8.86883 30.5163 9.02067 30.9084C9.26493 31.5055 9.36585 32.1516 9.31533 32.7947C9.26482 33.4378 9.06428 34.0602 8.7298 34.6118C8.39532 35.1635 7.93621 35.629 7.38929 35.9712C6.84238 36.3133 6.2229 36.5225 5.58052 36.582C5.16348 36.6266 4.77177 36.8039 4.46307 37.0879C4.15437 37.3718 3.94498 37.7473 3.86574 38.1592C3.66864 39.1348 3.56936 40.1277 3.56936 41.123C3.56791 41.9563 3.63518 42.7883 3.77048 43.6105C3.83781 44.0356 4.0433 44.4266 4.35517 44.7232C4.66705 45.0198 5.06793 45.2053 5.49584 45.2512C6.15232 45.3128 6.7845 45.5308 7.33945 45.8869C7.89441 46.2429 8.35599 46.7267 8.68558 47.2978C9.01517 47.8689 9.20317 48.5106 9.23385 49.1693C9.26452 49.8279 9.13698 50.4844 8.8619 51.0836C8.68188 51.4734 8.63722 51.9121 8.73502 52.3302C8.83283 52.7483 9.06748 53.1217 9.40174 53.3911C10.7779 54.5326 12.3386 55.4311 14.0168 56.048C14.2314 56.1223 14.4566 56.1616 14.6837 56.1644C14.9951 56.1638 15.3018 56.0884 15.578 55.9448C15.8543 55.8011 16.0921 55.5933 16.2715 55.3388C16.6487 54.7891 17.1544 54.3398 17.7447 54.0299C18.335 53.7201 18.992 53.5589 19.6587 53.5605C20.3046 53.5613 20.9415 53.7129 21.5185 54.0033C22.0955 54.2936 22.5968 54.7147 22.9824 55.2329C23.2389 55.5777 23.6022 55.828 24.0157 55.9448C24.4293 56.0616 24.8698 56.0383 25.2688 55.8786C26.8033 55.2611 28.2319 54.4075 29.5028 53.3488C29.8221 53.0848 30.0494 52.7264 30.1521 52.3251C30.2548 51.9238 30.2276 51.5002 30.0744 51.1153C29.8254 50.5259 29.7169 49.8867 29.7573 49.2482C29.7977 48.6097 29.986 47.9893 30.3073 47.436C30.6286 46.8827 31.0741 46.4116 31.6087 46.06C32.1433 45.7084 32.7522 45.4859 33.3875 45.41C33.7995 45.353 34.1826 45.1664 34.4814 44.8771C34.7802 44.5878 34.9791 44.211 35.0494 43.8011C35.2194 42.9182 35.3115 42.022 35.3246 41.123C35.3248 40.1748 35.2362 39.2286 35.06 38.2968C34.9885 37.896 34.7925 37.5278 34.4999 37.2447C34.2073 36.9616 33.8329 36.7778 33.4299 36.7196ZM24.7395 41.123C24.7395 42.1698 24.4291 43.1931 23.8476 44.0634C23.266 44.9338 22.4394 45.6121 21.4723 46.0127C20.5053 46.4133 19.4411 46.5181 18.4145 46.3139C17.3878 46.1097 16.4448 45.6056 15.7046 44.8654C14.9644 44.1252 14.4603 43.1822 14.2561 42.1556C14.0519 41.1289 14.1567 40.0648 14.5573 39.0977C14.9579 38.1306 15.6362 37.304 16.5066 36.7224C17.377 36.1409 18.4002 35.8305 19.447 35.8305C20.8506 35.8305 22.1968 36.3881 23.1894 37.3806C24.1819 38.3732 24.7395 39.7194 24.7395 41.123Z" fill="#0096F0"/>
</g>
<mask id="mask0_549_15766" style="mask-type:alpha" maskUnits="userSpaceOnUse" x="10" y="9" width="45" height="42">
<path d="M48.0036 9.77402H16.0203C14.4298 9.77402 12.9045 10.41 11.7799 11.542C10.6552 12.6741 10.0234 14.2095 10.0234 15.8104V43.9805C10.0234 45.5814 10.6552 47.1168 11.7799 48.2489C12.9045 49.3809 14.4298 50.0169 16.0203 50.0169H48.0036C49.5941 50.0169 51.1194 49.3809 52.244 48.2489C53.3686 47.1168 54.0005 45.5814 54.0005 43.9805V15.8104C54.0005 14.2095 53.3686 12.6741 52.244 11.542C51.1194 10.41 49.5941 9.77402 48.0036 9.77402ZM26.0151 15.8104H30.013V19.8347H26.0151V15.8104ZM18.0193 15.8104H22.0172V19.8347H18.0193V15.8104Z" fill="#930014"/>
</mask>
<g mask="url(#mask0_549_15766)">
<g style="mix-blend-mode:multiply">
<path fill-rule="evenodd" clip-rule="evenodd" d="M50.7361 41.1306C55.7787 41.1306 59.8666 37.0427 59.8666 32C59.8666 26.9573 55.7787 22.8694 50.7361 22.8694C45.6934 22.8694 41.6055 26.9573 41.6055 32C41.6055 37.0427 45.6934 41.1306 50.7361 41.1306ZM49.3952 33.2383L46.7587 30.5847L45.3149 32.0114L49.3952 36.1259L56.1575 29.3064L54.7137 27.8741L49.3952 33.2383ZM31.7054 36.0529C32.2227 36.402 32.8122 36.6299 33.4299 36.7196C33.8329 36.7778 34.2073 36.9616 34.4999 37.2447C34.7925 37.5278 34.9885 37.896 35.06 38.2968C35.2362 39.2286 35.3248 40.1748 35.3246 41.123C35.3115 42.022 35.2194 42.9182 35.0494 43.8011C34.9791 44.211 34.7802 44.5878 34.4814 44.8771C34.1826 45.1664 33.7995 45.353 33.3875 45.41C32.7522 45.4859 32.1433 45.7084 31.6087 46.06C31.0741 46.4116 30.6286 46.8827 30.3073 47.436C29.986 47.9893 29.7977 48.6097 29.7573 49.2482C29.7169 49.8867 29.8254 50.5259 30.0744 51.1153C30.2276 51.5002 30.2548 51.9238 30.1521 52.3251C30.0494 52.7264 29.8221 53.0848 29.5028 53.3488C28.2319 54.4075 26.8033 55.2611 25.2688 55.8786C24.8698 56.0383 24.4293 56.0616 24.0157 55.9448C23.6022 55.828 23.2389 55.5777 22.9824 55.2329C22.5968 54.7147 22.0955 54.2936 21.5185 54.0033C20.9415 53.7129 20.3046 53.5613 19.6587 53.5605C18.992 53.5589 18.335 53.7201 17.7447 54.0299C17.1544 54.3398 16.6487 54.7891 16.2715 55.3388C16.0921 55.5933 15.8543 55.8011 15.578 55.9448C15.3018 56.0884 14.9951 56.1638 14.6837 56.1644C14.4566 56.1616 14.2314 56.1223 14.0168 56.048C12.3386 55.4311 10.7779 54.5326 9.40174 53.3911C9.06748 53.1217 8.83283 52.7483 8.73502 52.3302C8.63722 51.9121 8.68188 51.4734 8.8619 51.0836C9.13698 50.4844 9.26452 49.8279 9.23385 49.1693C9.20317 48.5106 9.01517 47.8689 8.68558 47.2978C8.35599 46.7267 7.89441 46.2429 7.33945 45.8869C6.7845 45.5308 6.15232 45.3128 5.49584 45.2512C5.06793 45.2053 4.66705 45.0198 4.35517 44.7232C4.0433 44.4266 3.83781 44.0356 3.77048 43.6105C3.63518 42.7883 3.56791 41.9563 3.56936 41.123C3.56936 40.1277 3.66864 39.1348 3.86574 38.1592C3.94498 37.7473 4.15437 37.3718 4.46307 37.0879C4.77177 36.8039 5.16348 36.6266 5.58052 36.582C6.2229 36.5225 6.84238 36.3133 7.38929 35.9712C7.93621 35.629 8.39532 35.1635 8.7298 34.6118C9.06428 34.0602 9.26482 33.4378 9.31533 32.7947C9.36585 32.1516 9.26493 31.5055 9.02067 30.9084C8.86883 30.5163 8.84652 30.0859 8.95699 29.6802C9.06747 29.2745 9.30493 28.9148 9.63461 28.6538C10.9425 27.6166 12.4075 26.7947 13.9745 26.2192C14.3609 26.0757 14.7828 26.0578 15.18 26.168C15.5773 26.2782 15.9296 26.511 16.1868 26.8332C16.5739 27.3282 17.0687 27.7286 17.6335 28.0039C18.1984 28.2792 18.8186 28.4223 19.447 28.4223C20.0754 28.4223 20.6955 28.2792 21.2604 28.0039C21.8253 27.7286 22.3201 27.3282 22.7072 26.8332C22.9644 26.511 23.3167 26.2782 23.7139 26.168C24.1111 26.0578 24.533 26.0757 24.9195 26.2192C26.6165 26.8425 28.1924 27.7558 29.5769 28.9184C29.8905 29.1772 30.1152 29.5276 30.2197 29.9206C30.3241 30.3135 30.3029 30.7293 30.1591 31.1095C29.9329 31.6913 29.8408 32.3165 29.8897 32.9387C29.9387 33.5609 30.1274 34.1641 30.4417 34.7033C30.7561 35.2425 31.188 35.7038 31.7054 36.0529ZM23.8476 44.0634C24.4291 43.1931 24.7395 42.1698 24.7395 41.123C24.7395 39.7194 24.1819 38.3732 23.1894 37.3806C22.1968 36.3881 20.8506 35.8305 19.447 35.8305C18.4002 35.8305 17.377 36.1409 16.5066 36.7224C15.6362 37.304 14.9579 38.1306 14.5573 39.0977C14.1567 40.0648 14.0519 41.1289 14.2561 42.1556C14.4603 43.1822 14.9644 44.1252 15.7046 44.8654C16.4448 45.6056 17.3878 46.1097 18.4145 46.3139C19.4411 46.5181 20.5053 46.4133 21.4723 46.0127C22.4394 45.6121 23.266 44.9338 23.8476 44.0634Z" fill="#930014"/>
</g>
</g>
</svg>
