<svg width="64" height="64" viewBox="0 0 64 64" fill="none" xmlns="http://www.w3.org/2000/svg">
<path fill-rule="evenodd" clip-rule="evenodd" d="M34.2304 50.5038C44.4498 50.5038 52.7343 42.2193 52.7343 31.9999C52.7343 21.7805 44.4498 13.4961 34.2304 13.4961C24.011 13.4961 15.7266 21.7805 15.7266 31.9999C15.7266 42.2193 24.011 50.5038 34.2304 50.5038ZM29.2627 25.7902C29.2627 24.1074 30.4465 23.4213 31.9067 24.2589L42.7609 30.4835C44.2216 31.3212 44.2216 32.6787 42.7609 33.5166L31.9067 39.7414C30.4465 40.5782 29.2627 39.8929 29.2627 38.2085V25.7902Z" fill="white" stroke="#383838"/>
<path d="M15.4263 19.8185C13.1285 18.5005 11.2656 19.5802 11.2656 22.2283V41.7698C11.2656 44.4205 13.1285 45.4989 15.4263 44.1821L32.5066 34.3867C34.8052 33.0681 34.8052 30.932 32.5066 29.6138L15.4263 19.8185Z" fill="white" stroke="#383838"/>
</svg>
