<svg width="64" height="64" viewBox="0 0 64 64" fill="none" xmlns="http://www.w3.org/2000/svg">
<path fill-rule="evenodd" clip-rule="evenodd" d="M16.1006 11.4843H47.8994V51.1551H16.1006V11.4843ZM20.6572 23.5805H43.3428V26.9499H20.6572V23.5805ZM40.084 30.0689H23.916V33.4383H40.084V30.0689Z" fill="white"/>
<path d="M47.8994 11.4843H48.3994V10.9843H47.8994V11.4843ZM16.1006 11.4843V10.9843H15.6006V11.4843H16.1006ZM47.8994 51.1551V51.6551H48.3994V51.1551H47.8994ZM16.1006 51.1551H15.6006V51.6551H16.1006V51.1551ZM43.3428 23.5805H43.8428V23.0805H43.3428V23.5805ZM20.6572 23.5805V23.0805H20.1572V23.5805H20.6572ZM43.3428 26.9499V27.4499H43.8428V26.9499H43.3428ZM20.6572 26.9499H20.1572V27.4499H20.6572V26.9499ZM23.916 30.0689V29.5689H23.416V30.0689H23.916ZM40.084 30.0689H40.584V29.5689H40.084V30.0689ZM23.916 33.4383H23.416V33.9383H23.916V33.4383ZM40.084 33.4383V33.9383H40.584V33.4383H40.084ZM47.8994 10.9843H16.1006V11.9843H47.8994V10.9843ZM48.3994 51.1551V11.4843H47.3994V51.1551H48.3994ZM16.1006 51.6551H47.8994V50.6551H16.1006V51.6551ZM15.6006 11.4843V51.1551H16.6006V11.4843H15.6006ZM43.3428 23.0805H20.6572V24.0805H43.3428V23.0805ZM43.8428 26.9499V23.5805H42.8428V26.9499H43.8428ZM20.6572 27.4499H43.3428V26.4499H20.6572V27.4499ZM20.1572 23.5805V26.9499H21.1572V23.5805H20.1572ZM23.916 30.5689H40.084V29.5689H23.916V30.5689ZM24.416 33.4383V30.0689H23.416V33.4383H24.416ZM40.084 32.9383H23.916V33.9383H40.084V32.9383ZM39.584 30.0689V33.4383H40.584V30.0689H39.584Z" fill="#383838"/>
<rect x="53.4951" y="7.81647" width="7.3356" height="42.9905" transform="rotate(90 53.4951 7.81647)" fill="white" stroke="#383838"/>
<rect x="53.4951" y="46.6746" width="7.3356" height="42.9905" transform="rotate(90 53.4951 46.6746)" fill="white" stroke="#383838"/>
</svg>
