<svg width="64" height="64" viewBox="0 0 64 64" fill="none" xmlns="http://www.w3.org/2000/svg">
<path fill-rule="evenodd" clip-rule="evenodd" d="M33.1966 14.748H13.6879C10.1507 14.748 7.29297 17.6109 7.29297 21.1429V40.6517C7.29297 44.1889 10.1558 47.0466 13.6879 47.0466H31.065L37.163 51.6201C38.1678 52.3735 39.5915 51.6474 39.5915 50.4059V21.1429C39.5915 17.6058 36.7287 14.748 33.1966 14.748ZM23.4434 40.681C24.5242 40.681 25.4004 39.8048 25.4004 38.724C25.4004 37.6432 24.5242 36.767 23.4434 36.767C22.3626 36.767 21.4864 37.6432 21.4864 38.724C21.4864 39.8048 22.3626 40.681 23.4434 40.681ZM23.5769 20.365C26.9787 20.4335 29.7815 23.1471 29.9577 26.5427C30.0515 28.3502 29.418 30.0673 28.1739 31.3776C27.4077 32.1846 26.4472 32.7767 25.4003 33.1074V33.8259C25.4003 34.9067 24.5241 35.7829 23.4433 35.7829C22.3624 35.7829 21.4862 34.9067 21.4862 33.8259V31.4534C21.4862 30.3726 22.3624 29.4964 23.4433 29.4964C24.1653 29.4964 24.8372 29.2074 25.3355 28.6827C25.8332 28.1584 26.0866 27.4704 26.049 26.7455C26.0152 26.0945 25.7329 25.4808 25.2542 25.0176C24.7749 24.5539 24.1514 24.2914 23.4981 24.2782C22.1736 24.252 21.0414 25.2156 20.8593 26.5206C20.8424 26.6408 20.834 26.7641 20.834 26.887C20.834 27.9679 19.9578 28.844 18.8769 28.844C17.7961 28.844 16.9199 27.9679 16.9199 26.887C16.9199 26.5837 16.9411 26.2784 16.9828 25.9796C17.4325 22.7564 20.1977 20.3636 23.4437 20.3636C23.4881 20.3636 23.5323 20.3641 23.5769 20.365Z" fill="#0096F0"/>
<g style="mix-blend-mode:multiply">
<path fill-rule="evenodd" clip-rule="evenodd" d="M45.7143 47.1238C51.7869 47.1238 56.7098 42.201 56.7098 36.1283C56.7098 30.0557 51.7869 25.1328 45.7143 25.1328C39.6416 25.1328 34.7188 30.0557 34.7188 36.1283C34.7188 42.201 39.6416 47.1238 45.7143 47.1238ZM49.1133 32.983C49.1133 34.8524 47.585 36.3805 45.7154 36.3805C43.8457 36.3805 42.3174 34.8524 42.3174 32.983C42.3174 31.1135 43.8457 29.5854 45.7154 29.5854C47.585 29.5854 49.1133 31.1135 49.1133 32.983ZM51.464 38.9105C51.4935 38.9711 51.5207 39.0328 51.5458 39.0957C51.5905 39.1846 51.5753 39.2885 51.5011 39.3776C51.3833 39.5853 51.2491 39.7782 51.1008 39.971C50.8935 40.2529 50.6557 40.5052 50.419 40.7425C50.2106 40.9502 49.9739 41.158 49.7361 41.336C48.5635 42.2113 47.1542 42.6713 45.7001 42.6713C44.246 42.6713 42.8367 42.2114 41.6651 41.336C41.4273 41.1431 41.1906 40.9502 40.9823 40.7425C40.7303 40.5052 40.5078 40.2529 40.2994 39.971C40.1663 39.793 40.018 39.5853 39.8991 39.3776C39.8544 39.2885 39.8402 39.1847 39.8849 39.0957C39.9733 38.8879 40.0922 38.6654 40.2252 38.4725C40.8939 37.4636 41.9618 36.796 43.1486 36.6328C43.297 36.6031 43.4606 36.6476 43.5784 36.7366C44.2024 37.1966 44.9441 37.4339 45.7154 37.4339C46.4866 37.4339 47.2283 37.1966 47.8523 36.7366C47.9701 36.6476 48.1337 36.6179 48.2821 36.6328C49.4689 36.796 50.5226 37.4636 51.2044 38.4725C51.3004 38.6109 51.3887 38.7569 51.464 38.9105Z" fill="#AFC300"/>
</g>
<mask id="mask0_1483_38569" style="mask-type:alpha" maskUnits="userSpaceOnUse" x="7" y="14" width="33" height="38">
<path fill-rule="evenodd" clip-rule="evenodd" d="M33.1966 14.748H13.6879C10.1507 14.748 7.29297 17.6109 7.29297 21.1429V40.6517C7.29297 44.1889 10.1558 47.0466 13.6879 47.0466H31.065L37.163 51.6201C38.1678 52.3735 39.5915 51.6474 39.5915 50.4059V21.1429C39.5915 17.6058 36.7287 14.748 33.1966 14.748ZM23.4434 40.681C24.5242 40.681 25.4004 39.8048 25.4004 38.724C25.4004 37.6432 24.5242 36.767 23.4434 36.767C22.3626 36.767 21.4864 37.6432 21.4864 38.724C21.4864 39.8048 22.3626 40.681 23.4434 40.681ZM23.5769 20.365C26.9787 20.4335 29.7815 23.1471 29.9577 26.5427C30.0515 28.3502 29.418 30.0673 28.1739 31.3776C27.4077 32.1846 26.4472 32.7767 25.4003 33.1074V33.8259C25.4003 34.9067 24.5241 35.7829 23.4433 35.7829C22.3624 35.7829 21.4862 34.9067 21.4862 33.8259V31.4534C21.4862 30.3726 22.3624 29.4964 23.4433 29.4964C24.1653 29.4964 24.8372 29.2074 25.3355 28.6827C25.8332 28.1584 26.0866 27.4704 26.049 26.7455C26.0152 26.0945 25.7329 25.4808 25.2542 25.0176C24.7749 24.5539 24.1514 24.2914 23.4981 24.2782C22.1736 24.252 21.0414 25.2156 20.8593 26.5206C20.8424 26.6408 20.834 26.7641 20.834 26.887C20.834 27.9679 19.9578 28.844 18.8769 28.844C17.7961 28.844 16.9199 27.9679 16.9199 26.887C16.9199 26.5837 16.9411 26.2784 16.9828 25.9796C17.4325 22.7564 20.1977 20.3636 23.4437 20.3636C23.4881 20.3636 23.5323 20.3641 23.5769 20.365Z" fill="#6E7B00"/>
</mask>
<g mask="url(#mask0_1483_38569)">
<g style="mix-blend-mode:multiply">
<path fill-rule="evenodd" clip-rule="evenodd" d="M45.7143 47.1258C51.7869 47.1258 56.7098 42.2029 56.7098 36.1303C56.7098 30.0576 51.7869 25.1348 45.7143 25.1348C39.6416 25.1348 34.7188 30.0576 34.7188 36.1303C34.7188 42.2029 39.6416 47.1258 45.7143 47.1258ZM49.1133 32.9849C49.1133 34.8543 47.585 36.3825 45.7154 36.3825C43.8457 36.3825 42.3174 34.8543 42.3174 32.9849C42.3174 31.1155 43.8457 29.5873 45.7154 29.5873C47.585 29.5873 49.1133 31.1155 49.1133 32.9849ZM51.464 38.9125C51.4935 38.973 51.5207 39.0347 51.5458 39.0976C51.5905 39.1866 51.5753 39.2905 51.5011 39.3795C51.3833 39.5872 51.2491 39.7801 51.1008 39.973C50.8935 40.2549 50.6557 40.5071 50.419 40.7445C50.2106 40.9522 49.9739 41.1599 49.7361 41.3379C48.5635 42.2133 47.1542 42.6733 45.7001 42.6733C44.246 42.6733 42.8367 42.2133 41.6651 41.3379C41.4273 41.1451 41.1906 40.9522 40.9823 40.7445C40.7303 40.5071 40.5078 40.2549 40.2994 39.973C40.1663 39.795 40.018 39.5872 39.8991 39.3795C39.8544 39.2905 39.8402 39.1866 39.8849 39.0976C39.9733 38.8899 40.0922 38.6673 40.2252 38.4745C40.8939 37.4656 41.9618 36.7979 43.1486 36.6347C43.297 36.605 43.4606 36.6495 43.5784 36.7386C44.2024 37.1985 44.9441 37.4359 45.7154 37.4359C46.4866 37.4359 47.2283 37.1985 47.8523 36.7386C47.9701 36.6495 48.1337 36.6199 48.2821 36.6347C49.4689 36.7979 50.5226 37.4656 51.2044 38.4745C51.3004 38.6128 51.3887 38.7589 51.464 38.9125Z" fill="#6E7B00"/>
</g>
</g>
</svg>
