<svg width="64" height="64" viewBox="0 0 64 64" fill="none" xmlns="http://www.w3.org/2000/svg">
<path fill-rule="evenodd" clip-rule="evenodd" d="M19.125 7.3634C16.9141 7.3634 15.125 9.15427 15.125 11.3634V45.977C15.125 48.1861 16.9141 49.977 19.125 49.977H43.3984C45.6094 49.977 47.3984 48.1861 47.3984 45.977V11.3634C47.3984 9.15427 45.6094 7.3634 43.3984 7.3634H19.125ZM21.0078 17.2859C21.0078 15.98 22.0664 14.9214 23.3711 14.9214H39.1484C40.4531 14.9214 41.5117 15.98 41.5117 17.2859C41.5117 18.5918 40.4531 19.6504 39.1484 19.6504H23.3711C22.0664 19.6504 21.0078 18.5918 21.0078 17.2859ZM21.0078 26.3739C21.0078 25.068 22.0664 24.0094 23.3711 24.0094H39.1484C40.4531 24.0094 41.5117 25.068 41.5117 26.3739C41.5117 27.6798 40.4531 28.7384 39.1484 28.7384H23.3711C22.0664 28.7384 21.0078 27.6798 21.0078 26.3739ZM21.0078 35.4619C21.0078 34.156 22.0664 33.0974 23.3711 33.0974H33.9375C35.2422 33.0974 36.3008 34.156 36.3008 35.4619C36.3008 36.7678 35.2422 37.8264 33.9375 37.8264H23.3711C22.0664 37.8264 21.0078 36.7678 21.0078 35.4619Z" fill="#FF2731"/>
<g style="mix-blend-mode:multiply">
<path fill-rule="evenodd" clip-rule="evenodd" d="M50.045 51.4658C51.783 49.911 52.8769 47.651 52.8769 45.1355C52.8769 40.4459 49.0753 36.6443 44.3857 36.6443C39.6962 36.6443 35.8945 40.4459 35.8945 45.1355C35.8945 47.6496 36.9872 49.9084 38.7234 51.4632V57.221C38.7248 57.5004 38.8089 57.7732 38.965 58.0049C39.1212 58.2366 39.3424 58.4168 39.6009 58.523C39.8586 58.6314 40.1426 58.661 40.4172 58.6081C40.6917 58.5552 40.9444 58.4222 41.1434 58.2258L44.3842 54.9709L47.625 58.2258C47.7573 58.357 47.9141 58.4608 48.0865 58.5312C48.2589 58.6016 48.4436 58.6373 48.6298 58.6362C48.8155 58.641 48.9996 58.6022 49.1676 58.523C49.426 58.4168 49.6473 58.2366 49.8034 58.0049C49.9596 57.7732 50.0436 57.5004 50.045 57.221V51.4658ZM44.3862 47.861C45.8915 47.861 47.1118 46.6407 47.1118 45.1355C47.1118 43.6302 45.8915 42.4099 44.3862 42.4099C42.881 42.4099 41.6607 43.6302 41.6607 45.1355C41.6607 46.6407 42.881 47.861 44.3862 47.861Z" fill="#0096F0"/>
</g>
<mask id="mask0_549_15767" style="mask-type:alpha" maskUnits="userSpaceOnUse" x="15" y="7" width="33" height="43">
<path fill-rule="evenodd" clip-rule="evenodd" d="M19.125 7.3634C16.9141 7.3634 15.125 9.15427 15.125 11.3634V45.977C15.125 48.1861 16.9141 49.977 19.125 49.977H43.3984C45.6094 49.977 47.3984 48.1861 47.3984 45.977V11.3634C47.3984 9.15427 45.6094 7.3634 43.3984 7.3634H19.125ZM21.0078 17.2859C21.0078 15.98 22.0664 14.9214 23.3711 14.9214H39.1484C40.4531 14.9214 41.5117 15.98 41.5117 17.2859C41.5117 18.5918 40.4531 19.6504 39.1484 19.6504H23.3711C22.0664 19.6504 21.0078 18.5918 21.0078 17.2859ZM21.0078 26.3739C21.0078 25.068 22.0664 24.0094 23.3711 24.0094H39.1484C40.4531 24.0094 41.5117 25.068 41.5117 26.3739C41.5117 27.6798 40.4531 28.7384 39.1484 28.7384H23.3711C22.0664 28.7384 21.0078 27.6798 21.0078 26.3739ZM21.0078 35.4619C21.0078 34.156 22.0664 33.0974 23.3711 33.0974H33.9375C35.2422 33.0974 36.3008 34.156 36.3008 35.4619C36.3008 36.7678 35.2422 37.8264 33.9375 37.8264H23.3711C22.0664 37.8264 21.0078 36.7678 21.0078 35.4619Z" fill="#930014"/>
</mask>
<g mask="url(#mask0_549_15767)">
<g style="mix-blend-mode:multiply">
<path fill-rule="evenodd" clip-rule="evenodd" d="M50.045 51.4658C51.783 49.911 52.8769 47.651 52.8769 45.1355C52.8769 40.4459 49.0753 36.6443 44.3857 36.6443C39.6962 36.6443 35.8945 40.4459 35.8945 45.1355C35.8945 47.6496 36.9872 49.9084 38.7234 51.4632V57.221C38.7248 57.5004 38.8089 57.7732 38.965 58.0049C39.1212 58.2366 39.3424 58.4168 39.6009 58.523C39.8586 58.6314 40.1426 58.661 40.4172 58.6081C40.6917 58.5552 40.9444 58.4222 41.1434 58.2258L44.3842 54.9709L47.625 58.2258C47.7573 58.357 47.9141 58.4608 48.0865 58.5312C48.2589 58.6016 48.4436 58.6373 48.6298 58.6362C48.8155 58.641 48.9996 58.6022 49.1676 58.523C49.426 58.4168 49.6473 58.2366 49.8034 58.0049C49.9596 57.7732 50.0436 57.5004 50.045 57.221V51.4658ZM44.3862 47.861C45.8915 47.861 47.1118 46.6407 47.1118 45.1355C47.1118 43.6302 45.8915 42.4099 44.3862 42.4099C42.881 42.4099 41.6607 43.6302 41.6607 45.1355C41.6607 46.6407 42.881 47.861 44.3862 47.861Z" fill="#930014"/>
</g>
</g>
</svg>
