<svg width="64" height="64" viewBox="0 0 64 64" fill="none" xmlns="http://www.w3.org/2000/svg">
<path fill-rule="evenodd" clip-rule="evenodd" d="M12.5407 14.6406H40.1326C41.5047 14.6406 42.8206 15.1893 43.7908 16.1659C44.761 17.1425 45.3061 18.4671 45.3061 19.8482V44.1505C45.3061 45.5316 44.761 46.8562 43.7908 47.8328C42.8206 48.8094 41.5047 49.3581 40.1326 49.3581H12.5407C11.1686 49.3581 9.85268 48.8094 8.88247 47.8328C7.91225 46.8562 7.36719 45.5316 7.36719 44.1505V19.8482C7.36719 18.4671 7.91225 17.1425 8.88247 16.1659C9.85268 15.1893 11.1686 14.6406 12.5407 14.6406ZM24.6121 19.8482H21.1631V23.32H24.6121V19.8482ZM17.7142 19.8482H14.2652V23.32H17.7142V19.8482ZM28.6684 28.2077H14.1812V31.4132H28.6684V28.2077ZM14.1812 33.6554H28.6684V36.8608H14.1812V33.6554ZM28.6684 39.1027H14.1812V42.3081H28.6684V39.1027Z" fill="#0096F0"/>
<g style="mix-blend-mode:multiply">
<path fill-rule="evenodd" clip-rule="evenodd" d="M51.8791 27.7466C51.8791 31.3609 48.9244 34.3154 45.3096 34.3154C41.6948 34.3154 38.7401 31.3609 38.7401 27.7466C38.7401 24.1323 41.6948 21.1777 45.3096 21.1777C48.9244 21.1777 51.8791 24.1323 51.8791 27.7466ZM56.4239 39.2069C56.4809 39.3239 56.5336 39.4432 56.5821 39.5648C56.6686 39.7368 56.6391 39.9377 56.4956 40.1098C56.2679 40.5114 56.0085 40.8843 55.7216 41.2572C55.3209 41.8022 54.8612 42.2899 54.4035 42.7488C54.0007 43.1504 53.5431 43.552 53.0833 43.8962C50.8162 45.5886 48.0914 46.4778 45.2801 46.4778C42.4688 46.4778 39.744 45.5886 37.479 43.8962C37.0192 43.5233 36.5616 43.1504 36.1588 42.7488C35.6716 42.2899 35.2413 41.8022 34.8385 41.2572C34.5812 40.913 34.2944 40.5114 34.0645 40.1098C33.9781 39.9377 33.9507 39.7369 34.0371 39.5648C34.2079 39.1632 34.4378 38.7329 34.6951 38.36C35.9879 36.4094 38.0526 35.1186 40.3472 34.8031C40.634 34.7457 40.9504 34.8317 41.1781 35.0038C42.3845 35.8931 43.8186 36.352 45.3096 36.352C46.8007 36.352 48.2348 35.8931 49.4411 35.0038C49.6689 34.8317 49.9852 34.7744 50.272 34.8031C52.5666 35.1186 54.6039 36.4094 55.922 38.36C56.1076 38.6275 56.2784 38.9098 56.4239 39.2069Z" fill="#AFC300"/>
</g>
<mask id="mask0_1483_38592" style="mask-type:alpha" maskUnits="userSpaceOnUse" x="7" y="14" width="39" height="36">
<path fill-rule="evenodd" clip-rule="evenodd" d="M12.5407 14.6406H40.1326C41.5047 14.6406 42.8206 15.1893 43.7908 16.1659C44.761 17.1425 45.3061 18.4671 45.3061 19.8482V44.1505C45.3061 45.5316 44.761 46.8562 43.7908 47.8328C42.8206 48.8094 41.5047 49.3581 40.1326 49.3581H12.5407C11.1686 49.3581 9.85268 48.8094 8.88247 47.8328C7.91225 46.8562 7.36719 45.5316 7.36719 44.1505V19.8482C7.36719 18.4671 7.91225 17.1425 8.88247 16.1659C9.85268 15.1893 11.1686 14.6406 12.5407 14.6406ZM24.6121 19.8482H21.1631V23.32H24.6121V19.8482ZM17.7142 19.8482H14.2652V23.32H17.7142V19.8482ZM28.6684 28.2077H14.1812V31.4132H28.6684V28.2077ZM14.1812 33.6554H28.6684V36.8608H14.1812V33.6554ZM28.6684 39.1027H14.1812V42.3081H28.6684V39.1027Z" fill="#6E7B00"/>
</mask>
<g mask="url(#mask0_1483_38592)">
<g style="mix-blend-mode:multiply">
<path fill-rule="evenodd" clip-rule="evenodd" d="M51.8791 27.7466C51.8791 31.3609 48.9244 34.3154 45.3096 34.3154C41.6948 34.3154 38.7401 31.3609 38.7401 27.7466C38.7401 24.1323 41.6948 21.1777 45.3096 21.1777C48.9244 21.1777 51.8791 24.1323 51.8791 27.7466ZM56.4239 39.2069C56.4809 39.3239 56.5336 39.4432 56.5821 39.5648C56.6686 39.7368 56.6391 39.9377 56.4956 40.1098C56.2679 40.5114 56.0085 40.8843 55.7216 41.2572C55.3209 41.8022 54.8612 42.2899 54.4035 42.7488C54.0007 43.1504 53.5431 43.552 53.0833 43.8962C50.8162 45.5886 48.0914 46.4778 45.2801 46.4778C42.4688 46.4778 39.744 45.5886 37.479 43.8962C37.0192 43.5233 36.5616 43.1504 36.1588 42.7488C35.6716 42.2899 35.2413 41.8022 34.8385 41.2572C34.5812 40.913 34.2944 40.5114 34.0645 40.1098C33.9781 39.9377 33.9507 39.7369 34.0371 39.5648C34.2079 39.1632 34.4378 38.7329 34.6951 38.36C35.9879 36.4094 38.0526 35.1186 40.3472 34.8031C40.634 34.7457 40.9504 34.8317 41.1781 35.0038C42.3845 35.8931 43.8186 36.352 45.3096 36.352C46.8007 36.352 48.2348 35.8931 49.4411 35.0038C49.6689 34.8317 49.9852 34.7744 50.272 34.8031C52.5666 35.1186 54.6039 36.4094 55.922 38.36C56.1076 38.6275 56.2784 38.9098 56.4239 39.2069Z" fill="#6E7B00"/>
</g>
</g>
</svg>
