<svg width="64" height="64" viewBox="0 0 64 64" fill="none" xmlns="http://www.w3.org/2000/svg">
<g style="mix-blend-mode:multiply">
<path fill-rule="evenodd" clip-rule="evenodd" d="M35.0112 21.5543C35.0112 26.6392 31.0963 30.7959 26.3067 30.7959C21.5171 30.7959 17.6022 26.6392 17.6022 21.5543C17.6022 16.4693 21.5171 12.3125 26.3067 12.3125C31.0963 12.3125 35.0112 16.4693 35.0112 21.5543ZM41.0332 37.6777C41.1086 37.8424 41.1785 38.0102 41.2427 38.1813C41.3573 38.4233 41.3182 38.7059 41.1282 38.948C40.8264 39.5131 40.4827 40.0377 40.1026 40.5623C39.5717 41.3291 38.9625 42.0152 38.3561 42.6609C37.8224 43.2259 37.216 43.791 36.6068 44.2752C33.6029 46.6562 29.9925 47.9073 26.2676 47.9073C22.5427 47.9073 18.9323 46.6563 15.9311 44.2752C15.3219 43.7505 14.7156 43.2259 14.1818 42.6609C13.5363 42.0152 12.9663 41.3292 12.4325 40.5623C12.0916 40.0782 11.7116 39.5131 11.407 38.948C11.2924 38.7059 11.2561 38.4234 11.3707 38.1813C11.597 37.6163 11.9016 37.0109 12.2425 36.4863C13.9555 33.7419 16.6912 31.926 19.7315 31.482C20.1115 31.4012 20.5307 31.5223 20.8325 31.7644C22.4309 33.0155 24.3311 33.6613 26.3067 33.6613C28.2823 33.6613 30.1825 33.0155 31.7809 31.7644C32.0827 31.5223 32.5019 31.4417 32.8819 31.482C35.9222 31.926 38.6216 33.7419 40.3681 36.4863C40.614 36.8626 40.8403 37.2598 41.0332 37.6777Z" fill="#0096F0"/>
</g>
<g style="mix-blend-mode:multiply">
<path d="M51.3401 37.7331C50.8968 37.6688 50.4738 37.5052 50.1025 37.2546C49.7312 37.0041 49.4212 36.673 49.1956 36.2861C48.97 35.8991 48.8346 35.4662 48.7995 35.0197C48.7644 34.5731 48.8304 34.1244 48.9928 33.707C49.096 33.434 49.1112 33.1357 49.0362 32.8537C48.9613 32.5717 48.8 32.3202 48.575 32.1345C47.5814 31.3001 46.4504 30.6447 45.2325 30.1973C44.9551 30.0943 44.6524 30.0814 44.3673 30.1606C44.0822 30.2397 43.8294 30.4067 43.6448 30.6379C43.367 30.9932 43.0119 31.2805 42.6065 31.4781C42.2011 31.6757 41.756 31.7784 41.305 31.7784C40.854 31.7784 40.409 31.6757 40.0036 31.4781C39.5982 31.2805 39.2431 30.9932 38.9653 30.6379C38.7807 30.4067 38.5279 30.2397 38.2428 30.1606C37.9577 30.0814 37.6549 30.0943 37.3776 30.1973C36.2531 30.6103 35.2016 31.2001 34.263 31.9445C34.0264 32.1319 33.856 32.39 33.7767 32.6812C33.6974 32.9723 33.7134 33.2812 33.8224 33.5626C33.9977 33.9911 34.0701 34.4548 34.0339 34.9163C33.9976 35.3779 33.8537 35.8245 33.6137 36.2204C33.3736 36.6163 33.0441 36.9504 32.6516 37.196C32.2591 37.4415 31.8145 37.5917 31.3535 37.6344C31.0542 37.6664 30.7731 37.7936 30.5516 37.9974C30.33 38.2012 30.1797 38.4707 30.1229 38.7663C29.9814 39.4665 29.9102 40.179 29.9102 40.8933C29.9091 41.4913 29.9574 42.0884 30.0545 42.6785C30.1028 42.9836 30.2503 43.2642 30.4741 43.477C30.6979 43.6899 30.9856 43.8231 31.2927 43.856C31.7639 43.9002 32.2176 44.0566 32.6158 44.3122C33.0141 44.5677 33.3454 44.9149 33.5819 45.3248C33.8185 45.7346 33.9534 46.1952 33.9754 46.6679C33.9974 47.1405 33.9059 47.6116 33.7085 48.0417C33.5793 48.3214 33.5472 48.6363 33.6174 48.9363C33.6876 49.2364 33.856 49.5044 34.0959 49.6977C35.0835 50.517 36.2036 51.1618 37.408 51.6045C37.562 51.6578 37.7236 51.686 37.8866 51.688C38.11 51.6876 38.3301 51.6335 38.5284 51.5304C38.7267 51.4273 38.8973 51.2782 39.0261 51.0955C39.2968 50.701 39.6598 50.3786 40.0834 50.1562C40.507 49.9338 40.9785 49.8181 41.457 49.8193C41.9206 49.8199 42.3776 49.9287 42.7917 50.1371C43.2058 50.3454 43.5656 50.6476 43.8423 51.0196C44.0264 51.267 44.2871 51.4466 44.5839 51.5304C44.8807 51.6142 45.1968 51.5975 45.4832 51.4829C46.5844 51.0397 47.6097 50.4271 48.5218 49.6674C48.7509 49.4779 48.9141 49.2207 48.9878 48.9327C49.0615 48.6447 49.042 48.3407 48.932 48.0645C48.7533 47.6415 48.6754 47.1828 48.7044 46.7245C48.7334 46.2662 48.8686 45.821 49.0992 45.4239C49.3298 45.0268 49.6495 44.6888 50.0331 44.4364C50.4168 44.1841 50.8538 44.0244 51.3097 43.9699C51.6054 43.929 51.8803 43.7951 52.0948 43.5875C52.3092 43.3799 52.452 43.1094 52.5024 42.8152C52.6244 42.1816 52.6905 41.5385 52.6999 40.8933C52.7001 40.2128 52.6365 39.5337 52.51 38.865C52.4587 38.5773 52.3181 38.3131 52.108 38.11C51.898 37.9068 51.6293 37.7749 51.3401 37.7331ZM45.1033 40.8933C45.1033 41.6445 44.8806 42.3789 44.4632 43.0035C44.0458 43.6282 43.4526 44.115 42.7586 44.4025C42.0645 44.69 41.3008 44.7652 40.564 44.6186C39.8272 44.4721 39.1504 44.1103 38.6192 43.5791C38.088 43.0479 37.7263 42.3711 37.5797 41.6343C37.4332 40.8975 37.5084 40.1338 37.7959 39.4398C38.0834 38.7457 38.5702 38.1525 39.1948 37.7352C39.8194 37.3178 40.5538 37.095 41.305 37.095C42.3124 37.095 43.2785 37.4952 43.9908 38.2075C44.7032 38.9198 45.1033 39.8859 45.1033 40.8933Z" fill="#AFC300"/>
</g>
<mask id="mask0_1483_38611" style="mask-type:alpha" maskUnits="userSpaceOnUse" x="11" y="12" width="31" height="36">
<g style="mix-blend-mode:multiply">
<path fill-rule="evenodd" clip-rule="evenodd" d="M35.0112 21.5543C35.0112 26.6392 31.0963 30.7959 26.3067 30.7959C21.5171 30.7959 17.6022 26.6392 17.6022 21.5543C17.6022 16.4693 21.5171 12.3125 26.3067 12.3125C31.0963 12.3125 35.0112 16.4693 35.0112 21.5543ZM41.0332 37.6777C41.1086 37.8424 41.1785 38.0102 41.2427 38.1813C41.3573 38.4233 41.3182 38.7059 41.1282 38.948C40.8264 39.5131 40.4827 40.0377 40.1026 40.5623C39.5717 41.3291 38.9625 42.0152 38.3561 42.6609C37.8224 43.2259 37.216 43.791 36.6068 44.2752C33.6029 46.6562 29.9925 47.9073 26.2676 47.9073C22.5427 47.9073 18.9323 46.6563 15.9311 44.2752C15.3219 43.7505 14.7156 43.2259 14.1818 42.6609C13.5363 42.0152 12.9663 41.3292 12.4325 40.5623C12.0916 40.0782 11.7116 39.5131 11.407 38.948C11.2924 38.7059 11.2561 38.4234 11.3707 38.1813C11.597 37.6163 11.9016 37.0109 12.2425 36.4863C13.9555 33.7419 16.6912 31.926 19.7315 31.482C20.1115 31.4012 20.5307 31.5223 20.8325 31.7644C22.4309 33.0155 24.3311 33.6613 26.3067 33.6613C28.2823 33.6613 30.1825 33.0155 31.7809 31.7644C32.0827 31.5223 32.5019 31.4417 32.8819 31.482C35.9222 31.926 38.6216 33.7419 40.3681 36.4863C40.614 36.8626 40.8403 37.2598 41.0332 37.6777Z" fill="#6E7B00"/>
</g>
</mask>
<g mask="url(#mask0_1483_38611)">
<g style="mix-blend-mode:multiply">
<path d="M51.344 37.7331C50.9008 37.6688 50.4777 37.5052 50.1064 37.2546C49.7351 37.0041 49.4251 36.673 49.1995 36.2861C48.9739 35.8991 48.8385 35.4662 48.8034 35.0197C48.7683 34.5731 48.8343 34.1244 48.9967 33.707C49.0999 33.434 49.1151 33.1357 49.0402 32.8537C48.9652 32.5717 48.8039 32.3202 48.5789 32.1345C47.5853 31.3001 46.4543 30.6447 45.2364 30.1973C44.959 30.0943 44.6563 30.0814 44.3712 30.1606C44.0861 30.2397 43.8333 30.4067 43.6487 30.6379C43.3709 30.9932 43.0158 31.2805 42.6104 31.4781C42.205 31.6757 41.7599 31.7784 41.3089 31.7784C40.858 31.7784 40.4129 31.6757 40.0075 31.4781C39.6021 31.2805 39.247 30.9932 38.9692 30.6379C38.7846 30.4067 38.5318 30.2397 38.2467 30.1606C37.9616 30.0814 37.6588 30.0943 37.3815 30.1973C36.257 30.6103 35.2055 31.2001 34.2669 31.9445C34.0303 32.1319 33.8599 32.39 33.7806 32.6812C33.7013 32.9723 33.7173 33.2812 33.8263 33.5626C34.0016 33.9911 34.074 34.4548 34.0378 34.9163C34.0015 35.3779 33.8576 35.8245 33.6176 36.2204C33.3775 36.6163 33.048 36.9504 32.6555 37.196C32.263 37.4415 31.8184 37.5917 31.3574 37.6344C31.0581 37.6664 30.777 37.7936 30.5555 37.9974C30.3339 38.2012 30.1837 38.4707 30.1268 38.7663C29.9853 39.4665 29.9141 40.179 29.9141 40.8933C29.913 41.4913 29.9613 42.0884 30.0584 42.6785C30.1067 42.9836 30.2542 43.2642 30.478 43.477C30.7019 43.6899 30.9896 43.8231 31.2967 43.856C31.7678 43.9002 32.2215 44.0566 32.6198 44.3122C33.018 44.5677 33.3493 44.9149 33.5858 45.3248C33.8224 45.7346 33.9573 46.1952 33.9793 46.6679C34.0013 47.1405 33.9098 47.6116 33.7124 48.0417C33.5832 48.3214 33.5511 48.6363 33.6213 48.9363C33.6915 49.2364 33.8599 49.5044 34.0998 49.6977C35.0874 50.517 36.2075 51.1618 37.4119 51.6045C37.5659 51.6578 37.7275 51.686 37.8905 51.688C38.114 51.6876 38.334 51.6335 38.5323 51.5304C38.7306 51.4273 38.9012 51.2782 39.03 51.0955C39.3007 50.701 39.6637 50.3786 40.0873 50.1562C40.5109 49.9338 40.9824 49.8181 41.4609 49.8193C41.9245 49.8199 42.3815 49.9287 42.7956 50.1371C43.2097 50.3454 43.5695 50.6476 43.8462 51.0196C44.0303 51.267 44.291 51.4466 44.5878 51.5304C44.8846 51.6142 45.2008 51.5975 45.4871 51.4829C46.5883 51.0397 47.6136 50.4271 48.5257 49.6674C48.7548 49.4779 48.918 49.2207 48.9917 48.9327C49.0654 48.6447 49.0459 48.3407 48.9359 48.0645C48.7572 47.6415 48.6793 47.1828 48.7083 46.7245C48.7374 46.2662 48.8725 45.821 49.1031 45.4239C49.3337 45.0268 49.6534 44.6888 50.037 44.4364C50.4207 44.1841 50.8577 44.0244 51.3136 43.9699C51.6093 43.929 51.8842 43.7951 52.0987 43.5875C52.3131 43.3799 52.4559 43.1094 52.5063 42.8152C52.6283 42.1816 52.6944 41.5385 52.7038 40.8933C52.704 40.2128 52.6404 39.5337 52.5139 38.865C52.4626 38.5773 52.322 38.3131 52.112 38.11C51.9019 37.9068 51.6332 37.7749 51.344 37.7331ZM45.1072 40.8933C45.1072 41.6445 44.8845 42.3789 44.4671 43.0035C44.0497 43.6282 43.4565 44.115 42.7625 44.4025C42.0684 44.69 41.3047 44.7652 40.5679 44.6186C39.8311 44.4721 39.1543 44.1103 38.6231 43.5791C38.0919 43.0479 37.7302 42.3711 37.5836 41.6343C37.4371 40.8975 37.5123 40.1338 37.7998 39.4398C38.0873 38.7457 38.5741 38.1525 39.1987 37.7352C39.8234 37.3178 40.5577 37.095 41.3089 37.095C42.3163 37.095 43.2824 37.4952 43.9947 38.2075C44.7071 38.9198 45.1072 39.8859 45.1072 40.8933Z" fill="#6E7B00"/>
</g>
</g>
</svg>
