<svg width="64" height="64" viewBox="0 0 64 64" fill="none" xmlns="http://www.w3.org/2000/svg">
<path d="M20.9248 34.7638C22.1914 37.9557 24.7197 40.5145 27.8901 41.8231L26.9189 51.6328H18.5703V56.1066H46.8472V51.6328H38.4985L37.5273 41.8231C40.6978 40.5145 43.2256 37.9559 44.4927 34.7639C45.0723 33.3042 45.2725 31.7548 45.2725 31.7548C45.3433 31.2145 45.3799 30.6636 45.3799 30.1042V11.5254H20.0371L20.0386 30.2968C20.0459 30.7902 20.0825 31.2766 20.1445 31.7548C20.2249 32.3746 20.7278 34.2672 20.9248 34.7638Z" fill="#0096F0"/>
<g style="mix-blend-mode:multiply">
<path d="M57.994 25.2198C57.8132 24.6606 57.3172 24.2635 56.7304 24.2106L48.7594 23.4868L45.6075 16.1094C45.3751 15.5687 44.8458 15.2188 44.2577 15.2188C43.6697 15.2188 43.1404 15.5687 42.908 16.1107L39.756 23.4868L31.7838 24.2106C31.1981 24.2647 30.7033 24.6606 30.5215 25.2198C30.3396 25.7791 30.5076 26.3924 30.9507 26.7791L36.9758 32.0631L35.1991 39.8893C35.0691 40.4647 35.2925 41.0596 35.7699 41.4047C36.0266 41.5901 36.3268 41.6845 36.6296 41.6845C36.8907 41.6845 37.1496 41.6141 37.382 41.4751L44.2577 37.3657L51.1309 41.4751C51.6339 41.7776 52.2679 41.75 52.7443 41.4047C53.2219 41.0585 53.4451 40.4635 53.3151 39.8893L51.5384 32.0631L57.5635 26.7801C58.0066 26.3924 58.1758 25.7801 57.994 25.2198Z" fill="#AFC300"/>
</g>
</svg>
