<svg width="64" height="64" viewBox="0 0 64 64" fill="none" xmlns="http://www.w3.org/2000/svg">
<path d="M5.60547 27.3137V38.3928C5.60547 41.5832 8.19179 44.1696 11.3823 44.1696H42.6383C45.8288 44.1696 48.4151 41.5832 48.4151 38.3928V27.3137C48.4151 26.7588 47.9653 26.309 47.4104 26.309H6.61013C6.0553 26.309 5.60547 26.7588 5.60547 27.3137ZM16.2939 34.3463H13.6149C12.6438 34.3463 11.8567 33.5591 11.8567 32.5881C11.8567 31.6171 12.6438 30.83 13.6149 30.83H16.2939C17.2649 30.83 18.0521 31.6171 18.0521 32.5881C18.0521 33.5591 17.2649 34.3463 16.2939 34.3463Z" fill="#0096F0"/>
<path d="M48.4151 21.788V21.4253C48.4151 18.2348 45.8288 15.6485 42.6383 15.6485H11.3823C8.19179 15.6485 5.60547 18.2348 5.60547 21.4253V21.788C5.60547 22.3429 6.0553 22.7927 6.61013 22.7927H47.4104C47.9653 22.7927 48.4151 22.3429 48.4151 21.788Z" fill="#0096F0"/>
<g style="mix-blend-mode:multiply">
<path d="M46.9741 29.7716C40.6662 29.7716 35.5527 34.9544 35.5527 41.3476C35.5527 47.7408 40.6663 52.9235 46.9741 52.9235C53.2819 52.9235 58.3955 47.7408 58.3955 41.3476C58.3956 34.9544 53.282 29.7716 46.9741 29.7716ZM48.272 47.1259V49.0449H45.6291V47.282C44.6081 47.1302 43.7006 46.7239 42.9168 46.108L43.8646 43.4499C44.6332 44.0538 45.7315 44.6056 46.6758 44.6056C47.4 44.6056 47.8681 44.2732 47.8681 43.7587C47.8681 43.4243 47.7605 43.0236 46.4766 42.5003C44.8694 41.8661 43.2241 40.9358 43.2241 38.8522C43.2241 37.2791 44.1856 36.0153 45.7461 35.517V33.6501H48.3726V35.3515C49.1718 35.4762 50.0266 35.8659 50.7298 36.3196L49.7447 38.9358C49.0365 38.4635 48.0324 38.0052 47.2266 38.0052C46.3458 38.0052 46.2506 38.4566 46.2506 38.6506C46.2506 38.9545 46.364 39.2167 47.8307 39.8269C49.2648 40.4153 50.9109 41.3804 50.9109 43.641C50.911 45.256 49.8811 46.6067 48.272 47.1259Z" fill="#AFC300"/>
</g>
<mask id="mask0_619_11530" style="mask-type:alpha" maskUnits="userSpaceOnUse" x="5" y="15" width="44" height="30">
<path d="M5.60547 27.3137V38.3928C5.60547 41.5832 8.19179 44.1696 11.3823 44.1696H42.6383C45.8288 44.1696 48.4151 41.5832 48.4151 38.3928V27.3137C48.4151 26.7588 47.9653 26.309 47.4104 26.309H6.61013C6.0553 26.309 5.60547 26.7588 5.60547 27.3137ZM16.2939 34.3463H13.6149C12.6438 34.3463 11.8567 33.5591 11.8567 32.5881C11.8567 31.6171 12.6438 30.83 13.6149 30.83H16.2939C17.2649 30.83 18.0521 31.6171 18.0521 32.5881C18.0521 33.5591 17.2649 34.3463 16.2939 34.3463Z" fill="#6E7B00"/>
<path d="M48.4151 21.788V21.4253C48.4151 18.2348 45.8288 15.6485 42.6383 15.6485H11.3823C8.19179 15.6485 5.60547 18.2348 5.60547 21.4253V21.788C5.60547 22.3429 6.0553 22.7927 6.61013 22.7927H47.4104C47.9653 22.7927 48.4151 22.3429 48.4151 21.788Z" fill="#6E7B00"/>
</mask>
<g mask="url(#mask0_619_11530)">
<g style="mix-blend-mode:multiply">
<path d="M46.9741 29.7716C40.6662 29.7716 35.5527 34.9544 35.5527 41.3476C35.5527 47.7408 40.6663 52.9235 46.9741 52.9235C53.2819 52.9235 58.3955 47.7408 58.3955 41.3476C58.3956 34.9544 53.282 29.7716 46.9741 29.7716ZM48.272 47.1259V49.0449H45.6291V47.282C44.6081 47.1302 43.7006 46.7239 42.9168 46.108L43.8646 43.4499C44.6332 44.0538 45.7315 44.6056 46.6758 44.6056C47.4 44.6056 47.8681 44.2732 47.8681 43.7587C47.8681 43.4243 47.7605 43.0236 46.4766 42.5003C44.8694 41.8661 43.2241 40.9358 43.2241 38.8522C43.2241 37.2791 44.1856 36.0153 45.7461 35.517V33.6501H48.3726V35.3515C49.1718 35.4762 50.0266 35.8659 50.7298 36.3196L49.7447 38.9358C49.0365 38.4635 48.0324 38.0052 47.2266 38.0052C46.3458 38.0052 46.2506 38.4566 46.2506 38.6506C46.2506 38.9545 46.364 39.2167 47.8307 39.8269C49.2648 40.4153 50.9109 41.3804 50.9109 43.641C50.911 45.256 49.8811 46.6067 48.272 47.1259Z" fill="#6E7B00"/>
</g>
</g>
</svg>
