<svg width="64" height="65" viewBox="0 0 64 65" fill="none" xmlns="http://www.w3.org/2000/svg">
<path d="M28.001 12.9892C28.001 9.66609 30.3958 6.97217 33.35 6.97217H55.0703C58.0245 6.97217 60.4193 9.66609 60.4193 12.9892V39.9105C60.4193 43.2336 58.0245 45.9275 55.0703 45.9275H33.35C30.3958 45.9275 28.001 43.2336 28.001 39.9105V12.9892Z" fill="white" stroke="#383838"/>
<path d="M38.7285 26.844C38.0384 29.4826 36.4279 30.0639 35.5687 30.1805C35.0393 31.2387 33.8759 33.4014 32.712 34.488C32.2468 34.9222 31.6422 35.2886 30.9152 35.5772C29.9869 35.9455 29.0066 36.1323 28.0017 36.1323C26.9968 36.1323 26.0165 35.9455 25.0883 35.5772C24.3614 35.2888 23.7567 34.9224 23.2915 34.488C22.1274 33.4016 20.9639 31.2387 20.4346 30.1805C19.5755 30.0639 17.9651 29.4828 17.275 26.844C16.9059 25.4329 17.0004 24.2826 17.556 23.425C17.8016 23.0459 18.0993 22.7878 18.3766 22.6129C18.3774 22.3313 18.3891 21.9786 18.4218 21.5774C17.9227 20.8839 17.2441 19.3874 18.0845 16.9651C18.9728 14.4044 20.9811 14.0089 21.9505 13.9746C22.2783 13.3654 22.8974 12.5005 24.0217 11.7053C25.2698 10.8221 26.8995 10.3358 28.6105 10.3358C30.716 10.3358 32.8347 11.0768 34.7374 12.4788C37.8222 14.7518 37.5579 19.7938 37.4823 20.7092C37.5942 21.4766 37.6253 22.1422 37.6267 22.6127C37.9039 22.7876 38.2016 23.0457 38.4472 23.4248C39.0029 24.2826 39.0974 25.4327 38.7285 26.844ZM47.7503 46.4932V53.6503C47.7503 54.2102 47.2962 54.6643 46.7363 54.6643H9.26694C8.707 54.6643 8.25293 54.2102 8.25293 53.6503V46.4932C8.25293 43.5611 10.012 40.9628 12.7344 39.8738L21.5999 36.3276C21.855 36.2258 22.1406 36.2313 22.3914 36.344C22.6421 36.4564 22.8366 36.6659 22.9299 36.9242L25.1587 43.0859L25.5999 41.8172L24.8979 40.1009C24.7701 39.7882 24.8062 39.4323 24.9946 39.1518C25.183 38.8713 25.4985 38.703 25.8364 38.703H30.167C30.5049 38.703 30.8207 38.8713 31.0089 39.1518C31.1973 39.4323 31.2334 39.7882 31.1056 40.1009L30.4035 41.8172L30.8448 43.0859L33.0736 36.9242C33.1669 36.6659 33.3614 36.4564 33.612 36.344C33.8629 36.2315 34.1486 36.226 34.4036 36.3276L43.269 39.8738C45.9914 40.9628 47.7503 43.5611 47.7503 46.4932Z" fill="white" stroke="#383838"/>
</svg>
