<svg width="48" height="48" viewBox="0 0 48 48" fill="none" xmlns="http://www.w3.org/2000/svg">
<path d="M9.95023 6.62561C6.58634 6.62561 3.85938 9.35258 3.85938 12.7165V35.2836C3.85938 38.6475 6.58634 41.3744 9.95023 41.3744H25.7924C29.1563 41.3744 31.8833 38.6474 31.8833 35.2836V12.7165C31.8833 9.35258 29.1563 6.62561 25.7924 6.62561H9.95023ZM9.62798 13.7102H26.1141V17.9404H9.62798V13.7102ZM9.62798 24.3999V21.9459H12.4622V24.3999H9.62798ZM9.62798 27.3844H12.4622V29.8384H9.62798V27.3844ZM9.62798 35.2766V32.8227H12.4622V35.2766H9.62798ZM16.4549 21.9459H19.2891V24.3999H16.4549V21.9459ZM16.4549 29.8384V27.3844H19.2891V29.8384H16.4549ZM16.4549 32.8227H19.2891V35.2766H16.4549V32.8227ZM23.2808 24.3999V21.9459H26.115V24.3999H23.2808ZM23.2808 27.3844H26.115V29.8384H23.2808V27.3844ZM23.2808 35.2766V32.8227H26.115V35.2766H23.2808Z" fill="white" stroke="#383838"/>
<path d="M36.0552 31.855H36.5552V31.355V29.6724C37.641 29.1449 38.3995 28.0386 38.3995 26.7442C38.3995 25.1866 37.3047 23.8807 35.8439 23.5555H36.0552H37.8995H38.3995V23.0555C38.3995 21.7611 37.641 20.6547 36.5552 20.1273V18.4447V17.9447H36.0552H34.2109H33.7109V18.4447V20.1273C32.6252 20.6547 31.8666 21.7611 31.8666 23.0555C31.8666 24.6131 32.9614 25.919 34.4222 26.2442H34.2109H32.3666H31.8666V26.7442C31.8666 28.0386 32.6252 29.1449 33.7109 29.6724V31.355V31.855H34.2109H36.0552ZM34.7109 26.7442V26.2949C34.8491 26.3128 34.99 26.322 35.1331 26.322C35.3657 26.322 35.5552 26.5115 35.5552 26.7442C35.5552 26.9768 35.3657 27.1663 35.1331 27.1663C34.9004 27.1663 34.7109 26.9768 34.7109 26.7442ZM35.5552 23.0555V23.5048C35.417 23.4869 35.2761 23.4777 35.1331 23.4777C34.9004 23.4777 34.7109 23.2882 34.7109 23.0555C34.7109 22.8229 34.9004 22.6333 35.1331 22.6333C35.3657 22.6333 35.5552 22.8229 35.5552 23.0555ZM25.4893 24.8998C25.4893 19.5827 29.8159 15.256 35.1331 15.256C40.4502 15.256 44.7769 19.5827 44.7769 24.8998C44.7769 30.217 40.4502 34.5436 35.1331 34.5436C29.8159 34.5436 25.4893 30.217 25.4893 24.8998Z" fill="white" stroke="#383838"/>
</svg>
