<svg width="64" height="64" viewBox="0 0 64 64" fill="none" xmlns="http://www.w3.org/2000/svg">
<path fill-rule="evenodd" clip-rule="evenodd" d="M15.5002 15.29H44.7722C46.2279 15.29 47.6239 15.8721 48.6532 16.9082C49.6825 17.9443 50.2607 19.3495 50.2607 20.8148V46.5967C50.2607 48.062 49.6825 49.4672 48.6532 50.5033C47.6239 51.5394 46.2279 52.1215 44.7722 52.1215H15.5002C14.0446 52.1215 12.6486 51.5394 11.6193 50.5033C10.59 49.4672 10.0117 48.062 10.0117 46.5967V20.8148C10.0117 19.3495 10.59 17.9443 11.6193 16.9082C12.6486 15.8721 14.0446 15.29 15.5002 15.29ZM28.3067 20.8148H24.6477V24.4979H28.3067V20.8148ZM20.9887 20.8148H17.3297V24.4979H20.9887V20.8148ZM32.61 29.6833H17.2406V33.0839H32.61V29.6833ZM17.2406 36.4627H42.61V39.8633H17.2406V36.4627ZM42.61 43.2417H17.2406V46.6423H42.61V43.2417Z" fill="white" stroke="#383838"/>
<path fill-rule="evenodd" clip-rule="evenodd" d="M45.3156 28.5347L37.2417 31.3989C36.6922 31.594 36.0808 31.456 35.6692 31.0444C35.2577 30.6329 35.1197 30.0215 35.3148 29.472L38.1789 21.3981C38.1956 21.3529 38.2194 21.3125 38.2551 21.2792L51.5031 8.08903C52.557 7.03518 54.2674 7.03518 55.3212 8.08903L58.6849 11.4527C59.7388 12.5066 59.7388 14.217 58.6849 15.2708L45.4345 28.4586C45.4012 28.4943 45.3608 28.5181 45.3156 28.5347Z" fill="white" stroke="#383838"/>
</svg>
