<svg width="64" height="64" viewBox="0 0 64 64" fill="none" xmlns="http://www.w3.org/2000/svg">
<path fill-rule="evenodd" clip-rule="evenodd" d="M28.5693 17.2618C25.2559 17.2618 22.5693 19.9481 22.5693 23.2618V44.0956C22.5693 47.4093 25.2559 50.0956 28.5693 50.0956H48.8682C52.1816 50.0956 54.8682 47.4093 54.8682 44.0956V23.2618C54.8682 19.9481 52.1816 17.2618 48.8682 17.2618H28.5693ZM43.4902 29.2628C43.4902 31.8874 41.3447 34.0328 38.7197 34.0328C36.0957 34.0328 33.9502 31.8874 33.9502 29.2628C33.9502 26.6383 36.0957 24.4928 38.7197 24.4928C41.3447 24.4928 43.4902 26.6383 43.4902 29.2628ZM46.4268 36.9698C46.6143 37.2406 46.7812 37.5322 46.9062 37.8446C46.9688 37.9696 46.9473 38.1154 46.8438 38.2404C46.6768 38.532 46.4893 38.8028 46.2812 39.0736C45.9893 39.4693 45.6562 39.8235 45.3232 40.1567C45.0312 40.4483 44.6982 40.74 44.3643 40.9899C42.7188 42.2188 40.7402 42.8646 38.6992 42.8646C36.6582 42.8646 34.6787 42.2189 33.0332 40.9899C32.8164 40.8136 32.5996 40.6372 32.3945 40.4552C32.2842 40.3576 32.1768 40.2585 32.0752 40.1567C31.7207 39.8235 31.4082 39.4694 31.1172 39.0736L30.9453 38.8395C30.8086 38.6494 30.6719 38.4449 30.5547 38.2404C30.4922 38.1154 30.4717 37.9696 30.5342 37.8446C30.6592 37.553 30.8252 37.2406 31.0127 36.9698C31.9502 35.5533 33.4502 34.616 35.1162 34.3869C35.3242 34.3452 35.5537 34.4077 35.7207 34.5327C36.5957 35.1784 37.6367 35.5117 38.7197 35.5117C39.8027 35.5117 40.8447 35.1784 41.7197 34.5327C41.8857 34.4077 42.1152 34.3661 42.3232 34.3869C43.9902 34.616 45.4688 35.5533 46.4268 36.9698Z" fill="white" stroke="#383838"/>
<path fill-rule="evenodd" clip-rule="evenodd" d="M13.137 22.7198C10.9252 22.7198 9.13184 24.513 9.13184 26.725V40.6323C9.13184 42.8443 10.9252 44.6375 13.137 44.6375H26.6872C28.899 44.6375 30.6924 42.8443 30.6924 40.6323V26.725C30.6924 24.513 28.899 22.7198 26.6872 22.7198H13.137ZM23.0972 30.7309C23.0972 32.4829 21.665 33.9151 19.9128 33.9151C18.1611 33.9151 16.7289 32.4829 16.7289 30.7309C16.7289 28.979 18.1611 27.5468 19.9128 27.5468C21.665 27.5468 23.0972 28.979 23.0972 30.7309ZM25.0575 35.8756C25.1826 36.0564 25.2941 36.251 25.3775 36.4596C25.4193 36.543 25.4049 36.6403 25.3358 36.7238C25.2243 36.9184 25.0992 37.0992 24.9603 37.28C24.7654 37.5441 24.5431 37.7805 24.3208 38.003C24.1259 38.1976 23.9036 38.3923 23.6807 38.5592C22.5822 39.3795 21.2615 39.8106 19.8991 39.8106C18.5366 39.8106 17.2152 39.3795 16.1168 38.5592C15.9721 38.4415 15.8274 38.3237 15.6905 38.2022C15.6168 38.1371 15.5451 38.0709 15.4773 38.003C15.2407 37.7805 15.0321 37.5442 14.8378 37.28L14.7231 37.1237C14.6318 36.9968 14.5406 36.8603 14.4623 36.7238C14.4206 36.6403 14.4069 36.543 14.4486 36.4596C14.5321 36.2649 14.6429 36.0564 14.7681 35.8756C15.3939 34.9301 16.3952 34.3044 17.5073 34.1514C17.6461 34.1236 17.7993 34.1653 17.9108 34.2488C18.4949 34.6798 19.1898 34.9023 19.9128 34.9023C20.6357 34.9023 21.3313 34.6798 21.9154 34.2488C22.0262 34.1653 22.1794 34.1375 22.3182 34.1514C23.431 34.3044 24.418 34.9301 25.0575 35.8756Z" fill="white"/>
<path d="M19.9128 33.9151C21.665 33.9151 23.0972 32.4829 23.0972 30.7309C23.0972 28.979 21.665 27.5468 19.9128 27.5468C18.1611 27.5468 16.7289 28.979 16.7289 30.7309C16.7289 32.4829 18.1611 33.9151 19.9128 33.9151Z" fill="white"/>
<path d="M25.3775 36.4596C25.2941 36.251 25.1826 36.0564 25.0575 35.8756C24.418 34.9301 23.431 34.3044 22.3182 34.1514C22.1794 34.1375 22.0262 34.1653 21.9154 34.2488C21.3313 34.6798 20.6357 34.9023 19.9128 34.9023C19.1898 34.9023 18.4949 34.6798 17.9108 34.2488C17.7993 34.1653 17.6461 34.1236 17.5073 34.1514C16.3952 34.3044 15.3939 34.9301 14.7681 35.8756C14.6429 36.0564 14.5321 36.2649 14.4486 36.4596C14.4069 36.543 14.4206 36.6403 14.4623 36.7238C14.5406 36.8603 14.6318 36.9968 14.7231 37.1237L14.8378 37.28C15.0321 37.5442 15.2407 37.7805 15.4773 38.003C15.5451 38.0709 15.6168 38.1371 15.6905 38.2022C15.8274 38.3237 15.9721 38.4415 16.1168 38.5592C17.2152 39.3795 18.5366 39.8106 19.8991 39.8106C21.2615 39.8106 22.5822 39.3795 23.6807 38.5592C23.9036 38.3923 24.1259 38.1976 24.3208 38.003C24.5431 37.7805 24.7654 37.5441 24.9603 37.28C25.0992 37.0992 25.2243 36.9184 25.3358 36.7238C25.4049 36.6403 25.4193 36.543 25.3775 36.4596Z" fill="white"/>
<path fill-rule="evenodd" clip-rule="evenodd" d="M13.137 22.7198C10.9252 22.7198 9.13184 24.513 9.13184 26.725V40.6323C9.13184 42.8443 10.9252 44.6375 13.137 44.6375H26.6872C28.899 44.6375 30.6924 42.8443 30.6924 40.6323V26.725C30.6924 24.513 28.899 22.7198 26.6872 22.7198H13.137ZM23.0972 30.7309C23.0972 32.4829 21.665 33.9151 19.9128 33.9151C18.1611 33.9151 16.7289 32.4829 16.7289 30.7309C16.7289 28.979 18.1611 27.5468 19.9128 27.5468C21.665 27.5468 23.0972 28.979 23.0972 30.7309ZM25.0575 35.8756C25.1826 36.0564 25.2941 36.251 25.3775 36.4596C25.4193 36.543 25.4049 36.6403 25.3358 36.7238C25.2243 36.9184 25.0992 37.0992 24.9603 37.28C24.7654 37.5441 24.5431 37.7805 24.3208 38.003C24.1259 38.1976 23.9036 38.3923 23.6807 38.5592C22.5822 39.3795 21.2615 39.8106 19.8991 39.8106C18.5366 39.8106 17.2152 39.3795 16.1168 38.5592C15.9721 38.4415 15.8274 38.3237 15.6905 38.2022C15.6168 38.1371 15.5451 38.0709 15.4773 38.003C15.2407 37.7805 15.0321 37.5442 14.8378 37.28L14.7231 37.1237C14.6318 36.9968 14.5406 36.8603 14.4623 36.7238C14.4206 36.6403 14.4069 36.543 14.4486 36.4596C14.5321 36.2649 14.6429 36.0564 14.7681 35.8756C15.3939 34.9301 16.3952 34.3044 17.5073 34.1514C17.6461 34.1236 17.7993 34.1653 17.9108 34.2488C18.4949 34.6798 19.1898 34.9023 19.9128 34.9023C20.6357 34.9023 21.3313 34.6798 21.9154 34.2488C22.0262 34.1653 22.1794 34.1375 22.3182 34.1514C23.431 34.3044 24.418 34.9301 25.0575 35.8756Z" stroke="#383838"/>
<path d="M19.9128 33.9151C21.665 33.9151 23.0972 32.4829 23.0972 30.7309C23.0972 28.979 21.665 27.5468 19.9128 27.5468C18.1611 27.5468 16.7289 28.979 16.7289 30.7309C16.7289 32.4829 18.1611 33.9151 19.9128 33.9151Z" stroke="#383838"/>
<path d="M25.3775 36.4596C25.2941 36.251 25.1826 36.0564 25.0575 35.8756C24.418 34.9301 23.431 34.3044 22.3182 34.1514C22.1794 34.1375 22.0262 34.1653 21.9154 34.2488C21.3313 34.6798 20.6357 34.9023 19.9128 34.9023C19.1898 34.9023 18.4949 34.6798 17.9108 34.2488C17.7993 34.1653 17.6461 34.1236 17.5073 34.1514C16.3952 34.3044 15.3939 34.9301 14.7681 35.8756C14.6429 36.0564 14.5321 36.2649 14.4486 36.4596C14.4069 36.543 14.4206 36.6403 14.4623 36.7238C14.5406 36.8603 14.6318 36.9968 14.7231 37.1237L14.8378 37.28C15.0321 37.5442 15.2407 37.7805 15.4773 38.003C15.5451 38.0709 15.6168 38.1371 15.6905 38.2022C15.8274 38.3237 15.9721 38.4415 16.1168 38.5592C17.2152 39.3795 18.5366 39.8106 19.8991 39.8106C21.2615 39.8106 22.5822 39.3795 23.6807 38.5592C23.9036 38.3923 24.1259 38.1976 24.3208 38.003C24.5431 37.7805 24.7654 37.5441 24.9603 37.28C25.0992 37.0992 25.2243 36.9184 25.3358 36.7238C25.4049 36.6403 25.4193 36.543 25.3775 36.4596Z" stroke="#383838"/>
</svg>
