<svg width="64" height="65" viewBox="0 0 64 65" fill="none" xmlns="http://www.w3.org/2000/svg">
<path d="M31.3871 46.4172C36.2883 45.0329 39.9328 39.9755 39.9328 34.0459C39.9328 29.1572 37.4528 26.093 36.79 25.274C36.7073 25.1718 36.6528 25.1046 36.6351 25.0731C36.6497 24.9918 36.6752 24.8802 36.7071 24.7406C36.85 24.1148 37.1212 22.9274 37.1212 21.3939C37.1212 15.1928 33.3377 10.054 28.6866 10.054C24.0354 10.054 20.1582 15.1928 20.1582 21.3939C20.1582 22.9308 20.4327 24.1314 20.5746 24.7517C20.6056 24.8875 20.6303 24.9955 20.6444 25.0731C20.6266 25.1046 20.5715 25.1712 20.4877 25.2727C19.8223 26.0778 17.3467 29.0732 17.3467 34.0459C17.3467 39.9399 21.0144 44.9721 25.8919 46.3919V54.946H31.3871V46.4172Z" fill="white" stroke="#383838"/>
<path d="M45.4544 51.3741V54.946H41.888V51.3668H34.6179V54.946H31.0475V51.3741H29.2616C28.2746 51.3741 27.4756 50.575 27.4756 49.5881C27.4756 48.6011 28.2746 47.8021 29.2616 47.8021H31.0475V42.4442C31.0475 41.4572 31.8466 40.6582 32.8335 40.6582H43.6684C44.6554 40.6582 45.4544 41.4572 45.4544 42.4442V47.8021H47.2404C48.2273 47.8021 49.0264 48.6011 49.0264 49.5881C49.0264 50.575 48.2273 51.3741 47.2404 51.3741H45.4544Z" fill="white" stroke="#383838"/>
<path d="M40.3414 48.6935C45.2252 47.8174 48.9157 43.9534 48.9157 39.3971C48.9157 35.7602 46.5616 33.4805 45.9323 32.8712C45.8538 32.7952 45.8022 32.7452 45.7853 32.7217C45.7992 32.6613 45.8234 32.5782 45.8537 32.4744C45.9894 32.0089 46.2468 31.1255 46.2468 29.9846C46.2468 25.3712 42.6553 21.5482 38.2401 21.5482C33.825 21.5482 30.1445 25.3712 30.1445 29.9846C30.1445 31.128 30.4051 32.0211 30.5397 32.4827C30.5692 32.5837 30.5926 32.664 30.606 32.7217C30.5891 32.7452 30.5368 32.7948 30.4572 32.8702C29.8256 33.4692 27.4756 35.6977 27.4756 39.3971C27.4756 43.9899 31.2952 47.8794 36.2532 48.714V54.946H40.3414V48.6935Z" fill="white" stroke="#383838"/>
</svg>
