<svg width="64" height="64" viewBox="0 0 64 64" fill="none" xmlns="http://www.w3.org/2000/svg">
<rect x="11.4434" y="20.869" width="41.1426" height="28.0117" fill="white" stroke="#383838"/>
<path d="M32.0146 7.6554L11.4434 20.869L32.0146 34.0825L52.5859 20.869L32.0146 7.6554Z" fill="white" stroke="#383838"/>
<path d="M55.2974 34.8748H42.7829C40.5171 34.8748 38.6807 36.708 38.6807 38.977V57.7487C38.6807 58.5451 39.594 59.0109 40.2385 58.5276L44.1503 55.5938H55.2974C57.5631 55.5938 59.3996 53.7606 59.3996 51.4916V38.977C59.3996 36.7113 57.5664 34.8748 55.2974 34.8748ZM48.0664 50.3795H43.8257C43.2879 50.3795 42.8521 49.9436 42.8521 49.4059C42.8521 48.8681 43.2879 48.4322 43.8257 48.4322H48.0664C48.6042 48.4322 49.04 48.8681 49.04 49.4059C49.04 49.9436 48.6042 50.3795 48.0664 50.3795ZM54.2546 46.2081H43.8257C43.2879 46.2081 42.8521 45.772 42.8521 45.2344C42.8521 44.6966 43.2879 44.2608 43.8257 44.2608H54.2546C54.7921 44.2608 55.2282 44.6966 55.2282 45.2344C55.2282 45.772 54.7923 46.2081 54.2546 46.2081ZM54.2546 42.0364H43.8257C43.2879 42.0364 42.8521 41.6005 42.8521 41.0627C42.8521 40.5252 43.2879 40.0891 43.8257 40.0891H54.2546C54.7921 40.0891 55.2282 40.5252 55.2282 41.0627C55.2282 41.6005 54.7923 42.0364 54.2546 42.0364Z" fill="white"/>
<path d="M54.2546 42.0364H43.8257C43.2879 42.0364 42.8521 41.6005 42.8521 41.0627C42.8521 40.5252 43.2879 40.0891 43.8257 40.0891H54.2546C54.7921 40.0891 55.2282 40.5252 55.2282 41.0627C55.2282 41.6005 54.7923 42.0364 54.2546 42.0364Z" fill="white"/>
<path d="M54.2546 46.2081H43.8257C43.2879 46.2081 42.8521 45.772 42.8521 45.2344C42.8521 44.6966 43.2879 44.2608 43.8257 44.2608H54.2546C54.7921 44.2608 55.2282 44.6966 55.2282 45.2344C55.2282 45.772 54.7923 46.2081 54.2546 46.2081Z" fill="white"/>
<path d="M48.0664 50.3795H43.8257C43.2879 50.3795 42.8521 49.9436 42.8521 49.4059C42.8521 48.8681 43.2879 48.4322 43.8257 48.4322H48.0664C48.6042 48.4322 49.04 48.8681 49.04 49.4059C49.04 49.9436 48.6042 50.3795 48.0664 50.3795Z" fill="white"/>
<path d="M55.2974 34.8748H42.7829C40.5171 34.8748 38.6807 36.708 38.6807 38.977V57.7487C38.6807 58.5451 39.594 59.0109 40.2385 58.5276L44.1503 55.5938H55.2974C57.5631 55.5938 59.3996 53.7606 59.3996 51.4916V38.977C59.3996 36.7113 57.5664 34.8748 55.2974 34.8748ZM48.0664 50.3795H43.8257C43.2879 50.3795 42.8521 49.9436 42.8521 49.4059C42.8521 48.8681 43.2879 48.4322 43.8257 48.4322H48.0664C48.6042 48.4322 49.04 48.8681 49.04 49.4059C49.04 49.9436 48.6042 50.3795 48.0664 50.3795ZM54.2546 46.2081H43.8257C43.2879 46.2081 42.8521 45.772 42.8521 45.2344C42.8521 44.6966 43.2879 44.2608 43.8257 44.2608H54.2546C54.7921 44.2608 55.2282 44.6966 55.2282 45.2344C55.2282 45.772 54.7923 46.2081 54.2546 46.2081ZM54.2546 42.0364H43.8257C43.2879 42.0364 42.8521 41.6005 42.8521 41.0627C42.8521 40.5252 43.2879 40.0891 43.8257 40.0891H54.2546C54.7921 40.0891 55.2282 40.5252 55.2282 41.0627C55.2282 41.6005 54.7923 42.0364 54.2546 42.0364Z" stroke="#383838"/>
<path d="M54.2546 42.0364H43.8257C43.2879 42.0364 42.8521 41.6005 42.8521 41.0627C42.8521 40.5252 43.2879 40.0891 43.8257 40.0891H54.2546C54.7921 40.0891 55.2282 40.5252 55.2282 41.0627C55.2282 41.6005 54.7923 42.0364 54.2546 42.0364Z" stroke="#383838"/>
<path d="M54.2546 46.2081H43.8257C43.2879 46.2081 42.8521 45.772 42.8521 45.2344C42.8521 44.6966 43.2879 44.2608 43.8257 44.2608H54.2546C54.7921 44.2608 55.2282 44.6966 55.2282 45.2344C55.2282 45.772 54.7923 46.2081 54.2546 46.2081Z" stroke="#383838"/>
<path d="M48.0664 50.3795H43.8257C43.2879 50.3795 42.8521 49.9436 42.8521 49.4059C42.8521 48.8681 43.2879 48.4322 43.8257 48.4322H48.0664C48.6042 48.4322 49.04 48.8681 49.04 49.4059C49.04 49.9436 48.6042 50.3795 48.0664 50.3795Z" stroke="#383838"/>
</svg>
