<svg width="64" height="64" viewBox="0 0 64 64" fill="none" xmlns="http://www.w3.org/2000/svg">
<path fill-rule="evenodd" clip-rule="evenodd" d="M27.8965 46.6459C35.9852 46.6459 42.5424 40.0887 42.5424 32C42.5424 23.9112 35.9852 17.354 27.8965 17.354C19.8077 17.354 13.2505 23.9112 13.2505 32C13.2505 40.0887 19.8077 46.6459 27.8965 46.6459ZM35.504 33.2304C36.4513 32.6836 36.4513 31.3163 35.504 30.7695L24.9892 24.6987C24.0419 24.1518 22.8579 24.8354 22.8579 25.9292L22.8579 38.0707C22.8579 39.1645 24.0419 39.8481 24.9892 39.3012L35.504 33.2304Z" fill="#0096F0"/>
<g style="mix-blend-mode:multiply">
<path d="M55.1136 17.4366V25.4372C55.1136 26.3466 54.7523 27.2188 54.1093 27.8618C53.4663 28.5048 52.5941 28.8661 51.6847 28.8661H33.3976C32.4882 28.8661 31.6161 28.5048 30.973 27.8618C30.33 27.2188 29.9688 26.3466 29.9688 25.4372V14.0078C29.9688 13.0984 30.33 12.2262 30.973 11.5832C31.6161 10.9402 32.4882 10.5789 33.3976 10.5789H39.7867C40.3919 10.5815 40.9715 10.824 41.3982 11.2533L44.1527 14.0078H51.6847C52.5941 14.0078 53.4663 14.369 54.1093 15.012C54.7523 15.6551 55.1136 16.5272 55.1136 17.4366Z" fill="#AFC300"/>
</g>
<g style="mix-blend-mode:multiply">
<path d="M50.8689 41.4444V46.7434C50.8689 47.3457 50.6297 47.9233 50.2038 48.3492C49.7779 48.7751 49.2002 49.0144 48.5979 49.0144H36.4859C35.8835 49.0144 35.3059 48.7751 34.88 48.3492C34.4541 47.9233 34.2148 47.3457 34.2148 46.7434V39.1734C34.2148 38.571 34.4541 37.9934 34.88 37.5675C35.3059 37.1416 35.8835 36.9023 36.4859 36.9023H40.7175C41.1184 36.904 41.5023 37.0647 41.7849 37.349L43.6093 39.1734H48.5979C49.2002 39.1734 49.7779 39.4126 50.2038 39.8385C50.6297 40.2644 50.8689 40.8421 50.8689 41.4444Z" fill="#AFC300"/>
</g>
<mask id="mask0_619_11532" style="mask-type:alpha" maskUnits="userSpaceOnUse" x="13" y="17" width="30" height="30">
<path fill-rule="evenodd" clip-rule="evenodd" d="M27.8965 46.6459C35.9852 46.6459 42.5424 40.0887 42.5424 32C42.5424 23.9112 35.9852 17.354 27.8965 17.354C19.8077 17.354 13.2505 23.9112 13.2505 32C13.2505 40.0887 19.8077 46.6459 27.8965 46.6459ZM35.504 33.2304C36.4513 32.6836 36.4513 31.3163 35.504 30.7695L24.9892 24.6987C24.0419 24.1518 22.8579 24.8354 22.8579 25.9292L22.8579 38.0707C22.8579 39.1645 24.0419 39.8481 24.9892 39.3012L35.504 33.2304Z" fill="#6E7B00"/>
</mask>
<g mask="url(#mask0_619_11532)">
<g style="mix-blend-mode:multiply">
<path fill-rule="evenodd" clip-rule="evenodd" d="M55.1136 25.4372V17.4366C55.1136 16.5272 54.7523 15.6551 54.1093 15.012C53.4663 14.369 52.5941 14.0078 51.6847 14.0078H44.1527L41.3982 11.2533C40.9715 10.824 40.3919 10.5815 39.7867 10.5789H33.3976C32.4882 10.5789 31.6161 10.9402 30.973 11.5832C30.33 12.2262 29.9688 13.0984 29.9688 14.0078V25.4372C29.9688 26.3466 30.33 27.2188 30.973 27.8618C31.6161 28.5048 32.4882 28.8661 33.3976 28.8661H51.6847C52.5941 28.8661 53.4663 28.5048 54.1093 27.8618C54.7523 27.2188 55.1136 26.3466 55.1136 25.4372ZM50.8689 46.7434V41.4444C50.8689 40.8421 50.6297 40.2644 50.2038 39.8385C49.7779 39.4126 49.2002 39.1734 48.5979 39.1734H43.6093L41.7849 37.349C41.5023 37.0647 41.1184 36.904 40.7175 36.9023H36.4859C35.8835 36.9023 35.3059 37.1416 34.88 37.5675C34.4541 37.9934 34.2148 38.571 34.2148 39.1734V46.7434C34.2148 47.3457 34.4541 47.9233 34.88 48.3492C35.3059 48.7751 35.8835 49.0144 36.4859 49.0144H48.5979C49.2002 49.0144 49.7779 48.7751 50.2038 48.3492C50.6297 47.9233 50.8689 47.3457 50.8689 46.7434Z" fill="#6E7B00"/>
</g>
</g>
</svg>
