<svg width="49" height="48" viewBox="0 0 49 48" fill="none" xmlns="http://www.w3.org/2000/svg">
<path fill-rule="evenodd" clip-rule="evenodd" d="M22.9832 15.0436C22.9832 14.3001 23.5896 13.6937 24.3331 13.6937C25.0769 13.6937 25.683 14.3001 25.683 15.0436C25.683 15.7871 25.0769 16.3935 24.3331 16.3935C23.5896 16.3935 22.9832 15.7871 22.9832 15.0436Z" fill="white" stroke="#383838"/>
<path d="M32.6875 32.1398C32.4308 28.7981 30.875 26.7041 29.5024 24.8562C28.2315 23.1454 27.1338 21.6681 27.1338 19.4888C27.1338 19.3138 27.0358 19.1538 26.8803 19.0735C26.7244 18.9928 26.537 19.0061 26.3953 19.1091C24.3339 20.5841 22.614 23.0702 22.0132 25.4423C21.5961 27.0938 21.5409 28.9503 21.5331 30.1765C19.6295 29.7699 19.1983 26.9224 19.1937 26.8914C19.1723 26.7437 19.082 26.6151 18.9507 26.5449C18.8181 26.4757 18.6622 26.4706 18.5277 26.5372C18.4279 26.5855 16.0774 27.7798 15.9407 32.5482C15.9311 32.7068 15.9307 32.8659 15.9307 33.025C15.9307 37.6575 19.7001 41.4268 24.333 41.4268C24.3394 41.4272 24.3462 41.4281 24.3517 41.4268C24.3517 41.4268 24.3553 41.4268 24.3576 41.4268C28.9791 41.4135 32.7354 37.6493 32.7354 33.025C32.7354 32.792 32.6875 32.1398 32.6875 32.1398Z" fill="white" stroke="#383838"/>
</svg>
