<svg width="64" height="64" viewBox="0 0 64 64" fill="none" xmlns="http://www.w3.org/2000/svg">
<path fill-rule="evenodd" clip-rule="evenodd" d="M47.8456 33.8799C47.8456 42.6312 40.7512 49.7256 31.9999 49.7256C23.2486 49.7256 16.1543 42.6312 16.1543 33.8799C16.1543 25.1286 23.2486 18.0343 31.9999 18.0343C40.7512 18.0343 47.8456 25.1286 47.8456 33.8799Z" fill="white" stroke="#383838"/>
<path d="M21.4365 40.3762V56.4331C21.4391 56.9545 21.596 57.4635 21.8874 57.8958C22.1788 58.3282 22.5916 58.6647 23.0739 58.8628C23.5548 59.065 24.0849 59.1203 24.5972 59.0216C25.1095 58.9229 25.5811 58.6746 25.9525 58.3082L32.0003 52.234L38.048 58.3082C38.2948 58.553 38.5875 58.7466 38.9092 58.878C39.231 59.0095 39.5755 59.0761 39.9231 59.0741C40.2695 59.083 40.6132 59.0106 40.9266 58.8628C41.4089 58.6647 41.8218 58.3282 42.1132 57.8958C42.4045 57.4635 42.5614 56.9545 42.564 56.4331V40.3762C36.1153 40.3762 28.9363 40.3762 21.4365 40.3762Z" fill="white" stroke="#383838"/>
<path d="M44.6541 15.1767L38.9882 20.6998L40.3262 28.5006C40.3844 28.8417 40.2443 29.1865 39.9642 29.3902C39.8059 29.5057 39.6176 29.564 39.4293 29.564C39.2847 29.564 39.1392 29.5294 39.0064 29.4593L32.0006 25.7763L24.9957 29.4584C24.69 29.6203 24.318 29.594 24.0379 29.3893C23.7577 29.1856 23.6176 28.8408 23.6758 28.4997L25.0139 20.6989L19.347 15.1767C19.0996 14.9347 19.0095 14.5727 19.1169 14.2443C19.2242 13.916 19.5089 13.6749 19.8518 13.6249L27.6827 12.4879L31.1847 5.39112C31.4912 4.76986 32.5099 4.76986 32.8165 5.39112L36.3185 12.4879L44.1493 13.6249C44.4922 13.6749 44.7769 13.9151 44.8843 14.2443C44.9916 14.5736 44.9015 14.9338 44.6541 15.1767Z" fill="white" stroke="#383838"/>
</svg>
