<svg width="64" height="64" viewBox="0 0 64 64" fill="none" xmlns="http://www.w3.org/2000/svg">
<g style="mix-blend-mode:multiply">
<path d="M26.8848 11.8786H25.0059C22.7967 11.8786 21.0059 13.6694 21.0059 15.8786V48.1214C21.0059 50.3306 22.7967 52.1214 25.0059 52.1214H38.9941C41.2033 52.1214 42.9941 50.3306 42.9941 48.1214V15.8786C42.9941 13.6694 41.2033 11.8786 38.9941 11.8786H37.1152C37.1152 12.7791 36.3853 13.509 35.4848 13.509H28.5152C27.6147 13.509 26.8848 12.7791 26.8848 11.8786Z" fill="#0096F0"/>
</g>
<g style="mix-blend-mode:multiply">
<rect x="14.8887" y="20.8713" width="16.7363" height="6.65149" fill="#AFC300"/>
</g>
<g style="mix-blend-mode:multiply">
<rect x="31.625" y="30.4952" width="22.0391" height="6.65149" fill="#AFC300"/>
</g>
<g style="mix-blend-mode:multiply">
<rect x="10.2812" y="39.91" width="17.3535" height="6.65149" fill="#AFC300"/>
</g>
<mask id="mask0_619_11533" style="mask-type:alpha" maskUnits="userSpaceOnUse" x="21" y="11" width="22" height="42">
<g style="mix-blend-mode:multiply">
<path d="M26.8848 11.8786H25.0059C22.7967 11.8786 21.0059 13.6694 21.0059 15.8786V48.1214C21.0059 50.3306 22.7967 52.1214 25.0059 52.1214H38.9941C41.2033 52.1214 42.9941 50.3306 42.9941 48.1214V15.8786C42.9941 13.6694 41.2033 11.8786 38.9941 11.8786H37.1152C37.1152 12.7791 36.3853 13.509 35.4848 13.509H28.5152C27.6147 13.509 26.8848 12.7791 26.8848 11.8786Z" fill="#6E7B00"/>
</g>
</mask>
<g mask="url(#mask0_619_11533)">
<g style="mix-blend-mode:multiply">
<path fill-rule="evenodd" clip-rule="evenodd" d="M14.8887 20.8713H31.625V27.5228H14.8887V20.8713ZM31.625 30.4952H53.6641V37.1467H31.625V30.4952ZM27.6348 39.91H10.2812V46.5615H27.6348V39.91Z" fill="#6E7B00"/>
</g>
</g>
</svg>
