<svg width="64" height="65" viewBox="0 0 64 65" fill="none" xmlns="http://www.w3.org/2000/svg">
<path d="M43.3871 24.0262C43.3871 19.7648 44.9154 17.684 44.9292 17.6685C45.1942 17.3261 45.1632 16.8389 44.8569 16.5326L42.2753 13.951C42.0051 13.6808 41.5886 13.6222 41.2547 13.8047C41.2237 13.8202 38.2514 15.4208 34.7817 15.4208C31.3309 15.4208 28.3379 13.8202 28.3087 13.8047C28.0522 13.667 27.7407 13.6653 27.486 13.8047C27.455 13.8202 24.4827 15.4208 21.013 15.4208C17.5623 15.4208 14.5693 13.8202 14.54 13.8047C14.2061 13.624 13.7896 13.6825 13.5211 13.9528L10.9395 16.5344C10.6366 16.8373 10.6056 17.3227 10.8638 17.6651C10.8793 17.6858 12.4076 19.7666 12.4076 24.0279C12.4076 25.9642 12.0943 27.3066 11.7312 28.8607C11.2407 30.9587 10.6865 33.3373 10.6865 37.7966C10.6865 45.9717 17.0442 49.7185 27.5152 54.9179C27.6357 54.9747 27.7665 55.0057 27.8973 55.0057C28.0281 55.0057 28.1589 54.9747 28.2794 54.9162C38.7504 49.7168 45.1081 45.97 45.1081 37.7949C45.1081 33.3339 44.5521 30.9571 44.0634 28.859C43.702 27.3065 43.3871 25.9642 43.3871 24.0262Z" fill="white" stroke="#383838"/>
<path d="M53.785 39.1483L47.1997 45.7337L49.7737 56.0297C49.8968 56.2416 49.9655 56.4849 49.9655 56.7454C49.9655 57.5471 49.1781 58.2343 48.5053 58.1771H48.4767C48.2334 58.1771 47.9871 58.1141 47.7666 57.9881L38.4555 52.6684L29.1445 57.9881C28.6463 58.2716 28.0278 58.2314 27.5698 57.885C27.1117 57.5386 26.9056 56.9545 27.0458 56.3962L29.7114 45.728L23.126 39.1427C22.7423 38.759 22.6078 38.1921 22.7796 37.6767C22.9514 37.1613 23.3981 36.7891 23.9335 36.7118L33.1586 35.3948L37.1384 26.1124C37.5879 25.0587 39.3201 25.0587 39.7696 26.1124L43.7494 35.3948L52.9745 36.7118C53.5128 36.7891 53.9595 37.1613 54.1283 37.6767C54.3004 38.1949 54.1658 38.7647 53.785 39.1483Z" fill="white" stroke="#383838"/>
</svg>
