<svg width="64" height="64" viewBox="0 0 64 64" fill="none" xmlns="http://www.w3.org/2000/svg">
<path d="M47.9919 7.7222H16.0086C14.4181 7.7222 12.8928 8.35818 11.7682 9.49023C10.6435 10.6223 10.0117 12.1577 10.0117 13.7586V37.9286C10.0117 39.5296 10.6435 41.065 11.7682 42.197C12.8928 43.3291 14.4181 43.9651 16.0086 43.9651H47.9919C49.5823 43.9651 51.1077 43.3291 52.2323 42.197C53.3569 41.065 53.9887 39.5296 53.9887 37.9286V13.7586C53.9887 12.1577 53.3569 10.6223 52.2323 9.49023C51.1077 8.35818 49.5823 7.7222 47.9919 7.7222ZM26.0034 13.7586H30.0013V17.7829H26.0034V13.7586ZM18.0075 13.7586H22.0055V17.7829H18.0075V13.7586Z" fill="white" stroke="#383838"/>
<path d="M32 31.0452C24.8468 31.0452 19.0801 36.8119 19.0801 43.9651C19.0801 51.1183 24.8468 56.885 32 56.885C39.1532 56.885 44.9199 51.1183 44.9199 43.9651C44.9199 36.8119 39.1532 31.0452 32 31.0452ZM37.7352 44.5638L29.1324 49.6057C29.0379 49.6688 28.8803 49.7003 28.7858 49.7003C28.6912 49.7003 28.5337 49.6688 28.4391 49.6057C28.2186 49.4482 28.0925 49.2591 28.0925 49.007V38.9547H28.061C28.061 38.7026 28.2186 38.4505 28.4076 38.356C28.5967 38.2614 28.9118 38.1984 29.1324 38.356L37.7352 43.3664C37.9558 43.5239 38.0818 43.713 38.0818 43.9651C38.0818 44.2172 37.9243 44.4693 37.7352 44.5638Z" fill="white" stroke="#383838"/>
</svg>
