<svg width="64" height="64" viewBox="0 0 64 64" fill="none" xmlns="http://www.w3.org/2000/svg">
<path fill-rule="evenodd" clip-rule="evenodd" d="M51.1277 26.1074C51.1277 36.6706 42.5645 45.2338 32.0014 45.2338C21.4382 45.2338 12.875 36.6706 12.875 26.1074C12.875 15.5442 21.4382 6.98108 32.0014 6.98108C42.5645 6.98108 51.1277 15.5442 51.1277 26.1074ZM38.1418 26.1074C38.1418 29.4981 35.3932 32.2467 32.0026 32.2467C28.6119 32.2467 25.8633 29.4981 25.8633 26.1074C25.8633 22.7168 28.6119 19.9682 32.0026 19.9682C35.3932 19.9682 38.1418 22.7168 38.1418 26.1074Z" fill="#FF2731"/>
<g style="mix-blend-mode:multiply">
<path d="M19.25 33.9488V53.3302C19.2531 53.9595 19.4425 54.5738 19.7942 55.0957C20.1459 55.6176 20.6442 56.0237 21.2264 56.2629C21.8069 56.507 22.4467 56.5737 23.0651 56.4545C23.6835 56.3354 24.2527 56.0358 24.701 55.5934L32.0009 48.2617L39.3008 55.5934C39.5987 55.8889 39.9519 56.1226 40.3403 56.2813C40.7287 56.4399 41.1446 56.5203 41.5641 56.5179C41.9822 56.5287 42.3971 56.4413 42.7754 56.2629C43.3576 56.0237 43.8559 55.6176 44.2076 55.0957C44.5593 54.5738 44.7487 53.9595 44.7518 53.3302V33.9488C36.9679 33.9488 28.3025 33.9488 19.25 33.9488Z" fill="#0096F0"/>
</g>
<mask id="mask0_549_15761" style="mask-type:alpha" maskUnits="userSpaceOnUse" x="12" y="6" width="40" height="40">
<path fill-rule="evenodd" clip-rule="evenodd" d="M51.1277 26.1074C51.1277 36.6706 42.5645 45.2338 32.0014 45.2338C21.4382 45.2338 12.875 36.6706 12.875 26.1074C12.875 15.5442 21.4382 6.98108 32.0014 6.98108C42.5645 6.98108 51.1277 15.5442 51.1277 26.1074ZM38.1418 26.1074C38.1418 29.4981 35.3932 32.2467 32.0026 32.2467C28.6119 32.2467 25.8633 29.4981 25.8633 26.1074C25.8633 22.7168 28.6119 19.9682 32.0026 19.9682C35.3932 19.9682 38.1418 22.7168 38.1418 26.1074Z" fill="#930014"/>
</mask>
<g mask="url(#mask0_549_15761)">
<g style="mix-blend-mode:multiply">
<path d="M19.25 33.9488V53.3302C19.2531 53.9595 19.4425 54.5738 19.7942 55.0957C20.1459 55.6176 20.6442 56.0237 21.2264 56.2629C21.8069 56.507 22.4467 56.5737 23.0651 56.4545C23.6835 56.3354 24.2527 56.0358 24.701 55.5934L32.0009 48.2617L39.3008 55.5934C39.5987 55.8889 39.9519 56.1226 40.3403 56.2813C40.7287 56.4399 41.1446 56.5203 41.5641 56.5179C41.9822 56.5287 42.3971 56.4413 42.7754 56.2629C43.3576 56.0237 43.8559 55.6176 44.2076 55.0957C44.5593 54.5738 44.7487 53.9595 44.7518 53.3302V33.9488C36.9679 33.9488 28.3025 33.9488 19.25 33.9488Z" fill="#930014"/>
</g>
</g>
</svg>
