<svg width="64" height="64" viewBox="0 0 64 64" fill="none" xmlns="http://www.w3.org/2000/svg">
<path d="M43.1228 12H18.6487C15.749 12 13.4053 14.4453 13.4053 17.4531V46.5469C13.4053 49.5547 15.7565 52 18.6487 52H43.1228C44.0919 52 44.8731 51.1875 44.8731 50.1797V13.8203C44.8731 12.8125 44.0844 12 43.1228 12ZM41.3725 48.3672H18.6487C17.6796 48.3672 16.8984 47.5547 16.8984 46.5469C16.8984 45.5391 17.6796 44.7266 18.6487 44.7266H41.3725V48.3672Z" fill="white" stroke="#383838"/>
<path fill-rule="evenodd" clip-rule="evenodd" d="M44.8726 40.723C51.0028 40.723 55.9727 35.7534 55.9727 29.6229C55.9727 23.4925 51.0028 18.5228 44.8726 18.5228C38.7423 18.5228 33.7725 23.4925 33.7725 29.6229C33.7725 35.7534 38.7423 40.723 44.8726 40.723ZM44.6743 35.493C44.7374 35.5141 44.8047 35.5251 44.8726 35.5251C45.0455 35.5251 45.2107 35.4543 45.3297 35.3295L49.7565 30.6921C50.1403 30.2907 49.855 29.6229 49.2994 29.6229H46.9809V24.7747C46.9809 24.1938 46.5075 23.7208 45.9267 23.7208H43.819C43.2382 23.7208 42.7649 24.1938 42.7649 24.7747V29.6229H40.4463C39.8907 29.6229 39.6054 30.2907 39.9892 30.6921L44.4161 35.3295C44.4881 35.405 44.577 35.4608 44.6743 35.493Z" fill="white"/>
<path d="M44.8726 35.5251C44.8047 35.5251 44.7374 35.5141 44.6743 35.493C44.577 35.4608 44.4881 35.405 44.4161 35.3295L39.9892 30.6921C39.6054 30.2907 39.8907 29.6229 40.4463 29.6229H42.7649V24.7747C42.7649 24.1938 43.2382 23.7208 43.819 23.7208H45.9267C46.5075 23.7208 46.9809 24.1938 46.9809 24.7747V29.6229H49.2994C49.855 29.6229 50.1403 30.2907 49.7565 30.6921L45.3297 35.3295C45.2107 35.4543 45.0455 35.5251 44.8726 35.5251Z" fill="white"/>
<path fill-rule="evenodd" clip-rule="evenodd" d="M44.8726 40.723C51.0028 40.723 55.9727 35.7534 55.9727 29.6229C55.9727 23.4925 51.0028 18.5228 44.8726 18.5228C38.7423 18.5228 33.7725 23.4925 33.7725 29.6229C33.7725 35.7534 38.7423 40.723 44.8726 40.723ZM44.6743 35.493C44.7374 35.5141 44.8047 35.5251 44.8726 35.5251C45.0455 35.5251 45.2107 35.4543 45.3297 35.3295L49.7565 30.6921C50.1403 30.2907 49.855 29.6229 49.2994 29.6229H46.9809V24.7747C46.9809 24.1938 46.5075 23.7208 45.9267 23.7208H43.819C43.2382 23.7208 42.7649 24.1938 42.7649 24.7747V29.6229H40.4463C39.8907 29.6229 39.6054 30.2907 39.9892 30.6921L44.4161 35.3295C44.4881 35.405 44.577 35.4608 44.6743 35.493Z" stroke="#383838"/>
<path d="M44.8726 35.5251C44.8047 35.5251 44.7374 35.5141 44.6743 35.493C44.577 35.4608 44.4881 35.405 44.4161 35.3295L39.9892 30.6921C39.6054 30.2907 39.8907 29.6229 40.4463 29.6229H42.7649V24.7747C42.7649 24.1938 43.2382 23.7208 43.819 23.7208H45.9267C46.5075 23.7208 46.9809 24.1938 46.9809 24.7747V29.6229H49.2994C49.855 29.6229 50.1403 30.2907 49.7565 30.6921L45.3297 35.3295C45.2107 35.4543 45.0455 35.5251 44.8726 35.5251Z" stroke="#383838"/>
</svg>
