<svg width="64" height="64" viewBox="0 0 64 64" fill="none" xmlns="http://www.w3.org/2000/svg">
<path d="M46.9161 20.9713H44.2837V17.4614C44.2837 10.6877 38.7731 5.17703 31.9993 5.17703C25.2256 5.17703 19.7149 10.6877 19.7149 17.4614V20.9713H17.0826C16.5975 20.9713 16.2051 21.3638 16.2051 21.8488V43.7853C16.2051 45.721 17.7792 47.2951 19.7149 47.2951H44.2838C46.2195 47.2951 47.7936 45.721 47.7936 43.7852V21.8488C47.7936 21.3638 47.4011 20.9713 46.9161 20.9713ZM39.019 20.9713H24.9797V17.4614C24.9797 13.5908 28.1288 10.4418 31.9993 10.4418C35.8699 10.4418 39.019 13.5908 39.019 17.4614V20.9713Z" fill="white" stroke="#383838"/>
<path fill-rule="evenodd" clip-rule="evenodd" d="M31.9991 31.3138L43.5137 36.2486V45.5593C43.5137 52.3933 38.6205 57.6687 31.9991 58.823C25.3777 57.6687 20.4844 52.3933 20.4844 45.5593V36.2486L31.9991 31.3138ZM30.4714 46.0945L27.8723 43.4956C27.1988 42.822 26.106 42.822 25.4324 43.4956C24.7588 44.1692 24.7588 45.2619 25.4324 45.9355L29.2553 49.7582C29.9288 50.4318 31.0216 50.4318 31.6952 49.7582C33.9994 47.454 36.2773 45.1239 38.5709 42.809C39.2397 42.1341 39.2376 41.045 38.5635 40.3745C37.8893 39.704 36.797 39.7059 36.1275 40.3821L30.4714 46.0945Z" fill="white"/>
<path d="M30.4714 46.0945L27.8723 43.4956C27.1988 42.822 26.106 42.822 25.4324 43.4956C24.7588 44.1692 24.7588 45.2619 25.4324 45.9355L29.2553 49.7582C29.9288 50.4318 31.0216 50.4318 31.6952 49.7582C33.9994 47.454 36.2773 45.1239 38.5709 42.809C39.2397 42.1341 39.2376 41.045 38.5635 40.3745C37.8893 39.704 36.797 39.7059 36.1275 40.3821L30.4714 46.0945Z" fill="white"/>
<path fill-rule="evenodd" clip-rule="evenodd" d="M31.9991 31.3138L43.5137 36.2486V45.5593C43.5137 52.3933 38.6205 57.6687 31.9991 58.823C25.3777 57.6687 20.4844 52.3933 20.4844 45.5593V36.2486L31.9991 31.3138ZM30.4714 46.0945L27.8723 43.4956C27.1988 42.822 26.106 42.822 25.4324 43.4956C24.7588 44.1692 24.7588 45.2619 25.4324 45.9355L29.2553 49.7582C29.9288 50.4318 31.0216 50.4318 31.6952 49.7582C33.9994 47.454 36.2773 45.1239 38.5709 42.809C39.2397 42.1341 39.2376 41.045 38.5635 40.3745C37.8893 39.704 36.797 39.7059 36.1275 40.3821L30.4714 46.0945Z" stroke="#383838"/>
<path d="M30.4714 46.0945L27.8723 43.4956C27.1988 42.822 26.106 42.822 25.4324 43.4956C24.7588 44.1692 24.7588 45.2619 25.4324 45.9355L29.2553 49.7582C29.9288 50.4318 31.0216 50.4318 31.6952 49.7582C33.9994 47.454 36.2773 45.1239 38.5709 42.809C39.2397 42.1341 39.2376 41.045 38.5635 40.3745C37.8893 39.704 36.797 39.7059 36.1275 40.3821L30.4714 46.0945Z" stroke="#383838"/>
</svg>
