<svg width="64" height="64" viewBox="0 0 64 64" fill="none" xmlns="http://www.w3.org/2000/svg">
<path d="M20.4165 34.1934C19.2052 34.1935 18.2233 35.1755 18.2231 36.3868V56.1273C18.2232 57.3387 19.2052 58.3207 20.4165 58.3207C21.6279 58.3207 22.6099 57.3387 22.6099 56.1273V55.0306C22.6099 54.7398 22.7255 54.4608 22.9311 54.2551C23.1368 54.0495 23.4158 53.9339 23.7066 53.9339H43.4472C43.738 53.9339 44.017 54.0495 44.2226 54.2551C44.4283 54.4608 44.5439 54.7398 44.5439 55.0306V56.1273C44.5439 57.3387 45.5259 58.3207 46.7372 58.3207C47.9486 58.3207 48.9306 57.3387 48.9306 56.1273V36.3868C48.9305 35.1755 47.9486 34.1935 46.7372 34.1934H20.4165ZM23.7066 38.5802H43.4472C43.5912 38.5802 43.7338 38.6085 43.8668 38.6637C43.9999 38.7188 44.1208 38.7996 44.2226 38.9014C44.3245 39.0032 44.4053 39.1241 44.4604 39.2572C44.5155 39.3902 44.5439 39.5328 44.5439 39.6769V44.0637C44.5439 44.2077 44.5155 44.3503 44.4604 44.4833C44.4053 44.6164 44.3245 44.7373 44.2226 44.8391C44.1208 44.941 43.9999 45.0218 43.8668 45.0769C43.7338 45.132 43.5912 45.1603 43.4472 45.1603H23.7066C23.5626 45.1603 23.42 45.132 23.2869 45.0769C23.1539 45.0218 23.033 44.941 22.9311 44.8391C22.8293 44.7373 22.7485 44.6164 22.6934 44.4833C22.6383 44.3503 22.6099 44.2077 22.6099 44.0637V39.6769C22.6099 39.5328 22.6383 39.3902 22.6934 39.2572C22.7485 39.1241 22.8293 39.0032 22.9311 38.9014C23.033 38.7996 23.1539 38.7188 23.2869 38.6637C23.42 38.6085 23.5626 38.5802 23.7066 38.5802Z" fill="#FF2731"/>
<g style="mix-blend-mode:multiply">
<path d="M20.3268 5.67929C17.015 5.67929 14.172 7.70161 12.2987 10.5116C10.4253 13.3216 9.35986 17.0038 9.35986 21.033C9.35986 25.0623 10.4253 28.7445 12.2987 31.5545C13.5273 33.3974 15.1768 34.8923 17.0994 35.7065C17.6568 35.9426 18.1334 36.5608 18.1334 37.1665V39.9639C18.1334 40.0702 18.1046 40.1744 18.05 40.2656C17.9954 40.3567 17.9171 40.4314 17.8234 40.4815C17.7297 40.5317 17.6242 40.5555 17.5181 40.5504C17.4119 40.5453 17.3092 40.5115 17.2207 40.4525L14.9633 38.9486C13.8155 38.1839 12.5454 38.6511 11.9217 39.5569C11.2347 40.5546 11.5221 41.9266 12.53 42.5985L17.2209 45.7258C17.5016 45.9129 17.7318 46.1665 17.891 46.4639C18.0501 46.7614 18.1334 47.0935 18.1334 47.4309V56.1273C18.1334 57.3387 19.1154 58.3207 20.3268 58.3207C21.5382 58.3207 22.5202 57.3387 22.5202 56.1273V37.1665C22.5202 36.5608 22.9969 35.9426 23.5542 35.7065C25.4769 34.8922 27.1264 33.3974 28.355 31.5545C30.2283 28.7445 31.2938 25.0623 31.2938 21.033C31.2938 17.0038 30.2283 13.3216 28.355 10.5116C26.4817 7.70161 23.6386 5.67929 20.3268 5.67929Z" fill="#0096F0"/>
</g>
<mask id="mask0_549_15762" style="mask-type:alpha" maskUnits="userSpaceOnUse" x="18" y="34" width="31" height="25">
<path d="M20.4165 34.1934C19.2052 34.1935 18.2233 35.1755 18.2231 36.3868V56.1273C18.2232 57.3387 19.2052 58.3207 20.4165 58.3207C21.6279 58.3207 22.6099 57.3387 22.6099 56.1273V55.0306C22.6099 54.7398 22.7255 54.4608 22.9311 54.2551C23.1368 54.0495 23.4158 53.9339 23.7066 53.9339H43.4472C43.738 53.9339 44.017 54.0495 44.2226 54.2551C44.4283 54.4608 44.5439 54.7398 44.5439 55.0306V56.1273C44.5439 57.3387 45.5259 58.3207 46.7372 58.3207C47.9486 58.3207 48.9306 57.3387 48.9306 56.1273V36.3868C48.9305 35.1755 47.9486 34.1935 46.7372 34.1934H20.4165ZM23.7066 38.5802H43.4472C43.5912 38.5802 43.7338 38.6085 43.8668 38.6637C43.9999 38.7188 44.1208 38.7996 44.2226 38.9014C44.3245 39.0032 44.4053 39.1241 44.4604 39.2572C44.5155 39.3902 44.5439 39.5328 44.5439 39.6769V44.0637C44.5439 44.2077 44.5155 44.3503 44.4604 44.4833C44.4053 44.6164 44.3245 44.7373 44.2226 44.8391C44.1208 44.941 43.9999 45.0218 43.8668 45.0769C43.7338 45.132 43.5912 45.1603 43.4472 45.1603H23.7066C23.5626 45.1603 23.42 45.132 23.2869 45.0769C23.1539 45.0218 23.033 44.941 22.9311 44.8391C22.8293 44.7373 22.7485 44.6164 22.6934 44.4833C22.6383 44.3503 22.6099 44.2077 22.6099 44.0637V39.6769C22.6099 39.5328 22.6383 39.3902 22.6934 39.2572C22.7485 39.1241 22.8293 39.0032 22.9311 38.9014C23.033 38.7996 23.1539 38.7188 23.2869 38.6637C23.42 38.6085 23.5626 38.5802 23.7066 38.5802Z" fill="#930014"/>
</mask>
<g mask="url(#mask0_549_15762)">
<path d="M20.3268 5.67929C17.015 5.67929 14.172 7.70161 12.2987 10.5116C10.4253 13.3216 9.35986 17.0038 9.35986 21.033C9.35986 25.0623 10.4253 28.7445 12.2987 31.5545C13.5273 33.3974 15.1768 34.8923 17.0994 35.7065C17.6568 35.9426 18.1334 36.5608 18.1334 37.1665V39.9639C18.1334 40.0702 18.1046 40.1744 18.05 40.2656C17.9954 40.3567 17.9171 40.4314 17.8234 40.4815C17.7297 40.5317 17.6242 40.5555 17.5181 40.5504C17.4119 40.5453 17.3092 40.5115 17.2207 40.4525L14.9633 38.9486C13.8155 38.1839 12.5454 38.6511 11.9217 39.5569C11.2347 40.5546 11.5221 41.9266 12.53 42.5985L17.2209 45.7258C17.5016 45.9129 17.7318 46.1665 17.891 46.4639C18.0501 46.7614 18.1334 47.0935 18.1334 47.4309V56.1273C18.1334 57.3387 19.1154 58.3207 20.3268 58.3207C21.5382 58.3207 22.5202 57.3387 22.5202 56.1273V37.1665C22.5202 36.5608 22.9969 35.9426 23.5542 35.7065C25.4769 34.8922 27.1264 33.3974 28.355 31.5545C30.2283 28.7445 31.2938 25.0623 31.2938 21.033C31.2938 17.0038 30.2283 13.3216 28.355 10.5116C26.4817 7.70161 23.6386 5.67929 20.3268 5.67929Z" fill="#930014"/>
</g>
</svg>
