<svg width="64" height="65" viewBox="0 0 64 65" fill="none" xmlns="http://www.w3.org/2000/svg">
<path d="M12.2363 16.8054C12.2363 14.4298 14.1623 12.5039 16.5378 12.5039H40.0821C42.4575 12.5039 44.3836 14.4298 44.3836 16.8054V44.1946C44.3836 46.5702 42.4575 48.4961 40.0821 48.4961H16.5378C14.1623 48.4961 12.2363 46.5702 12.2363 44.1946V16.8054Z" fill="white" stroke="#383838"/>
<path d="M26.5625 22.7867C26.5625 21.4608 27.6372 20.386 28.9632 20.386C30.2893 20.386 31.364 21.4608 31.364 22.7867C31.364 24.1126 30.2893 25.1875 28.9632 25.1875C27.6372 25.1875 26.5625 24.1126 26.5625 22.7867Z" fill="white"/>
<path d="M26.5625 31.2441C26.5625 29.9182 27.6372 28.8434 28.9632 28.8434C30.2893 28.8434 31.364 29.9182 31.364 31.2441C31.364 32.57 30.2893 33.6449 28.9632 33.6449C27.6372 33.6449 26.5625 32.57 26.5625 31.2441Z" fill="white"/>
<path d="M26.5625 39.7015C26.5625 38.3756 27.6372 37.3007 28.9632 37.3007C30.2893 37.3007 31.364 38.3756 31.364 39.7015C31.364 41.0274 30.2893 42.1022 28.9632 42.1022C27.6372 42.1022 26.5625 41.0274 26.5625 39.7015Z" fill="white"/>
<path d="M26.5625 22.7867C26.5625 21.4608 27.6372 20.386 28.9632 20.386C30.2893 20.386 31.364 21.4608 31.364 22.7867C31.364 24.1126 30.2893 25.1875 28.9632 25.1875C27.6372 25.1875 26.5625 24.1126 26.5625 22.7867Z" stroke="#383838"/>
<path d="M26.5625 31.2441C26.5625 29.9182 27.6372 28.8434 28.9632 28.8434C30.2893 28.8434 31.364 29.9182 31.364 31.2441C31.364 32.57 30.2893 33.6449 28.9632 33.6449C27.6372 33.6449 26.5625 32.57 26.5625 31.2441Z" stroke="#383838"/>
<path d="M26.5625 39.7015C26.5625 38.3756 27.6372 37.3007 28.9632 37.3007C30.2893 37.3007 31.364 38.3756 31.364 39.7015C31.364 41.0274 30.2893 42.1022 28.9632 42.1022C27.6372 42.1022 26.5625 41.0274 26.5625 39.7015Z" stroke="#383838"/>
<path d="M35.5635 22.7867C35.5635 21.4608 36.6382 20.386 37.9642 20.386C39.2903 20.386 40.365 21.4608 40.365 22.7867C40.365 24.1126 39.2903 25.1875 37.9642 25.1875C36.6382 25.1875 35.5635 24.1126 35.5635 22.7867Z" fill="white"/>
<path d="M35.5635 31.2441C35.5635 29.9182 36.6382 28.8434 37.9642 28.8434C39.2903 28.8434 40.365 29.9182 40.365 31.2441C40.365 32.57 39.2903 33.6449 37.9642 33.6449C36.6382 33.6449 35.5635 32.57 35.5635 31.2441Z" fill="white"/>
<path d="M35.5635 39.7015C35.5635 38.3756 36.6382 37.3007 37.9642 37.3007C39.2903 37.3007 40.365 38.3756 40.365 39.7015C40.365 41.0274 39.2903 42.1022 37.9642 42.1022C36.6382 42.1022 35.5635 41.0274 35.5635 39.7015Z" fill="white"/>
<path d="M35.5635 22.7867C35.5635 21.4608 36.6382 20.386 37.9642 20.386C39.2903 20.386 40.365 21.4608 40.365 22.7867C40.365 24.1126 39.2903 25.1875 37.9642 25.1875C36.6382 25.1875 35.5635 24.1126 35.5635 22.7867Z" stroke="#383838"/>
<path d="M35.5635 31.2441C35.5635 29.9182 36.6382 28.8434 37.9642 28.8434C39.2903 28.8434 40.365 29.9182 40.365 31.2441C40.365 32.57 39.2903 33.6449 37.9642 33.6449C36.6382 33.6449 35.5635 32.57 35.5635 31.2441Z" stroke="#383838"/>
<path d="M35.5635 39.7015C35.5635 38.3756 36.6382 37.3007 37.9642 37.3007C39.2903 37.3007 40.365 38.3756 40.365 39.7015C40.365 41.0274 39.2903 42.1022 37.9642 42.1022C36.6382 42.1022 35.5635 41.0274 35.5635 39.7015Z" stroke="#383838"/>
<path d="M54.628 36.5028L54.4037 36.8433L54.692 37.1315L58.276 40.7153C58.276 40.7154 58.2761 40.7154 58.2761 40.7154C59.1446 41.5845 59.1445 42.9935 58.276 43.8624C57.4076 44.7313 55.9982 44.7313 55.1298 43.8624L55.1297 43.8623L51.5456 40.2782L51.2574 39.9899L50.917 40.2142C45.889 43.5271 39.0583 42.9706 34.6338 38.5464C29.5739 33.4861 29.5739 25.2816 34.6338 20.2213C39.6938 15.1609 47.9004 15.1609 52.9604 20.2213L52.9604 20.2213C57.3848 24.6456 57.9412 31.4744 54.628 36.5028Z" fill="white" stroke="#383838"/>
</svg>
