<svg width="64" height="64" viewBox="0 0 64 64" fill="none" xmlns="http://www.w3.org/2000/svg">
<path fill-rule="evenodd" clip-rule="evenodd" d="M25.3877 48.0088C34.2291 48.0088 41.3965 40.8414 41.3965 32C41.3965 23.1586 34.2291 15.9912 25.3877 15.9912C16.5463 15.9912 9.37891 23.1586 9.37891 32C9.37891 40.8414 16.5463 48.0088 25.3877 48.0088ZM30.3365 27.4206C30.3365 30.1423 28.1114 32.3672 25.3893 32.3672C22.6672 32.3672 20.4421 30.1423 20.4421 27.4206C20.4421 24.6988 22.6672 22.4738 25.3893 22.4738C28.1114 22.4738 30.3365 24.6988 30.3365 27.4206ZM33.759 36.0507C33.8018 36.1389 33.8416 36.2287 33.8781 36.3203C33.9432 36.4498 33.921 36.6011 33.813 36.7307C33.6414 37.0331 33.4461 37.3139 33.2301 37.5947C32.9284 38.0051 32.5821 38.3724 32.2375 38.718C31.9342 39.0204 31.5895 39.3229 31.2433 39.5821C29.536 40.8565 27.4841 41.5262 25.3671 41.5262C23.25 41.5262 21.1981 40.8566 19.4924 39.5821C19.1462 39.3012 18.8015 39.0204 18.4982 38.718C18.1313 38.3724 17.8073 38.0052 17.504 37.5947C17.3102 37.3356 17.0943 37.0331 16.9211 36.7307C16.856 36.6011 16.8354 36.4499 16.9005 36.3203C17.0291 36.0178 17.2023 35.6938 17.396 35.413C18.3696 33.9441 19.9244 32.9721 21.6523 32.7344C21.8683 32.6912 22.1065 32.756 22.2781 32.8856C23.1865 33.5553 24.2665 33.9009 25.3893 33.9009C26.5121 33.9009 27.5921 33.5553 28.5005 32.8856C28.672 32.756 28.9103 32.7128 29.1263 32.7344C30.8542 32.9721 32.3884 33.9441 33.381 35.413C33.5207 35.6144 33.6494 35.8271 33.759 36.0507Z" fill="white" stroke="#383838"/>
<path fill-rule="evenodd" clip-rule="evenodd" d="M42.9955 29.7039C49.0681 29.7039 53.991 24.7811 53.991 18.7084C53.991 12.6358 49.0681 7.71292 42.9955 7.71292C36.9229 7.71292 32 12.6358 32 18.7084C32 24.7811 36.9229 29.7039 42.9955 29.7039ZM46.3945 15.5631C46.3945 17.4325 44.8663 18.9607 42.9966 18.9607C41.1269 18.9607 39.5987 17.4325 39.5987 15.5631C39.5987 13.6936 41.1269 12.1655 42.9966 12.1655C44.8663 12.1655 46.3945 13.6936 46.3945 15.5631ZM48.7453 21.4907C48.7747 21.5512 48.802 21.6129 48.8271 21.6758C48.8718 21.7648 48.8565 21.8687 48.7823 21.9577C48.6645 22.1654 48.5304 22.3583 48.382 22.5511C48.1748 22.833 47.937 23.0853 47.7002 23.3227C47.4919 23.5304 47.2552 23.7381 47.0174 23.9161C45.8447 24.7915 44.4354 25.2514 42.9813 25.2514C41.5273 25.2514 40.1179 24.7915 38.9464 23.9161C38.7086 23.7232 38.4719 23.5304 38.2635 23.3227C38.0115 23.0853 37.789 22.833 37.5807 22.5511C37.4476 22.3731 37.2992 22.1654 37.1803 21.9577C37.1356 21.8687 37.1214 21.7648 37.1661 21.6758C37.2545 21.4681 37.3734 21.2455 37.5065 21.0526C38.1752 20.0437 39.2431 19.3761 40.4299 19.2129C40.5782 19.1832 40.7419 19.2277 40.8597 19.3167C41.4836 19.7767 42.2254 20.0141 42.9966 20.0141C43.7678 20.0141 44.5096 19.7767 45.1335 19.3167C45.2513 19.2277 45.415 19.198 45.5633 19.2129C46.7501 19.3761 47.8039 20.0437 48.4856 21.0526C48.5816 21.191 48.67 21.337 48.7453 21.4907Z" fill="white"/>
<path d="M48.8271 21.6758C48.802 21.6129 48.7747 21.5512 48.7453 21.4907C48.67 21.337 48.5816 21.191 48.4856 21.0526C47.8039 20.0437 46.7501 19.3761 45.5633 19.2129C45.415 19.198 45.2513 19.2277 45.1335 19.3167C44.5096 19.7767 43.7678 20.0141 42.9966 20.0141C42.2254 20.0141 41.4836 19.7767 40.8597 19.3167C40.7419 19.2277 40.5782 19.1832 40.4299 19.2129C39.2431 19.3761 38.1752 20.0437 37.5065 21.0526C37.3734 21.2455 37.2545 21.4681 37.1661 21.6758C37.1214 21.7648 37.1356 21.8687 37.1803 21.9577C37.2992 22.1654 37.4476 22.3731 37.5807 22.5511C37.789 22.833 38.0115 23.0853 38.2635 23.3227C38.4719 23.5304 38.7086 23.7232 38.9464 23.9161C40.1179 24.7915 41.5273 25.2514 42.9813 25.2514C44.4354 25.2514 45.8447 24.7915 47.0174 23.9161C47.2552 23.7381 47.4919 23.5304 47.7002 23.3227C47.937 23.0853 48.1748 22.833 48.382 22.5511C48.5304 22.3583 48.6645 22.1654 48.7823 21.9577C48.8565 21.8687 48.8718 21.7648 48.8271 21.6758Z" fill="white"/>
<path d="M42.9966 18.9607C44.8663 18.9607 46.3945 17.4325 46.3945 15.5631C46.3945 13.6936 44.8663 12.1655 42.9966 12.1655C41.1269 12.1655 39.5987 13.6936 39.5987 15.5631C39.5987 17.4325 41.1269 18.9607 42.9966 18.9607Z" fill="white"/>
<path fill-rule="evenodd" clip-rule="evenodd" d="M42.9955 29.7039C49.0681 29.7039 53.991 24.7811 53.991 18.7084C53.991 12.6358 49.0681 7.71292 42.9955 7.71292C36.9229 7.71292 32 12.6358 32 18.7084C32 24.7811 36.9229 29.7039 42.9955 29.7039ZM46.3945 15.5631C46.3945 17.4325 44.8663 18.9607 42.9966 18.9607C41.1269 18.9607 39.5987 17.4325 39.5987 15.5631C39.5987 13.6936 41.1269 12.1655 42.9966 12.1655C44.8663 12.1655 46.3945 13.6936 46.3945 15.5631ZM48.7453 21.4907C48.7747 21.5512 48.802 21.6129 48.8271 21.6758C48.8718 21.7648 48.8565 21.8687 48.7823 21.9577C48.6645 22.1654 48.5304 22.3583 48.382 22.5511C48.1748 22.833 47.937 23.0853 47.7002 23.3227C47.4919 23.5304 47.2552 23.7381 47.0174 23.9161C45.8447 24.7915 44.4354 25.2514 42.9813 25.2514C41.5273 25.2514 40.1179 24.7915 38.9464 23.9161C38.7086 23.7232 38.4719 23.5304 38.2635 23.3227C38.0115 23.0853 37.789 22.833 37.5807 22.5511C37.4476 22.3731 37.2992 22.1654 37.1803 21.9577C37.1356 21.8687 37.1214 21.7648 37.1661 21.6758C37.2545 21.4681 37.3734 21.2455 37.5065 21.0526C38.1752 20.0437 39.2431 19.3761 40.4299 19.2129C40.5782 19.1832 40.7419 19.2277 40.8597 19.3167C41.4836 19.7767 42.2254 20.0141 42.9966 20.0141C43.7678 20.0141 44.5096 19.7767 45.1335 19.3167C45.2513 19.2277 45.415 19.198 45.5633 19.2129C46.7501 19.3761 47.8039 20.0437 48.4856 21.0526C48.5816 21.191 48.67 21.337 48.7453 21.4907Z" stroke="#383838"/>
<path d="M48.8271 21.6758C48.802 21.6129 48.7747 21.5512 48.7453 21.4907C48.67 21.337 48.5816 21.191 48.4856 21.0526C47.8039 20.0437 46.7501 19.3761 45.5633 19.2129C45.415 19.198 45.2513 19.2277 45.1335 19.3167C44.5096 19.7767 43.7678 20.0141 42.9966 20.0141C42.2254 20.0141 41.4836 19.7767 40.8597 19.3167C40.7419 19.2277 40.5782 19.1832 40.4299 19.2129C39.2431 19.3761 38.1752 20.0437 37.5065 21.0526C37.3734 21.2455 37.2545 21.4681 37.1661 21.6758C37.1214 21.7648 37.1356 21.8687 37.1803 21.9577C37.2992 22.1654 37.4476 22.3731 37.5807 22.5511C37.789 22.833 38.0115 23.0853 38.2635 23.3227C38.4719 23.5304 38.7086 23.7232 38.9464 23.9161C40.1179 24.7915 41.5273 25.2514 42.9813 25.2514C44.4354 25.2514 45.8447 24.7915 47.0174 23.9161C47.2552 23.7381 47.4919 23.5304 47.7002 23.3227C47.937 23.0853 48.1748 22.833 48.382 22.5511C48.5304 22.3583 48.6645 22.1654 48.7823 21.9577C48.8565 21.8687 48.8718 21.7648 48.8271 21.6758Z" stroke="#383838"/>
<path d="M42.9966 18.9607C44.8663 18.9607 46.3945 17.4325 46.3945 15.5631C46.3945 13.6936 44.8663 12.1655 42.9966 12.1655C41.1269 12.1655 39.5987 13.6936 39.5987 15.5631C39.5987 17.4325 41.1269 18.9607 42.9966 18.9607Z" stroke="#383838"/>
<path fill-rule="evenodd" clip-rule="evenodd" d="M42.9955 55.9073C49.0681 55.9073 53.991 50.9845 53.991 44.9118C53.991 38.8391 49.0681 33.9163 42.9955 33.9163C36.9229 33.9163 32 38.8391 32 44.9118C32 50.9845 36.9229 55.9073 42.9955 55.9073ZM46.3945 41.7664C46.3945 43.6358 44.8663 45.164 42.9966 45.164C41.1269 45.164 39.5987 43.6358 39.5987 41.7664C39.5987 39.897 41.1269 38.3688 42.9966 38.3688C44.8663 38.3688 46.3945 39.897 46.3945 41.7664ZM48.7453 47.694C48.7747 47.7546 48.802 47.8163 48.8271 47.8792C48.8718 47.9681 48.8565 48.072 48.7823 48.161C48.6645 48.3688 48.5304 48.5616 48.382 48.7545C48.1748 49.0364 47.937 49.2886 47.7002 49.526C47.4919 49.7337 47.2552 49.9415 47.0174 50.1195C45.8447 50.9948 44.4354 51.4548 42.9813 51.4548C41.5273 51.4548 40.1179 50.9949 38.9464 50.1195C38.7086 49.9266 38.4719 49.7337 38.2635 49.526C38.0115 49.2886 37.789 49.0364 37.5807 48.7545C37.4476 48.5765 37.2992 48.3688 37.1803 48.161C37.1356 48.072 37.1214 47.9682 37.1661 47.8792C37.2545 47.6714 37.3734 47.4489 37.5065 47.256C38.1752 46.2471 39.2431 45.5795 40.4299 45.4162C40.5782 45.3866 40.7419 45.4311 40.8597 45.5201C41.4836 45.98 42.2254 46.2174 42.9966 46.2174C43.7678 46.2174 44.5096 45.98 45.1335 45.5201C45.2513 45.4311 45.415 45.4014 45.5633 45.4162C46.7501 45.5795 47.8039 46.2471 48.4856 47.256C48.5816 47.3944 48.67 47.5404 48.7453 47.694Z" fill="white" stroke="#383838"/>
</svg>
