<svg width="49" height="48" viewBox="0 0 49 48" fill="none" xmlns="http://www.w3.org/2000/svg">
<path d="M13.5059 7.41357V10.5603H15.0792V40.5864H23.7337V34.2921H28.4542V40.5864H37.1083V10.5603H38.6816V7.41357H13.5059ZM24.5202 29.4422H21.3735V26.2955H24.5202V29.4422ZM24.5202 23.1488H21.3735V20.0012H24.5202V23.1488ZM24.5202 16.8546H21.3735V13.7079H24.5202V16.8546ZM30.8145 29.4422H27.6673V26.2955H30.8145V29.4422ZM30.8145 23.1488H27.6673V20.0012H30.8145V23.1488ZM30.8145 16.8546H27.6673V13.7079H30.8145V16.8546Z" fill="white" stroke="#383838"/>
<path d="M24.4104 20.0844C23.9672 20.02 23.5441 19.8565 23.1728 19.6059C22.8015 19.3554 22.4915 19.0243 22.2659 18.6373C22.0403 18.2504 21.9049 17.8175 21.8698 17.371C21.8347 16.9244 21.9007 16.4757 22.0631 16.0582C22.1663 15.7853 22.1815 15.4869 22.1066 15.2049C22.0316 14.9229 21.8703 14.6715 21.6453 14.4857C20.6517 13.6514 19.5207 12.9959 18.3028 12.5486C18.0254 12.4456 17.7227 12.4327 17.4376 12.5118C17.1525 12.591 16.8997 12.758 16.7151 12.9892C16.4373 13.3445 16.0822 13.6318 15.6768 13.8294C15.2714 14.027 14.8263 14.1297 14.3754 14.1297C13.9244 14.1297 13.4793 14.027 13.0739 13.8294C12.6685 13.6318 12.3134 13.3445 12.0356 12.9892C11.851 12.758 11.5982 12.591 11.3131 12.5118C11.028 12.4327 10.7253 12.4456 10.4479 12.5486C9.32337 12.9616 8.27195 13.5514 7.33332 14.2958C7.09672 14.4831 6.9263 14.7413 6.84702 15.0324C6.76774 15.3236 6.78375 15.6325 6.89272 15.9139C7.06802 16.3424 7.14044 16.8061 7.10419 17.2676C7.06794 17.7292 6.92402 18.1758 6.68397 18.5717C6.44392 18.9676 6.11443 19.3017 5.72193 19.5473C5.32943 19.7928 4.88484 19.943 4.42384 19.9857C4.12454 20.0177 3.84342 20.1449 3.62187 20.3487C3.40033 20.5525 3.25006 20.822 3.19319 21.1176C3.05174 21.8177 2.98049 22.5303 2.98049 23.2446C2.97945 23.8426 3.02772 24.4397 3.12482 25.0298C3.17315 25.3349 3.32062 25.6155 3.54444 25.8283C3.76826 26.0412 4.05596 26.1743 4.36306 26.2073C4.8342 26.2515 5.28789 26.4079 5.68616 26.6634C6.08443 26.919 6.4157 27.2662 6.65224 27.6761C6.88877 28.0859 7.0237 28.5464 7.04571 29.0191C7.06773 29.4918 6.97619 29.9629 6.77877 30.393C6.64958 30.6727 6.61753 30.9876 6.68772 31.2876C6.75791 31.5877 6.92632 31.8556 7.1662 32.049C8.15384 32.8682 9.27393 33.5131 10.4783 33.9558C10.6323 34.0091 10.7939 34.0373 10.9569 34.0393C11.1804 34.0389 11.4005 33.9848 11.5987 33.8817C11.797 33.7786 11.9676 33.6295 12.0964 33.4468C12.3671 33.0523 12.7301 32.7299 13.1537 32.5075C13.5773 32.2851 14.0488 32.1694 14.5273 32.1706C14.9909 32.1712 15.4479 32.28 15.862 32.4884C16.2761 32.6967 16.6359 32.9989 16.9126 33.3708C17.0967 33.6183 17.3574 33.7979 17.6542 33.8817C17.951 33.9655 18.2672 33.9488 18.5535 33.8342C19.6547 33.391 20.68 32.7784 21.5921 32.0186C21.8212 31.8292 21.9844 31.572 22.0581 31.284C22.1318 30.996 22.1123 30.692 22.0023 30.4158C21.8236 29.9928 21.7457 29.534 21.7747 29.0758C21.8038 28.6175 21.9389 28.1723 22.1695 27.7752C22.4001 27.3781 22.7198 27.0401 23.1034 26.7877C23.4871 26.5354 23.9241 26.3757 24.38 26.3212C24.6757 26.2803 24.9506 26.1464 25.1651 25.9388C25.3795 25.7312 25.5223 25.4607 25.5727 25.1665C25.6947 24.5329 25.7608 23.8898 25.7702 23.2446C25.7704 22.5641 25.7068 21.885 25.5803 21.2163C25.529 20.9286 25.3884 20.6644 25.1784 20.4612C24.9683 20.258 24.6996 20.1262 24.4104 20.0844ZM18.1736 23.2446C18.1736 23.9958 17.9509 24.7302 17.5335 25.3548C17.1162 25.9794 16.5229 26.4663 15.8289 26.7538C15.1348 27.0412 14.3711 27.1165 13.6343 26.9699C12.8975 26.8234 12.2208 26.4616 11.6896 25.9304C11.1584 25.3992 10.7966 24.7224 10.65 23.9856C10.5035 23.2488 10.5787 22.4851 10.8662 21.7911C11.1537 21.097 11.6405 20.5038 12.2651 20.0864C12.8898 19.6691 13.6241 19.4463 14.3754 19.4463C15.3827 19.4463 16.3488 19.8465 17.0611 20.5588C17.7735 21.2711 18.1736 22.2372 18.1736 23.2446Z" fill="white" stroke="#383838"/>
</svg>
