<svg width="64" height="64" viewBox="0 0 64 64" fill="none" xmlns="http://www.w3.org/2000/svg">
<rect x="10.9805" y="19.6751" width="41.1426" height="28.0117" fill="white" stroke="#383838"/>
<path d="M16.6842 13.511H12.1006C9.43435 13.511 7.26514 16.0164 7.26514 19.0959C7.26514 19.3961 7.26228 19.6929 7.25945 19.9873C7.23589 22.4359 7.21403 24.7084 8.85241 27.2304C9.89079 28.8287 11.3178 29.969 12.979 30.5275L29.1104 35.9522C30.7074 36.4892 32.3958 36.4895 33.9931 35.9522L50.1245 30.5275C51.7857 29.9688 53.2127 28.8287 54.2511 27.2304C55.8928 24.7033 55.8693 22.4141 55.8445 19.9949C55.8414 19.6974 55.8383 19.398 55.8383 19.0959C55.8384 16.0164 53.6693 13.511 51.0031 13.511H50.7111V13.5114H16.6842V13.511Z" fill="white" stroke="#383838"/>
</svg>
