<svg width="64" height="64" viewBox="0 0 64 64" fill="none" xmlns="http://www.w3.org/2000/svg">
<path fill-rule="evenodd" clip-rule="evenodd" d="M11.4287 23.8116C11.4287 21.0502 13.667 18.8116 16.4287 18.8116H47.5713C50.333 18.8116 52.5713 21.0502 52.5713 23.8116V45.8233C52.5713 48.5848 50.333 50.8233 47.5713 50.8233H16.4287C13.667 50.8233 11.4287 48.5848 11.4287 45.8233V23.8116ZM20.6572 34.9463C20.6572 33.7706 21.6104 32.8175 22.7861 32.8175H41.2139C42.3896 32.8175 43.3428 33.7706 43.3428 34.9463C43.3428 36.122 42.3896 37.0751 41.2139 37.0751H22.7861C21.6104 37.0751 20.6572 36.122 20.6572 34.9463ZM27.6631 39.4895C26.4873 39.4895 25.5342 40.4426 25.5342 41.6183C25.5342 42.794 26.4873 43.7471 27.6631 43.7471H36.335C37.5107 43.7471 38.4639 42.794 38.4639 41.6183C38.4639 40.4426 37.5107 39.4895 36.335 39.4895H27.6631Z" fill="white" stroke="#383838"/>
<path fill-rule="evenodd" clip-rule="evenodd" d="M36.9556 24.1111C38.4766 22.7498 39.4338 20.7715 39.4338 18.5697C39.4338 14.4639 36.1054 11.1355 31.9996 11.1355C27.8938 11.1355 24.5654 14.4639 24.5654 18.5697C24.5654 20.7714 25.5225 22.7495 27.0433 24.1107V29.1508C27.0445 29.3955 27.1181 29.6342 27.2548 29.8371C27.3916 30.0399 27.5852 30.1978 27.8115 30.2908C28.0372 30.3856 28.2859 30.4116 28.5262 30.3652C28.7666 30.3189 28.9878 30.2025 29.1621 30.0306L31.9994 27.1808L34.8368 30.0306C34.9526 30.1454 35.0899 30.2362 35.2409 30.2979C35.3918 30.3596 35.5535 30.3908 35.7165 30.3899C35.8791 30.3941 36.0403 30.3601 36.1874 30.2908C36.4136 30.1978 36.6073 30.0399 36.744 29.8371C36.8808 29.6342 36.9544 29.3955 36.9556 29.1508V24.1111ZM32.0001 20.9559C33.318 20.9559 34.3864 19.8876 34.3864 18.5697C34.3864 17.2518 33.318 16.1834 32.0001 16.1834C30.6822 16.1834 29.6138 17.2518 29.6138 18.5697C29.6138 19.8876 30.6822 20.9559 32.0001 20.9559Z" fill="white"/>
<path d="M34.3864 18.5697C34.3864 19.8876 33.318 20.9559 32.0001 20.9559C30.6822 20.9559 29.6138 19.8876 29.6138 18.5697C29.6138 17.2518 30.6822 16.1834 32.0001 16.1834C33.318 16.1834 34.3864 17.2518 34.3864 18.5697Z" fill="white"/>
<path fill-rule="evenodd" clip-rule="evenodd" d="M36.9556 24.1111C38.4766 22.7498 39.4338 20.7715 39.4338 18.5697C39.4338 14.4639 36.1054 11.1355 31.9996 11.1355C27.8938 11.1355 24.5654 14.4639 24.5654 18.5697C24.5654 20.7714 25.5225 22.7495 27.0433 24.1107V29.1508C27.0445 29.3955 27.1181 29.6342 27.2548 29.8371C27.3916 30.0399 27.5852 30.1978 27.8115 30.2908C28.0372 30.3856 28.2859 30.4116 28.5262 30.3652C28.7666 30.3189 28.9878 30.2025 29.1621 30.0306L31.9994 27.1808L34.8368 30.0306C34.9526 30.1454 35.0899 30.2362 35.2409 30.2979C35.3918 30.3596 35.5535 30.3908 35.7165 30.3899C35.8791 30.3941 36.0403 30.3601 36.1874 30.2908C36.4136 30.1978 36.6073 30.0399 36.744 29.8371C36.8808 29.6342 36.9544 29.3955 36.9556 29.1508V24.1111ZM32.0001 20.9559C33.318 20.9559 34.3864 19.8876 34.3864 18.5697C34.3864 17.2518 33.318 16.1834 32.0001 16.1834C30.6822 16.1834 29.6138 17.2518 29.6138 18.5697C29.6138 19.8876 30.6822 20.9559 32.0001 20.9559Z" stroke="#383838"/>
<path d="M34.3864 18.5697C34.3864 19.8876 33.318 20.9559 32.0001 20.9559C30.6822 20.9559 29.6138 19.8876 29.6138 18.5697C29.6138 17.2518 30.6822 16.1834 32.0001 16.1834C33.318 16.1834 34.3864 17.2518 34.3864 18.5697Z" stroke="#383838"/>
</svg>
