<svg width="65" height="64" viewBox="0 0 65 64" fill="none" xmlns="http://www.w3.org/2000/svg">
<path d="M43.3805 8.32617H11.3973C9.80679 8.32617 8.28146 8.96215 7.15683 10.0942C6.0322 11.2263 5.40039 12.7616 5.40039 14.3626V42.5326C5.40039 44.1336 6.0322 45.669 7.15683 46.801C8.28146 47.9331 9.80679 48.569 11.3973 48.569H43.3805C44.971 48.569 46.4963 47.9331 47.621 46.801C48.7456 45.669 49.3774 44.1336 49.3774 42.5326V14.3626C49.3774 12.7616 48.7456 11.2263 47.621 10.0942C46.4963 8.96215 44.971 8.32617 43.3805 8.32617ZM21.392 14.3626H25.3899V18.3869H21.392V14.3626ZM13.3962 14.3626H17.3941V18.3869H13.3962V14.3626Z" fill="white" stroke="#383838"/>
<path fill-rule="evenodd" clip-rule="evenodd" d="M53.6293 30.405C53.6293 36.0321 49.2969 40.6321 43.9966 40.6321C38.6963 40.6321 34.3639 36.0321 34.3639 30.405C34.3639 24.7777 38.6963 20.1777 43.9966 20.1777C49.2969 20.1777 53.6293 24.7777 53.6293 30.405ZM60.2934 48.2477C60.3769 48.4299 60.4542 48.6156 60.5253 48.805C60.6521 49.0728 60.6088 49.3855 60.3985 49.6534C60.0645 50.2787 59.6842 50.8593 59.2636 51.4399C58.6761 52.2884 58.0019 53.0477 57.3309 53.7623C56.7403 54.3875 56.0692 55.0128 55.3951 55.5486C52.0708 58.1835 48.0755 59.568 43.9533 59.568C39.8312 59.568 35.8359 58.1836 32.5147 55.5486C31.8406 54.968 31.1695 54.3875 30.5789 53.7623C29.8645 53.0477 29.2337 52.2885 28.6431 51.4399C28.2658 50.9041 27.8452 50.2787 27.5082 49.6534C27.3814 49.3855 27.3412 49.0729 27.468 48.805C27.7184 48.1797 28.0555 47.5097 28.4328 46.9292C30.3284 43.8922 33.3558 41.8826 36.7203 41.3913C37.1409 41.3019 37.6047 41.4359 37.9387 41.7038C39.7075 43.0884 41.8103 43.8029 43.9966 43.8029C46.1829 43.8029 48.2857 43.0884 50.0546 41.7038C50.3885 41.4359 50.8524 41.3467 51.273 41.3913C54.6375 41.8826 57.6247 43.8922 59.5574 46.9292C59.8295 47.3456 60.08 47.7852 60.2934 48.2477Z" fill="white" stroke="#383838"/>
</svg>
