<svg width="65" height="64" viewBox="0 0 65 64" fill="none" xmlns="http://www.w3.org/2000/svg">
<path d="M26.9448 15.3099H26.4448V15.8099V19.8342V20.3342H26.9448H30.9427H31.4427V19.8342V15.8099V15.3099H30.9427H26.9448ZM18.9489 15.3099H18.4489V15.8099V19.8342V20.3342H18.9489H22.9469H23.4469V19.8342V15.8099V15.3099H22.9469H18.9489ZM16.95 10.2734H48.9333C50.3901 10.2734 51.7879 10.8559 52.819 11.8939C53.8502 12.9319 54.4301 14.3405 54.4301 15.8099V43.9799C54.4301 45.4493 53.8502 46.8579 52.819 47.8959C51.7879 48.9338 50.3901 49.5163 48.9333 49.5163H16.95C15.4932 49.5163 14.0954 48.9338 13.0643 47.8959C12.0331 46.8579 11.4531 45.4493 11.4531 43.9799V15.8099C11.4531 14.3405 12.0331 12.9319 13.0643 11.8939C14.0954 10.8559 15.4932 10.2734 16.95 10.2734Z" fill="white" stroke="#383838"/>
<mask id="path-2-inside-1_474_28126" fill="white">
<path fill-rule="evenodd" clip-rule="evenodd" d="M64.3449 43.1239C64.7198 42.7465 64.9304 42.2347 64.9304 41.7011V23.5918H28.9492V41.7011C28.9492 42.2347 29.1598 42.7465 29.5347 43.1239C29.9096 43.5012 30.418 43.7132 30.9482 43.7132H62.9315C63.4616 43.7132 63.9701 43.5012 64.3449 43.1239ZM48.9395 31.6404H60.9332V27.6161H48.9395V31.6404ZM38.9395 39.6889H60.9332V35.6647H38.9395V39.6889Z"/>
</mask>
<path fill-rule="evenodd" clip-rule="evenodd" d="M64.3449 43.1239C64.7198 42.7465 64.9304 42.2347 64.9304 41.7011V23.5918H28.9492V41.7011C28.9492 42.2347 29.1598 42.7465 29.5347 43.1239C29.9096 43.5012 30.418 43.7132 30.9482 43.7132H62.9315C63.4616 43.7132 63.9701 43.5012 64.3449 43.1239ZM48.9395 31.6404H60.9332V27.6161H48.9395V31.6404ZM38.9395 39.6889H60.9332V35.6647H38.9395V39.6889Z" fill="white"/>
<path d="M64.9304 23.5918H65.9304V22.5918H64.9304V23.5918ZM28.9492 23.5918V22.5918H27.9492V23.5918H28.9492ZM29.5347 43.1239L28.8253 43.8287L28.8253 43.8287L29.5347 43.1239ZM60.9332 31.6404V32.6404H61.9332V31.6404H60.9332ZM48.9395 31.6404H47.9395V32.6404H48.9395V31.6404ZM60.9332 27.6161H61.9332V26.6161H60.9332V27.6161ZM48.9395 27.6161V26.6161H47.9395V27.6161H48.9395ZM60.9332 39.6889V40.6889H61.9332V39.6889H60.9332ZM38.9395 39.6889H37.9395V40.6889H38.9395V39.6889ZM60.9332 35.6647H61.9332V34.6647H60.9332V35.6647ZM38.9395 35.6647V34.6647H37.9395V35.6647H38.9395ZM63.9304 41.7011C63.9304 41.9716 63.8236 42.2298 63.6355 42.4191L65.0544 43.8287C65.616 43.2633 65.9304 42.4978 65.9304 41.7011H63.9304ZM63.9304 23.5918V41.7011H65.9304V23.5918H63.9304ZM28.9492 24.5918H64.9304V22.5918H28.9492V24.5918ZM29.9492 41.7011V23.5918H27.9492V41.7011H29.9492ZM30.2441 42.4191C30.0561 42.2298 29.9492 41.9716 29.9492 41.7011H27.9492C27.9492 42.4978 28.2636 43.2633 28.8253 43.8287L30.2441 42.4191ZM30.9482 42.7132C30.6854 42.7132 30.432 42.6082 30.2441 42.4191L28.8253 43.8287C29.3872 44.3943 30.1507 44.7132 30.9482 44.7132V42.7132ZM62.9315 42.7132H30.9482V44.7132H62.9315V42.7132ZM63.6355 42.4191C63.4477 42.6082 63.1943 42.7132 62.9315 42.7132V44.7132C63.729 44.7132 64.4925 44.3943 65.0544 43.8287L63.6355 42.4191ZM60.9332 30.6404H48.9395V32.6404H60.9332V30.6404ZM59.9332 27.6161V31.6404H61.9332V27.6161H59.9332ZM48.9395 28.6161H60.9332V26.6161H48.9395V28.6161ZM49.9395 31.6404V27.6161H47.9395V31.6404H49.9395ZM60.9332 38.6889H38.9395V40.6889H60.9332V38.6889ZM59.9332 35.6647V39.6889H61.9332V35.6647H59.9332ZM38.9395 36.6647H60.9332V34.6647H38.9395V36.6647ZM39.9395 39.6889V35.6647H37.9395V39.6889H39.9395Z" fill="#383838" mask="url(#path-2-inside-1_474_28126)"/>
<mask id="path-4-inside-2_474_28126" fill="white">
<path fill-rule="evenodd" clip-rule="evenodd" d="M20.3962 53.1844C20.7711 52.8071 20.9817 52.2953 20.9817 51.7616V33.6523H0.929688V51.7616C0.929688 52.2953 1.14029 52.8071 1.51517 53.1844C1.89004 53.5618 2.39849 53.7738 2.92864 53.7738H18.9828C19.5129 53.7738 20.0214 53.5618 20.3962 53.1844ZM4.99019 41.7009H10.8597V37.6766H4.99019V41.7009ZM4.99019 49.7495H16.9839V45.7252H4.99019V49.7495Z"/>
</mask>
<path fill-rule="evenodd" clip-rule="evenodd" d="M20.3962 53.1844C20.7711 52.8071 20.9817 52.2953 20.9817 51.7616V33.6523H0.929688V51.7616C0.929688 52.2953 1.14029 52.8071 1.51517 53.1844C1.89004 53.5618 2.39849 53.7738 2.92864 53.7738H18.9828C19.5129 53.7738 20.0214 53.5618 20.3962 53.1844ZM4.99019 41.7009H10.8597V37.6766H4.99019V41.7009ZM4.99019 49.7495H16.9839V45.7252H4.99019V49.7495Z" fill="white"/>
<path d="M20.3962 53.1844L21.1057 53.8892L21.1057 53.8892L20.3962 53.1844ZM20.9817 33.6523H21.9817V32.6523H20.9817V33.6523ZM0.929688 33.6523V32.6523H-0.0703125V33.6523H0.929688ZM1.51517 53.1844L2.2246 52.4797L2.2246 52.4797L1.51517 53.1844ZM10.8597 41.7009V42.7009H11.8597V41.7009H10.8597ZM4.99019 41.7009H3.99019V42.7009H4.99019V41.7009ZM10.8597 37.6766H11.8597V36.6766H10.8597V37.6766ZM4.99019 37.6766V36.6766H3.99019V37.6766H4.99019ZM16.9839 49.7495V50.7495H17.9839V49.7495H16.9839ZM4.99019 49.7495H3.99019V50.7495H4.99019V49.7495ZM16.9839 45.7252H17.9839V44.7252H16.9839V45.7252ZM4.99019 45.7252V44.7252H3.99019V45.7252H4.99019ZM19.9817 51.7616C19.9817 52.0322 19.8749 52.2903 19.6868 52.4797L21.1057 53.8892C21.6673 53.3238 21.9817 52.5584 21.9817 51.7616H19.9817ZM19.9817 33.6523V51.7616H21.9817V33.6523H19.9817ZM0.929688 34.6523H20.9817V32.6523H0.929688V34.6523ZM1.92969 51.7616V33.6523H-0.0703125V51.7616H1.92969ZM2.2246 52.4797C2.03652 52.2903 1.92969 52.0322 1.92969 51.7616H-0.0703125C-0.0703125 52.5584 0.24406 53.3238 0.80574 53.8892L2.2246 52.4797ZM2.92864 52.7738C2.66583 52.7738 2.41245 52.6687 2.2246 52.4797L0.80574 53.8892C1.36764 54.4548 2.13115 54.7738 2.92864 54.7738V52.7738ZM18.9828 52.7738H2.92864V54.7738H18.9828V52.7738ZM19.6868 52.4797C19.499 52.6687 19.2456 52.7738 18.9828 52.7738V54.7738C19.7803 54.7738 20.5438 54.4548 21.1057 53.8892L19.6868 52.4797ZM10.8597 40.7009H4.99019V42.7009H10.8597V40.7009ZM9.85967 37.6766V41.7009H11.8597V37.6766H9.85967ZM4.99019 38.6766H10.8597V36.6766H4.99019V38.6766ZM5.99019 41.7009V37.6766H3.99019V41.7009H5.99019ZM16.9839 48.7495H4.99019V50.7495H16.9839V48.7495ZM15.9839 45.7252V49.7495H17.9839V45.7252H15.9839ZM4.99019 46.7252H16.9839V44.7252H4.99019V46.7252ZM5.99019 49.7495V45.7252H3.99019V49.7495H5.99019Z" fill="#383838" mask="url(#path-4-inside-2_474_28126)"/>
<mask id="mask0_474_28126" style="mask-type:alpha" maskUnits="userSpaceOnUse" x="10" y="9" width="45" height="42">
<path d="M26.9448 15.3099H26.4448V15.8099V19.8342V20.3342H26.9448H30.9427H31.4427V19.8342V15.8099V15.3099H30.9427H26.9448ZM18.9489 15.3099H18.4489V15.8099V19.8342V20.3342H18.9489H22.9469H23.4469V19.8342V15.8099V15.3099H22.9469H18.9489ZM16.95 10.2734H48.9333C50.3901 10.2734 51.7879 10.8559 52.819 11.8939C53.8502 12.9319 54.4301 14.3405 54.4301 15.8099V43.9799C54.4301 45.4493 53.8502 46.8579 52.819 47.8959C51.7879 48.9338 50.3901 49.5163 48.9333 49.5163H16.95C15.4932 49.5163 14.0954 48.9338 13.0643 47.8959C12.0331 46.8579 11.4531 45.4493 11.4531 43.9799V15.8099C11.4531 14.3405 12.0331 12.9319 13.0643 11.8939C14.0954 10.8559 15.4932 10.2734 16.95 10.2734Z" fill="white" stroke="#383838"/>
</mask>
<g mask="url(#mask0_474_28126)">
<mask id="path-7-inside-3_474_28126" fill="white">
<path fill-rule="evenodd" clip-rule="evenodd" d="M64.9304 41.7011C64.9304 42.2347 64.7198 42.7465 64.3449 43.1239C63.9701 43.5012 63.4616 43.7132 62.9315 43.7132H30.9482C30.418 43.7132 29.9096 43.5012 29.5347 43.1239C29.1598 42.7465 28.9492 42.2347 28.9492 41.7011V23.5918H64.9304V41.7011ZM60.9332 31.6404H48.9395V27.6161H60.9332V31.6404ZM60.9332 39.6889H38.9395V35.6647H60.9332V39.6889ZM20.9817 51.7618C20.9817 52.2955 20.7711 52.8073 20.3962 53.1846C20.0214 53.562 19.5129 53.774 18.9828 53.774H2.92864C2.39849 53.774 1.89004 53.562 1.51517 53.1846C1.14029 52.8073 0.929688 52.2955 0.929688 51.7618V33.6525H20.9817V51.7618ZM10.8597 41.7011H4.99019V37.6768H10.8597V41.7011ZM16.9839 49.7497H4.99019V45.7254H16.9839V49.7497Z"/>
</mask>
<path fill-rule="evenodd" clip-rule="evenodd" d="M64.9304 41.7011C64.9304 42.2347 64.7198 42.7465 64.3449 43.1239C63.9701 43.5012 63.4616 43.7132 62.9315 43.7132H30.9482C30.418 43.7132 29.9096 43.5012 29.5347 43.1239C29.1598 42.7465 28.9492 42.2347 28.9492 41.7011V23.5918H64.9304V41.7011ZM60.9332 31.6404H48.9395V27.6161H60.9332V31.6404ZM60.9332 39.6889H38.9395V35.6647H60.9332V39.6889ZM20.9817 51.7618C20.9817 52.2955 20.7711 52.8073 20.3962 53.1846C20.0214 53.562 19.5129 53.774 18.9828 53.774H2.92864C2.39849 53.774 1.89004 53.562 1.51517 53.1846C1.14029 52.8073 0.929688 52.2955 0.929688 51.7618V33.6525H20.9817V51.7618ZM10.8597 41.7011H4.99019V37.6768H10.8597V41.7011ZM16.9839 49.7497H4.99019V45.7254H16.9839V49.7497Z" fill="white"/>
<path d="M29.5347 43.1239L28.8253 43.8287L28.8253 43.8287L29.5347 43.1239ZM28.9492 23.5918V22.5918H27.9492V23.5918H28.9492ZM64.9304 23.5918H65.9304V22.5918H64.9304V23.5918ZM48.9395 31.6404H47.9395V32.6404H48.9395V31.6404ZM60.9332 31.6404V32.6404H61.9332V31.6404H60.9332ZM48.9395 27.6161V26.6161H47.9395V27.6161H48.9395ZM60.9332 27.6161H61.9332V26.6161H60.9332V27.6161ZM38.9395 39.6889H37.9395V40.6889H38.9395V39.6889ZM60.9332 39.6889V40.6889H61.9332V39.6889H60.9332ZM38.9395 35.6647V34.6647H37.9395V35.6647H38.9395ZM60.9332 35.6647H61.9332V34.6647H60.9332V35.6647ZM20.3962 53.1846L21.1057 53.8894L21.1057 53.8894L20.3962 53.1846ZM1.51517 53.1846L2.2246 52.4798L2.2246 52.4798L1.51517 53.1846ZM0.929688 33.6525V32.6525H-0.0703125V33.6525H0.929688ZM20.9817 33.6525H21.9817V32.6525H20.9817V33.6525ZM4.99019 41.7011H3.99019V42.7011H4.99019V41.7011ZM10.8597 41.7011V42.7011H11.8597V41.7011H10.8597ZM4.99019 37.6768V36.6768H3.99019V37.6768H4.99019ZM10.8597 37.6768H11.8597V36.6768H10.8597V37.6768ZM4.99019 49.7497H3.99019V50.7497H4.99019V49.7497ZM16.9839 49.7497V50.7497H17.9839V49.7497H16.9839ZM4.99019 45.7254V44.7254H3.99019V45.7254H4.99019ZM16.9839 45.7254H17.9839V44.7254H16.9839V45.7254ZM65.0544 43.8287C65.616 43.2633 65.9304 42.4978 65.9304 41.7011H63.9304C63.9304 41.9716 63.8236 42.2298 63.6355 42.4191L65.0544 43.8287ZM62.9315 44.7132C63.729 44.7132 64.4925 44.3943 65.0544 43.8287L63.6355 42.4191C63.4477 42.6082 63.1943 42.7132 62.9315 42.7132V44.7132ZM30.9482 44.7132H62.9315V42.7132H30.9482V44.7132ZM28.8253 43.8287C29.3872 44.3943 30.1507 44.7132 30.9482 44.7132V42.7132C30.6854 42.7132 30.432 42.6082 30.2441 42.4191L28.8253 43.8287ZM27.9492 41.7011C27.9492 42.4978 28.2636 43.2633 28.8253 43.8287L30.2441 42.4191C30.0561 42.2298 29.9492 41.9716 29.9492 41.7011H27.9492ZM27.9492 23.5918V41.7011H29.9492V23.5918H27.9492ZM64.9304 22.5918H28.9492V24.5918H64.9304V22.5918ZM65.9304 41.7011V23.5918H63.9304V41.7011H65.9304ZM48.9395 32.6404H60.9332V30.6404H48.9395V32.6404ZM47.9395 27.6161V31.6404H49.9395V27.6161H47.9395ZM60.9332 26.6161H48.9395V28.6161H60.9332V26.6161ZM61.9332 31.6404V27.6161H59.9332V31.6404H61.9332ZM38.9395 40.6889H60.9332V38.6889H38.9395V40.6889ZM37.9395 35.6647V39.6889H39.9395V35.6647H37.9395ZM60.9332 34.6647H38.9395V36.6647H60.9332V34.6647ZM61.9332 39.6889V35.6647H59.9332V39.6889H61.9332ZM21.1057 53.8894C21.6673 53.324 21.9817 52.5586 21.9817 51.7618H19.9817C19.9817 52.0324 19.8749 52.2905 19.6868 52.4798L21.1057 53.8894ZM18.9828 54.774C19.7803 54.774 20.5438 54.455 21.1057 53.8894L19.6868 52.4798C19.499 52.6689 19.2456 52.774 18.9828 52.774V54.774ZM2.92864 54.774H18.9828V52.774H2.92864V54.774ZM0.80574 53.8894C1.36764 54.455 2.13115 54.774 2.92864 54.774V52.774C2.66583 52.774 2.41245 52.6689 2.2246 52.4798L0.80574 53.8894ZM-0.0703125 51.7618C-0.0703125 52.5586 0.24406 53.324 0.80574 53.8894L2.2246 52.4798C2.03652 52.2905 1.92969 52.0324 1.92969 51.7618H-0.0703125ZM-0.0703125 33.6525V51.7618H1.92969V33.6525H-0.0703125ZM20.9817 32.6525H0.929688V34.6525H20.9817V32.6525ZM21.9817 51.7618V33.6525H19.9817V51.7618H21.9817ZM4.99019 42.7011H10.8597V40.7011H4.99019V42.7011ZM3.99019 37.6768V41.7011H5.99019V37.6768H3.99019ZM10.8597 36.6768H4.99019V38.6768H10.8597V36.6768ZM11.8597 41.7011V37.6768H9.85967V41.7011H11.8597ZM4.99019 50.7497H16.9839V48.7497H4.99019V50.7497ZM3.99019 45.7254V49.7497H5.99019V45.7254H3.99019ZM16.9839 44.7254H4.99019V46.7254H16.9839V44.7254ZM17.9839 49.7497V45.7254H15.9839V49.7497H17.9839Z" fill="#383838" mask="url(#path-7-inside-3_474_28126)"/>
</g>
</svg>
