<svg width="65" height="64" viewBox="0 0 65 64" fill="none" xmlns="http://www.w3.org/2000/svg">
<path fill-rule="evenodd" clip-rule="evenodd" d="M29.1641 17.2617C25.8506 17.2617 23.1641 19.948 23.1641 23.2617V44.0956C23.1641 47.4093 25.8506 50.0956 29.1641 50.0956H49.4629C52.7764 50.0956 55.4629 47.4093 55.4629 44.0956V23.2617C55.4629 19.948 52.7764 17.2617 49.4629 17.2617H29.1641ZM44.085 29.2628C44.085 31.8873 41.9395 34.0327 39.3145 34.0327C36.6904 34.0327 34.5449 31.8873 34.5449 29.2628C34.5449 26.6382 36.6904 24.4928 39.3145 24.4928C41.9395 24.4928 44.085 26.6382 44.085 29.2628ZM47.0215 36.9697C47.209 37.2405 47.376 37.5321 47.501 37.8446C47.5635 37.9695 47.542 38.1154 47.4385 38.2404C47.2715 38.532 47.084 38.8027 46.876 39.0735C46.584 39.4693 46.251 39.8234 45.918 40.1567C45.626 40.4483 45.293 40.7399 44.959 40.9898C43.3135 42.2188 41.335 42.8645 39.2939 42.8645C37.2529 42.8645 35.2734 42.2188 33.6279 40.9898C33.4111 40.8135 33.1943 40.6372 32.9893 40.4551C32.8789 40.3576 32.7715 40.2584 32.6699 40.1567C32.3154 39.8234 32.0029 39.4693 31.7119 39.0735L31.54 38.8395C31.4033 38.6494 31.2666 38.4448 31.1494 38.2404C31.0869 38.1154 31.0664 37.9696 31.1289 37.8446C31.2539 37.553 31.4199 37.2405 31.6074 36.9697C32.5449 35.5533 34.0449 34.616 35.7109 34.3868C35.9189 34.3452 36.1484 34.4077 36.3154 34.5326C37.1904 35.1783 38.2314 35.5116 39.3145 35.5116C40.3975 35.5116 41.4395 35.1783 42.3145 34.5326C42.4805 34.4077 42.71 34.366 42.918 34.3868C44.585 34.616 46.0635 35.5533 47.0215 36.9697Z" fill="white" stroke="#383838"/>
<path fill-rule="evenodd" clip-rule="evenodd" d="M13.7318 22.7207C11.5199 22.7207 9.72656 24.5139 9.72656 26.7259V40.6332C9.72656 42.8452 11.5199 44.6384 13.7318 44.6384H27.2819C29.4938 44.6384 31.2871 42.8452 31.2871 40.6332V26.7259C31.2871 24.5139 29.4938 22.7207 27.2819 22.7207H13.7318ZM23.692 30.7318C23.692 32.4838 22.2598 33.9159 20.5075 33.9159C18.7559 33.9159 17.3237 32.4838 17.3237 30.7318C17.3237 28.9798 18.7559 27.5477 20.5075 27.5477C22.2598 27.5477 23.692 28.9798 23.692 30.7318ZM25.6522 35.8765C25.7774 36.0572 25.8888 36.2519 25.9723 36.4604C26.014 36.5438 25.9996 36.6412 25.9305 36.7246C25.8191 36.9193 25.6939 37.1001 25.5551 37.2808C25.3601 37.545 25.1378 37.7814 24.9156 38.0039C24.7206 38.1985 24.4983 38.3932 24.2754 38.56C23.177 39.3804 21.8562 39.8114 20.4938 39.8114C19.1314 39.8114 17.81 39.3804 16.7115 38.56C16.5668 38.4423 16.4221 38.3246 16.2852 38.2031C16.2115 38.138 16.1398 38.0718 16.072 38.0039C15.8354 37.7814 15.6268 37.545 15.4325 37.2808L15.3178 37.1246C15.2265 36.9977 15.1353 36.8611 15.0571 36.7246C15.0153 36.6412 15.0016 36.5439 15.0434 36.4604C15.1268 36.2658 15.2376 36.0572 15.3628 35.8765C15.9886 34.9309 16.9899 34.3052 18.102 34.1523C18.2409 34.1245 18.3941 34.1662 18.5055 34.2496C19.0896 34.6806 19.7845 34.9031 20.5075 34.9031C21.2304 34.9031 21.926 34.6806 22.5101 34.2496C22.6209 34.1662 22.7741 34.1384 22.913 34.1523C24.0257 34.3052 25.0127 34.9309 25.6522 35.8765Z" fill="white"/>
<path d="M20.5075 33.9159C22.2598 33.9159 23.692 32.4838 23.692 30.7318C23.692 28.9798 22.2598 27.5477 20.5075 27.5477C18.7559 27.5477 17.3237 28.9798 17.3237 30.7318C17.3237 32.4838 18.7559 33.9159 20.5075 33.9159Z" fill="white"/>
<path d="M25.9723 36.4604C25.8888 36.2519 25.7774 36.0572 25.6522 35.8765C25.0127 34.9309 24.0257 34.3052 22.913 34.1523C22.7741 34.1384 22.6209 34.1662 22.5101 34.2496C21.926 34.6806 21.2304 34.9031 20.5075 34.9031C19.7845 34.9031 19.0896 34.6806 18.5055 34.2496C18.3941 34.1662 18.2409 34.1245 18.102 34.1523C16.9899 34.3052 15.9886 34.9309 15.3628 35.8765C15.2376 36.0572 15.1268 36.2658 15.0434 36.4604C15.0016 36.5439 15.0153 36.6412 15.0571 36.7246C15.1353 36.8611 15.2265 36.9977 15.3178 37.1246L15.4325 37.2808C15.6268 37.545 15.8354 37.7814 16.072 38.0039C16.1398 38.0718 16.2115 38.138 16.2852 38.2031C16.4221 38.3246 16.5668 38.4423 16.7115 38.56C17.81 39.3804 19.1314 39.8114 20.4938 39.8114C21.8562 39.8114 23.177 39.3804 24.2754 38.56C24.4983 38.3932 24.7206 38.1985 24.9156 38.0039C25.1378 37.7814 25.3601 37.545 25.5551 37.2808C25.6939 37.1001 25.8191 36.9193 25.9305 36.7246C25.9996 36.6412 26.014 36.5438 25.9723 36.4604Z" fill="white"/>
<path fill-rule="evenodd" clip-rule="evenodd" d="M13.7318 22.7207C11.5199 22.7207 9.72656 24.5139 9.72656 26.7259V40.6332C9.72656 42.8452 11.5199 44.6384 13.7318 44.6384H27.2819C29.4938 44.6384 31.2871 42.8452 31.2871 40.6332V26.7259C31.2871 24.5139 29.4938 22.7207 27.2819 22.7207H13.7318ZM23.692 30.7318C23.692 32.4838 22.2598 33.9159 20.5075 33.9159C18.7559 33.9159 17.3237 32.4838 17.3237 30.7318C17.3237 28.9798 18.7559 27.5477 20.5075 27.5477C22.2598 27.5477 23.692 28.9798 23.692 30.7318ZM25.6522 35.8765C25.7774 36.0572 25.8888 36.2519 25.9723 36.4604C26.014 36.5438 25.9996 36.6412 25.9305 36.7246C25.8191 36.9193 25.6939 37.1001 25.5551 37.2808C25.3601 37.545 25.1378 37.7814 24.9156 38.0039C24.7206 38.1985 24.4983 38.3932 24.2754 38.56C23.177 39.3804 21.8562 39.8114 20.4938 39.8114C19.1314 39.8114 17.81 39.3804 16.7115 38.56C16.5668 38.4423 16.4221 38.3246 16.2852 38.2031C16.2115 38.138 16.1398 38.0718 16.072 38.0039C15.8354 37.7814 15.6268 37.545 15.4325 37.2808L15.3178 37.1246C15.2265 36.9977 15.1353 36.8611 15.0571 36.7246C15.0153 36.6412 15.0016 36.5439 15.0434 36.4604C15.1268 36.2658 15.2376 36.0572 15.3628 35.8765C15.9886 34.9309 16.9899 34.3052 18.102 34.1523C18.2409 34.1245 18.3941 34.1662 18.5055 34.2496C19.0896 34.6806 19.7845 34.9031 20.5075 34.9031C21.2304 34.9031 21.926 34.6806 22.5101 34.2496C22.6209 34.1662 22.7741 34.1384 22.913 34.1523C24.0257 34.3052 25.0127 34.9309 25.6522 35.8765Z" stroke="#383838"/>
<path d="M20.5075 33.9159C22.2598 33.9159 23.692 32.4838 23.692 30.7318C23.692 28.9798 22.2598 27.5477 20.5075 27.5477C18.7559 27.5477 17.3237 28.9798 17.3237 30.7318C17.3237 32.4838 18.7559 33.9159 20.5075 33.9159Z" stroke="#383838"/>
<path d="M25.9723 36.4604C25.8888 36.2519 25.7774 36.0572 25.6522 35.8765C25.0127 34.9309 24.0257 34.3052 22.913 34.1523C22.7741 34.1384 22.6209 34.1662 22.5101 34.2496C21.926 34.6806 21.2304 34.9031 20.5075 34.9031C19.7845 34.9031 19.0896 34.6806 18.5055 34.2496C18.3941 34.1662 18.2409 34.1245 18.102 34.1523C16.9899 34.3052 15.9886 34.9309 15.3628 35.8765C15.2376 36.0572 15.1268 36.2658 15.0434 36.4604C15.0016 36.5439 15.0153 36.6412 15.0571 36.7246C15.1353 36.8611 15.2265 36.9977 15.3178 37.1246L15.4325 37.2808C15.6268 37.545 15.8354 37.7814 16.072 38.0039C16.1398 38.0718 16.2115 38.138 16.2852 38.2031C16.4221 38.3246 16.5668 38.4423 16.7115 38.56C17.81 39.3804 19.1314 39.8114 20.4938 39.8114C21.8562 39.8114 23.177 39.3804 24.2754 38.56C24.4983 38.3932 24.7206 38.1985 24.9156 38.0039C25.1378 37.7814 25.3601 37.545 25.5551 37.2808C25.6939 37.1001 25.8191 36.9193 25.9305 36.7246C25.9996 36.6412 26.014 36.5438 25.9723 36.4604Z" stroke="#383838"/>
</svg>
