<svg width="64" height="64" viewBox="0 0 64 64" fill="none" xmlns="http://www.w3.org/2000/svg">
<path d="M55.121 29.2524V43.9645C55.121 45.6368 54.4567 47.2405 53.2743 48.423C52.0918 49.6055 50.4881 50.2698 48.8158 50.2698H15.188C13.5158 50.2698 11.912 49.6055 10.7296 48.423C9.54711 47.2405 8.88281 45.6368 8.88281 43.9645V22.9472C8.88281 21.2749 9.54711 19.6712 10.7296 18.4887C11.912 17.3063 13.5158 16.642 15.188 16.642H26.9367C28.0498 16.6467 29.1155 17.0926 29.9002 17.882L34.9654 22.9472H48.8158C50.4881 22.9472 52.0918 23.6115 53.2743 24.7939C54.4567 25.9764 55.121 27.5801 55.121 29.2524Z" fill="#FF2731"/>
<path d="M14.7861 12.8311C14.7861 10.3523 17.3774 8.3429 20.5739 8.3429H44.0754C47.2719 8.3429 49.8632 10.3523 49.8632 12.8311V32.9121C49.8632 35.3909 47.2719 37.4003 44.0754 37.4003H20.5739C17.3774 37.4003 14.7861 35.3909 14.7861 32.9121V12.8311Z" fill="#0096F0"/>
<path d="M19.7969 41.9422C19.7969 40.3055 21.6827 38.9787 24.0089 38.9787H41.1122C43.4384 38.9787 45.3242 40.3055 45.3242 41.9422V55.2014C45.3242 56.8381 43.4384 58.1649 41.1122 58.1649H24.0089C21.6827 58.1649 19.7969 56.8381 19.7969 55.2014V41.9422Z" fill="#0096F0"/>
<mask id="mask0_549_15759" style="mask-type:alpha" maskUnits="userSpaceOnUse" x="8" y="16" width="48" height="35">
<path d="M55.121 29.2524V43.9645C55.121 45.6368 54.4567 47.2405 53.2743 48.423C52.0918 49.6055 50.4881 50.2698 48.8158 50.2698H15.188C13.5158 50.2698 11.912 49.6055 10.7296 48.423C9.54711 47.2405 8.88281 45.6368 8.88281 43.9645V22.9472C8.88281 21.2749 9.54711 19.6712 10.7296 18.4887C11.912 17.3063 13.5158 16.642 15.188 16.642H26.9367C28.0498 16.6467 29.1155 17.0926 29.9002 17.882L34.9654 22.9472H48.8158C50.4881 22.9472 52.0918 23.6115 53.2743 24.7939C54.4567 25.9764 55.121 27.5801 55.121 29.2524Z" fill="#930014"/>
</mask>
<g mask="url(#mask0_549_15759)">
<path fill-rule="evenodd" clip-rule="evenodd" d="M20.5739 8.3429C17.3774 8.3429 14.7861 10.3523 14.7861 12.8311V32.9121C14.7861 35.3909 17.3774 37.4003 20.5739 37.4003H44.0754C47.2719 37.4003 49.8632 35.3909 49.8632 32.9121V12.8311C49.8632 10.3523 47.2719 8.3429 44.0754 8.3429H20.5739ZM24.0089 38.9787C21.6827 38.9787 19.7969 40.3055 19.7969 41.9422V55.2014C19.7969 56.8381 21.6827 58.1649 24.0089 58.1649H41.1122C43.4384 58.1649 45.3242 56.8381 45.3242 55.2014V41.9422C45.3242 40.3055 43.4384 38.9787 41.1122 38.9787H24.0089Z" fill="#930014"/>
</g>
</svg>
