<svg width="64" height="64" viewBox="0 0 64 64" fill="none" xmlns="http://www.w3.org/2000/svg">
<g clip-path="url(#clip0_549_15760)">
<path d="M44.4386 43.3554V31.4787L57.4079 29.9374C57.454 30.6174 57.5002 31.252 57.5002 31.932C57.454 45.8033 46.054 57 31.9309 57C19.3771 57 8.71555 47.9791 6.82324 35.8305L19.2386 34.1985V43.3554C19.4694 44.534 19.6079 45.5313 21.5463 45.6219H42.0848C43.3771 45.6673 44.3925 44.6247 44.4386 43.3554Z" fill="#FF2731"/>
<path d="M19.3769 20.01V31.5694L6.54615 33.1559C6.54615 32.7933 6.5 32.4306 6.5 32.0227C6.5 18.1967 17.9 7 31.9769 7C44.2077 7 54.7308 15.5675 56.9923 27.3989L50.7615 25.631C50.2077 25.5403 50.2077 25.8123 50.1615 26.2203L50.5769 28.1242L44.3462 28.8042V20.5539C44.2077 19.33 44.1615 17.9248 41.6692 17.9248H21.4077C19.9769 18.0607 19.5615 18.8767 19.3769 20.01Z" fill="#FF2731"/>
<path d="M38.9463 23.4551H24.9155V25.7217H38.9463V23.4551Z" fill="#FF2731"/>
<path d="M38.9463 30.4361H24.9155V32.7026H38.9463V30.4361Z" fill="#FF2731"/>
<path d="M38.9463 37.4171H24.9155V39.6836H38.9463V37.4171Z" fill="#FF2731"/>
</g>
<defs>
<clipPath id="clip0_549_15760">
<rect width="51" height="50" fill="white" transform="translate(6.5 7)"/>
</clipPath>
</defs>
</svg>
