<svg width="64" height="64" viewBox="0 0 64 64" fill="none" xmlns="http://www.w3.org/2000/svg">
<path d="M15.2508 10.1367C15.2508 8.6342 16.4688 7.4162 17.9713 7.4162C19.4737 7.4162 20.6917 8.6342 20.6917 10.1367V12.9327H38.0174V10.1367C38.0174 8.6342 39.2354 7.4162 40.7379 7.4162C42.2404 7.4162 43.4584 8.6342 43.4584 10.1367V12.9327H47.1419C48.1883 12.9327 49.2343 13.9789 49.2343 15.0252V44.2881C49.2343 45.4619 48.2828 46.4134 47.1091 46.4134H11.5687C10.5224 46.4134 9.47607 45.5763 9.47607 44.3208V15.0252C9.47607 13.7697 10.5224 12.9327 11.5687 12.9327H15.2508V10.1367Z" fill="#FF2731"/>
<g style="mix-blend-mode:multiply">
<path d="M41.2129 24.7548C32.9253 24.7548 26.1445 31.5355 26.1445 39.8231C26.1445 48.1107 32.9253 54.8915 41.2129 54.8915C49.5005 54.8915 56.2812 48.1107 56.2812 39.8231C56.2812 31.5355 49.5005 24.7548 41.2129 24.7548ZM46.2357 42.3345H41.2129C39.7061 42.3345 38.7015 41.33 38.7015 39.8231V32.2889C38.7015 30.7821 39.7061 29.7775 41.2129 29.7775C42.7197 29.7775 43.7243 30.7821 43.7243 32.2889V37.3117H46.2357C47.7425 37.3117 48.7471 38.3163 48.7471 39.8231C48.7471 41.33 47.7425 42.3345 46.2357 42.3345Z" fill="#0096F0"/>
</g>
<mask id="mask0_549_15763" style="mask-type:alpha" maskUnits="userSpaceOnUse" x="9" y="7" width="41" height="40">
<path d="M15.2508 10.1367C15.2508 8.6342 16.4688 7.4162 17.9713 7.4162C19.4737 7.4162 20.6917 8.6342 20.6917 10.1367V12.9327H38.0174V10.1367C38.0174 8.6342 39.2354 7.4162 40.7379 7.4162C42.2404 7.4162 43.4584 8.6342 43.4584 10.1367V12.9327H47.1419C48.1883 12.9327 49.2343 13.9789 49.2343 15.0252V44.2881C49.2343 45.4619 48.2828 46.4134 47.1091 46.4134H11.5687C10.5224 46.4134 9.47607 45.5763 9.47607 44.3208V15.0252C9.47607 13.7697 10.5224 12.9327 11.5687 12.9327H15.2508V10.1367Z" fill="#930014"/>
</mask>
<g mask="url(#mask0_549_15763)">
<g style="mix-blend-mode:multiply">
<path d="M41.2129 24.7548C32.9253 24.7548 26.1445 31.5355 26.1445 39.8231C26.1445 48.1107 32.9253 54.8915 41.2129 54.8915C49.5005 54.8915 56.2812 48.1107 56.2812 39.8231C56.2812 31.5355 49.5005 24.7548 41.2129 24.7548ZM46.2357 42.3345H41.2129C39.7061 42.3345 38.7015 41.33 38.7015 39.8231V32.2889C38.7015 30.7821 39.7061 29.7775 41.2129 29.7775C42.7197 29.7775 43.7243 30.7821 43.7243 32.2889V37.3117H46.2357C47.7425 37.3117 48.7471 38.3163 48.7471 39.8231C48.7471 41.33 47.7425 42.3345 46.2357 42.3345Z" fill="#930014"/>
</g>
</g>
</svg>
