<svg width="64" height="64" viewBox="0 0 64 64" fill="none" xmlns="http://www.w3.org/2000/svg">
<path d="M25.3229 21.4716H44.8317C48.3637 21.4716 51.2266 24.3293 51.2266 27.8665V51.1295C51.2266 52.371 49.8028 53.0971 48.7981 52.3437L42.7 47.7702H25.3229C21.7909 47.7702 18.928 44.9124 18.928 41.3753V27.8665C18.928 24.3345 21.7857 21.4716 25.3229 21.4716ZM30.8377 39.1389L43.206 39.1389C44.0443 39.1389 44.7238 38.459 44.7238 37.6211C44.7238 36.7827 44.0443 36.1033 43.206 36.1033H30.8377C29.9998 36.1033 29.3199 36.7827 29.3199 37.6211C29.3199 38.459 29.9994 39.1389 30.8377 39.1389ZM30.8377 32.6357L43.206 32.6357C44.0443 32.6357 44.7238 31.9562 44.7238 31.1179C44.7238 30.2799 44.0443 29.6001 43.206 29.6001L30.8377 29.6001C29.9998 29.6001 29.3199 30.2799 29.3199 31.1179C29.3199 31.9562 29.9994 32.6357 30.8377 32.6357Z" fill="#FF2731"/>
<g style="mix-blend-mode:multiply">
<path d="M16.7879 35.4152C22.7563 35.4152 27.6115 30.5601 27.6115 24.5922C27.6115 18.6243 22.7563 13.7686 16.7879 13.7686C10.82 13.7686 5.96484 18.6243 5.96484 24.5922C5.96484 30.5601 10.82 35.4152 16.7879 35.4152ZM14.7911 19.866H18.7852V29.3178H14.7911V19.866Z" fill="#0096F0"/>
</g>
<g style="mix-blend-mode:multiply">
<path d="M35.0779 24.5919C39.8402 24.5919 43.7142 20.7179 43.7142 15.956C43.7142 11.1941 39.8402 7.31961 35.0779 7.31961C30.3159 7.31961 26.4419 11.1941 26.4419 15.956C26.4419 20.7179 30.3159 24.5919 35.0779 24.5919ZM33.4846 12.1849H36.6715V19.7267H33.4846V12.1849Z" fill="#0096F0"/>
</g>
<mask id="mask0_549_15765" style="mask-type:alpha" maskUnits="userSpaceOnUse" x="18" y="21" width="34" height="32">
<path d="M25.3229 21.4716H44.8317C48.3637 21.4716 51.2266 24.3293 51.2266 27.8665V51.1295C51.2266 52.371 49.8028 53.0971 48.7981 52.3437L42.7 47.7702H25.3229C21.7909 47.7702 18.928 44.9124 18.928 41.3753V27.8665C18.928 24.3345 21.7857 21.4716 25.3229 21.4716ZM30.8377 39.1389L43.206 39.1389C44.0443 39.1389 44.7238 38.459 44.7238 37.6211C44.7238 36.7827 44.0443 36.1033 43.206 36.1033H30.8377C29.9998 36.1033 29.3199 36.7827 29.3199 37.6211C29.3199 38.459 29.9994 39.1389 30.8377 39.1389ZM30.8377 32.6357L43.206 32.6357C44.0443 32.6357 44.7238 31.9562 44.7238 31.1179C44.7238 30.2799 44.0443 29.6001 43.206 29.6001L30.8377 29.6001C29.9998 29.6001 29.3199 30.2799 29.3199 31.1179C29.3199 31.9562 29.9994 32.6357 30.8377 32.6357Z" fill="#930014"/>
</mask>
<g mask="url(#mask0_549_15765)">
<path fill-rule="evenodd" clip-rule="evenodd" d="M43.7142 15.956C43.7142 20.7179 39.8402 24.5919 35.0779 24.5919C30.3159 24.5919 26.4419 20.7179 26.4419 15.956C26.4419 11.1941 30.3159 7.31961 35.0779 7.31961C39.8402 7.31961 43.7142 11.1941 43.7142 15.956ZM36.6715 12.1849H33.4846V19.7267H36.6715V12.1849ZM27.6115 24.5922C27.6115 30.5601 22.7563 35.4152 16.7879 35.4152C10.82 35.4152 5.96484 30.5601 5.96484 24.5922C5.96484 18.6243 10.82 13.7686 16.7879 13.7686C22.7563 13.7686 27.6115 18.6243 27.6115 24.5922ZM18.7852 19.866H14.7911V29.3178H18.7852V19.866Z" fill="#930014"/>
</g>
</svg>
