<svg width="107" height="18" viewBox="0 0 107 18" fill="none" xmlns="http://www.w3.org/2000/svg">
<path d="M7.25567 17.288C6.05567 17.288 4.96767 17.056 3.99167 16.592C3.03167 16.112 2.26367 15.384 1.68767 14.408C1.12767 13.432 0.847672 12.192 0.847672 10.688V0.199999H3.39167V10.712C3.39167 12.184 3.74367 13.264 4.44767 13.952C5.15167 14.64 6.10367 14.984 7.30367 14.984C8.48767 14.984 9.43167 14.64 10.1357 13.952C10.8397 13.264 11.1917 12.184 11.1917 10.712V0.199999H13.7357V10.688C13.7357 12.192 13.4397 13.432 12.8477 14.408C12.2717 15.384 11.4877 16.112 10.4957 16.592C9.51967 17.056 8.43967 17.288 7.25567 17.288ZM20.9349 17.288C19.4309 17.288 18.1909 16.92 17.2149 16.184C16.2389 15.448 15.6789 14.472 15.5349 13.256H18.1029C18.2309 13.8 18.5349 14.272 19.0149 14.672C19.4949 15.056 20.1269 15.248 20.9109 15.248C21.6789 15.248 22.2389 15.088 22.5909 14.768C22.9429 14.448 23.1189 14.08 23.1189 13.664C23.1189 13.056 22.8709 12.648 22.3749 12.44C21.8949 12.216 21.2229 12.016 20.3589 11.84C19.6869 11.696 19.0149 11.504 18.3429 11.264C17.6869 11.024 17.1349 10.688 16.6869 10.256C16.2549 9.808 16.0389 9.208 16.0389 8.456C16.0389 7.416 16.4389 6.552 17.2389 5.864C18.0389 5.16 19.1589 4.808 20.5989 4.808C21.9269 4.808 22.9989 5.128 23.8149 5.768C24.6469 6.408 25.1349 7.312 25.2789 8.48H22.8309C22.7509 7.968 22.5109 7.568 22.1109 7.28C21.7269 6.992 21.2069 6.848 20.5509 6.848C19.9109 6.848 19.4149 6.984 19.0629 7.256C18.7109 7.512 18.5349 7.848 18.5349 8.264C18.5349 8.68 18.7749 9.008 19.2549 9.248C19.7509 9.488 20.3989 9.704 21.1989 9.896C21.9989 10.072 22.7349 10.28 23.4069 10.52C24.0949 10.744 24.6469 11.08 25.0629 11.528C25.4789 11.976 25.6869 12.632 25.6869 13.496C25.7029 14.584 25.2789 15.488 24.4149 16.208C23.5669 16.928 22.4069 17.288 20.9349 17.288ZM33.3122 17.288C32.1442 17.288 31.1042 17.032 30.1922 16.52C29.2962 15.992 28.5922 15.264 28.0802 14.336C27.5682 13.408 27.3122 12.328 27.3122 11.096C27.3122 9.848 27.5602 8.752 28.0562 7.808C28.5682 6.864 29.2722 6.128 30.1682 5.6C31.0802 5.072 32.1362 4.808 33.3362 4.808C34.5042 4.808 35.5202 5.072 36.3842 5.6C37.2482 6.112 37.9202 6.8 38.4002 7.664C38.8802 8.528 39.1202 9.48 39.1202 10.52C39.1202 10.68 39.1122 10.856 39.0962 11.048C39.0962 11.224 39.0882 11.424 39.0722 11.648H29.8082C29.8882 12.8 30.2642 13.68 30.9362 14.288C31.6242 14.88 32.4162 15.176 33.3122 15.176C34.0322 15.176 34.6322 15.016 35.1122 14.696C35.6082 14.36 35.9762 13.912 36.2162 13.352H38.7602C38.4402 14.472 37.8002 15.408 36.8402 16.16C35.8962 16.912 34.7202 17.288 33.3122 17.288ZM33.3122 6.896C32.4642 6.896 31.7122 7.152 31.0562 7.664C30.4002 8.16 30.0002 8.912 29.8562 9.92H36.5762C36.5282 8.992 36.2002 8.256 35.5922 7.712C34.9842 7.168 34.2242 6.896 33.3122 6.896ZM52.0067 17.288C50.8387 17.288 49.7907 17.024 48.8627 16.496C47.9507 15.968 47.2307 15.24 46.7027 14.312C46.1907 13.368 45.9347 12.28 45.9347 11.048C45.9347 9.816 46.1907 8.736 46.7027 7.808C47.2307 6.864 47.9507 6.128 48.8627 5.6C49.7907 5.072 50.8387 4.808 52.0067 4.808C53.4787 4.808 54.7107 5.192 55.7027 5.96C56.7107 6.728 57.3587 7.768 57.6467 9.08H54.9827C54.8227 8.424 54.4707 7.912 53.9267 7.544C53.3827 7.176 52.7427 6.992 52.0067 6.992C51.3827 6.992 50.8067 7.152 50.2787 7.472C49.7507 7.776 49.3267 8.232 49.0067 8.84C48.6867 9.432 48.5267 10.168 48.5267 11.048C48.5267 11.928 48.6867 12.672 49.0067 13.28C49.3267 13.872 49.7507 14.328 50.2787 14.648C50.8067 14.968 51.3827 15.128 52.0067 15.128C52.7427 15.128 53.3827 14.944 53.9267 14.576C54.4707 14.208 54.8227 13.688 54.9827 13.016H57.6467C57.3747 14.296 56.7347 15.328 55.7267 16.112C54.7187 16.896 53.4787 17.288 52.0067 17.288ZM63.7177 17.288C62.7097 17.288 61.8777 17.12 61.2217 16.784C60.5657 16.448 60.0777 16.008 59.7577 15.464C59.4377 14.904 59.2777 14.296 59.2777 13.64C59.2777 12.488 59.7257 11.576 60.6217 10.904C61.5177 10.232 62.7977 9.896 64.4617 9.896H67.5817V9.68C67.5817 8.752 67.3257 8.056 66.8137 7.592C66.3177 7.128 65.6697 6.896 64.8697 6.896C64.1657 6.896 63.5497 7.072 63.0217 7.424C62.5097 7.76 62.1977 8.264 62.0857 8.936H59.5417C59.6217 8.072 59.9097 7.336 60.4057 6.728C60.9177 6.104 61.5577 5.632 62.3257 5.312C63.1097 4.976 63.9657 4.808 64.8937 4.808C66.5577 4.808 67.8457 5.248 68.7577 6.128C69.6697 6.992 70.1257 8.176 70.1257 9.68V17H67.9177L67.7017 14.96C67.3657 15.616 66.8777 16.168 66.2377 16.616C65.5977 17.064 64.7577 17.288 63.7177 17.288ZM64.2217 15.224C64.9097 15.224 65.4857 15.064 65.9497 14.744C66.4297 14.408 66.7977 13.968 67.0537 13.424C67.3257 12.88 67.4937 12.28 67.5577 11.624H64.7257C63.7177 11.624 62.9977 11.8 62.5657 12.152C62.1497 12.504 61.9417 12.944 61.9417 13.472C61.9417 14.016 62.1417 14.448 62.5417 14.768C62.9577 15.072 63.5177 15.224 64.2217 15.224ZM77.124 17.288C75.62 17.288 74.38 16.92 73.404 16.184C72.428 15.448 71.868 14.472 71.724 13.256H74.292C74.42 13.8 74.724 14.272 75.204 14.672C75.684 15.056 76.316 15.248 77.1 15.248C77.868 15.248 78.428 15.088 78.78 14.768C79.132 14.448 79.308 14.08 79.308 13.664C79.308 13.056 79.06 12.648 78.564 12.44C78.084 12.216 77.412 12.016 76.548 11.84C75.876 11.696 75.204 11.504 74.532 11.264C73.876 11.024 73.324 10.688 72.876 10.256C72.444 9.808 72.228 9.208 72.228 8.456C72.228 7.416 72.628 6.552 73.428 5.864C74.228 5.16 75.348 4.808 76.788 4.808C78.116 4.808 79.188 5.128 80.004 5.768C80.836 6.408 81.324 7.312 81.468 8.48H79.02C78.94 7.968 78.7 7.568 78.3 7.28C77.916 6.992 77.396 6.848 76.74 6.848C76.1 6.848 75.604 6.984 75.252 7.256C74.9 7.512 74.724 7.848 74.724 8.264C74.724 8.68 74.964 9.008 75.444 9.248C75.94 9.488 76.588 9.704 77.388 9.896C78.188 10.072 78.924 10.28 79.596 10.52C80.284 10.744 80.836 11.08 81.252 11.528C81.668 11.976 81.876 12.632 81.876 13.496C81.892 14.584 81.468 15.488 80.604 16.208C79.756 16.928 78.596 17.288 77.124 17.288ZM89.5012 17.288C88.3332 17.288 87.2932 17.032 86.3812 16.52C85.4852 15.992 84.7812 15.264 84.2692 14.336C83.7572 13.408 83.5012 12.328 83.5012 11.096C83.5012 9.848 83.7492 8.752 84.2452 7.808C84.7572 6.864 85.4612 6.128 86.3572 5.6C87.2692 5.072 88.3252 4.808 89.5252 4.808C90.6932 4.808 91.7092 5.072 92.5732 5.6C93.4372 6.112 94.1092 6.8 94.5892 7.664C95.0692 8.528 95.3092 9.48 95.3092 10.52C95.3092 10.68 95.3012 10.856 95.2852 11.048C95.2852 11.224 95.2772 11.424 95.2612 11.648H85.9972C86.0772 12.8 86.4532 13.68 87.1252 14.288C87.8132 14.88 88.6052 15.176 89.5012 15.176C90.2212 15.176 90.8212 15.016 91.3012 14.696C91.7972 14.36 92.1652 13.912 92.4052 13.352H94.9492C94.6292 14.472 93.9892 15.408 93.0292 16.16C92.0852 16.912 90.9092 17.288 89.5012 17.288ZM89.5012 6.896C88.6532 6.896 87.9012 7.152 87.2452 7.664C86.5892 8.16 86.1892 8.912 86.0452 9.92H92.7652C92.7172 8.992 92.3892 8.256 91.7812 7.712C91.1732 7.168 90.4132 6.896 89.5012 6.896ZM101.981 17.288C100.477 17.288 99.2369 16.92 98.2609 16.184C97.2849 15.448 96.7249 14.472 96.5809 13.256H99.1489C99.2769 13.8 99.5809 14.272 100.061 14.672C100.541 15.056 101.173 15.248 101.957 15.248C102.725 15.248 103.285 15.088 103.637 14.768C103.989 14.448 104.165 14.08 104.165 13.664C104.165 13.056 103.917 12.648 103.421 12.44C102.941 12.216 102.269 12.016 101.405 11.84C100.733 11.696 100.061 11.504 99.3889 11.264C98.7329 11.024 98.1809 10.688 97.7329 10.256C97.3009 9.808 97.0849 9.208 97.0849 8.456C97.0849 7.416 97.4849 6.552 98.2849 5.864C99.0849 5.16 100.205 4.808 101.645 4.808C102.973 4.808 104.045 5.128 104.861 5.768C105.693 6.408 106.181 7.312 106.325 8.48H103.877C103.797 7.968 103.557 7.568 103.157 7.28C102.773 6.992 102.253 6.848 101.597 6.848C100.957 6.848 100.461 6.984 100.109 7.256C99.7569 7.512 99.5809 7.848 99.5809 8.264C99.5809 8.68 99.8209 9.008 100.301 9.248C100.797 9.488 101.445 9.704 102.245 9.896C103.045 10.072 103.781 10.28 104.453 10.52C105.141 10.744 105.693 11.08 106.109 11.528C106.525 11.976 106.733 12.632 106.733 13.496C106.749 14.584 106.325 15.488 105.461 16.208C104.613 16.928 103.453 17.288 101.981 17.288Z" fill="#212223"/>
</svg>
