<svg width="60" height="61" viewBox="0 0 60 61" fill="none" xmlns="http://www.w3.org/2000/svg">
<circle cx="30" cy="30.4336" r="30" fill="white"/>
<path d="M28.5321 23.4344H23.0338C22.1153 23.4202 21.2032 23.5871 20.3504 23.9254C19.4977 24.2637 18.7215 24.7666 18.0669 25.4049C17.4123 26.0432 16.8924 26.8041 16.5376 27.6433C16.1827 28.4825 16 29.3832 16 30.2931C16 31.2029 16.1827 32.1036 16.5376 32.9428C16.8924 33.782 17.4123 34.5429 18.0669 35.1812C18.7215 35.8195 19.4977 36.3225 20.3504 36.6607C21.2032 36.999 22.1153 37.1659 23.0338 37.1517H28.5236C28.697 37.1517 28.8634 37.084 28.9868 36.9634C29.1102 36.8427 29.1807 36.6788 29.1829 36.507V32.5283C29.1806 32.3629 29.1152 32.2045 28.9998 32.0849C28.8844 31.9653 28.7276 31.8934 28.5609 31.8837H23.0338C22.8185 31.8906 22.604 31.8546 22.403 31.7778C22.2021 31.701 22.0188 31.5849 21.864 31.4365C21.7093 31.2881 21.5862 31.1104 21.5022 30.914C21.4181 30.7176 21.3748 30.5064 21.3748 30.2931C21.3748 30.0797 21.4181 29.8685 21.5022 29.6721C21.5862 29.4757 21.7093 29.298 21.864 29.1496C22.0188 29.0012 22.2021 28.8851 22.403 28.8083C22.604 28.7315 22.8185 28.6955 23.0338 28.7024H28.5541C28.7219 28.6947 28.8804 28.6239 28.9972 28.5044C29.1141 28.3849 29.1805 28.2258 29.1829 28.0595V24.0791C29.1807 23.9088 29.1114 23.7461 28.9899 23.6257C28.8683 23.5052 28.704 23.4366 28.5321 23.4344Z" fill="#CC0020"/>
<path d="M37.9883 23.4346H32.5476C32.381 23.4368 32.2215 23.5014 32.1011 23.6154C31.9807 23.7294 31.9083 23.8843 31.8984 24.049V28.0881C31.9082 28.2523 31.9801 28.4067 32.0999 28.5206C32.2196 28.6345 32.3782 28.6995 32.5442 28.7026H37.9883C38.4153 28.7026 38.8249 28.8706 39.1268 29.1697C39.4288 29.4688 39.5984 29.8744 39.5984 30.2974C39.5984 30.7204 39.4288 31.126 39.1268 31.4251C38.8249 31.7242 38.4153 31.8922 37.9883 31.8922H32.5645C32.3965 31.8924 32.2349 31.956 32.1127 32.0702C31.9904 32.1844 31.9168 32.3405 31.9069 32.5067V40.276C31.9166 40.439 31.9876 40.5925 32.1058 40.7062C32.2241 40.82 32.3811 40.8857 32.5459 40.8904H33.4679C33.5345 40.8946 33.6011 40.8834 33.6625 40.8577C33.724 40.8321 33.7786 40.7927 33.8222 40.7427L37.2798 37.1585H37.9883C39.806 37.1304 41.5397 36.3954 42.8151 35.1122C44.0905 33.829 44.8053 32.1006 44.8053 30.2999C44.8053 28.4993 44.0905 26.7708 42.8151 25.4876C41.5397 24.2044 39.806 23.4695 37.9883 23.4413V23.4346Z" fill="#383938"/>
</svg>
