<?xml version="1.0" encoding="utf-8"?>
<!-- Generator: Adobe Illustrator 24.0.2, SVG Export Plug-In . SVG Version: 6.00 Build 0)  -->
<svg version="1.1" id="Layer_1" xmlns="http://www.w3.org/2000/svg" xmlns:xlink="http://www.w3.org/1999/xlink" x="0px" y="0px"
	 viewBox="0 0 24.1 24" style="enable-background:new 0 0 24.1 24;" xml:space="preserve">
<style type="text/css">
	.st0{fill:#CC0020;}
</style>
<path class="st0" d="M10.3,4.2C9.7,3.9,9.2,3.7,8.7,3.5C9.5,1.4,10.6,0,12.1,0s2.5,1.3,3.3,3.3c-0.5,0.2-1,0.5-1.6,0.7
	c-0.6-1.6-1.3-2.3-1.7-2.3S10.9,2.5,10.3,4.2z M12.1,22.2c-0.4,0-1.1-0.7-1.7-2.3c-0.6,0.3-1.1,0.5-1.6,0.7c0.8,2,1.9,3.3,3.3,3.3
	s2.6-1.4,3.3-3.5c-0.5-0.2-1-0.4-1.6-0.7C13.2,21.5,12.5,22.2,12.1,22.2z M7.4,20c-1.9,0.7-4.8,1.4-5.9-0.3
	c-0.6-0.8-0.8-2.4,1.4-5.4c0.6-0.8,1.2-1.5,1.9-2.3c1.7-1.7,3.5-3.2,5.5-4.6C9.2,6.8,8.1,6.3,6.9,5.9c-1-0.4-2-0.6-3-0.7
	c-0.4,0-0.7,0.1-1,0.3C2.8,5.7,2.7,6.3,3.3,7.3h0.2c1.1,0,1.9,0.8,1.9,1.9c0,1.1-0.8,1.9-1.9,1.9s-1.9-0.8-1.9-1.9c0,0,0,0,0,0
	c0-0.3,0.1-0.7,0.2-1C0.8,6.2,1,5.1,1.4,4.4c0.6-0.7,1.5-1.1,2.4-1c2.5,0,5.9,1.7,8.1,3c2.2-1.4,5.7-3.2,8.3-3.2
	c0.9-0.1,1.9,0.3,2.4,1.1c0.6,0.8,0.8,2.5-1.4,5.4C17.6,14.2,12.8,17.8,7.4,20z M19.9,8.6c1.5-2,1.5-3.1,1.4-3.4
	C21,5,20.6,4.9,20.3,5c-2,0-4.9,1.5-6.6,2.4c1.2,0.8,2.4,1.7,3.5,2.6c-0.4,0.4-0.8,0.8-1.3,1.2c-1.2-1-2.5-2-3.9-2.8
	c-1.6,1.1-3.2,2.3-4.6,3.6c1.2,1,2.4,2,3.7,2.9c-0.5,0.3-1,0.6-1.6,1l0,0c-1.2-0.8-2.3-1.7-3.4-2.7c-2.8,2.9-3.6,5-3.2,5.5
	c0.3,0.2,0.6,0.3,1,0.3c2.3,0,6.1-2,8.3-3.5C15.1,13.7,17.7,11.4,19.9,8.6z M22.3,15.7c0.1-0.3,0.2-0.6,0.2-0.9c0-1-0.9-1.9-1.9-1.9
	c-1,0-1.9,0.9-1.9,1.9c0,1,0.9,1.9,1.9,1.9h0.3c0.5,1,0.5,1.6,0.4,1.8c-0.3,0.2-0.6,0.3-1,0.3c-1.8-0.2-3.6-0.8-5.3-1.7
	c-0.5,0.3-1.1,0.8-1.7,1.1c1.9,1,4.8,2.3,6.9,2.3c0.9,0.1,1.9-0.3,2.4-1C23.1,18.9,23.4,17.7,22.3,15.7z"/>
</svg>
