<svg id="Layer_1" data-name="Layer 1" xmlns="http://www.w3.org/2000/svg" viewBox="0 0 24 24"><defs><style>.cls-1{fill:#cc0020;}</style></defs><path class="cls-1" d="M6,7.39A2.18,2.18,0,0,1,7.31,7a2.23,2.23,0,0,1,2.15,1.6,2.11,2.11,0,0,0-1.28-.44,2.25,2.25,0,0,0-1.32.44A2.17,2.17,0,0,0,6,11,2.24,2.24,0,0,1,6,7.39ZM9.76,20.16A24.46,24.46,0,0,1,17.4,24L24,19.29c-1.71-2.4-1.24-4.08-2.94-6.47-1.17-1.63-1.83-1.65-3-1.43l.6.84a.47.47,0,0,1-.77.54L17.32,12c-.43-.61-1.28-.22-2.05,0L16,13a.47.47,0,0,1-.76.55l-.63-.89c-.44-.62-1.32-.2-2.09,0l.77,1.08a.47.47,0,0,1-.77.55L9.39,9.9a1.28,1.28,0,0,0-2.08,1.49l4.6,6.46A6.41,6.41,0,0,0,10,17.5C8.23,17.5,7.55,19.42,9.76,20.16ZM6.47,18H2V4H12v6.69l2-.47V2a2,2,0,0,0-2-2H2A2,2,0,0,0,0,2V20.68C0,22.89,3.5,24,7,24A12.7,12.7,0,0,0,12,23.11C9.83,22.16,5.57,21.53,6.47,18Z" transform="translate(0)"/></svg>