<?xml version="1.0" encoding="utf-8"?>
<!-- Generator: Adobe Illustrator 24.0.2, SVG Export Plug-In . SVG Version: 6.00 Build 0)  -->
<svg version="1.1" id="Layer_1" xmlns="http://www.w3.org/2000/svg" xmlns:xlink="http://www.w3.org/1999/xlink" x="0px" y="0px"
	 viewBox="0 0 24 24" style="enable-background:new 0 0 24 24;" xml:space="preserve">
<style type="text/css">
	.st0{fill:#CC0020;}
</style>
<path class="st0" d="M16,13.4c-0.2,0.1-1.4,0.1-1.4,0.1l0.6-2.8H16C18,10.6,17.3,13.1,16,13.4z M24,7v10c0,1.7-1.3,3-3,3H3
	c-1.7,0-3-1.3-3-3V7c0-1.7,1.3-3,3-3h18C22.7,4,24,5.4,24,7z M11,15l1.4-6h-2l-0.4,1.8H7.8L8.2,9h-2l-1.4,6h2l0.6-2.4h2.2L9,15H11z
	 M16.4,9h-2.8l-1.3,6h2.3c1.3,0,2.9,0,3.9-1.3S19.7,9,16.4,9L16.4,9z"/>
</svg>
