<svg id="Layer_1" data-name="Layer 1" xmlns="http://www.w3.org/2000/svg" viewBox="0 0 24 24"><defs><style>.cls-1{fill:#cc0020;}</style></defs><path class="cls-1" d="M15.91,13.34l2.64-4-.46-.4L14.42,12a2,2,0,1,0,1.49,1.33ZM12,2.69V0h4V2.69A11.44,11.44,0,0,0,12,2.69Zm8.85,2.07,1.41-1.41,1.41,1.42L22.35,6.09A11.15,11.15,0,0,0,20.85,4.76ZM2,9h8v2H2ZM0,13H8v2H0Zm3,4h7v2H3Zm21-3A10,10,0,0,1,6.89,21h3.28A7.89,7.89,0,0,0,14,22,8,8,0,0,0,14,6a7.89,7.89,0,0,0-3.83,1H6.89A10,10,0,0,1,24,14Z" transform="translate(0 0)"/></svg>