<?xml version="1.0" encoding="utf-8"?>
<!-- Generator: Adobe Illustrator 24.0.2, SVG Export Plug-In . SVG Version: 6.00 Build 0)  -->
<svg version="1.1" id="Layer_1" xmlns="http://www.w3.org/2000/svg" xmlns:xlink="http://www.w3.org/1999/xlink" x="0px" y="0px"
	 viewBox="0 0 24 24" style="enable-background:new 0 0 24 24;" xml:space="preserve">
<style type="text/css">
	.st0{fill:#CC0020;}
</style>
<path class="st0" d="M18,18H6v-0.6c0-1.3,0.1-2,1.6-2.3c1.7-0.4,3.3-0.7,2.5-2.2C7.8,8.5,9.5,6,12,6s4.2,2.4,1.9,6.8
	c-0.8,1.5,0.8,1.8,2.5,2.2c1.5,0.3,1.6,1.1,1.6,2.3V18z M22.8,15.8c-1.3-0.3-2.5-0.6-1.9-1.7c1.8-3.3,0.5-5.1-1.4-5.1
	c-1.2-0.1-2.2,0.8-2.3,2c0,0.1,0,0.2,0,0.3c0,3.9,2.3,1.8,2.3,6.7H24v-0.5C24,16.6,23.9,16,22.8,15.8z M0,18h4.5
	c0-4.9,2.3-2.8,2.3-6.7C6.9,10.1,6,9.1,4.8,9C4.7,9,4.6,9,4.5,9c-1.9,0-3.2,1.8-1.4,5.1c0.6,1.1-0.6,1.4-1.9,1.7
	C0.1,16,0,16.6,0,17.5V18z"/>
</svg>
