<svg width="64" height="64" viewBox="0 0 64 64" fill="none" xmlns="http://www.w3.org/2000/svg">
<path d="M26.4627 29.841V35.4003C26.4627 36.0322 26.2597 36.6382 25.8984 37.085C25.5371 37.5318 25.0471 37.7828 24.5361 37.7828H14.2606C13.7497 37.7828 13.2596 37.5318 12.8983 37.085C12.537 36.6382 12.334 36.0322 12.334 35.4003V27.4585C12.334 26.8266 12.537 26.2206 12.8983 25.7738C13.2596 25.3269 13.7497 25.0759 14.2606 25.0759H17.8506C18.1907 25.0777 18.5164 25.2462 18.7561 25.5445L20.3039 27.4585H24.5361C25.0471 27.4585 25.5371 27.7095 25.8984 28.1563C26.2597 28.6031 26.4627 29.2091 26.4627 29.841Z" fill="#0096F0"/>
<path d="M26.4627 12.9171V18.4763C26.4627 19.1082 26.2597 19.7142 25.8984 20.1611C25.5371 20.6079 25.0471 20.8589 24.5361 20.8589H14.2606C13.7497 20.8589 13.2596 20.6079 12.8983 20.1611C12.537 19.7142 12.334 19.1082 12.334 18.4763V10.5345C12.334 9.90263 12.537 9.29662 12.8983 8.84981C13.2596 8.403 13.7497 8.15198 14.2606 8.15198H17.8506C18.1907 8.15375 18.5164 8.32226 18.7561 8.62054L20.3039 10.5345H24.5361C25.0471 10.5345 25.5371 10.7855 25.8984 11.2324C26.2597 11.6792 26.4627 12.2852 26.4627 12.9171Z" fill="#0096F0"/>
<path d="M26.4627 46.7651V52.3244C26.4627 52.9563 26.2597 53.5623 25.8984 54.0091C25.5371 54.4559 25.0471 54.7069 24.5361 54.7069H14.2606C13.7497 54.7069 13.2596 54.4559 12.8983 54.0091C12.537 53.5623 12.334 52.9563 12.334 52.3244V44.3825C12.334 43.7507 12.537 43.1446 12.8983 42.6978C13.2596 42.251 13.7497 42 14.2606 42H17.8506C18.1907 42.0018 18.5164 42.1703 18.7561 42.4686L20.3039 44.3825H24.5361C25.0471 44.3825 25.5371 44.6336 25.8984 45.0804C26.2597 45.5272 26.4627 46.1332 26.4627 46.7651Z" fill="#0096F0"/>
<g style="mix-blend-mode:multiply">
<path d="M52.1279 28.8448V41.723C52.1279 43.1868 51.6577 44.5906 50.8207 45.6257C49.9837 46.6607 48.8485 47.2422 47.6648 47.2422H23.8615C22.6779 47.2422 21.5426 46.6607 20.7057 45.6257C19.8687 44.5906 19.3984 43.1868 19.3984 41.723V23.3256C19.3984 21.8618 19.8687 20.458 20.7057 19.4229C21.5426 18.3879 22.6779 17.8064 23.8615 17.8064H32.1778C32.9657 17.8105 33.72 18.2009 34.2755 18.8918L37.8608 23.3256H47.6648C48.8485 23.3256 49.9837 23.9071 50.8207 24.9421C51.6577 25.9772 52.1279 27.381 52.1279 28.8448Z" fill="#AFC300"/>
</g>
<mask id="mask0_619_11548" style="mask-type:alpha" maskUnits="userSpaceOnUse" x="12" y="8" width="15" height="47">
<path fill-rule="evenodd" clip-rule="evenodd" d="M26.4627 12.9171V18.4763C26.4627 19.1082 26.2597 19.7142 25.8984 20.1611C25.5371 20.6079 25.0471 20.8589 24.5361 20.8589H14.2606C13.7497 20.8589 13.2596 20.6079 12.8983 20.1611C12.537 19.7142 12.334 19.1082 12.334 18.4763V10.5345C12.334 9.90263 12.537 9.29662 12.8983 8.84981C13.2596 8.403 13.7497 8.15198 14.2606 8.15198H17.8506C18.1907 8.15375 18.5164 8.32226 18.7561 8.62054L20.3039 10.5345H24.5361C25.0471 10.5345 25.5371 10.7855 25.8984 11.2324C26.2597 11.6792 26.4627 12.2852 26.4627 12.9171ZM26.4627 29.841V35.4003C26.4627 36.0322 26.2597 36.6382 25.8984 37.085C25.5371 37.5318 25.0471 37.7828 24.5361 37.7828H14.2606C13.7497 37.7828 13.2596 37.5318 12.8983 37.085C12.537 36.6382 12.334 36.0322 12.334 35.4003V27.4585C12.334 26.8266 12.537 26.2206 12.8983 25.7738C13.2596 25.3269 13.7497 25.0759 14.2606 25.0759H17.8506C18.1907 25.0777 18.5164 25.2462 18.7561 25.5445L20.3039 27.4585H24.5361C25.0471 27.4585 25.5371 27.7095 25.8984 28.1563C26.2597 28.6031 26.4627 29.2091 26.4627 29.841ZM26.4627 52.3244V46.7651C26.4627 46.1332 26.2597 45.5272 25.8984 45.0804C25.5371 44.6336 25.0471 44.3825 24.5361 44.3825H20.3039L18.7561 42.4686C18.5164 42.1703 18.1907 42.0018 17.8506 42H14.2606C13.7497 42 13.2596 42.251 12.8983 42.6978C12.537 43.1446 12.334 43.7507 12.334 44.3825V52.3244C12.334 52.9563 12.537 53.5623 12.8983 54.0091C13.2596 54.4559 13.7497 54.7069 14.2606 54.7069H24.5361C25.0471 54.7069 25.5371 54.4559 25.8984 54.0091C26.2597 53.5623 26.4627 52.9563 26.4627 52.3244Z" fill="#6E7B00"/>
</mask>
<g mask="url(#mask0_619_11548)">
<g style="mix-blend-mode:multiply">
<path d="M52.1279 28.8448V41.723C52.1279 43.1868 51.6577 44.5906 50.8207 45.6257C49.9837 46.6607 48.8485 47.2422 47.6648 47.2422H23.8615C22.6779 47.2422 21.5426 46.6607 20.7057 45.6257C19.8687 44.5906 19.3984 43.1868 19.3984 41.723V23.3256C19.3984 21.8618 19.8687 20.458 20.7057 19.4229C21.5426 18.3879 22.6779 17.8064 23.8615 17.8064H32.1778C32.9657 17.8105 33.72 18.2009 34.2755 18.8918L37.8608 23.3256H47.6648C48.8485 23.3256 49.9837 23.9071 50.8207 24.9421C51.6577 25.9772 52.1279 27.381 52.1279 28.8448Z" fill="#6E7B00"/>
</g>
</g>
</svg>
