<svg width="64" height="64" viewBox="0 0 64 64" fill="none" xmlns="http://www.w3.org/2000/svg">
<path d="M48.0036 9.77405H16.0203C14.4298 9.77405 12.9045 10.41 11.7799 11.5421C10.6552 12.6741 10.0234 14.2095 10.0234 15.8105V43.9805C10.0234 45.5814 10.6552 47.1168 11.7799 48.2489C12.9045 49.3809 14.4298 50.0169 16.0203 50.0169H48.0036C49.5941 50.0169 51.1194 49.3809 52.244 48.2489C53.3686 47.1168 54.0005 45.5814 54.0005 43.9805V15.8105C54.0005 14.2095 53.3686 12.6741 52.244 11.5421C51.1194 10.41 49.5941 9.77405 48.0036 9.77405ZM26.0151 15.8105H30.013V19.8348H26.0151V15.8105ZM18.0193 15.8105H22.0172V19.8348H18.0193V15.8105Z" fill="#FF2731"/>
<path fill-rule="evenodd" clip-rule="evenodd" d="M63.4152 43.124C63.7901 42.7466 64.0007 42.2348 64.0007 41.7012V23.5919H28.0195V41.7012C28.0195 42.2348 28.2301 42.7466 28.605 43.124C28.9799 43.5013 29.4883 43.7133 30.0185 43.7133H62.0018C62.5319 43.7133 63.0404 43.5013 63.4152 43.124ZM48.0098 31.6404H60.0035V27.6161H48.0098V31.6404ZM38.0098 39.689H60.0035V35.6647H38.0098V39.689Z" fill="#0096F0"/>
<path fill-rule="evenodd" clip-rule="evenodd" d="M19.4665 53.1847C19.8414 52.8073 20.052 52.2955 20.052 51.7619V33.6526H0V51.7619C0 52.2955 0.210603 52.8073 0.58548 53.1847C0.960357 53.562 1.4688 53.774 1.99896 53.774H18.0531C18.5832 53.774 19.0917 53.562 19.4665 53.1847ZM4.0605 41.7012H9.92998V37.6769H4.0605V41.7012ZM4.0605 49.7497H16.0542V45.7254H4.0605V49.7497Z" fill="#0096F0"/>
<mask id="mask0_549_15757" style="mask-type:alpha" maskUnits="userSpaceOnUse" x="10" y="9" width="45" height="42">
<path d="M48.0036 9.77405H16.0203C14.4298 9.77405 12.9045 10.41 11.7799 11.5421C10.6552 12.6741 10.0234 14.2095 10.0234 15.8105V43.9805C10.0234 45.5814 10.6552 47.1168 11.7799 48.2489C12.9045 49.3809 14.4298 50.0169 16.0203 50.0169H48.0036C49.5941 50.0169 51.1194 49.3809 52.244 48.2489C53.3686 47.1168 54.0005 45.5814 54.0005 43.9805V15.8105C54.0005 14.2095 53.3686 12.6741 52.244 11.5421C51.1194 10.41 49.5941 9.77405 48.0036 9.77405ZM26.0151 15.8105H30.013V19.8348H26.0151V15.8105ZM18.0193 15.8105H22.0172V19.8348H18.0193V15.8105Z" fill="#FF2731"/>
</mask>
<g mask="url(#mask0_549_15757)">
<path fill-rule="evenodd" clip-rule="evenodd" d="M64.0007 41.7012C64.0007 42.2348 63.7901 42.7466 63.4152 43.124C63.0404 43.5013 62.5319 43.7133 62.0018 43.7133H30.0185C29.4883 43.7133 28.9799 43.5013 28.605 43.124C28.2301 42.7466 28.0195 42.2348 28.0195 41.7012V23.5919H64.0007V41.7012ZM60.0035 31.6404H48.0098V27.6161H60.0035V31.6404ZM60.0035 39.689H38.0098V35.6647H60.0035V39.689ZM20.052 51.7619C20.052 52.2955 19.8414 52.8073 19.4665 53.1847C19.0917 53.562 18.5832 53.774 18.0531 53.774H1.99896C1.4688 53.774 0.960357 53.562 0.58548 53.1847C0.210603 52.8073 0 52.2955 0 51.7619V33.6526H20.052V51.7619ZM9.92998 41.7012H4.0605V37.6769H9.92998V41.7012ZM16.0542 49.7497H4.0605V45.7254H16.0542V49.7497Z" fill="#930014"/>
</g>
</svg>
