<svg width="64" height="64" viewBox="0 0 64 64" fill="none" xmlns="http://www.w3.org/2000/svg">
<path fill-rule="evenodd" clip-rule="evenodd" d="M33.1966 14.7471H13.6879C10.1507 14.7471 7.29297 17.61 7.29297 21.142V40.6508C7.29297 44.1879 10.1558 47.0456 13.6879 47.0456H31.065L37.163 51.6192C38.1678 52.3725 39.5915 51.6465 39.5915 50.4049V21.142C39.5915 17.6048 36.7287 14.7471 33.1966 14.7471ZM23.4434 40.6801C24.5242 40.6801 25.4004 39.8039 25.4004 38.7231C25.4004 37.6422 24.5242 36.7661 23.4434 36.7661C22.3626 36.7661 21.4864 37.6422 21.4864 38.7231C21.4864 39.8039 22.3626 40.6801 23.4434 40.6801ZM23.5769 20.364C26.9787 20.4326 29.7815 23.1461 29.9577 26.5417C30.0515 28.3492 29.418 30.0663 28.1739 31.3767C27.4077 32.1837 26.4472 32.7758 25.4003 33.1064V33.8249C25.4003 34.9057 24.5241 35.7819 23.4433 35.7819C22.3624 35.7819 21.4862 34.9057 21.4862 33.8249V31.4525C21.4862 30.3716 22.3624 29.4954 23.4433 29.4954C24.1653 29.4954 24.8372 29.2065 25.3355 28.6817C25.8332 28.1575 26.0866 27.4695 26.049 26.7445C26.0152 26.0935 25.7329 25.4798 25.2542 25.0166C24.7749 24.553 24.1514 24.2904 23.4981 24.2773C22.1736 24.251 21.0414 25.2147 20.8593 26.5196C20.8424 26.6399 20.834 26.7631 20.834 26.8861C20.834 27.9669 19.9578 28.8431 18.8769 28.8431C17.7961 28.8431 16.9199 27.9669 16.9199 26.8861C16.9199 26.5828 16.9411 26.2775 16.9828 25.9786C17.4325 22.7554 20.1977 20.3627 23.4437 20.3627C23.4881 20.3627 23.5323 20.3631 23.5769 20.364Z" fill="#0096F0"/>
<g style="mix-blend-mode:multiply">
<path fill-rule="evenodd" clip-rule="evenodd" d="M45.7123 47.1242C51.7849 47.1242 56.7078 42.2014 56.7078 36.1287C56.7078 30.0561 51.7849 25.1332 45.7123 25.1332C39.6397 25.1332 34.7168 30.0561 34.7168 36.1287C34.7168 42.2014 39.6397 47.1242 45.7123 47.1242ZM49.1113 32.9834C49.1113 34.8528 47.5831 36.3809 45.7134 36.3809C43.8437 36.3809 42.3155 34.8528 42.3155 32.9834C42.3155 31.1139 43.8437 29.5858 45.7134 29.5858C47.5831 29.5858 49.1113 31.1139 49.1113 32.9834ZM51.462 38.9109C51.4915 38.9715 51.5188 39.0332 51.5439 39.0961C51.5886 39.185 51.5733 39.2889 51.4991 39.3779C51.3813 39.5857 51.2472 39.7786 51.0988 39.9714C50.8915 40.2533 50.6537 40.5056 50.417 40.7429C50.2087 40.9506 49.972 41.1584 49.7342 41.3364C48.5615 42.2117 47.1522 42.6717 45.6981 42.6717C44.2441 42.6717 42.8347 42.2118 41.6632 41.3364C41.4254 41.1435 41.1887 40.9506 40.9803 40.7429C40.7283 40.5056 40.5058 40.2533 40.2975 39.9714C40.1644 39.7934 40.016 39.5857 39.8971 39.3779C39.8524 39.2889 39.8382 39.1851 39.8829 39.0961C39.9713 38.8883 40.0902 38.6658 40.2233 38.4729C40.892 37.464 41.9599 36.7964 43.1467 36.6332C43.295 36.6035 43.4587 36.648 43.5765 36.737C44.2004 37.1969 44.9422 37.4343 45.7134 37.4343C46.4846 37.4343 47.2264 37.1969 47.8503 36.737C47.9681 36.648 48.1318 36.6183 48.2801 36.6332C49.4669 36.7964 50.5207 37.464 51.2024 38.4729C51.2984 38.6113 51.3868 38.7573 51.462 38.9109Z" fill="#AFC300"/>
</g>
<mask id="mask0_619_11538" style="mask-type:alpha" maskUnits="userSpaceOnUse" x="7" y="14" width="33" height="38">
<path fill-rule="evenodd" clip-rule="evenodd" d="M33.1966 14.7471H13.6879C10.1507 14.7471 7.29297 17.61 7.29297 21.142V40.6508C7.29297 44.1879 10.1558 47.0456 13.6879 47.0456H31.065L37.163 51.6192C38.1678 52.3725 39.5915 51.6465 39.5915 50.4049V21.142C39.5915 17.6048 36.7287 14.7471 33.1966 14.7471ZM23.4434 40.6801C24.5242 40.6801 25.4004 39.8039 25.4004 38.7231C25.4004 37.6422 24.5242 36.7661 23.4434 36.7661C22.3626 36.7661 21.4864 37.6422 21.4864 38.7231C21.4864 39.8039 22.3626 40.6801 23.4434 40.6801ZM23.5769 20.364C26.9787 20.4326 29.7815 23.1461 29.9577 26.5417C30.0515 28.3492 29.418 30.0663 28.1739 31.3767C27.4077 32.1837 26.4472 32.7758 25.4003 33.1064V33.8249C25.4003 34.9057 24.5241 35.7819 23.4433 35.7819C22.3624 35.7819 21.4862 34.9057 21.4862 33.8249V31.4525C21.4862 30.3716 22.3624 29.4954 23.4433 29.4954C24.1653 29.4954 24.8372 29.2065 25.3355 28.6817C25.8332 28.1575 26.0866 27.4695 26.049 26.7445C26.0152 26.0935 25.7329 25.4798 25.2542 25.0166C24.7749 24.553 24.1514 24.2904 23.4981 24.2773C22.1736 24.251 21.0414 25.2147 20.8593 26.5196C20.8424 26.6399 20.834 26.7631 20.834 26.8861C20.834 27.9669 19.9578 28.8431 18.8769 28.8431C17.7961 28.8431 16.9199 27.9669 16.9199 26.8861C16.9199 26.5828 16.9411 26.2775 16.9828 25.9786C17.4325 22.7554 20.1977 20.3627 23.4437 20.3627C23.4881 20.3627 23.5323 20.3631 23.5769 20.364Z" fill="#6E7B00"/>
</mask>
<g mask="url(#mask0_619_11538)">
<g style="mix-blend-mode:multiply">
<path fill-rule="evenodd" clip-rule="evenodd" d="M45.7123 47.1242C51.7849 47.1242 56.7078 42.2014 56.7078 36.1287C56.7078 30.0561 51.7849 25.1332 45.7123 25.1332C39.6397 25.1332 34.7168 30.0561 34.7168 36.1287C34.7168 42.2014 39.6397 47.1242 45.7123 47.1242ZM49.1113 32.9834C49.1113 34.8528 47.5831 36.3809 45.7134 36.3809C43.8437 36.3809 42.3155 34.8528 42.3155 32.9834C42.3155 31.1139 43.8437 29.5858 45.7134 29.5858C47.5831 29.5858 49.1113 31.1139 49.1113 32.9834ZM51.462 38.9109C51.4915 38.9715 51.5188 39.0332 51.5439 39.0961C51.5886 39.185 51.5733 39.2889 51.4991 39.3779C51.3813 39.5857 51.2472 39.7786 51.0988 39.9714C50.8915 40.2533 50.6537 40.5056 50.417 40.7429C50.2087 40.9506 49.972 41.1584 49.7342 41.3364C48.5615 42.2117 47.1522 42.6717 45.6981 42.6717C44.2441 42.6717 42.8347 42.2118 41.6632 41.3364C41.4254 41.1435 41.1887 40.9506 40.9803 40.7429C40.7283 40.5056 40.5058 40.2533 40.2975 39.9714C40.1644 39.7934 40.016 39.5857 39.8971 39.3779C39.8524 39.2889 39.8382 39.1851 39.8829 39.0961C39.9713 38.8883 40.0902 38.6658 40.2233 38.4729C40.892 37.464 41.9599 36.7964 43.1467 36.6332C43.295 36.6035 43.4587 36.648 43.5765 36.737C44.2004 37.1969 44.9422 37.4343 45.7134 37.4343C46.4846 37.4343 47.2264 37.1969 47.8503 36.737C47.9681 36.648 48.1318 36.6183 48.2801 36.6332C49.4669 36.7964 50.5207 37.464 51.2024 38.4729C51.2984 38.6113 51.3868 38.7573 51.462 38.9109Z" fill="#6E7B00"/>
</g>
</g>
</svg>
