<svg width="64" height="64" viewBox="0 0 64 64" fill="none" xmlns="http://www.w3.org/2000/svg">
<path fill-rule="evenodd" clip-rule="evenodd" d="M12.5426 14.6413H40.1345C41.5066 14.6413 42.8225 15.1899 43.7928 16.1666C44.763 17.1432 45.308 18.4678 45.308 19.8489V44.1511C45.308 45.5323 44.763 46.8568 43.7928 47.8335C42.8225 48.8101 41.5066 49.3587 40.1345 49.3587H12.5426C11.1705 49.3587 9.85464 48.8101 8.88442 47.8335C7.9142 46.8568 7.36914 45.5323 7.36914 44.1511V19.8489C7.36914 18.4678 7.9142 17.1432 8.88442 16.1666C9.85464 15.1899 11.1705 14.6413 12.5426 14.6413ZM24.6141 19.8489H21.1651V23.3206H24.6141V19.8489ZM17.7161 19.8489H14.2671V23.3206H17.7161V19.8489ZM28.6704 28.2084H14.1831V31.4138H28.6704V28.2084ZM14.1831 33.6561H28.6704V36.8615H14.1831V33.6561ZM28.6704 39.1034H14.1831V42.3088H28.6704V39.1034Z" fill="#0096F0"/>
<g style="mix-blend-mode:multiply">
<path fill-rule="evenodd" clip-rule="evenodd" d="M51.8791 27.7471C51.8791 31.3614 48.9244 34.3159 45.3096 34.3159C41.6948 34.3159 38.7401 31.3614 38.7401 27.7471C38.7401 24.1328 41.6948 21.1782 45.3096 21.1782C48.9244 21.1782 51.8791 24.1328 51.8791 27.7471ZM56.4239 39.2074C56.4809 39.3244 56.5336 39.4437 56.5821 39.5653C56.6686 39.7373 56.6391 39.9382 56.4956 40.1103C56.2679 40.5119 56.0085 40.8848 55.7216 41.2577C55.3209 41.8027 54.8612 42.2904 54.4035 42.7493C54.0007 43.1509 53.5431 43.5525 53.0833 43.8967C50.8162 45.5891 48.0914 46.4783 45.2801 46.4783C42.4688 46.4783 39.744 45.5891 37.479 43.8967C37.0192 43.5238 36.5616 43.1509 36.1588 42.7493C35.6716 42.2904 35.2413 41.8027 34.8385 41.2577C34.5812 40.9135 34.2944 40.5119 34.0645 40.1103C33.9781 39.9382 33.9507 39.7374 34.0371 39.5653C34.2079 39.1637 34.4378 38.7334 34.6951 38.3605C35.9879 36.4099 38.0526 35.1191 40.3472 34.8036C40.634 34.7462 40.9504 34.8322 41.1781 35.0043C42.3845 35.8936 43.8186 36.3525 45.3096 36.3525C46.8007 36.3525 48.2348 35.8936 49.4411 35.0043C49.6689 34.8322 49.9852 34.7749 50.272 34.8036C52.5666 35.1191 54.6039 36.4099 55.922 38.3605C56.1076 38.628 56.2784 38.9103 56.4239 39.2074Z" fill="#AFC300"/>
</g>
<mask id="mask0_619_11539" style="mask-type:alpha" maskUnits="userSpaceOnUse" x="7" y="14" width="39" height="36">
<path fill-rule="evenodd" clip-rule="evenodd" d="M12.5426 14.6413H40.1345C41.5066 14.6413 42.8225 15.1899 43.7928 16.1666C44.763 17.1432 45.308 18.4678 45.308 19.8489V44.1511C45.308 45.5323 44.763 46.8568 43.7928 47.8335C42.8225 48.8101 41.5066 49.3587 40.1345 49.3587H12.5426C11.1705 49.3587 9.85464 48.8101 8.88442 47.8335C7.9142 46.8568 7.36914 45.5323 7.36914 44.1511V19.8489C7.36914 18.4678 7.9142 17.1432 8.88442 16.1666C9.85464 15.1899 11.1705 14.6413 12.5426 14.6413ZM24.6141 19.8489H21.1651V23.3206H24.6141V19.8489ZM17.7161 19.8489H14.2671V23.3206H17.7161V19.8489ZM28.6704 28.2084H14.1831V31.4138H28.6704V28.2084ZM14.1831 33.6561H28.6704V36.8615H14.1831V33.6561ZM28.6704 39.1034H14.1831V42.3088H28.6704V39.1034Z" fill="#6E7B00"/>
</mask>
<g mask="url(#mask0_619_11539)">
<g style="mix-blend-mode:multiply">
<path fill-rule="evenodd" clip-rule="evenodd" d="M51.8791 27.7471C51.8791 31.3614 48.9244 34.3159 45.3096 34.3159C41.6948 34.3159 38.7401 31.3614 38.7401 27.7471C38.7401 24.1328 41.6948 21.1782 45.3096 21.1782C48.9244 21.1782 51.8791 24.1328 51.8791 27.7471ZM56.4239 39.2074C56.4809 39.3244 56.5336 39.4437 56.5821 39.5653C56.6686 39.7373 56.6391 39.9382 56.4956 40.1103C56.2679 40.5119 56.0085 40.8848 55.7216 41.2577C55.3209 41.8027 54.8612 42.2904 54.4035 42.7493C54.0007 43.1509 53.5431 43.5525 53.0833 43.8967C50.8162 45.5891 48.0914 46.4783 45.2801 46.4783C42.4688 46.4783 39.744 45.5891 37.479 43.8967C37.0192 43.5238 36.5616 43.1509 36.1588 42.7493C35.6716 42.2904 35.2413 41.8027 34.8385 41.2577C34.5812 40.9135 34.2944 40.5119 34.0645 40.1103C33.9781 39.9382 33.9507 39.7374 34.0371 39.5653C34.2079 39.1637 34.4378 38.7334 34.6951 38.3605C35.9879 36.4099 38.0526 35.1191 40.3472 34.8036C40.634 34.7462 40.9504 34.8322 41.1781 35.0043C42.3845 35.8936 43.8186 36.3525 45.3096 36.3525C46.8007 36.3525 48.2348 35.8936 49.4411 35.0043C49.6689 34.8322 49.9852 34.7749 50.272 34.8036C52.5666 35.1191 54.6039 36.4099 55.922 38.3605C56.1076 38.628 56.2784 38.9103 56.4239 39.2074Z" fill="#6E7B00"/>
</g>
</g>
</svg>
