<svg width="64" height="64" viewBox="0 0 64 64" fill="none" xmlns="http://www.w3.org/2000/svg">
<g style="mix-blend-mode:multiply">
<path fill-rule="evenodd" clip-rule="evenodd" d="M35.0103 21.5538C35.0103 26.6387 31.0953 30.7954 26.3057 30.7954C21.5161 30.7954 17.6012 26.6387 17.6012 21.5538C17.6012 16.4687 21.5161 12.312 26.3057 12.312C31.0953 12.312 35.0103 16.4687 35.0103 21.5538ZM41.0322 37.6772C41.1076 37.8419 41.1775 38.0097 41.2418 38.1808C41.3563 38.4228 41.3172 38.7054 41.1272 38.9475C40.8254 39.5126 40.4817 40.0372 40.1016 40.5618C39.5707 41.3286 38.9615 42.0147 38.3552 42.6604C37.8214 43.2254 37.215 43.7904 36.6059 44.2746C33.6019 46.6557 29.9915 47.9068 26.2666 47.9068C22.5417 47.9068 18.9313 46.6558 15.9301 44.2746C15.321 43.75 14.7146 43.2254 14.1809 42.6604C13.5353 42.0147 12.9653 41.3286 12.4316 40.5618C12.0906 40.0776 11.7106 39.5126 11.406 38.9475C11.2915 38.7054 11.2551 38.4229 11.3697 38.1808C11.596 37.6158 11.9006 37.0104 12.2415 36.4857C13.9545 33.7414 16.6902 31.9254 19.7305 31.4815C20.1106 31.4007 20.5297 31.5218 20.8315 31.7639C22.4299 33.015 24.3301 33.6608 26.3057 33.6608C28.2814 33.6608 30.1815 33.015 31.7799 31.7639C32.0817 31.5218 32.5009 31.4412 32.8809 31.4815C35.9212 31.9254 38.6206 33.7414 40.3671 36.4857C40.613 36.8621 40.8394 37.2593 41.0322 37.6772Z" fill="#0096F0"/>
</g>
<g style="mix-blend-mode:multiply">
<path d="M51.3411 37.7331C50.8978 37.6687 50.4748 37.5052 50.1035 37.2546C49.7322 37.0041 49.4222 36.673 49.1966 36.286C48.971 35.8991 48.8356 35.4662 48.8005 35.0197C48.7653 34.5731 48.8314 34.1244 48.9938 33.7069C49.097 33.434 49.1122 33.1356 49.0372 32.8536C48.9623 32.5716 48.801 32.3201 48.5759 32.1344C47.5823 31.3001 46.4514 30.6446 45.2334 30.1973C44.9561 30.0943 44.6533 30.0814 44.3683 30.1605C44.0832 30.2396 43.8303 30.4067 43.6458 30.6379C43.3679 30.9932 43.0129 31.2805 42.6075 31.4781C42.2021 31.6757 41.757 31.7784 41.306 31.7784C40.855 31.7784 40.41 31.6757 40.0046 31.4781C39.5992 31.2805 39.2441 30.9932 38.9663 30.6379C38.7817 30.4067 38.5288 30.2396 38.2438 30.1605C37.9587 30.0814 37.6559 30.0943 37.3786 30.1973C36.254 30.6103 35.2026 31.2001 34.264 31.9445C34.0274 32.1318 33.857 32.39 33.7777 32.6811C33.6984 32.9723 33.7144 33.2812 33.8234 33.5626C33.9987 33.9911 34.0711 34.4547 34.0349 34.9163C33.9986 35.3779 33.8547 35.8245 33.6146 36.2204C33.3746 36.6163 33.0451 36.9504 32.6526 37.196C32.2601 37.4415 31.8155 37.5917 31.3545 37.6344C31.0552 37.6664 30.7741 37.7936 30.5525 37.9974C30.331 38.2011 30.1807 38.4707 30.1239 38.7662C29.9824 39.4664 29.9111 40.179 29.9111 40.8933C29.9101 41.4913 29.9584 42.0884 30.0555 42.6785C30.1038 42.9835 30.2513 43.2642 30.4751 43.477C30.6989 43.6898 30.9866 43.823 31.2937 43.8559C31.7649 43.9002 32.2186 44.0566 32.6168 44.3121C33.0151 44.5677 33.3464 44.9149 33.5829 45.3247C33.8194 45.7346 33.9544 46.1951 33.9764 46.6678C33.9984 47.1405 33.9069 47.6116 33.7094 48.0417C33.5802 48.3214 33.5482 48.6363 33.6184 48.9363C33.6886 49.2363 33.857 49.5043 34.0969 49.6977C35.0845 50.5169 36.2046 51.1617 37.409 51.6045C37.563 51.6578 37.7246 51.686 37.8876 51.688C38.111 51.6875 38.3311 51.6335 38.5294 51.5304C38.7276 51.4273 38.8983 51.2781 39.027 51.0955C39.2978 50.701 39.6607 50.3786 40.0844 50.1562C40.508 49.9338 40.9795 49.8181 41.4579 49.8193C41.9215 49.8198 42.3786 49.9287 42.7927 50.137C43.2068 50.3454 43.5665 50.6476 43.8433 51.0195C44.0273 51.267 44.2881 51.4466 44.5849 51.5304C44.8816 51.6142 45.1978 51.5975 45.4841 51.4829C46.5854 51.0397 47.6106 50.4271 48.5228 49.6673C48.7519 49.4779 48.915 49.2207 48.9887 48.9327C49.0625 48.6446 49.0429 48.3407 48.933 48.0645C48.7543 47.6415 48.6764 47.1827 48.7054 46.7245C48.7344 46.2662 48.8696 45.821 49.1001 45.4239C49.3307 45.0268 49.6505 44.6887 50.0341 44.4364C50.4177 44.1841 50.8548 44.0244 51.3107 43.9699C51.6064 43.929 51.8813 43.7951 52.0957 43.5875C52.3102 43.3799 52.4529 43.1094 52.5034 42.8152C52.6254 42.1816 52.6915 41.5385 52.7009 40.8933C52.701 40.2127 52.6374 39.5337 52.511 38.865C52.4597 38.5773 52.319 38.3131 52.109 38.1099C51.899 37.9067 51.6303 37.7749 51.3411 37.7331ZM45.1043 40.8933C45.1043 41.6445 44.8815 42.3789 44.4642 43.0035C44.0468 43.6281 43.4536 44.115 42.7596 44.4024C42.0655 44.6899 41.3018 44.7651 40.565 44.6186C39.8282 44.472 39.1514 44.1103 38.6202 43.5791C38.089 43.0479 37.7273 42.3711 37.5807 41.6343C37.4342 40.8975 37.5094 40.1338 37.7969 39.4397C38.0843 38.7457 38.5712 38.1525 39.1958 37.7351C39.8204 37.3178 40.5548 37.095 41.306 37.095C42.3134 37.095 43.2795 37.4952 43.9918 38.2075C44.7041 38.9198 45.1043 39.8859 45.1043 40.8933Z" fill="#AFC300"/>
</g>
<mask id="mask0_619_11540" style="mask-type:alpha" maskUnits="userSpaceOnUse" x="11" y="12" width="31" height="36">
<g style="mix-blend-mode:multiply">
<path fill-rule="evenodd" clip-rule="evenodd" d="M35.0103 21.5538C35.0103 26.6387 31.0953 30.7954 26.3057 30.7954C21.5161 30.7954 17.6012 26.6387 17.6012 21.5538C17.6012 16.4687 21.5161 12.312 26.3057 12.312C31.0953 12.312 35.0103 16.4687 35.0103 21.5538ZM41.0322 37.6772C41.1076 37.8419 41.1775 38.0097 41.2418 38.1808C41.3563 38.4228 41.3172 38.7054 41.1272 38.9475C40.8254 39.5126 40.4817 40.0372 40.1016 40.5618C39.5707 41.3286 38.9615 42.0147 38.3552 42.6604C37.8214 43.2254 37.215 43.7904 36.6059 44.2746C33.6019 46.6557 29.9915 47.9068 26.2666 47.9068C22.5417 47.9068 18.9313 46.6558 15.9301 44.2746C15.321 43.75 14.7146 43.2254 14.1809 42.6604C13.5353 42.0147 12.9653 41.3286 12.4316 40.5618C12.0906 40.0776 11.7106 39.5126 11.406 38.9475C11.2915 38.7054 11.2551 38.4229 11.3697 38.1808C11.596 37.6158 11.9006 37.0104 12.2415 36.4857C13.9545 33.7414 16.6902 31.9254 19.7305 31.4815C20.1106 31.4007 20.5297 31.5218 20.8315 31.7639C22.4299 33.015 24.3301 33.6608 26.3057 33.6608C28.2814 33.6608 30.1815 33.015 31.7799 31.7639C32.0817 31.5218 32.5009 31.4412 32.8809 31.4815C35.9212 31.9254 38.6206 33.7414 40.3671 36.4857C40.613 36.8621 40.8394 37.2593 41.0322 37.6772Z" fill="#6E7B00"/>
</g>
</mask>
<g mask="url(#mask0_619_11540)">
<g style="mix-blend-mode:multiply">
<path d="M51.3411 37.7331C50.8978 37.6687 50.4748 37.5052 50.1035 37.2546C49.7322 37.0041 49.4222 36.673 49.1966 36.286C48.971 35.8991 48.8356 35.4662 48.8005 35.0197C48.7653 34.5731 48.8314 34.1244 48.9938 33.7069C49.097 33.434 49.1122 33.1356 49.0372 32.8536C48.9623 32.5716 48.801 32.3201 48.5759 32.1344C47.5823 31.3001 46.4514 30.6446 45.2334 30.1973C44.9561 30.0943 44.6533 30.0814 44.3683 30.1605C44.0832 30.2396 43.8303 30.4067 43.6458 30.6379C43.3679 30.9932 43.0129 31.2805 42.6075 31.4781C42.2021 31.6757 41.757 31.7784 41.306 31.7784C40.855 31.7784 40.41 31.6757 40.0046 31.4781C39.5992 31.2805 39.2441 30.9932 38.9663 30.6379C38.7817 30.4067 38.5288 30.2396 38.2438 30.1605C37.9587 30.0814 37.6559 30.0943 37.3786 30.1973C36.254 30.6103 35.2026 31.2001 34.264 31.9445C34.0274 32.1318 33.857 32.39 33.7777 32.6811C33.6984 32.9723 33.7144 33.2812 33.8234 33.5626C33.9987 33.9911 34.0711 34.4547 34.0349 34.9163C33.9986 35.3779 33.8547 35.8245 33.6146 36.2204C33.3746 36.6163 33.0451 36.9504 32.6526 37.196C32.2601 37.4415 31.8155 37.5917 31.3545 37.6344C31.0552 37.6664 30.7741 37.7936 30.5525 37.9974C30.331 38.2011 30.1807 38.4707 30.1239 38.7662C29.9824 39.4664 29.9111 40.179 29.9111 40.8933C29.9101 41.4913 29.9584 42.0884 30.0555 42.6785C30.1038 42.9835 30.2513 43.2642 30.4751 43.477C30.6989 43.6898 30.9866 43.823 31.2937 43.8559C31.7649 43.9002 32.2186 44.0566 32.6168 44.3121C33.0151 44.5677 33.3464 44.9149 33.5829 45.3247C33.8194 45.7346 33.9544 46.1951 33.9764 46.6678C33.9984 47.1405 33.9069 47.6116 33.7094 48.0417C33.5802 48.3214 33.5482 48.6363 33.6184 48.9363C33.6886 49.2363 33.857 49.5043 34.0969 49.6977C35.0845 50.5169 36.2046 51.1617 37.409 51.6045C37.563 51.6578 37.7246 51.686 37.8876 51.688C38.111 51.6875 38.3311 51.6335 38.5294 51.5304C38.7276 51.4273 38.8983 51.2781 39.027 51.0955C39.2978 50.701 39.6607 50.3786 40.0844 50.1562C40.508 49.9338 40.9795 49.8181 41.4579 49.8193C41.9215 49.8198 42.3786 49.9287 42.7927 50.137C43.2068 50.3454 43.5665 50.6476 43.8433 51.0195C44.0273 51.267 44.2881 51.4466 44.5849 51.5304C44.8816 51.6142 45.1978 51.5975 45.4841 51.4829C46.5854 51.0397 47.6106 50.4271 48.5228 49.6673C48.7519 49.4779 48.915 49.2207 48.9887 48.9327C49.0625 48.6446 49.0429 48.3407 48.933 48.0645C48.7543 47.6415 48.6764 47.1827 48.7054 46.7245C48.7344 46.2662 48.8696 45.821 49.1001 45.4239C49.3307 45.0268 49.6505 44.6887 50.0341 44.4364C50.4177 44.1841 50.8548 44.0244 51.3107 43.9699C51.6064 43.929 51.8813 43.7951 52.0957 43.5875C52.3102 43.3799 52.4529 43.1094 52.5034 42.8152C52.6254 42.1816 52.6915 41.5385 52.7009 40.8933C52.701 40.2127 52.6374 39.5337 52.511 38.865C52.4597 38.5773 52.319 38.3131 52.109 38.1099C51.899 37.9067 51.6303 37.7749 51.3411 37.7331ZM45.1043 40.8933C45.1043 41.6445 44.8815 42.3789 44.4642 43.0035C44.0468 43.6281 43.4536 44.115 42.7596 44.4024C42.0655 44.6899 41.3018 44.7651 40.565 44.6186C39.8282 44.472 39.1514 44.1103 38.6202 43.5791C38.089 43.0479 37.7273 42.3711 37.5807 41.6343C37.4342 40.8975 37.5094 40.1338 37.7969 39.4397C38.0843 38.7457 38.5712 38.1525 39.1958 37.7351C39.8204 37.3178 40.5548 37.095 41.306 37.095C42.3134 37.095 43.2795 37.4952 43.9918 38.2075C44.7041 38.9198 45.1043 39.8859 45.1043 40.8933Z" fill="#6E7B00"/>
</g>
</g>
</svg>
