<svg width="64" height="64" viewBox="0 0 64 64" fill="none" xmlns="http://www.w3.org/2000/svg">
<rect width="64" height="64" fill="white"/>
<path d="M49.7245 24.6863V39.3985C49.7245 41.0707 49.1874 42.6745 48.2312 43.8569C47.275 45.0394 45.9781 45.7037 44.6258 45.7037H17.4327C16.0804 45.7037 14.7836 45.0394 13.8274 43.8569C12.8712 42.6745 12.334 41.0707 12.334 39.3985V18.3811C12.334 16.7089 12.8712 15.1051 13.8274 13.9227C14.7836 12.7402 16.0804 12.0759 17.4327 12.0759H26.9333C27.8333 12.0806 28.6952 12.5265 29.3297 13.3159L33.4257 18.3811H44.6258C45.9781 18.3811 47.275 19.0454 48.2312 20.2279C49.1874 21.4103 49.7245 23.0141 49.7245 24.6863Z" fill="#FF2731"/>
<g style="mix-blend-mode:multiply">
<path d="M51.6091 46.5863C55.0919 41.3005 54.5077 34.1226 49.8565 29.4715C44.5377 24.1524 35.9114 24.1524 30.5926 29.4715C25.2738 34.7907 25.2738 43.4148 30.5926 48.734C35.2438 53.385 42.4236 53.9692 47.709 50.4867L51.3365 54.1142C52.413 55.1914 54.16 55.1914 55.2365 54.1142C56.3131 53.0371 56.3131 51.2908 55.2365 50.2136L51.6091 46.5863Z" fill="#0096F0"/>
</g>
<mask id="mask0_611_9593" style="mask-type:alpha" maskUnits="userSpaceOnUse" x="12" y="12" width="38" height="34">
<path d="M49.7245 24.6863V39.3985C49.7245 41.0707 49.1874 42.6745 48.2312 43.8569C47.275 45.0394 45.9781 45.7037 44.6258 45.7037H17.4327C16.0804 45.7037 14.7836 45.0394 13.8274 43.8569C12.8712 42.6745 12.334 41.0707 12.334 39.3985V18.3811C12.334 16.7089 12.8712 15.1051 13.8274 13.9227C14.7836 12.7402 16.0804 12.0759 17.4327 12.0759H26.9333C27.8333 12.0806 28.6952 12.5265 29.3297 13.3159L33.4257 18.3811H44.6258C45.9781 18.3811 47.275 19.0454 48.2312 20.2279C49.1874 21.4103 49.7245 23.0141 49.7245 24.6863Z" fill="#930014"/>
</mask>
<g mask="url(#mask0_611_9593)">
<g style="mix-blend-mode:multiply">
<path d="M51.6091 46.5863C55.0919 41.3005 54.5077 34.1226 49.8565 29.4715C44.5377 24.1524 35.9114 24.1524 30.5926 29.4715C25.2738 34.7907 25.2738 43.4148 30.5926 48.734C35.2438 53.385 42.4236 53.9692 47.709 50.4867L51.3365 54.1142C52.413 55.1914 54.16 55.1914 55.2365 54.1142C56.3131 53.0371 56.3131 51.2908 55.2365 50.2136L51.6091 46.5863Z" fill="#930014"/>
</g>
</g>
</svg>
