<svg width="64" height="64" viewBox="0 0 64 64" fill="none" xmlns="http://www.w3.org/2000/svg">
<path d="M20.9263 34.7639C22.1929 37.9559 24.7212 40.5146 27.8916 41.8232L26.9204 51.6329H18.5718V56.1067H46.8486V51.6329H38.5L37.5288 41.8232C40.6992 40.5146 43.2271 37.956 44.4941 34.764C45.0737 33.3043 45.2739 31.7549 45.2739 31.7549C45.3447 31.2146 45.3813 30.6637 45.3813 30.1044V11.5255H20.0386L20.04 30.2969C20.0474 30.7903 20.084 31.2767 20.146 31.7549C20.2264 32.3747 20.7292 34.2673 20.9263 34.7639Z" fill="#0096F0"/>
<g style="mix-blend-mode:multiply">
<path d="M57.9945 25.2199C57.8137 24.6607 57.3177 24.2635 56.7309 24.2106L48.7599 23.4869L45.608 16.1095C45.3756 15.5688 44.8463 15.2188 44.2582 15.2188C43.6701 15.2188 43.1409 15.5688 42.9085 16.1107L39.7565 23.4869L31.7843 24.2106C31.1985 24.2648 30.7038 24.6607 30.522 25.2199C30.3401 25.7791 30.5081 26.3925 30.9512 26.7791L36.9763 32.0632L35.1996 39.8894C35.0696 40.4648 35.293 41.0596 35.7704 41.4048C36.0271 41.5902 36.3273 41.6846 36.6301 41.6846C36.8912 41.6846 37.1501 41.6142 37.3825 41.4751L44.2582 37.3658L51.1314 41.4751C51.6344 41.7777 52.2684 41.7501 52.7448 41.4048C53.2224 41.0586 53.4456 40.4635 53.3156 39.8894L51.5389 32.0632L57.564 26.7802C58.0071 26.3925 58.1763 25.7802 57.9945 25.2199Z" fill="#AFC300"/>
</g>
</svg>
