<svg width="64" height="64" viewBox="0 0 64 64" fill="none" xmlns="http://www.w3.org/2000/svg">
<path d="M49.2039 13.9443H40.1875C39.9299 12.3986 39.157 10.853 38.1266 9.56489C36.0657 6.98876 29.1101 3.63979 24.2155 9.56489C22.9274 10.853 22.4122 12.3986 22.1546 13.9443H13.1381C11.5925 13.9443 10.562 15.2324 10.562 16.5204V55.1624C10.562 56.708 11.5925 57.7385 13.1381 57.7385H49.2039C50.7496 57.7385 51.7801 56.708 51.7801 55.1624V16.5204C51.7801 15.2324 50.7496 13.9443 49.2039 13.9443Z" fill="#FF2731"/>
<g style="mix-blend-mode:multiply">
<path fill-rule="evenodd" clip-rule="evenodd" d="M28.7087 51.3298C29.0836 50.9525 29.2942 50.4407 29.2942 49.907V21.7977H3.24219V49.907C3.24219 50.4407 3.45279 50.9525 3.82767 51.3298C4.20254 51.7072 4.71099 51.9192 5.24114 51.9192H27.2953C27.8254 51.9192 28.3339 51.7072 28.7087 51.3298ZM7.29955 32.2325H26.2933V28.2082H7.29955V32.2325ZM7.30269 39.8463H26.1722V35.822H7.30269V39.8463ZM7.30269 47.8949H26.2964V43.8706H7.30269V47.8949Z" fill="#0096F0"/>
</g>
<g style="mix-blend-mode:multiply">
<path fill-rule="evenodd" clip-rule="evenodd" d="M60.9487 42.7885C60.9487 47.8312 56.8608 51.9191 51.8181 51.9191C46.7754 51.9191 42.6875 47.8312 42.6875 42.7885C42.6875 37.7459 46.7754 33.658 51.8181 33.658C56.8608 33.658 60.9487 37.7459 60.9487 42.7885ZM47.8406 41.3733L50.477 44.0269L55.7956 38.6627L57.2394 40.095L50.477 46.9144L46.3968 42.8L47.8406 41.3733Z" fill="#0096F0"/>
</g>
<mask id="mask0_549_15758" style="mask-type:alpha" maskUnits="userSpaceOnUse" x="10" y="6" width="42" height="52">
<path d="M49.2039 13.9443H40.1875C39.9299 12.3986 39.157 10.853 38.1266 9.56489C36.0657 6.98876 29.1101 3.63979 24.2155 9.56489C22.9274 10.853 22.4122 12.3986 22.1546 13.9443H13.1381C11.5925 13.9443 10.562 15.2324 10.562 16.5204V55.1624C10.562 56.708 11.5925 57.7385 13.1381 57.7385H49.2039C50.7496 57.7385 51.7801 56.708 51.7801 55.1624V16.5204C51.7801 15.2324 50.7496 13.9443 49.2039 13.9443Z" fill="#930014"/>
</mask>
<g mask="url(#mask0_549_15758)">
<g style="mix-blend-mode:multiply">
<path fill-rule="evenodd" clip-rule="evenodd" d="M28.7087 51.3298C29.0836 50.9525 29.2942 50.4407 29.2942 49.907V21.7977H3.24219V49.907C3.24219 50.4407 3.45279 50.9525 3.82767 51.3298C4.20254 51.7072 4.71099 51.9192 5.24114 51.9192H27.2953C27.8254 51.9192 28.3339 51.7072 28.7087 51.3298ZM7.29955 32.2325H26.2933V28.2082H7.29955V32.2325ZM7.30269 39.8463H26.1722V35.822H7.30269V39.8463ZM7.30269 47.8949H26.2964V43.8706H7.30269V47.8949Z" fill="#930014"/>
</g>
<g style="mix-blend-mode:multiply">
<path fill-rule="evenodd" clip-rule="evenodd" d="M60.9487 42.7885C60.9487 47.8312 56.8608 51.9191 51.8181 51.9191C46.7754 51.9191 42.6875 47.8312 42.6875 42.7885C42.6875 37.7459 46.7754 33.658 51.8181 33.658C56.8608 33.658 60.9487 37.7459 60.9487 42.7885ZM47.8406 41.3733L50.477 44.0269L55.7956 38.6627L57.2394 40.095L50.477 46.9144L46.3968 42.8L47.8406 41.3733Z" fill="#930014"/>
</g>
</g>
</svg>
