<svg width="64" height="64" viewBox="0 0 64 64" fill="none" xmlns="http://www.w3.org/2000/svg">
<path fill-rule="evenodd" clip-rule="evenodd" d="M48.3412 14.6793H28.8324C25.2952 14.6793 22.4375 17.5422 22.4375 21.0742V40.583C22.4375 44.1201 25.3004 46.9779 28.8324 46.9779H46.2095L52.3076 51.5514C53.3123 52.3048 54.736 51.5787 54.736 50.3372V21.0742C54.736 17.537 51.8732 14.6793 48.3412 14.6793ZM38.5887 32.006C41.2132 32.006 43.3586 29.8605 43.3586 27.236C43.3586 24.6114 41.2132 22.466 38.5887 22.466C35.9641 22.466 33.8187 24.6114 33.8187 27.236C33.8187 29.8605 35.9641 32.006 38.5887 32.006ZM46.7747 35.8178C46.6497 35.5054 46.4831 35.2137 46.2957 34.943C45.3375 33.5265 43.8586 32.5892 42.1922 32.3601C41.984 32.3393 41.7548 32.3809 41.5882 32.5059C40.7133 33.1516 39.6719 33.4849 38.5887 33.4849C37.5055 33.4849 36.4641 33.1516 35.5892 32.5059C35.4226 32.3809 35.1934 32.3184 34.9852 32.3601C33.3188 32.5892 31.8191 33.5265 30.8817 34.943C30.6943 35.2137 30.5276 35.5262 30.4027 35.8178C30.3402 35.9428 30.361 36.0886 30.4235 36.2136C30.5901 36.5052 30.7984 36.7968 30.9859 37.0468C31.2775 37.4426 31.5899 37.7966 31.9441 38.1299C32.2357 38.4215 32.5689 38.6923 32.9022 38.9631C34.5478 40.1921 36.5266 40.8377 38.5679 40.8377C40.6092 40.8377 42.588 40.192 44.2335 38.9631C44.5668 38.7131 44.9001 38.4215 45.1917 38.1299C45.525 37.7966 45.8583 37.4425 46.1499 37.0468C46.3582 36.776 46.5457 36.5052 46.7123 36.2136C46.8164 36.0886 46.8372 35.9428 46.7747 35.8178Z" fill="#0096F0"/>
<g style="mix-blend-mode:multiply">
<path d="M25.8814 12.1426H13.3669C11.1011 12.1426 9.26465 13.9758 9.26465 16.2448V35.0165C9.26465 35.8129 10.1779 36.2786 10.8225 35.7954L14.7343 32.8615H25.8814C28.1471 32.8615 29.9836 31.0284 29.9836 28.7593V16.2448C29.9836 13.9791 28.1504 12.1426 25.8814 12.1426ZM18.6504 27.6473H14.4097C13.8719 27.6473 13.4361 27.2114 13.4361 26.6736C13.4361 26.1358 13.8719 25.7 14.4097 25.7H18.6504C19.1881 25.7 19.624 26.1358 19.624 26.6736C19.624 27.2114 19.1881 27.6473 18.6504 27.6473ZM24.8385 23.4758H14.4097C13.8719 23.4758 13.4361 23.0397 13.4361 22.5022C13.4361 21.9644 13.8719 21.5285 14.4097 21.5285H24.8385C25.3761 21.5285 25.8122 21.9644 25.8122 22.5022C25.8122 23.0397 25.3763 23.4758 24.8385 23.4758ZM24.8385 19.3041H14.4097C13.8719 19.3041 13.4361 18.8683 13.4361 18.3305C13.4361 17.793 13.8719 17.3569 14.4097 17.3569H24.8385C25.3761 17.3569 25.8122 17.793 25.8122 18.3305C25.8122 18.8683 25.3763 19.3041 24.8385 19.3041Z" fill="#AFC300"/>
</g>
</svg>
