<svg width="64" height="64" viewBox="0 0 64 64" fill="none" xmlns="http://www.w3.org/2000/svg">
<rect x="25.002" y="17.374" width="30.4307" height="32.6891" fill="white" stroke="#383838"/>
<path fill-rule="evenodd" clip-rule="evenodd" d="M8.86523 13.1985C8.86523 10.9894 10.6562 9.19855 12.8652 9.19855H37.1387C39.3477 9.19855 41.1387 10.9894 41.1387 13.1985V50.8015C41.1387 53.0106 39.3477 54.8015 37.1387 54.8015H12.8652C10.6562 54.8015 8.86523 53.0106 8.86523 50.8015V13.1985ZM14.8398 17.6799C14.8398 16.5753 15.7354 15.6799 16.8398 15.6799H33.165C34.2695 15.6799 35.165 16.5753 35.165 17.6799V23.9008C35.165 25.0054 34.2695 25.9008 33.165 25.9008H16.8398C15.7354 25.9008 14.8398 25.0054 14.8398 23.9008V17.6799ZM16.8398 29.3405C15.7354 29.3405 14.8398 30.236 14.8398 31.3405V32.0398C14.8398 33.1443 15.7354 34.0398 16.8398 34.0398H33.165C34.2695 34.0398 35.165 33.1443 35.165 32.0398V31.3405C35.165 30.236 34.2695 29.3405 33.165 29.3405H16.8398ZM14.8398 39.4795C14.8398 38.3749 15.7354 37.4795 16.8398 37.4795H30.165C31.2695 37.4795 32.165 38.3749 32.165 39.4795V40.1788C32.165 41.2833 31.2695 42.1788 30.165 42.1788H16.8398C15.7354 42.1788 14.8398 41.2833 14.8398 40.1788V39.4795Z" fill="white"/>
<path d="M16.8398 15.6799C15.7354 15.6799 14.8398 16.5753 14.8398 17.6799V23.9008C14.8398 25.0054 15.7354 25.9008 16.8398 25.9008H33.165C34.2695 25.9008 35.165 25.0054 35.165 23.9008V17.6799C35.165 16.5753 34.2695 15.6799 33.165 15.6799H16.8398Z" fill="white"/>
<path d="M14.8398 31.3405C14.8398 30.236 15.7354 29.3405 16.8398 29.3405H33.165C34.2695 29.3405 35.165 30.236 35.165 31.3405V32.0398C35.165 33.1443 34.2695 34.0398 33.165 34.0398H16.8398C15.7354 34.0398 14.8398 33.1443 14.8398 32.0398V31.3405Z" fill="white"/>
<path d="M16.8398 37.4795C15.7354 37.4795 14.8398 38.3749 14.8398 39.4795V40.1788C14.8398 41.2833 15.7354 42.1788 16.8398 42.1788H30.165C31.2695 42.1788 32.165 41.2833 32.165 40.1788V39.4795C32.165 38.3749 31.2695 37.4795 30.165 37.4795H16.8398Z" fill="white"/>
<path fill-rule="evenodd" clip-rule="evenodd" d="M8.86523 13.1985C8.86523 10.9894 10.6562 9.19855 12.8652 9.19855H37.1387C39.3477 9.19855 41.1387 10.9894 41.1387 13.1985V50.8015C41.1387 53.0106 39.3477 54.8015 37.1387 54.8015H12.8652C10.6562 54.8015 8.86523 53.0106 8.86523 50.8015V13.1985ZM14.8398 17.6799C14.8398 16.5753 15.7354 15.6799 16.8398 15.6799H33.165C34.2695 15.6799 35.165 16.5753 35.165 17.6799V23.9008C35.165 25.0054 34.2695 25.9008 33.165 25.9008H16.8398C15.7354 25.9008 14.8398 25.0054 14.8398 23.9008V17.6799ZM16.8398 29.3405C15.7354 29.3405 14.8398 30.236 14.8398 31.3405V32.0398C14.8398 33.1443 15.7354 34.0398 16.8398 34.0398H33.165C34.2695 34.0398 35.165 33.1443 35.165 32.0398V31.3405C35.165 30.236 34.2695 29.3405 33.165 29.3405H16.8398ZM14.8398 39.4795C14.8398 38.3749 15.7354 37.4795 16.8398 37.4795H30.165C31.2695 37.4795 32.165 38.3749 32.165 39.4795V40.1788C32.165 41.2833 31.2695 42.1788 30.165 42.1788H16.8398C15.7354 42.1788 14.8398 41.2833 14.8398 40.1788V39.4795Z" stroke="#383838"/>
<path d="M16.8398 15.6799C15.7354 15.6799 14.8398 16.5753 14.8398 17.6799V23.9008C14.8398 25.0054 15.7354 25.9008 16.8398 25.9008H33.165C34.2695 25.9008 35.165 25.0054 35.165 23.9008V17.6799C35.165 16.5753 34.2695 15.6799 33.165 15.6799H16.8398Z" stroke="#383838"/>
<path d="M14.8398 31.3405C14.8398 30.236 15.7354 29.3405 16.8398 29.3405H33.165C34.2695 29.3405 35.165 30.236 35.165 31.3405V32.0398C35.165 33.1443 34.2695 34.0398 33.165 34.0398H16.8398C15.7354 34.0398 14.8398 33.1443 14.8398 32.0398V31.3405Z" stroke="#383838"/>
<path d="M16.8398 37.4795C15.7354 37.4795 14.8398 38.3749 14.8398 39.4795V40.1788C14.8398 41.2833 15.7354 42.1788 16.8398 42.1788H30.165C31.2695 42.1788 32.165 41.2833 32.165 40.1788V39.4795C32.165 38.3749 31.2695 37.4795 30.165 37.4795H16.8398Z" stroke="#383838"/>
</svg>
