<svg width="64" height="64" viewBox="0 0 64 64" fill="none" xmlns="http://www.w3.org/2000/svg">
<path d="M30.8483 13.4109H50.3571C53.8891 13.4109 56.752 16.2687 56.752 19.8058V49.0688C56.752 50.3103 55.3282 51.0364 54.3235 50.283L48.2254 45.7095H30.8483C27.3163 45.7095 24.4534 42.8518 24.4534 39.3146V19.8058C24.4534 16.2738 27.3111 13.4109 30.8483 13.4109ZM42.1207 37.581H48.7314C49.5697 37.581 50.2492 36.9016 50.2492 36.0632C50.2492 35.2249 49.5697 34.5454 48.7314 34.5454H42.1207C41.2823 34.5454 40.6029 35.2249 40.6029 36.0632C40.6029 36.9016 41.2823 37.581 42.1207 37.581ZM36.3631 31.0782L48.7314 31.0782C49.5697 31.0782 50.2492 30.3984 50.2492 29.5604C50.2492 28.7221 49.5697 28.0426 48.7314 28.0426H36.3631C35.5251 28.0426 34.8453 28.7221 34.8453 29.5604C34.8453 30.3984 35.5247 31.0782 36.3631 31.0782ZM36.3631 24.575L48.7314 24.575C49.5697 24.575 50.2492 23.8956 50.2492 23.0572C50.2492 22.2193 49.5697 21.5394 48.7314 21.5394L36.3631 21.5394C35.5251 21.5394 34.8453 22.2193 34.8453 23.0572C34.8453 23.8956 35.5247 24.575 36.3631 24.575Z" fill="#FF2731"/>
<g style="mix-blend-mode:multiply">
<path d="M27.5464 17.4334H12.2591C9.49141 17.4334 7.24805 19.6728 7.24805 22.4445V45.3753C7.24805 46.3481 8.36369 46.9171 9.15102 46.3268L13.9295 42.7429H27.5464C30.3142 42.7429 32.5575 40.5036 32.5575 37.7318V22.4445C32.5575 19.6768 30.3182 17.4334 27.5464 17.4334ZM18.7133 36.3733H13.5331C12.8761 36.3733 12.3437 35.8409 12.3437 35.184C12.3437 34.527 12.8761 33.9946 13.5331 33.9946H18.7133C19.3702 33.9946 19.9026 34.527 19.9026 35.184C19.9026 35.8409 19.3702 36.3733 18.7133 36.3733ZM26.2725 31.2777H13.5331C12.8761 31.2777 12.3437 30.7449 12.3437 30.0883C12.3437 29.4314 12.8761 28.899 13.5331 28.899H26.2725C26.9291 28.899 27.4619 29.4314 27.4619 30.0883C27.4619 30.7449 26.9295 31.2777 26.2725 31.2777ZM26.2725 26.1817H13.5331C12.8761 26.1817 12.3437 25.6493 12.3437 24.9923C12.3437 24.3357 12.8761 23.803 13.5331 23.803H26.2725C26.9291 23.803 27.4619 24.3357 27.4619 24.9923C27.4619 25.6493 26.9295 26.1817 26.2725 26.1817Z" fill="#0096F0"/>
</g>
<mask id="mask0_549_15760" style="mask-type:alpha" maskUnits="userSpaceOnUse" x="24" y="13" width="33" height="38">
<path d="M30.8483 13.4109H50.3571C53.8891 13.4109 56.752 16.2687 56.752 19.8058V49.0688C56.752 50.3103 55.3282 51.0364 54.3235 50.283L48.2254 45.7095H30.8483C27.3163 45.7095 24.4534 42.8518 24.4534 39.3146V19.8058C24.4534 16.2738 27.3111 13.4109 30.8483 13.4109ZM42.1207 37.581H48.7314C49.5697 37.581 50.2492 36.9016 50.2492 36.0632C50.2492 35.2249 49.5697 34.5454 48.7314 34.5454H42.1207C41.2823 34.5454 40.6029 35.2249 40.6029 36.0632C40.6029 36.9016 41.2823 37.581 42.1207 37.581ZM36.3631 31.0782L48.7314 31.0782C49.5697 31.0782 50.2492 30.3984 50.2492 29.5604C50.2492 28.7221 49.5697 28.0426 48.7314 28.0426H36.3631C35.5251 28.0426 34.8453 28.7221 34.8453 29.5604C34.8453 30.3984 35.5247 31.0782 36.3631 31.0782ZM36.3631 24.575L48.7314 24.575C49.5697 24.575 50.2492 23.8956 50.2492 23.0572C50.2492 22.2193 49.5697 21.5394 48.7314 21.5394L36.3631 21.5394C35.5251 21.5394 34.8453 22.2193 34.8453 23.0572C34.8453 23.8956 35.5247 24.575 36.3631 24.575Z" fill="#930014"/>
</mask>
<g mask="url(#mask0_549_15760)">
<g style="mix-blend-mode:multiply">
<path d="M27.5464 17.4334H12.2591C9.49141 17.4334 7.24805 19.6728 7.24805 22.4445V45.3753C7.24805 46.3481 8.36369 46.9171 9.15102 46.3268L13.9295 42.7429H27.5464C30.3142 42.7429 32.5575 40.5036 32.5575 37.7318V22.4445C32.5575 19.6768 30.3182 17.4334 27.5464 17.4334ZM18.7133 36.3733H13.5331C12.8761 36.3733 12.3437 35.8409 12.3437 35.184C12.3437 34.527 12.8761 33.9946 13.5331 33.9946H18.7133C19.3702 33.9946 19.9026 34.527 19.9026 35.184C19.9026 35.8409 19.3702 36.3733 18.7133 36.3733ZM26.2725 31.2777H13.5331C12.8761 31.2777 12.3437 30.7449 12.3437 30.0883C12.3437 29.4314 12.8761 28.899 13.5331 28.899H26.2725C26.9291 28.899 27.4619 29.4314 27.4619 30.0883C27.4619 30.7449 26.9295 31.2777 26.2725 31.2777ZM26.2725 26.1817H13.5331C12.8761 26.1817 12.3437 25.6493 12.3437 24.9923C12.3437 24.3357 12.8761 23.803 13.5331 23.803H26.2725C26.9291 23.803 27.4619 24.3357 27.4619 24.9923C27.4619 25.6493 26.9295 26.1817 26.2725 26.1817Z" fill="#930014"/>
</g>
</g>
</svg>
