<svg width="64" height="64" viewBox="0 0 64 64" fill="none" xmlns="http://www.w3.org/2000/svg">
<ellipse cx="33.7245" cy="32" rx="12.828" ry="12.6631" fill="#0096F0"/>
<g style="mix-blend-mode:multiply">
<ellipse cx="42.6466" cy="19.3369" rx="7.03333" ry="6.94294" fill="#AFC300"/>
</g>
<g style="mix-blend-mode:multiply">
<ellipse cx="18.7472" cy="34.1218" rx="9.18274" ry="9.06473" fill="#AFC300"/>
</g>
<g style="mix-blend-mode:multiply">
<ellipse cx="44.3403" cy="40.9554" rx="5.33928" ry="5.27066" fill="#AFC300"/>
</g>
<mask id="mask0_619_11534" style="mask-type:alpha" maskUnits="userSpaceOnUse" x="20" y="19" width="27" height="26">
<ellipse cx="33.7245" cy="32" rx="12.828" ry="12.6631" fill="#6E7B00"/>
</mask>
<g mask="url(#mask0_619_11534)">
<g style="mix-blend-mode:multiply">
<path fill-rule="evenodd" clip-rule="evenodd" d="M49.6799 19.3369C49.6799 23.1713 46.531 26.2798 42.6466 26.2798C38.7622 26.2798 35.6133 23.1713 35.6133 19.3369C35.6133 15.5024 38.7622 12.3939 42.6466 12.3939C46.531 12.3939 49.6799 15.5024 49.6799 19.3369ZM27.9299 34.1218C27.9299 39.1281 23.8187 43.1865 18.7472 43.1865C13.6757 43.1865 9.56445 39.1281 9.56445 34.1218C9.56445 29.1155 13.6757 25.0571 18.7472 25.0571C23.8187 25.0571 27.9299 29.1155 27.9299 34.1218ZM44.3403 46.226C47.2891 46.226 49.6795 43.8663 49.6795 40.9554C49.6795 38.0444 47.2891 35.6847 44.3403 35.6847C41.3915 35.6847 39.001 38.0444 39.001 40.9554C39.001 43.8663 41.3915 46.226 44.3403 46.226Z" fill="#6E7B00"/>
</g>
</g>
</svg>
