<svg width="64" height="64" viewBox="0 0 64 64" fill="none" xmlns="http://www.w3.org/2000/svg">
<path d="M47.9774 25.2093H45.6059V22.0472C45.6059 15.9448 40.6413 10.9801 34.5388 10.9801C28.4362 10.9801 23.4716 15.9448 23.4716 22.0472V25.2093H21.1001C20.6632 25.2093 20.3096 25.5629 20.3096 25.9998V45.7626C20.3096 47.5065 21.7277 48.9246 23.4716 48.9246H45.6059C47.3498 48.9246 48.7679 47.5065 48.7679 45.7625V25.9998C48.7679 25.5629 48.4144 25.2093 47.9774 25.2093ZM40.8628 25.2093H28.2147V22.0472C28.2147 18.5602 31.0517 15.7232 34.5388 15.7232C38.0258 15.7232 40.8628 18.5602 40.8628 22.0472V25.2093Z" fill="#0096F0"/>
<g style="mix-blend-mode:multiply">
<path d="M51.9585 52.2007C52.0124 52.6878 51.8558 53.1766 51.5287 53.5425C51.2017 53.9082 50.7331 54.1173 50.2426 54.1173H43.3383C42.8478 54.1173 42.3792 53.9082 42.0522 53.5425C41.7251 53.1768 41.5683 52.688 41.6224 52.2007L42.7113 42.4091C40.9431 41.123 39.8862 39.0884 39.8862 36.8566C39.8862 33.0489 42.9826 29.9523 46.7905 29.9523C50.5984 29.9523 53.6948 33.0487 53.6948 36.8566C53.6948 39.0884 52.638 41.123 50.8698 42.4091L51.9585 52.2007Z" fill="#AFC300"/>
</g>
<mask id="mask0_619_11535" style="mask-type:alpha" maskUnits="userSpaceOnUse" x="20" y="10" width="29" height="39">
<path d="M47.9774 25.2093H45.6059V22.0472C45.6059 15.9448 40.6413 10.9801 34.5388 10.9801C28.4362 10.9801 23.4716 15.9448 23.4716 22.0472V25.2093H21.1001C20.6632 25.2093 20.3096 25.5629 20.3096 25.9998V45.7626C20.3096 47.5065 21.7277 48.9246 23.4716 48.9246H45.6059C47.3498 48.9246 48.7679 47.5065 48.7679 45.7625V25.9998C48.7679 25.5629 48.4144 25.2093 47.9774 25.2093ZM40.8628 25.2093H28.2147V22.0472C28.2147 18.5602 31.0517 15.7232 34.5388 15.7232C38.0258 15.7232 40.8628 18.5602 40.8628 22.0472V25.2093Z" fill="#6E7B00"/>
</mask>
<g mask="url(#mask0_619_11535)">
<g style="mix-blend-mode:multiply">
<path d="M51.9585 52.2007C52.0124 52.6878 51.8558 53.1766 51.5287 53.5425C51.2017 53.9082 50.7331 54.1173 50.2426 54.1173H43.3383C42.8478 54.1173 42.3792 53.9082 42.0522 53.5425C41.7251 53.1768 41.5683 52.688 41.6224 52.2007L42.7113 42.4091C40.9431 41.123 39.8862 39.0884 39.8862 36.8566C39.8862 33.0489 42.9826 29.9523 46.7905 29.9523C50.5984 29.9523 53.6948 33.0487 53.6948 36.8566C53.6948 39.0884 52.638 41.123 50.8698 42.4091L51.9585 52.2007Z" fill="#6E7B00"/>
</g>
</g>
</svg>
