<svg width="64" height="64" viewBox="0 0 64 64" fill="none" xmlns="http://www.w3.org/2000/svg">
<path fill-rule="evenodd" clip-rule="evenodd" d="M36.0352 48.9097C46.3749 48.9097 54.7578 40.5274 54.7578 30.1872C54.7578 19.847 46.3749 11.4646 36.0352 11.4646C25.6954 11.4646 17.3125 19.847 17.3125 30.1872C17.3125 40.5274 25.6954 48.9097 36.0352 48.9097ZM24.9862 23.5089C24.9862 22.3328 25.9387 21.3794 27.1157 21.3794H44.9566C46.1337 21.3794 47.0862 22.3328 47.0862 23.5089V26.7989C47.0862 27.975 46.1337 28.9284 44.9566 28.9284H27.1157C25.9387 28.9284 24.9862 27.975 24.9862 26.7989V23.5089ZM24.9862 33.5754C24.9862 32.3993 25.9387 31.4459 27.1157 31.4459H44.9566C46.1337 31.4459 47.0862 32.3993 47.0862 33.5754V36.8655C47.0862 38.0416 46.1337 38.995 44.9566 38.995H27.1157C25.9387 38.995 24.9862 38.0416 24.9862 36.8655V33.5754Z" fill="#0096F0"/>
<g style="mix-blend-mode:multiply">
<path fill-rule="evenodd" clip-rule="evenodd" d="M20.4854 30.1872L32 35.122V44.4327C32 51.2667 27.1069 56.5421 20.4854 57.6964C13.864 56.5421 8.9707 51.2667 8.9707 44.4327V35.122L20.4854 30.1872ZM18.9578 44.9679L16.3587 42.369C15.6851 41.6954 14.5923 41.6954 13.9187 42.369C13.2452 43.0425 13.2452 44.1353 13.9187 44.8089L17.7416 48.6315C18.4152 49.3051 19.5079 49.3051 20.1815 48.6315C22.4857 46.3274 24.7637 43.9973 27.0572 41.6824C27.726 41.0075 27.7239 39.9184 27.0498 39.2479C26.3756 38.5774 25.2833 38.5792 24.6138 39.2554L18.9578 44.9679Z" fill="#AFC300"/>
</g>
<mask id="mask0_619_11536" style="mask-type:alpha" maskUnits="userSpaceOnUse" x="17" y="11" width="38" height="38">
<path fill-rule="evenodd" clip-rule="evenodd" d="M36.0352 48.9097C46.3749 48.9097 54.7578 40.5274 54.7578 30.1872C54.7578 19.847 46.3749 11.4646 36.0352 11.4646C25.6954 11.4646 17.3125 19.847 17.3125 30.1872C17.3125 40.5274 25.6954 48.9097 36.0352 48.9097ZM24.9862 23.5089C24.9862 22.3328 25.9387 21.3794 27.1157 21.3794H44.9566C46.1337 21.3794 47.0862 22.3328 47.0862 23.5089V26.7989C47.0862 27.975 46.1337 28.9284 44.9566 28.9284H27.1157C25.9387 28.9284 24.9862 27.975 24.9862 26.7989V23.5089ZM24.9862 33.5754C24.9862 32.3993 25.9387 31.4459 27.1157 31.4459H44.9566C46.1337 31.4459 47.0862 32.3993 47.0862 33.5754V36.8655C47.0862 38.0416 46.1337 38.995 44.9566 38.995H27.1157C25.9387 38.995 24.9862 38.0416 24.9862 36.8655V33.5754Z" fill="#6E7B00"/>
</mask>
<g mask="url(#mask0_619_11536)">
<g style="mix-blend-mode:multiply">
<path fill-rule="evenodd" clip-rule="evenodd" d="M20.4854 30.1872L32 35.122V44.4327C32 51.2667 27.1069 56.5421 20.4854 57.6964C13.864 56.5421 8.9707 51.2667 8.9707 44.4327V35.122L20.4854 30.1872ZM18.9578 44.9679L16.3587 42.369C15.6851 41.6954 14.5923 41.6954 13.9187 42.369C13.2452 43.0425 13.2452 44.1353 13.9187 44.8089L17.7416 48.6315C18.4152 49.3051 19.5079 49.3051 20.1815 48.6315C22.4857 46.3274 24.7637 43.9973 27.0572 41.6824C27.726 41.0075 27.7239 39.9184 27.0498 39.2479C26.3756 38.5774 25.2833 38.5792 24.6138 39.2554L18.9578 44.9679Z" fill="#6E7B00"/>
</g>
</g>
</svg>
