<svg width="64" height="64" viewBox="0 0 64 64" fill="none" xmlns="http://www.w3.org/2000/svg">
<path fill-rule="evenodd" clip-rule="evenodd" d="M9.81718 6.51062H41.8005C43.3909 6.51062 44.9163 7.1466 46.0409 8.27865C47.1655 9.4107 47.7973 10.9461 47.7973 12.547V40.7171C47.7973 42.318 47.1655 43.8534 46.0409 44.9855C44.9163 46.1175 43.3909 46.7535 41.8005 46.7535H9.81718C8.22671 46.7535 6.70138 46.1175 5.57675 44.9855C4.45212 43.8534 3.82031 42.318 3.82031 40.7171V12.547C3.82031 10.9461 4.45212 9.4107 5.57675 8.27865C6.70138 7.1466 8.22671 6.51062 9.81718 6.51062ZM23.8099 12.547H19.812V16.5713H23.8099V12.547ZM15.814 12.547H11.8161V16.5713H15.814V12.547ZM28.5117 22.237H11.7188V25.9526H28.5117V22.237ZM11.7188 28.5517H28.5117V32.2673H11.7188V28.5517ZM28.5117 34.866H11.7188V38.5815H28.5117V34.866Z" fill="#FF2731"/>
<g style="mix-blend-mode:multiply">
<path fill-rule="evenodd" clip-rule="evenodd" d="M40.8008 13.9802H42.6797C42.6797 14.8807 43.4102 15.6107 44.3086 15.6107H51.2812C52.1797 15.6107 52.9102 14.8807 52.9102 13.9802H54.7891C57 13.9802 58.7891 15.7711 58.7891 17.9802V50.2231C58.7891 52.4322 57 54.2231 54.7891 54.2231H40.8008C38.5898 54.2231 36.8008 52.4322 36.8008 50.2231V17.9802C36.8008 15.7711 38.5898 13.9802 40.8008 13.9802ZM56.3984 24.0948H49.2695V27.8104H56.3984V24.0948ZM49.2695 30.4095H56.3984V34.1251H49.2695V30.4095ZM56.3984 36.7238H49.2695V40.4393H56.3984V36.7238Z" fill="#0096F0"/>
</g>
<mask id="mask0_549_15764" style="mask-type:alpha" maskUnits="userSpaceOnUse" x="3" y="6" width="45" height="41">
<path fill-rule="evenodd" clip-rule="evenodd" d="M9.81718 6.51062H41.8005C43.3909 6.51062 44.9163 7.1466 46.0409 8.27865C47.1655 9.4107 47.7973 10.9461 47.7973 12.547V40.7171C47.7973 42.318 47.1655 43.8534 46.0409 44.9855C44.9163 46.1175 43.3909 46.7535 41.8005 46.7535H9.81718C8.22671 46.7535 6.70138 46.1175 5.57675 44.9855C4.45212 43.8534 3.82031 42.318 3.82031 40.7171V12.547C3.82031 10.9461 4.45212 9.4107 5.57675 8.27865C6.70138 7.1466 8.22671 6.51062 9.81718 6.51062ZM23.8099 12.547H19.812V16.5713H23.8099V12.547ZM15.814 12.547H11.8161V16.5713H15.814V12.547ZM28.5117 22.237H11.7188V25.9526H28.5117V22.237ZM11.7188 28.5517H28.5117V32.2673H11.7188V28.5517ZM28.5117 34.866H11.7188V38.5815H28.5117V34.866Z" fill="#930014"/>
</mask>
<g mask="url(#mask0_549_15764)">
<g style="mix-blend-mode:multiply">
<path fill-rule="evenodd" clip-rule="evenodd" d="M40.8008 13.9802H42.6797C42.6797 14.8807 43.4097 15.6107 44.3102 15.6107H51.2797C52.1802 15.6107 52.9102 14.8807 52.9102 13.9802H54.7891C56.9982 13.9802 58.7891 15.7711 58.7891 17.9802V50.2231C58.7891 52.4322 56.9982 54.2231 54.7891 54.2231H40.8008C38.5916 54.2231 36.8008 52.4322 36.8008 50.2231V17.9802C36.8008 15.7711 38.5916 13.9802 40.8008 13.9802ZM56.3984 24.0948H49.2695V27.8104H56.3984V24.0948ZM49.2695 30.4095H56.3984V34.1251H49.2695V30.4095ZM56.3984 36.7238H49.2695V40.4393H56.3984V36.7238Z" fill="#930014"/>
</g>
</g>
</svg>
