<svg width="64" height="64" viewBox="0 0 64 64" fill="none" xmlns="http://www.w3.org/2000/svg">
<path fill-rule="evenodd" clip-rule="evenodd" d="M31.5825 49.1106C41.5797 49.1106 49.6841 41.0061 49.6841 31.0088C49.6841 21.0115 41.5797 12.907 31.5825 12.907C21.5853 12.907 13.481 21.0115 13.481 31.0088C13.481 41.0061 21.5853 49.1106 31.5825 49.1106ZM31.5849 34.8636C33.8957 34.8636 35.786 32.9744 35.786 30.6633C35.786 28.3522 33.8957 26.463 31.5849 26.463C29.2742 26.463 27.3838 28.3522 27.3838 30.6633C27.3838 32.9744 29.2742 34.8636 31.5849 34.8636ZM38.7934 38.2201L38.6925 37.9913C38.5988 37.8014 38.4883 37.6208 38.3706 37.4498C37.5275 36.2025 36.2256 35.3771 34.758 35.1754C34.6763 35.1672 34.5898 35.17 34.5082 35.1853C34.4049 35.2043 34.3064 35.2428 34.2271 35.3037C33.4561 35.8724 32.5385 36.1658 31.5849 36.1658C30.6313 36.1658 29.7138 35.8724 28.9427 35.3037C28.8827 35.258 28.813 35.2218 28.7361 35.1977C28.6833 35.1812 28.6304 35.1703 28.5776 35.1661C28.5224 35.1616 28.4647 35.1644 28.4119 35.1754C26.9442 35.3771 25.6231 36.2025 24.7968 37.4498C24.6335 37.6883 24.487 37.9634 24.3765 38.2201C24.3212 38.3302 24.3381 38.4586 24.3933 38.5687C24.5422 38.8255 24.7248 39.0822 24.8881 39.3023C25.1475 39.6508 25.4214 39.9627 25.7336 40.2562L26.0123 40.5173C26.1924 40.6782 26.3846 40.834 26.5767 40.9898C28.0251 42.072 29.769 42.6406 31.5657 42.6406C33.3624 42.6406 35.1063 42.0719 36.5547 40.9898C36.7108 40.8729 36.8669 40.7456 37.0183 40.6134C37.1504 40.4968 37.2777 40.3765 37.4002 40.2562C37.6932 39.9627 37.9863 39.6508 38.2433 39.3023C38.4259 39.0639 38.5916 38.8255 38.7381 38.5687C38.8294 38.4586 38.8486 38.3302 38.7934 38.2201ZM43.8952 27.34C43.8952 28.8645 42.651 30.1109 41.1257 30.1109C39.6004 30.1109 38.3538 28.8645 38.3538 27.34C38.3538 25.8154 39.6004 24.5691 41.1257 24.5691C42.651 24.5691 43.8952 25.8154 43.8952 27.34ZM45.8144 32.1741L45.8793 32.3252C45.9033 32.3686 45.9057 32.4164 45.8937 32.4634C45.8841 32.4948 45.8673 32.5259 45.8433 32.555C45.7472 32.7244 45.6391 32.8818 45.5166 33.039C45.3484 33.2689 45.1539 33.4746 44.9617 33.6682C44.8464 33.7824 44.7215 33.8967 44.5918 34.0035L44.4045 34.1522C43.4485 34.866 42.2979 35.2412 41.1137 35.2412C39.9271 35.2412 38.7765 34.8661 37.8229 34.1522C37.6284 33.9949 37.4362 33.8376 37.2657 33.6682C37.0591 33.4746 36.879 33.2689 36.7084 33.039C36.6003 32.8938 36.4778 32.7244 36.3817 32.555C36.3457 32.4824 36.3337 32.3977 36.3697 32.3252C36.4418 32.1557 36.5403 31.9742 36.6484 31.8169C37.1936 30.9941 38.0631 30.4496 39.0312 30.3166C39.1537 30.2923 39.2858 30.3286 39.3819 30.4012C39.6341 30.5865 39.9079 30.7274 40.1961 30.8227C40.494 30.9203 40.8062 30.9699 41.1257 30.9699C41.3179 30.9699 41.5076 30.952 41.6926 30.9166C42.1153 30.8355 42.5141 30.6624 42.8672 30.4012C42.9224 30.3591 42.9897 30.3333 43.0617 30.3214C43.1146 30.3128 43.1674 30.3115 43.2179 30.3166C44.1859 30.4496 45.0458 30.9941 45.6007 31.8169C45.6799 31.9297 45.752 32.0489 45.8144 32.1741ZM21.4941 30.1109C23.0193 30.1109 24.2636 28.8645 24.2636 27.34C24.2636 25.8154 23.0193 24.5691 21.4941 24.5691C19.9688 24.5691 18.7221 25.8154 18.7221 27.34C18.7221 28.8645 19.9688 30.1109 21.4941 30.1109ZM26.2477 32.3252L26.1828 32.1741C26.1203 32.0489 26.0483 31.9297 25.969 31.8169C25.4142 30.9941 24.5542 30.4496 23.5862 30.3166C23.4661 30.3045 23.3316 30.3286 23.2355 30.4012C22.7287 30.7763 22.1234 30.9699 21.4941 30.9699C20.8647 30.9699 20.2594 30.7763 19.7502 30.4012C19.6541 30.3286 19.522 30.2923 19.3995 30.3166C18.4315 30.4496 17.562 30.9941 17.0167 31.8169C16.9086 31.9742 16.8101 32.1557 16.7381 32.3252C16.7021 32.3977 16.7141 32.4824 16.7501 32.555C16.8462 32.7244 16.9687 32.8938 17.0768 33.039C17.2473 33.2689 17.4275 33.4746 17.634 33.6682C17.8046 33.8376 17.9967 33.9949 18.1913 34.1522C19.1449 34.8661 20.2955 35.2412 21.4821 35.2412C22.6663 35.2412 23.8168 34.866 24.7728 34.1522C24.9674 34.007 25.1595 33.8376 25.3301 33.6682L25.6231 33.3602C25.7144 33.258 25.8033 33.1514 25.8849 33.039L26.0531 32.8102L26.2116 32.555C26.2477 32.5107 26.2693 32.4619 26.2693 32.414C26.2693 32.3835 26.2621 32.3534 26.2477 32.3252Z" fill="#0096F0"/>
<g style="mix-blend-mode:multiply">
<path fill-rule="evenodd" clip-rule="evenodd" d="M46.5318 37.2312L53.9692 40.4187V46.4326C53.9692 50.8468 50.8086 54.2542 46.5318 54.9998C42.2549 54.2542 39.0942 50.8468 39.0942 46.4326V40.4187L46.5318 37.2312ZM45.545 46.7783L43.8662 45.0996C43.4312 44.6645 42.7253 44.6645 42.2903 45.0996C41.8552 45.5347 41.8552 46.2405 42.2903 46.6756L44.7595 49.1447C45.1946 49.5798 45.9004 49.5798 46.3355 49.1447C47.8238 47.6564 49.2951 46.1513 50.7766 44.6561C51.2086 44.2202 51.2072 43.5167 50.7718 43.0837C50.3363 42.6506 49.6308 42.6518 49.1984 43.0885L45.545 46.7783Z" fill="#AFC300"/>
</g>
<mask id="mask0_619_11537" style="mask-type:alpha" maskUnits="userSpaceOnUse" x="13" y="12" width="37" height="38">
<path fill-rule="evenodd" clip-rule="evenodd" d="M31.5825 49.1106C41.5797 49.1106 49.6841 41.0061 49.6841 31.0088C49.6841 21.0115 41.5797 12.907 31.5825 12.907C21.5853 12.907 13.481 21.0115 13.481 31.0088C13.481 41.0061 21.5853 49.1106 31.5825 49.1106ZM31.5849 34.8636C33.8957 34.8636 35.786 32.9744 35.786 30.6633C35.786 28.3522 33.8957 26.463 31.5849 26.463C29.2742 26.463 27.3838 28.3522 27.3838 30.6633C27.3838 32.9744 29.2742 34.8636 31.5849 34.8636ZM38.7934 38.2201L38.6925 37.9913C38.5988 37.8014 38.4883 37.6208 38.3706 37.4498C37.5275 36.2025 36.2256 35.3771 34.758 35.1754C34.6763 35.1672 34.5898 35.17 34.5082 35.1853C34.4049 35.2043 34.3064 35.2428 34.2271 35.3037C33.4561 35.8724 32.5385 36.1658 31.5849 36.1658C30.6313 36.1658 29.7138 35.8724 28.9427 35.3037C28.8827 35.258 28.813 35.2218 28.7361 35.1977C28.6833 35.1812 28.6304 35.1703 28.5776 35.1661C28.5224 35.1616 28.4647 35.1644 28.4119 35.1754C26.9442 35.3771 25.6231 36.2025 24.7968 37.4498C24.6335 37.6883 24.487 37.9634 24.3765 38.2201C24.3212 38.3302 24.3381 38.4586 24.3933 38.5687C24.5422 38.8255 24.7248 39.0822 24.8881 39.3023C25.1475 39.6508 25.4214 39.9627 25.7336 40.2562L26.0123 40.5173C26.1924 40.6782 26.3846 40.834 26.5767 40.9898C28.0251 42.072 29.769 42.6406 31.5657 42.6406C33.3624 42.6406 35.1063 42.0719 36.5547 40.9898C36.7108 40.8729 36.8669 40.7456 37.0183 40.6134C37.1504 40.4968 37.2777 40.3765 37.4002 40.2562C37.6932 39.9627 37.9863 39.6508 38.2433 39.3023C38.4259 39.0639 38.5916 38.8255 38.7381 38.5687C38.8294 38.4586 38.8486 38.3302 38.7934 38.2201ZM43.8952 27.34C43.8952 28.8645 42.651 30.1109 41.1257 30.1109C39.6004 30.1109 38.3538 28.8645 38.3538 27.34C38.3538 25.8154 39.6004 24.5691 41.1257 24.5691C42.651 24.5691 43.8952 25.8154 43.8952 27.34ZM45.8144 32.1741L45.8793 32.3252C45.9033 32.3686 45.9057 32.4164 45.8937 32.4634C45.8841 32.4948 45.8673 32.5259 45.8433 32.555C45.7472 32.7244 45.6391 32.8818 45.5166 33.039C45.3484 33.2689 45.1539 33.4746 44.9617 33.6682C44.8464 33.7824 44.7215 33.8967 44.5918 34.0035L44.4045 34.1522C43.4485 34.866 42.2979 35.2412 41.1137 35.2412C39.9271 35.2412 38.7765 34.8661 37.8229 34.1522C37.6284 33.9949 37.4362 33.8376 37.2657 33.6682C37.0591 33.4746 36.879 33.2689 36.7084 33.039C36.6003 32.8938 36.4778 32.7244 36.3817 32.555C36.3457 32.4824 36.3337 32.3977 36.3697 32.3252C36.4418 32.1557 36.5403 31.9742 36.6484 31.8169C37.1936 30.9941 38.0631 30.4496 39.0312 30.3166C39.1537 30.2923 39.2858 30.3286 39.3819 30.4012C39.6341 30.5865 39.9079 30.7274 40.1961 30.8227C40.494 30.9203 40.8062 30.9699 41.1257 30.9699C41.3179 30.9699 41.5076 30.952 41.6926 30.9166C42.1153 30.8355 42.5141 30.6624 42.8672 30.4012C42.9224 30.3591 42.9897 30.3333 43.0617 30.3214C43.1146 30.3128 43.1674 30.3115 43.2179 30.3166C44.1859 30.4496 45.0458 30.9941 45.6007 31.8169C45.6799 31.9297 45.752 32.0489 45.8144 32.1741ZM21.4941 30.1109C23.0193 30.1109 24.2636 28.8645 24.2636 27.34C24.2636 25.8154 23.0193 24.5691 21.4941 24.5691C19.9688 24.5691 18.7221 25.8154 18.7221 27.34C18.7221 28.8645 19.9688 30.1109 21.4941 30.1109ZM26.2477 32.3252L26.1828 32.1741C26.1203 32.0489 26.0483 31.9297 25.969 31.8169C25.4142 30.9941 24.5542 30.4496 23.5862 30.3166C23.4661 30.3045 23.3316 30.3286 23.2355 30.4012C22.7287 30.7763 22.1234 30.9699 21.4941 30.9699C20.8647 30.9699 20.2594 30.7763 19.7502 30.4012C19.6541 30.3286 19.522 30.2923 19.3995 30.3166C18.4315 30.4496 17.562 30.9941 17.0167 31.8169C16.9086 31.9742 16.8101 32.1557 16.7381 32.3252C16.7021 32.3977 16.7141 32.4824 16.7501 32.555C16.8462 32.7244 16.9687 32.8938 17.0768 33.039C17.2473 33.2689 17.4275 33.4746 17.634 33.6682C17.8046 33.8376 17.9967 33.9949 18.1913 34.1522C19.1449 34.8661 20.2955 35.2412 21.4821 35.2412C22.6663 35.2412 23.8168 34.866 24.7728 34.1522C24.9674 34.007 25.1595 33.8376 25.3301 33.6682L25.6231 33.3602C25.7144 33.258 25.8033 33.1514 25.8849 33.039L26.0531 32.8102L26.2116 32.555C26.2477 32.5107 26.2693 32.4619 26.2693 32.414C26.2693 32.3835 26.2621 32.3534 26.2477 32.3252Z" fill="#6E7B00"/>
</mask>
<g mask="url(#mask0_619_11537)">
<g style="mix-blend-mode:multiply">
<path fill-rule="evenodd" clip-rule="evenodd" d="M46.5318 37.2312L53.9692 40.4187V46.4326C53.9692 50.8468 50.8086 54.2542 46.5318 54.9998C42.2549 54.2542 39.0942 50.8468 39.0942 46.4326V40.4187L46.5318 37.2312ZM45.545 46.7783L43.8662 45.0996C43.4312 44.6645 42.7253 44.6645 42.2903 45.0996C41.8552 45.5347 41.8552 46.2405 42.2903 46.6756L44.7595 49.1447C45.1946 49.5798 45.9004 49.5798 46.3355 49.1447C47.8238 47.6564 49.2951 46.1513 50.7766 44.6561C51.2086 44.2202 51.2072 43.5167 50.7718 43.0837C50.3363 42.6506 49.6308 42.6518 49.1984 43.0885L45.545 46.7783Z" fill="#6E7B00"/>
</g>
</g>
</svg>
