<svg width="66" height="66" viewBox="0 0 66 66" fill="none" xmlns="http://www.w3.org/2000/svg">
<mask id="path-2-inside-1_1155_23326" fill="white">
<path fill-rule="evenodd" clip-rule="evenodd" d="M31.8221 9.74671C30.0604 10.5741 28.8376 10.9037 27.2371 10.9825C25.3463 11.0755 23.5333 10.6978 21.8786 9.86632L21.2821 9.56648L21.3263 15.5467C21.3731 21.8727 21.3698 21.8251 21.902 23.9045C23.0909 28.5496 26.0995 32.7536 30.1173 35.384C30.6533 35.7348 31.5867 36.2835 32.1915 36.6033L33.2911 37.1846L34.3969 36.5922C36.5406 35.4437 37.8353 34.4906 39.4566 32.8678C41.4937 30.8287 42.5787 29.2508 43.6575 26.7583C44.5022 24.8066 44.9578 23.0783 45.1905 20.9409C45.2523 20.3746 45.2991 17.7113 45.2991 14.7672V9.58956L44.4226 10.0003C42.656 10.8281 40.3466 11.1784 38.375 10.9176C37.2161 10.7643 35.6769 10.2556 34.3364 9.58289C33.7669 9.2971 33.2887 9.06661 33.2735 9.07061C33.2584 9.07461 32.6052 9.37886 31.8221 9.74671ZM32.126 13.3918C31.5663 13.6168 30.597 13.9219 29.9718 14.0697C28.9445 14.3126 28.634 14.3388 26.7476 14.3423L24.6602 14.3462L24.7056 17.6287C24.7453 20.4879 24.7802 21.0537 24.9763 22.0155C25.4276 24.2286 26.5458 26.8035 27.7851 28.4833C29.0284 30.1686 30.8699 31.8534 32.577 32.8675L33.2906 33.2915L34.0866 32.8082C37.3159 30.8476 39.7859 27.7551 40.9881 24.1669C41.6984 22.0467 41.9429 19.9767 41.8933 16.5023L41.8627 14.3501L40.2727 14.3814C37.9343 14.4275 36.0051 14.0791 34.0929 13.2654C33.6999 13.0982 33.3255 12.9662 33.2609 12.972C33.1962 12.9779 32.6856 13.1667 32.126 13.3918ZM39.3173 17.4927C39.4802 17.6458 39.5546 17.8316 39.5546 18.0854C39.5546 18.4336 39.3644 18.6458 36.2845 21.7348C31.8938 26.1383 31.9447 26.0915 31.5402 26.0915C31.2453 26.0915 30.9913 25.877 29.3286 24.223C27.6854 22.5885 27.4502 22.3142 27.4502 22.0314C27.4502 21.5395 27.795 21.1677 28.2514 21.1677C28.5981 21.1677 28.7409 21.2811 30.09 22.6278L31.5527 24.0878L34.9674 20.6788C38.1119 17.5394 38.4096 17.2697 38.7309 17.2697C38.948 17.2697 39.1695 17.354 39.3173 17.4927ZM10.3039 25.3753C9.8957 25.5909 9.55975 26.0616 9.45286 26.5677C9.38567 26.8857 9.51779 27.4034 12.5726 38.7933C12.9709 40.2786 13.3619 41.6173 13.4413 41.7682C13.6252 42.1179 14.0589 42.5252 16.2754 44.4287C17.2662 45.2796 18.2456 46.1623 18.4517 46.3905C19.1841 47.2012 19.5516 48.2526 19.5516 49.5371V50.2L23.8343 50.1732L28.117 50.1464L28.1169 46.4536C28.1168 42.3312 28.1023 42.2226 27.3701 40.8241C26.6082 39.369 26.3354 39.159 21.619 36.3989C19.3542 35.0735 18.9509 34.8718 18.4903 34.8349C18.0593 34.8003 17.8958 34.8373 17.6051 35.0349C16.456 35.816 16.503 37.332 17.6996 38.0834C17.9566 38.2447 19.1131 38.9177 20.2697 39.5789C21.4263 40.24 22.4725 40.873 22.5946 40.9856C22.9001 41.2669 22.9707 41.6281 22.7888 41.9798C22.4191 42.6949 22.0956 42.5996 19.1379 40.9043C16.3456 39.304 15.8085 38.8908 15.3784 38.0124C15.0728 37.3883 14.9534 36.3136 15.1218 35.7036C15.1873 35.4664 15.1943 35.2059 15.1399 35.0369C15.0906 34.8843 14.6065 33.0977 14.0639 31.0666C12.6976 25.9516 12.7419 26.0901 12.3499 25.712C11.7513 25.1346 10.995 25.0101 10.3039 25.3753ZM54.6164 25.3762C53.8879 25.761 53.9072 25.7074 52.2308 32.0122C51.3878 35.1826 51.3566 35.3387 51.4656 35.8468C51.7378 37.1158 51.1511 38.582 50.0769 39.3174C49.8469 39.475 48.5654 40.2334 47.2291 41.0027C45.5337 41.979 44.703 42.4017 44.4804 42.4017C43.8186 42.4017 43.4182 41.5806 43.8373 41.0828C43.936 40.9656 45.1456 40.2206 46.5252 39.4273C47.9048 38.6339 49.1214 37.9054 49.2288 37.8083C49.6134 37.4605 49.8386 36.8615 49.7869 36.3237C49.7357 35.791 49.5182 35.4194 49.055 35.0736C48.8396 34.9128 48.6199 34.8625 48.1382 34.8637C47.441 34.8655 47.8074 34.6713 42.3074 37.956C40.4733 39.0514 39.6255 39.8466 39.0541 41.0072C38.4873 42.1587 38.43 42.6733 38.428 46.6331L38.4262 50.1977H42.7227H47.019L47.0709 49.1976C47.1744 47.2018 47.3711 46.9136 50.4119 44.3033C51.8969 43.0286 52.8978 42.092 53.0466 41.8375C53.1898 41.5927 53.7896 39.5436 54.5329 36.7598C55.2182 34.1928 56.0777 30.9846 56.4427 29.6305C56.9522 27.7405 57.0965 27.0536 57.0641 26.6738C56.9617 25.4757 55.6971 24.8054 54.6164 25.3762ZM16.9871 54.5061V57.0706H23.86H30.7328V54.5061V51.9416H23.86H16.9871V54.5061ZM35.8618 54.5061V57.0706H42.7346H49.6074V54.5061V51.9416H42.7346H35.8618V54.5061Z"/>
</mask>
<path fill-rule="evenodd" clip-rule="evenodd" d="M31.8221 9.74671C30.0604 10.5741 28.8376 10.9037 27.2371 10.9825C25.3463 11.0755 23.5333 10.6978 21.8786 9.86632L21.2821 9.56648L21.3263 15.5467C21.3731 21.8727 21.3698 21.8251 21.902 23.9045C23.0909 28.5496 26.0995 32.7536 30.1173 35.384C30.6533 35.7348 31.5867 36.2835 32.1915 36.6033L33.2911 37.1846L34.3969 36.5922C36.5406 35.4437 37.8353 34.4906 39.4566 32.8678C41.4937 30.8287 42.5787 29.2508 43.6575 26.7583C44.5022 24.8066 44.9578 23.0783 45.1905 20.9409C45.2523 20.3746 45.2991 17.7113 45.2991 14.7672V9.58956L44.4226 10.0003C42.656 10.8281 40.3466 11.1784 38.375 10.9176C37.2161 10.7643 35.6769 10.2556 34.3364 9.58289C33.7669 9.2971 33.2887 9.06661 33.2735 9.07061C33.2584 9.07461 32.6052 9.37886 31.8221 9.74671ZM32.126 13.3918C31.5663 13.6168 30.597 13.9219 29.9718 14.0697C28.9445 14.3126 28.634 14.3388 26.7476 14.3423L24.6602 14.3462L24.7056 17.6287C24.7453 20.4879 24.7802 21.0537 24.9763 22.0155C25.4276 24.2286 26.5458 26.8035 27.7851 28.4833C29.0284 30.1686 30.8699 31.8534 32.577 32.8675L33.2906 33.2915L34.0866 32.8082C37.3159 30.8476 39.7859 27.7551 40.9881 24.1669C41.6984 22.0467 41.9429 19.9767 41.8933 16.5023L41.8627 14.3501L40.2727 14.3814C37.9343 14.4275 36.0051 14.0791 34.0929 13.2654C33.6999 13.0982 33.3255 12.9662 33.2609 12.972C33.1962 12.9779 32.6856 13.1667 32.126 13.3918ZM39.3173 17.4927C39.4802 17.6458 39.5546 17.8316 39.5546 18.0854C39.5546 18.4336 39.3644 18.6458 36.2845 21.7348C31.8938 26.1383 31.9447 26.0915 31.5402 26.0915C31.2453 26.0915 30.9913 25.877 29.3286 24.223C27.6854 22.5885 27.4502 22.3142 27.4502 22.0314C27.4502 21.5395 27.795 21.1677 28.2514 21.1677C28.5981 21.1677 28.7409 21.2811 30.09 22.6278L31.5527 24.0878L34.9674 20.6788C38.1119 17.5394 38.4096 17.2697 38.7309 17.2697C38.948 17.2697 39.1695 17.354 39.3173 17.4927ZM10.3039 25.3753C9.8957 25.5909 9.55975 26.0616 9.45286 26.5677C9.38567 26.8857 9.51779 27.4034 12.5726 38.7933C12.9709 40.2786 13.3619 41.6173 13.4413 41.7682C13.6252 42.1179 14.0589 42.5252 16.2754 44.4287C17.2662 45.2796 18.2456 46.1623 18.4517 46.3905C19.1841 47.2012 19.5516 48.2526 19.5516 49.5371V50.2L23.8343 50.1732L28.117 50.1464L28.1169 46.4536C28.1168 42.3312 28.1023 42.2226 27.3701 40.8241C26.6082 39.369 26.3354 39.159 21.619 36.3989C19.3542 35.0735 18.9509 34.8718 18.4903 34.8349C18.0593 34.8003 17.8958 34.8373 17.6051 35.0349C16.456 35.816 16.503 37.332 17.6996 38.0834C17.9566 38.2447 19.1131 38.9177 20.2697 39.5789C21.4263 40.24 22.4725 40.873 22.5946 40.9856C22.9001 41.2669 22.9707 41.6281 22.7888 41.9798C22.4191 42.6949 22.0956 42.5996 19.1379 40.9043C16.3456 39.304 15.8085 38.8908 15.3784 38.0124C15.0728 37.3883 14.9534 36.3136 15.1218 35.7036C15.1873 35.4664 15.1943 35.2059 15.1399 35.0369C15.0906 34.8843 14.6065 33.0977 14.0639 31.0666C12.6976 25.9516 12.7419 26.0901 12.3499 25.712C11.7513 25.1346 10.995 25.0101 10.3039 25.3753ZM54.6164 25.3762C53.8879 25.761 53.9072 25.7074 52.2308 32.0122C51.3878 35.1826 51.3566 35.3387 51.4656 35.8468C51.7378 37.1158 51.1511 38.582 50.0769 39.3174C49.8469 39.475 48.5654 40.2334 47.2291 41.0027C45.5337 41.979 44.703 42.4017 44.4804 42.4017C43.8186 42.4017 43.4182 41.5806 43.8373 41.0828C43.936 40.9656 45.1456 40.2206 46.5252 39.4273C47.9048 38.6339 49.1214 37.9054 49.2288 37.8083C49.6134 37.4605 49.8386 36.8615 49.7869 36.3237C49.7357 35.791 49.5182 35.4194 49.055 35.0736C48.8396 34.9128 48.6199 34.8625 48.1382 34.8637C47.441 34.8655 47.8074 34.6713 42.3074 37.956C40.4733 39.0514 39.6255 39.8466 39.0541 41.0072C38.4873 42.1587 38.43 42.6733 38.428 46.6331L38.4262 50.1977H42.7227H47.019L47.0709 49.1976C47.1744 47.2018 47.3711 46.9136 50.4119 44.3033C51.8969 43.0286 52.8978 42.092 53.0466 41.8375C53.1898 41.5927 53.7896 39.5436 54.5329 36.7598C55.2182 34.1928 56.0777 30.9846 56.4427 29.6305C56.9522 27.7405 57.0965 27.0536 57.0641 26.6738C56.9617 25.4757 55.6971 24.8054 54.6164 25.3762ZM16.9871 54.5061V57.0706H23.86H30.7328V54.5061V51.9416H23.86H16.9871V54.5061ZM35.8618 54.5061V57.0706H42.7346H49.6074V54.5061V51.9416H42.7346H35.8618V54.5061Z" stroke="#383838" stroke-width="2" mask="url(#path-2-inside-1_1155_23326)"/>
</svg>
