<svg width="66" height="66" viewBox="0 0 66 66" fill="none" xmlns="http://www.w3.org/2000/svg">
<path d="M37.0661 16.183L36.5935 16.0199L37.0661 16.1829C38.2452 12.7658 41.426 10.136 45.0068 9.6184C46.0887 9.462 46.8495 9.4607 47.9342 9.61357C52.5874 10.2693 56.1622 14.1107 56.4754 18.789C56.555 19.9783 56.2481 21.4041 55.4797 23.1396C54.7122 24.8731 53.4972 26.8867 51.7968 29.2412C50.8696 30.5251 49.7438 31.9557 48.7882 33.0935C48.3102 33.6627 47.8783 34.1543 47.5376 34.5158C47.3669 34.697 47.2234 34.8407 47.1112 34.9437C47.0217 35.0259 46.9725 35.0627 46.9559 35.0751C46.9486 35.0805 46.9476 35.0813 46.9521 35.0792L46.952 35.0792C46.685 35.2049 46.3367 35.2049 46.0709 35.0798C46.0748 35.0817 46.0737 35.0809 46.0672 35.076C46.051 35.0641 46.0014 35.0273 45.9104 34.9441C45.7984 34.8416 45.6553 34.6986 45.4851 34.5183C45.1455 34.1586 44.7154 33.6694 44.2387 33.1018C43.2857 31.9673 42.1609 30.5371 41.2249 29.2412C38.4622 25.4157 36.9142 22.3238 36.6029 20.1794C36.4409 19.0632 36.6172 17.484 37.0661 16.183ZM47.8933 24.1195L47.8934 24.1195C50.0255 23.4993 51.4651 21.5926 51.4651 19.3798C51.4651 17.1574 50.0216 15.2615 47.8715 14.6438C47.4661 14.5273 46.9399 14.4805 46.4436 14.4862C45.948 14.492 45.4257 14.5507 45.0299 14.6777C42.9253 15.3532 41.5567 17.1951 41.5567 19.3798C41.5567 21.5926 42.9963 23.4993 45.1284 24.1195L45.1285 24.1195C45.5122 24.231 46.0267 24.2787 46.5109 24.2787C46.9951 24.2787 47.5096 24.231 47.8933 24.1195ZM22.018 22.1816C22.6182 21.9444 23.1142 21.7489 23.4748 21.6074C23.4767 21.7476 23.4787 21.9077 23.4806 22.0869C23.4887 22.8556 23.4959 23.9689 23.502 25.3442C23.5141 28.0945 23.5213 31.8897 23.5208 36.0659L23.5189 50.9137L17.2189 53.4025C15.4009 54.1207 13.7202 54.7729 12.4774 55.2452C11.8556 55.4814 11.3452 55.6719 10.9826 55.8029C10.8008 55.8686 10.6592 55.9182 10.5606 55.9508C10.5288 55.9614 10.5033 55.9695 10.4835 55.9756C10.1148 55.9432 9.71373 55.6289 9.59137 55.2367C9.59054 55.2258 9.58956 55.2114 9.58849 55.1927C9.58516 55.1349 9.58173 55.0515 9.5783 54.942C9.57147 54.7238 9.56501 54.4145 9.55896 54.0254C9.54689 53.2478 9.5366 52.16 9.52816 50.8642C9.51129 48.273 9.50186 44.8546 9.50025 41.4334C9.49864 38.0121 9.50486 34.5889 9.51929 31.9881C9.5265 30.6875 9.53577 29.5937 9.54711 28.8089C9.55279 28.4162 9.55896 28.1029 9.56559 27.8804C9.56891 27.7688 9.57227 27.6829 9.57558 27.6225C9.57749 27.5876 9.57907 27.5689 9.57966 27.5614C9.6231 27.3772 9.63158 27.3627 9.6683 27.3221C9.73485 27.2486 9.90174 27.1217 10.3779 26.8901C11.2991 26.4419 13.1202 25.7172 16.8333 24.2394L17.0189 24.1656C18.9578 23.3939 20.728 22.6916 22.018 22.1816ZM9.59368 55.2608C9.59365 55.2608 9.59341 55.2592 9.59302 55.2554C9.59351 55.2588 9.5937 55.2607 9.59368 55.2608ZM33.7257 24.3146L33.7258 24.3146C34.5276 26.2651 36.0986 28.9523 37.8831 31.4446L38.5454 32.3696V44.0698C38.5454 47.3308 38.5377 50.2952 38.5252 52.4443C38.519 53.519 38.5116 54.3888 38.5034 54.9895C38.5023 55.072 38.5011 55.1492 38.5 55.2211C38.2063 55.1081 37.8224 54.9593 37.3673 54.782C36.2807 54.3587 34.7909 53.7743 33.1603 53.131L27.5456 50.9158V36.0684V21.6125C28.0757 21.8202 29.4115 22.345 30.8075 22.8942L33.5922 23.9896L33.7257 24.3146ZM42.4766 37.139L42.6035 37.2691L42.6035 37.2691C43.4002 38.0851 43.7638 38.3952 44.3312 38.6582C45.9592 39.4129 47.7993 39.2952 49.2707 38.3267C49.651 38.0764 50.2403 37.4777 50.8976 36.7425C51.5721 35.9881 52.3639 35.0371 53.1612 34.0311C54.362 32.5159 55.5914 30.856 56.4572 29.5411L56.4767 38.815L56.4997 49.7413L56.3557 50.0023C56.2653 50.1662 56.1719 50.2658 55.8612 50.4198C55.6925 50.5034 54.7492 50.8898 53.3851 51.4368C52.0369 51.9775 50.31 52.6623 48.6049 53.3337C46.8998 54.0052 45.2174 54.6627 43.9582 55.1488C43.3668 55.3771 42.8699 55.5671 42.5083 55.7028C42.5077 55.661 42.5072 55.6174 42.5067 55.5719C42.5009 55.0486 42.4955 54.294 42.4911 53.3636C42.4822 51.503 42.4766 48.943 42.4766 46.1326V37.139ZM9.08765 27.4695L9.08768 27.4695L9.08765 27.4695Z" stroke="#383838"/>
</svg>
