<svg width="66" height="66" viewBox="0 0 66 66" fill="none" xmlns="http://www.w3.org/2000/svg">
<path d="M16.7746 24.2417C21.9851 20.2196 28.4631 15.2247 30.6773 13.5221C32.8323 11.865 33.0395 11.7312 33.2497 11.8626C33.3755 11.9411 35.0818 13.246 37.0415 14.7625C39.0013 16.279 40.8426 17.7013 41.1335 17.9233C41.6941 18.3511 42.0796 18.4239 42.5798 18.1959C43.1586 17.9322 43.1793 17.7776 43.1793 13.7306V10H45.7541H48.3288L48.3294 16.6012C48.3299 22.6936 48.3447 23.2252 48.5211 23.4988C48.7071 23.787 49.188 24.1713 54.1523 27.9983C56.8141 30.0502 57 30.2736 57 31.4196C57 32.5967 56.2837 33.4965 55.1257 33.7743C54.147 34.0091 53.7321 33.8017 51.1227 31.773C49.8572 30.7891 46.973 28.5541 44.7132 26.8061C42.4535 25.0583 39.0706 22.4408 37.1958 20.9894C35.3209 19.538 33.6848 18.2959 33.56 18.2291C33.4352 18.1624 33.1833 18.1077 33.0003 18.1077C32.9807 18.1077 32.9632 18.1069 32.9467 18.1061C32.9331 18.1055 32.9201 18.1049 32.9072 18.1048C32.6495 18.1029 32.3904 18.303 26.9776 22.4821M16.7746 24.2417L15.4188 25.288M16.7746 24.2417C16.292 24.6143 15.8407 24.9624 15.4188 25.288M25.9231 23.2962L26.9776 22.4821M25.9231 23.2962L22.8457 25.6722M25.9231 23.2962C24.8073 24.1575 23.7841 24.9475 22.8457 25.6722M25.9231 23.2962C26.2948 23.0093 26.6459 22.7382 26.9776 22.4821M22.8457 25.6722C12.7854 33.44 12.4568 33.6937 12.0972 33.7514C12.0851 33.7533 12.073 33.755 12.0604 33.7568C12.0257 33.7617 11.9877 33.7671 11.9388 33.7789C10.1615 34.2052 8.53541 32.4258 9.1219 30.6964C9.13832 30.648 9.15176 30.6042 9.16433 30.5633C9.17993 30.5125 9.19418 30.4661 9.2111 30.4207C9.39033 29.9396 9.86911 29.5702 15.4188 25.288M31.2917 22.0354C30.3878 22.7432 28.1445 24.4815 26.3066 25.8984C24.4687 27.3152 21.2393 29.8054 19.1302 31.4322C17.0211 33.059 15.1615 34.486 14.9976 34.6031L14.6998 34.8161L14.6963 45.6355L14.6929 56.4549H20.3902H27.0875L27.0877 50.2919C27.0878 44.644 27.1038 46.097 27.2794 45.7455C27.4099 45.4843 27.5932 45.3203 27.8544 45.2312C28.347 45.0633 36.6514 45.0338 37.246 45.1989C37.463 45.2592 37.7341 45.412 37.8486 45.5384C38.0467 45.7572 38.0594 44.0754 38.1116 50.0842L38.1664 56.4001H45.535H50.9036V45.4457V34.4914L48.6575 32.7527C47.4222 31.7963 45.1542 30.0436 43.6176 28.8578C42.081 27.6719 39.0898 25.3596 36.9705 23.7194C34.8512 22.0793 33.0763 20.7397 33.0262 20.7429C32.9761 20.7461 32.1956 21.3278 31.2917 22.0354ZM27 32C27 31.4477 27.4477 31 28 31H37C37.5523 31 38 31.4477 38 32V39C38 39.5523 37.5523 40 37 40H28C27.4477 40 27 39.5523 27 39V32Z" stroke="#383838"/>
</svg>
