<svg width="66" height="66" viewBox="0 0 66 66" fill="none" xmlns="http://www.w3.org/2000/svg">
<path d="M43.6793 10.5H45.7541H47.8289L47.8294 16.6012C47.8296 19.6438 47.8334 21.3085 47.8595 22.2459C47.8724 22.7115 47.8913 23.0188 47.9218 23.233C47.954 23.4585 48.0043 23.62 48.1009 23.7697L48.101 23.7699C48.2478 23.9974 48.4905 24.219 49.2327 24.8121C50.001 25.426 51.3666 26.4821 53.8471 28.3943L54.1523 27.9983L53.8471 28.3943C55.1983 29.4359 55.8549 29.9659 56.19 30.3685C56.3434 30.5528 56.4107 30.6901 56.4473 30.823C56.4873 30.9679 56.5 31.1393 56.5 31.4196C56.5 32.3616 55.946 33.0633 55.0091 33.2881L55.1257 33.7743L55.0091 33.2881C54.7867 33.3414 54.6366 33.3594 54.4958 33.3476C54.358 33.3361 54.195 33.2931 53.9593 33.1752C53.4611 32.9261 52.7483 32.4035 51.4296 31.3782C50.1636 30.394 47.279 28.1587 45.0192 26.4107L44.7132 26.8061L45.0191 26.4106C42.7594 24.6628 39.3766 22.0454 37.5018 20.5941C36.5635 19.8676 35.6845 19.1933 35.024 18.6918C34.6939 18.4412 34.4174 18.233 34.215 18.0829C34.114 18.008 34.0299 17.9464 33.9662 17.9008C33.9174 17.8658 33.8472 17.8157 33.7961 17.7883L33.7958 17.7882C33.6748 17.7235 33.5296 17.6811 33.408 17.6547C33.2806 17.6271 33.1355 17.6077 33.0003 17.6077C32.9938 17.6077 32.9872 17.6075 32.97 17.6066L32.9699 17.6066C32.9581 17.6061 32.9352 17.605 32.9108 17.6048C32.7262 17.6035 32.5729 17.6577 32.3831 17.7673C32.2103 17.8671 31.9636 18.0386 31.5783 18.3236C30.8006 18.8988 29.38 19.9955 26.685 22.0763L26.6721 22.0863L25.6176 22.9004L25.9231 23.2962L25.6176 22.9004L22.5408 25.2759L22.5406 25.276L22.5401 25.2764L22.5399 25.2766C17.508 29.1618 14.9144 31.1644 13.5331 32.2035C12.8393 32.7254 12.4641 32.9945 12.2434 33.1363C12.1336 33.2069 12.0772 33.2359 12.0489 33.2483C12.0329 33.2553 12.0297 33.2558 12.0202 33.2573L12.0179 33.2577L12.0179 33.2577L11.9906 33.2617L11.9903 33.2618L11.9878 33.2621C11.9514 33.2673 11.8942 33.2754 11.8221 33.2927C10.4266 33.6274 9.13569 32.2126 9.5954 30.857L43.6793 10.5ZM43.6793 10.5V13.7306C43.6793 15.7327 43.6754 16.8286 43.5922 17.4485C43.5502 17.7616 43.4798 18.0328 43.3223 18.2498C43.1564 18.4783 42.939 18.5817 42.7872 18.6509L43.6793 10.5ZM30.6773 13.5221L30.9821 13.9185C28.7683 15.6208 22.2906 20.6154 17.0801 24.6375L17.08 24.6375L15.7243 25.6838L15.7243 25.6838C12.9451 27.8282 11.4467 28.9845 10.6187 29.6659C9.76673 30.3669 9.71506 30.5002 9.67964 30.5952C9.66874 30.6245 9.65873 30.6566 9.64231 30.7101L9.16433 30.5633L9.6423 30.7101L9.64173 30.7119C9.62941 30.7521 9.61418 30.8017 9.59541 30.857L30.6773 13.5221ZM30.6773 13.5221L30.9821 13.9185C32.0682 13.0833 32.6383 12.6519 32.9639 12.4418C33.0173 12.4074 33.059 12.3823 33.091 12.3642C33.1494 12.4075 33.2257 12.4647 33.3186 12.5348C33.5256 12.6909 33.8109 12.908 34.1542 13.1705C34.8405 13.6954 35.7562 14.4001 36.7355 15.1579L37.0415 14.7625M30.6773 13.5221L37.0415 14.7625M37.0415 14.7625L36.7355 15.1579C38.6943 16.6737 40.5375 18.0974 40.8301 18.3208L37.0415 14.7625ZM22.8457 25.6722L22.8456 25.6721L22.8457 25.6722ZM22.8457 25.6722L22.8455 25.6723M22.8457 25.6722L22.8455 25.6723M22.8455 25.6723C12.7854 33.44 12.4568 33.6937 12.0972 33.7514C12.0852 33.7533 12.0731 33.755 12.0607 33.7568L22.8455 25.6723ZM26.6119 26.2944L26.6118 26.2944C24.774 27.7111 21.5446 30.2014 19.4356 31.8281C17.3335 33.4495 15.462 34.8858 15.2883 35.0099M26.6119 26.2944L26.3066 25.8984C24.4687 27.3152 21.2393 29.8054 19.1302 31.4322C17.0211 33.059 15.1615 34.486 14.9976 34.6031M26.6119 26.2944C28.45 24.8774 30.6945 23.1381 31.5999 22.4291C32.0497 22.077 32.4675 21.7572 32.7779 21.5259C32.8709 21.4566 32.9532 21.396 33.0233 21.3453C33.0385 21.3563 33.0543 21.3678 33.0708 21.3799C33.2742 21.5283 33.5645 21.7448 33.9212 22.014C34.6341 22.552 35.6059 23.2956 36.6645 24.1148C38.7839 25.7551 41.7753 28.0676 43.3121 29.2537L43.6176 28.8578M26.6119 26.2944L43.6176 28.8578M15.2883 35.0099L15.1998 34.8861L15.1997 35.0733M15.2883 35.0099L15.2884 35.0098L15.1998 34.8858L15.1998 34.8163L15.15 34.8162L14.9976 34.6031M15.2883 35.0099L15.1997 35.0733M15.1997 35.0733L14.9906 35.2228L14.6998 34.8161M15.1997 35.0733L15.1963 45.6356L15.193 55.9549M14.6998 34.8161L15.1499 34.8162L14.9976 34.6031M14.6998 34.8161L14.6963 45.6355L14.693 55.9549H15.193M14.6998 34.8161L14.9976 34.6031M15.193 55.9549H20.3902H26.5875L26.5877 50.2919C26.5877 47.4822 26.5914 46.4076 26.6189 45.9991C26.6252 45.9041 26.6351 45.7963 26.6632 45.7039C26.6772 45.6578 26.7113 45.5603 26.797 45.4714C26.8325 45.4344 26.8707 45.4051 26.9099 45.3821C27.0933 45.0853 27.351 44.8746 27.693 44.758L27.8544 45.2312L27.693 44.758C27.7849 44.7267 27.9013 44.7128 27.9814 44.7042C28.0804 44.6936 28.2038 44.6842 28.345 44.6757C28.6282 44.6587 29.0015 44.6443 29.4322 44.6323C30.2946 44.6083 31.4017 44.594 32.5102 44.5902C33.6187 44.5863 34.7322 44.5928 35.6073 44.6108C36.0444 44.6197 36.4253 44.6316 36.7177 44.6467C36.8635 44.6542 36.9913 44.6627 37.0948 44.6724C37.186 44.681 37.2945 44.6934 37.3798 44.7171L37.3798 44.7171C37.5355 44.7604 37.6951 44.8316 37.8312 44.9083C37.8697 44.93 37.9099 44.9541 37.9502 44.9804C38.0305 44.974 38.1196 44.9856 38.2081 45.027C38.3269 45.0825 38.3939 45.1684 38.4266 45.2196C38.4853 45.3115 38.5044 45.4053 38.5111 45.4386C38.5209 45.4873 38.5275 45.54 38.5325 45.5922C38.5697 45.9786 38.5856 47.0942 38.6116 50.0799L38.662 55.9001H45.535H50.4036V45.4457V34.7366M15.193 55.9549L15.1929 56.4549H20.3902H27.0875L50.4036 34.7366M43.6176 28.8578L43.3121 29.2537C44.8486 30.4393 47.1164 32.1919 48.3514 33.1481L48.6575 32.7527M43.6176 28.8578L48.6575 32.7527M48.6575 32.7527L48.3515 33.1481L50.4036 34.7366M48.6575 32.7527L50.4036 34.7366M32.9848 12.2866L32.9849 12.2867L32.9848 12.2866ZM27.0877 50.2919L27.0875 55.9549L26.8321 45.522C26.8321 45.522 26.8321 45.522 26.8321 45.5221L27.2794 45.7455C27.2435 45.8174 27.2143 45.8138 27.1905 45.8109C27.0979 45.7997 27.0878 45.7985 27.0877 50.2919ZM38.2192 45.2028C38.2186 45.2021 38.218 45.2015 38.2174 45.2008C38.218 45.2015 38.2186 45.2021 38.2192 45.2028Z" stroke="#383838"/>
</svg>
