<svg width="66" height="66" viewBox="0 0 66 66" fill="none" xmlns="http://www.w3.org/2000/svg">
<mask id="path-2-inside-1_1155_23347" fill="white">
<path fill-rule="evenodd" clip-rule="evenodd" d="M30.7059 12.412C29.5644 12.5988 28.2375 13.5505 27.6433 14.6086C27.0894 15.5951 27.0784 15.742 27.1068 21.7557L27.1324 27.1822L28.8028 28.0082C30.3877 28.7919 30.4796 28.8258 30.5957 28.67C30.663 28.5796 31.0683 27.791 31.4963 26.9175C31.9244 26.0439 32.4546 25.0851 32.6747 24.7866C33.3382 23.8869 34.3326 23.322 35.5385 23.1597C36.1698 23.0747 36.3357 23.0846 36.9715 23.2454C37.8885 23.4773 38.5174 23.8391 39.0873 24.4626C40.1438 25.6186 40.5056 27.2469 40.0148 28.6378C39.9391 28.8525 39.177 30.439 38.3214 32.1635L36.7657 35.2989L36.7429 36.1019C36.7303 36.5435 36.6754 37.0707 36.6207 37.2735C36.5662 37.4762 36.5455 37.6809 36.5748 37.7283C36.6041 37.7757 37.0426 37.8145 37.5493 37.8145C38.0561 37.8145 38.4706 37.847 38.4706 37.8868C38.4706 37.9265 38.03 39.1674 37.4916 40.6441C36.9531 42.1209 36.2025 44.1829 35.8236 45.2263C35.4446 46.2697 34.809 48.0167 34.4111 49.1086C33.2318 52.3441 33.0901 52.7599 33.0891 52.9852C33.0876 53.3456 33.4334 53.9424 33.7611 54.1449C34.1567 54.3894 34.8234 54.3996 35.2213 54.1672C35.687 53.8951 35.6343 54.0165 37.3655 49.241C38.0527 47.3456 38.3917 46.4129 40.2435 41.3219C40.6363 40.2421 41.083 39.0099 41.2361 38.5837L41.5147 37.8088L42.0336 37.8337L42.5524 37.8586L43.2959 39.8881C43.7049 41.0042 44.3387 42.7314 44.7045 43.7263C45.0702 44.7211 45.6603 46.3292 46.0156 47.2998C48.38 53.7585 48.3266 53.6235 48.64 53.9368C49.1322 54.4291 49.8361 54.4889 50.4446 54.0901C50.696 53.9254 50.9952 53.3206 50.9981 52.9714C51 52.735 50.5983 51.579 49.1191 47.5645C48.2074 45.0903 47.1774 42.2844 46.2525 39.7557L45.5586 37.8586L49.4485 37.8098C53.1516 37.7632 53.3664 37.7515 53.925 37.5663C55.3594 37.0906 56.4239 35.9912 56.8322 34.5638C56.9921 34.0043 57 33.5589 57 25.0147C57 17.0296 56.9845 16.0002 56.8578 15.5732C56.4376 14.1568 55.4235 13.0963 53.9434 12.5251C53.5331 12.3669 53.0362 12.3592 42.3529 12.3462C36.0806 12.3385 30.9786 12.3674 30.7059 12.412ZM16.6402 15.2832C14.5602 15.7291 12.8114 17.2873 12.134 19.2982C11.6164 20.8349 11.7529 22.6386 12.499 24.1211C13.0371 25.1905 14.2734 26.3806 15.3138 26.8308C15.8268 27.0528 16.6916 27.3131 16.9191 27.3138C17.3219 27.3152 17.1016 27.4726 16.6112 27.534C13.4479 27.9292 10.5272 30.3474 9.46976 33.4469C9.06353 34.6374 9 35.323 9 38.5134C9 41.778 9.03618 42.0816 9.53638 43.0202C9.88597 43.6761 10.6684 44.4351 11.3824 44.811L11.9559 45.1129L12 49.2946L12.0441 53.4763L12.2496 53.7644C12.6898 54.3817 12.4708 54.3586 17.9118 54.3586C22.6928 54.3586 22.8161 54.3543 23.1174 54.1774C23.2871 54.0777 23.5153 53.8634 23.6247 53.7011L23.8235 53.4061V45.3015C23.8235 40.1102 23.8544 37.1969 23.9093 37.1969C23.9565 37.1969 25.0227 37.7103 26.2787 38.3379C29.0789 39.7371 29.2233 39.7876 30.2877 39.7409C30.9738 39.7108 31.1976 39.6608 31.7006 39.4253C33.2107 38.7181 34.1639 36.9851 33.886 35.4521L33.7883 34.9135L35.6095 31.2721C37.3652 27.7614 37.4291 27.6151 37.3894 27.2012C37.291 26.1766 36.2934 25.627 35.3824 26.0956C34.9881 26.2984 34.9742 26.3218 33.4238 29.3881C32.565 31.0866 31.8462 32.516 31.8266 32.5645C31.807 32.6131 29.7303 31.6334 27.2117 30.3876C24.693 29.1417 22.4579 28.0577 22.2446 27.9788C21.5912 27.7368 20.484 27.5013 19.7011 27.4378L18.9561 27.3774L19.7795 27.1006C20.7006 26.791 21.1643 26.5376 21.8366 25.9765C23.3926 24.678 24.2524 22.5481 24.0048 20.6061C23.8131 19.103 23.2886 18.0432 22.1923 16.9436C21.6147 16.3643 21.3319 16.1592 20.6471 15.8232C19.3104 15.1674 18.0026 14.9911 16.6402 15.2832ZM50.4031 18.6234C50.6994 18.8399 51 19.4248 51 19.7844C51 20.1865 50.6437 20.7864 50.2933 20.9744C50.0024 21.1303 49.6129 21.1381 42.0364 21.1381H34.0849L33.7932 20.9395C33.3054 20.6075 33.1324 20.3014 33.1324 19.7704C33.1324 19.2388 33.3054 18.9333 33.7953 18.6L34.0889 18.4L42.1254 18.4235C50.0034 18.4464 50.1665 18.4503 50.4031 18.6234ZM50.3578 23.8906C50.6108 24.0581 50.7624 24.2471 50.8702 24.5296C51.131 25.2124 50.9328 25.7995 50.295 26.2336C50.0044 26.4315 49.991 26.4322 46.4208 26.4318C43.0016 26.4316 42.8251 26.4235 42.5507 26.2561C42.1336 26.0019 41.9124 25.5889 41.9124 25.0645C41.9124 24.3645 42.3091 23.8613 42.9949 23.6915C43.1514 23.6528 44.7912 23.6281 46.639 23.6369L49.9985 23.6528L50.3578 23.8906ZM50.2941 29.1254C50.7228 29.3731 51.0238 29.9748 50.9713 30.479C50.928 30.8943 50.7342 31.2121 50.3485 31.5002C50.1133 31.6759 49.9826 31.6831 46.5399 31.7071C43.1215 31.731 42.9605 31.7248 42.6287 31.5555C41.8031 31.1343 41.6481 29.9377 42.338 29.3133C42.7642 28.9276 43.0089 28.9054 46.5882 28.9267C49.8175 28.9459 50.0006 28.9557 50.2941 29.1254Z"/>
</mask>
<path fill-rule="evenodd" clip-rule="evenodd" d="M30.7059 12.412C29.5644 12.5988 28.2375 13.5505 27.6433 14.6086C27.0894 15.5951 27.0784 15.742 27.1068 21.7557L27.1324 27.1822L28.8028 28.0082C30.3877 28.7919 30.4796 28.8258 30.5957 28.67C30.663 28.5796 31.0683 27.791 31.4963 26.9175C31.9244 26.0439 32.4546 25.0851 32.6747 24.7866C33.3382 23.8869 34.3326 23.322 35.5385 23.1597C36.1698 23.0747 36.3357 23.0846 36.9715 23.2454C37.8885 23.4773 38.5174 23.8391 39.0873 24.4626C40.1438 25.6186 40.5056 27.2469 40.0148 28.6378C39.9391 28.8525 39.177 30.439 38.3214 32.1635L36.7657 35.2989L36.7429 36.1019C36.7303 36.5435 36.6754 37.0707 36.6207 37.2735C36.5662 37.4762 36.5455 37.6809 36.5748 37.7283C36.6041 37.7757 37.0426 37.8145 37.5493 37.8145C38.0561 37.8145 38.4706 37.847 38.4706 37.8868C38.4706 37.9265 38.03 39.1674 37.4916 40.6441C36.9531 42.1209 36.2025 44.1829 35.8236 45.2263C35.4446 46.2697 34.809 48.0167 34.4111 49.1086C33.2318 52.3441 33.0901 52.7599 33.0891 52.9852C33.0876 53.3456 33.4334 53.9424 33.7611 54.1449C34.1567 54.3894 34.8234 54.3996 35.2213 54.1672C35.687 53.8951 35.6343 54.0165 37.3655 49.241C38.0527 47.3456 38.3917 46.4129 40.2435 41.3219C40.6363 40.2421 41.083 39.0099 41.2361 38.5837L41.5147 37.8088L42.0336 37.8337L42.5524 37.8586L43.2959 39.8881C43.7049 41.0042 44.3387 42.7314 44.7045 43.7263C45.0702 44.7211 45.6603 46.3292 46.0156 47.2998C48.38 53.7585 48.3266 53.6235 48.64 53.9368C49.1322 54.4291 49.8361 54.4889 50.4446 54.0901C50.696 53.9254 50.9952 53.3206 50.9981 52.9714C51 52.735 50.5983 51.579 49.1191 47.5645C48.2074 45.0903 47.1774 42.2844 46.2525 39.7557L45.5586 37.8586L49.4485 37.8098C53.1516 37.7632 53.3664 37.7515 53.925 37.5663C55.3594 37.0906 56.4239 35.9912 56.8322 34.5638C56.9921 34.0043 57 33.5589 57 25.0147C57 17.0296 56.9845 16.0002 56.8578 15.5732C56.4376 14.1568 55.4235 13.0963 53.9434 12.5251C53.5331 12.3669 53.0362 12.3592 42.3529 12.3462C36.0806 12.3385 30.9786 12.3674 30.7059 12.412ZM16.6402 15.2832C14.5602 15.7291 12.8114 17.2873 12.134 19.2982C11.6164 20.8349 11.7529 22.6386 12.499 24.1211C13.0371 25.1905 14.2734 26.3806 15.3138 26.8308C15.8268 27.0528 16.6916 27.3131 16.9191 27.3138C17.3219 27.3152 17.1016 27.4726 16.6112 27.534C13.4479 27.9292 10.5272 30.3474 9.46976 33.4469C9.06353 34.6374 9 35.323 9 38.5134C9 41.778 9.03618 42.0816 9.53638 43.0202C9.88597 43.6761 10.6684 44.4351 11.3824 44.811L11.9559 45.1129L12 49.2946L12.0441 53.4763L12.2496 53.7644C12.6898 54.3817 12.4708 54.3586 17.9118 54.3586C22.6928 54.3586 22.8161 54.3543 23.1174 54.1774C23.2871 54.0777 23.5153 53.8634 23.6247 53.7011L23.8235 53.4061V45.3015C23.8235 40.1102 23.8544 37.1969 23.9093 37.1969C23.9565 37.1969 25.0227 37.7103 26.2787 38.3379C29.0789 39.7371 29.2233 39.7876 30.2877 39.7409C30.9738 39.7108 31.1976 39.6608 31.7006 39.4253C33.2107 38.7181 34.1639 36.9851 33.886 35.4521L33.7883 34.9135L35.6095 31.2721C37.3652 27.7614 37.4291 27.6151 37.3894 27.2012C37.291 26.1766 36.2934 25.627 35.3824 26.0956C34.9881 26.2984 34.9742 26.3218 33.4238 29.3881C32.565 31.0866 31.8462 32.516 31.8266 32.5645C31.807 32.6131 29.7303 31.6334 27.2117 30.3876C24.693 29.1417 22.4579 28.0577 22.2446 27.9788C21.5912 27.7368 20.484 27.5013 19.7011 27.4378L18.9561 27.3774L19.7795 27.1006C20.7006 26.791 21.1643 26.5376 21.8366 25.9765C23.3926 24.678 24.2524 22.5481 24.0048 20.6061C23.8131 19.103 23.2886 18.0432 22.1923 16.9436C21.6147 16.3643 21.3319 16.1592 20.6471 15.8232C19.3104 15.1674 18.0026 14.9911 16.6402 15.2832ZM50.4031 18.6234C50.6994 18.8399 51 19.4248 51 19.7844C51 20.1865 50.6437 20.7864 50.2933 20.9744C50.0024 21.1303 49.6129 21.1381 42.0364 21.1381H34.0849L33.7932 20.9395C33.3054 20.6075 33.1324 20.3014 33.1324 19.7704C33.1324 19.2388 33.3054 18.9333 33.7953 18.6L34.0889 18.4L42.1254 18.4235C50.0034 18.4464 50.1665 18.4503 50.4031 18.6234ZM50.3578 23.8906C50.6108 24.0581 50.7624 24.2471 50.8702 24.5296C51.131 25.2124 50.9328 25.7995 50.295 26.2336C50.0044 26.4315 49.991 26.4322 46.4208 26.4318C43.0016 26.4316 42.8251 26.4235 42.5507 26.2561C42.1336 26.0019 41.9124 25.5889 41.9124 25.0645C41.9124 24.3645 42.3091 23.8613 42.9949 23.6915C43.1514 23.6528 44.7912 23.6281 46.639 23.6369L49.9985 23.6528L50.3578 23.8906ZM50.2941 29.1254C50.7228 29.3731 51.0238 29.9748 50.9713 30.479C50.928 30.8943 50.7342 31.2121 50.3485 31.5002C50.1133 31.6759 49.9826 31.6831 46.5399 31.7071C43.1215 31.731 42.9605 31.7248 42.6287 31.5555C41.8031 31.1343 41.6481 29.9377 42.338 29.3133C42.7642 28.9276 43.0089 28.9054 46.5882 28.9267C49.8175 28.9459 50.0006 28.9557 50.2941 29.1254Z" stroke="#383838" stroke-width="2" mask="url(#path-2-inside-1_1155_23347)"/>
</svg>
