<svg width="66" height="66" viewBox="0 0 66 66" fill="none" xmlns="http://www.w3.org/2000/svg">
<mask id="path-2-inside-1_1155_16904" fill="white">
<path fill-rule="evenodd" clip-rule="evenodd" d="M31.6188 9.05473C31.5887 9.08476 31.5641 11.4478 31.5641 14.306C31.5641 18.6949 31.5463 19.5026 31.4497 19.5026C30.8917 19.5026 29.526 19.717 28.8177 19.9159C26.3716 20.6028 24.3029 22.3139 23.1184 24.6299C22.9349 24.9889 22.7846 25.3298 22.7846 25.3874C22.7846 25.472 24.7645 25.4923 33 25.4923C39.9214 25.4923 43.2154 25.4651 43.2154 25.4082C43.2154 25.259 42.6319 24.1551 42.2412 23.5651C41.7503 22.8238 40.636 21.7123 39.8281 21.1579C38.5474 20.2793 37.0868 19.7595 35.4163 19.5881C34.9577 19.541 34.5496 19.5026 34.5093 19.5026C34.4689 19.5026 34.4359 18.9672 34.4359 18.3128V18.1231C34.4359 17.5708 34.8836 17.1231 35.4359 17.1231H37.6359H39.8359C40.3882 17.1231 40.8359 16.6754 40.8359 16.1231V13.0615V10C40.8359 9.44772 40.3882 9 39.8359 9H36.2547C33.735 9 31.6489 9.02462 31.6188 9.05473ZM15.5641 30.6205V31.959C15.5641 32.5113 16.0118 32.959 16.5641 32.959H33H49.4359C49.9882 32.959 50.4359 32.5113 50.4359 31.959V30.6205V29.2821C50.4359 28.7298 49.9882 28.2821 49.4359 28.2821H33H16.5641C16.0118 28.2821 15.5641 28.7298 15.5641 29.2821V30.6205ZM9 46.4154V56C9 56.5523 9.44772 57 10 57H18.3533H26.7105C27.2612 57 27.7083 56.5547 27.7105 56.0039L27.7276 51.6462L27.7448 47.2844C27.747 46.7352 28.1916 46.2905 28.7408 46.2883L32.9795 46.2712L37.2062 46.2541C37.7601 46.2519 38.2103 46.7002 38.2103 47.2541V51.6251V56C38.2103 56.5523 38.658 57 39.2103 57H47.6051H56C56.5523 57 57 56.5523 57 56V46.4154V36.8308C57 36.2785 56.5523 35.8308 56 35.8308H33H10C9.44772 35.8308 9 36.2785 9 36.8308V46.4154ZM16.1385 41.9846V43.2821C16.1385 43.8343 15.6907 44.2821 15.1385 44.2821H14.7436H14.3487C13.7964 44.2821 13.3487 43.8343 13.3487 43.2821V41.9846V40.6872C13.3487 40.1349 13.7964 39.6872 14.3487 39.6872H14.7436H15.1385C15.6907 39.6872 16.1385 40.1349 16.1385 40.6872V41.9846ZM21.9449 41.9641L21.9324 43.2662C21.9272 43.8086 21.4906 44.2479 20.9483 44.2565L20.5077 44.2635L20.1081 44.2698C19.5497 44.2787 19.0923 43.8284 19.0923 43.27V41.9866V40.6872C19.0923 40.1349 19.54 39.6872 20.0923 39.6872H20.5295H20.9571C21.5131 39.6872 21.9624 40.1408 21.9571 40.6968L21.9449 41.9641ZM46.8256 41.9846V43.2821C46.8256 43.8343 46.3779 44.2821 45.8256 44.2821H45.4308H45.0359C44.4836 44.2821 44.0359 43.8343 44.0359 43.2821V41.9846V40.6872C44.0359 40.1349 44.4836 39.6872 45.0359 39.6872H45.4308H45.8256C46.3779 39.6872 46.8256 40.1349 46.8256 40.6872V41.9846ZM52.6513 41.9846V43.2821C52.6513 43.8343 52.2036 44.2821 51.6513 44.2821H51.2564H50.8615C50.3093 44.2821 49.8615 43.8343 49.8615 43.2821V41.9846V40.6872C49.8615 40.1349 50.3093 39.6872 50.8615 39.6872H51.2564H51.6513C52.2036 39.6872 52.6513 40.1349 52.6513 40.6872V41.9846ZM38.2103 41.4929V41.8844C38.2103 42.4382 37.7601 42.8866 37.2062 42.8843L32.9795 42.8672L28.727 42.8501C28.1833 42.8479 27.7409 42.4117 27.7312 41.868L27.726 41.5778C27.7134 40.8802 27.7216 40.2618 27.7439 40.2034C27.7765 40.1184 28.8125 40.0974 32.9975 40.0974H37.2103C37.7625 40.0974 38.2103 40.5452 38.2103 41.0974V41.4929ZM16.1385 49.4513V50.7487C16.1385 51.301 15.6907 51.7487 15.1385 51.7487H14.7436H14.3487C13.7964 51.7487 13.3487 51.301 13.3487 50.7487V49.4513V48.1538C13.3487 47.6016 13.7964 47.1538 14.3487 47.1538H14.7436H15.1385C15.6907 47.1538 16.1385 47.6016 16.1385 48.1538V49.4513ZM21.9641 49.4513V50.7487C21.9641 51.301 21.5164 51.7487 20.9641 51.7487H20.5282H20.0923C19.54 51.7487 19.0923 51.301 19.0923 50.7487V49.4513V48.1538C19.0923 47.6016 19.54 47.1538 20.0923 47.1538H20.5282H20.9641C21.5164 47.1538 21.9641 47.6016 21.9641 48.1538V49.4513ZM46.8256 49.4513V50.7487C46.8256 51.301 46.3779 51.7487 45.8256 51.7487H45.4308H45.0359C44.4836 51.7487 44.0359 51.301 44.0359 50.7487V49.4513V48.1538C44.0359 47.6016 44.4836 47.1538 45.0359 47.1538H45.4308H45.8256C46.3779 47.1538 46.8256 47.6016 46.8256 48.1538V49.4513ZM52.6513 49.4513V50.7487C52.6513 51.301 52.2036 51.7487 51.6513 51.7487H51.2564H50.8615C50.3093 51.7487 49.8615 51.301 49.8615 50.7487V49.4513V48.1538C49.8615 47.6016 50.3093 47.1538 50.8615 47.1538H51.2564H51.6513C52.2036 47.1538 52.6513 47.6016 52.6513 48.1538V49.4513ZM30.5795 53.0205V56C30.5795 56.5523 31.0272 57 31.5795 57H33H34.4205C34.9728 57 35.4205 56.5523 35.4205 56V53.0205V50.041C35.4205 49.4887 34.9728 49.041 34.4205 49.041H33H31.5795C31.0272 49.041 30.5795 49.4887 30.5795 50.041V53.0205Z"/>
</mask>
<path fill-rule="evenodd" clip-rule="evenodd" d="M31.6188 9.05473C31.5887 9.08476 31.5641 11.4478 31.5641 14.306C31.5641 18.6949 31.5463 19.5026 31.4497 19.5026C30.8917 19.5026 29.526 19.717 28.8177 19.9159C26.3716 20.6028 24.3029 22.3139 23.1184 24.6299C22.9349 24.9889 22.7846 25.3298 22.7846 25.3874C22.7846 25.472 24.7645 25.4923 33 25.4923C39.9214 25.4923 43.2154 25.4651 43.2154 25.4082C43.2154 25.259 42.6319 24.1551 42.2412 23.5651C41.7503 22.8238 40.636 21.7123 39.8281 21.1579C38.5474 20.2793 37.0868 19.7595 35.4163 19.5881C34.9577 19.541 34.5496 19.5026 34.5093 19.5026C34.4689 19.5026 34.4359 18.9672 34.4359 18.3128V18.1231C34.4359 17.5708 34.8836 17.1231 35.4359 17.1231H37.6359H39.8359C40.3882 17.1231 40.8359 16.6754 40.8359 16.1231V13.0615V10C40.8359 9.44772 40.3882 9 39.8359 9H36.2547C33.735 9 31.6489 9.02462 31.6188 9.05473ZM15.5641 30.6205V31.959C15.5641 32.5113 16.0118 32.959 16.5641 32.959H33H49.4359C49.9882 32.959 50.4359 32.5113 50.4359 31.959V30.6205V29.2821C50.4359 28.7298 49.9882 28.2821 49.4359 28.2821H33H16.5641C16.0118 28.2821 15.5641 28.7298 15.5641 29.2821V30.6205ZM9 46.4154V56C9 56.5523 9.44772 57 10 57H18.3533H26.7105C27.2612 57 27.7083 56.5547 27.7105 56.0039L27.7276 51.6462L27.7448 47.2844C27.747 46.7352 28.1916 46.2905 28.7408 46.2883L32.9795 46.2712L37.2062 46.2541C37.7601 46.2519 38.2103 46.7002 38.2103 47.2541V51.6251V56C38.2103 56.5523 38.658 57 39.2103 57H47.6051H56C56.5523 57 57 56.5523 57 56V46.4154V36.8308C57 36.2785 56.5523 35.8308 56 35.8308H33H10C9.44772 35.8308 9 36.2785 9 36.8308V46.4154ZM16.1385 41.9846V43.2821C16.1385 43.8343 15.6907 44.2821 15.1385 44.2821H14.7436H14.3487C13.7964 44.2821 13.3487 43.8343 13.3487 43.2821V41.9846V40.6872C13.3487 40.1349 13.7964 39.6872 14.3487 39.6872H14.7436H15.1385C15.6907 39.6872 16.1385 40.1349 16.1385 40.6872V41.9846ZM21.9449 41.9641L21.9324 43.2662C21.9272 43.8086 21.4906 44.2479 20.9483 44.2565L20.5077 44.2635L20.1081 44.2698C19.5497 44.2787 19.0923 43.8284 19.0923 43.27V41.9866V40.6872C19.0923 40.1349 19.54 39.6872 20.0923 39.6872H20.5295H20.9571C21.5131 39.6872 21.9624 40.1408 21.9571 40.6968L21.9449 41.9641ZM46.8256 41.9846V43.2821C46.8256 43.8343 46.3779 44.2821 45.8256 44.2821H45.4308H45.0359C44.4836 44.2821 44.0359 43.8343 44.0359 43.2821V41.9846V40.6872C44.0359 40.1349 44.4836 39.6872 45.0359 39.6872H45.4308H45.8256C46.3779 39.6872 46.8256 40.1349 46.8256 40.6872V41.9846ZM52.6513 41.9846V43.2821C52.6513 43.8343 52.2036 44.2821 51.6513 44.2821H51.2564H50.8615C50.3093 44.2821 49.8615 43.8343 49.8615 43.2821V41.9846V40.6872C49.8615 40.1349 50.3093 39.6872 50.8615 39.6872H51.2564H51.6513C52.2036 39.6872 52.6513 40.1349 52.6513 40.6872V41.9846ZM38.2103 41.4929V41.8844C38.2103 42.4382 37.7601 42.8866 37.2062 42.8843L32.9795 42.8672L28.727 42.8501C28.1833 42.8479 27.7409 42.4117 27.7312 41.868L27.726 41.5778C27.7134 40.8802 27.7216 40.2618 27.7439 40.2034C27.7765 40.1184 28.8125 40.0974 32.9975 40.0974H37.2103C37.7625 40.0974 38.2103 40.5452 38.2103 41.0974V41.4929ZM16.1385 49.4513V50.7487C16.1385 51.301 15.6907 51.7487 15.1385 51.7487H14.7436H14.3487C13.7964 51.7487 13.3487 51.301 13.3487 50.7487V49.4513V48.1538C13.3487 47.6016 13.7964 47.1538 14.3487 47.1538H14.7436H15.1385C15.6907 47.1538 16.1385 47.6016 16.1385 48.1538V49.4513ZM21.9641 49.4513V50.7487C21.9641 51.301 21.5164 51.7487 20.9641 51.7487H20.5282H20.0923C19.54 51.7487 19.0923 51.301 19.0923 50.7487V49.4513V48.1538C19.0923 47.6016 19.54 47.1538 20.0923 47.1538H20.5282H20.9641C21.5164 47.1538 21.9641 47.6016 21.9641 48.1538V49.4513ZM46.8256 49.4513V50.7487C46.8256 51.301 46.3779 51.7487 45.8256 51.7487H45.4308H45.0359C44.4836 51.7487 44.0359 51.301 44.0359 50.7487V49.4513V48.1538C44.0359 47.6016 44.4836 47.1538 45.0359 47.1538H45.4308H45.8256C46.3779 47.1538 46.8256 47.6016 46.8256 48.1538V49.4513ZM52.6513 49.4513V50.7487C52.6513 51.301 52.2036 51.7487 51.6513 51.7487H51.2564H50.8615C50.3093 51.7487 49.8615 51.301 49.8615 50.7487V49.4513V48.1538C49.8615 47.6016 50.3093 47.1538 50.8615 47.1538H51.2564H51.6513C52.2036 47.1538 52.6513 47.6016 52.6513 48.1538V49.4513ZM30.5795 53.0205V56C30.5795 56.5523 31.0272 57 31.5795 57H33H34.4205C34.9728 57 35.4205 56.5523 35.4205 56V53.0205V50.041C35.4205 49.4887 34.9728 49.041 34.4205 49.041H33H31.5795C31.0272 49.041 30.5795 49.4887 30.5795 50.041V53.0205Z" stroke="#383838" stroke-width="2" mask="url(#path-2-inside-1_1155_16904)"/>
</svg>
