<svg width="66" height="66" viewBox="0 0 66 66" fill="none" xmlns="http://www.w3.org/2000/svg">
<mask id="path-2-inside-1_1155_16883" fill="white">
<path fill-rule="evenodd" clip-rule="evenodd" d="M34.4256 9.06712C34.3887 9.10395 34.3585 10.236 34.3585 11.5828V13.0314C34.3585 13.5837 33.9108 14.0314 33.3585 14.0314H32.5975H31.8365C31.2842 14.0314 30.8365 14.4792 30.8365 15.0314V17.2013V19.3711C30.8365 19.9234 30.3888 20.3711 29.8365 20.3711H29.2264H28.6164C28.0641 20.3711 27.6164 20.8188 27.6164 21.3711V37.2795V53.1676C27.6164 53.7278 27.1562 54.1787 26.5961 54.1674L26.2327 54.16L25.827 54.1518C25.2834 54.1409 24.8482 53.6976 24.8472 53.1539L24.8235 40.3711L24.7999 27.6082C24.7989 27.0567 24.3514 26.6101 23.7999 26.6101H18.7107H13.6215C13.0699 26.6101 12.6225 27.0567 12.6215 27.6082L12.5979 40.3711L12.5742 53.1492C12.5731 53.6947 12.135 54.1388 11.5895 54.1472L10.7862 54.1595L9.98462 54.1719C9.4384 54.1803 9 54.6255 9 55.1718V55.5935V56C9 56.5523 9.44772 57 10 57H33H56C56.5523 57 57 56.5523 57 56V55.5912V55.1824C57 54.6301 56.5523 54.1824 56 54.1824H55.1887H54.3774C53.8251 54.1824 53.3774 53.7347 53.3774 53.1824V46.6855V40.1887C53.3774 39.6364 52.9296 39.1887 52.3774 39.1887H45.327H38.2767C37.7244 39.1887 37.2767 39.6364 37.2767 40.1887V46.6855V53.1824C37.2767 53.7347 36.829 54.1824 36.2767 54.1824H35.8679H35.4591C34.9068 54.1824 34.4591 53.7347 34.4591 53.1824V45.2767V37.3711C34.4591 36.8188 34.9068 36.3711 35.4591 36.3711H39.1887H42.9182C43.4705 36.3711 43.9182 35.9234 43.9182 35.3711V28.3711V21.3711C43.9182 20.8188 43.4705 20.3711 42.9182 20.3711H42.3599H41.7931C41.2442 20.3711 40.7978 19.9285 40.7932 19.3795L40.775 17.2264L40.7567 15.0582C40.7521 14.5152 40.315 14.0751 39.7721 14.0667L38.9623 14.0543L38.1607 14.042C37.6145 14.0336 37.1761 13.5884 37.1761 13.0421V11.5134V10C37.1761 9.44772 36.7284 9 36.1761 9H35.8344C35.0964 9 34.4624 9.03019 34.4256 9.06712ZM37.1761 18.9651V19.3563C37.1761 19.9165 36.716 20.3674 36.1559 20.3561L35.7925 20.3487L35.369 20.3402C34.8325 20.3293 34.4002 19.897 34.3894 19.3606L34.3808 18.9371L34.3735 18.5737C34.3622 18.0136 34.8131 17.5535 35.3733 17.5535H35.7645H36.1761C36.7284 17.5535 37.1761 18.0012 37.1761 18.5535V18.9651ZM34.0566 25.2013V25.6101C34.0566 26.1623 33.6089 26.6101 33.0566 26.6101H32.6478H32.239C31.6867 26.6101 31.239 26.1623 31.239 25.6101V25.2684C31.239 24.5304 31.2692 23.8964 31.3061 23.8596C31.3429 23.8226 31.9769 23.7925 32.7149 23.7925H33.0566C33.6089 23.7925 34.0566 24.2402 34.0566 24.7925V25.2013ZM40.2956 25.2041V25.5953C40.2956 26.1555 39.8355 26.6064 39.2754 26.5951L38.9119 26.5877L38.4861 26.5791C37.9506 26.5683 37.5187 26.1375 37.5066 25.602L37.4999 25.3074C37.4842 24.6187 37.4942 23.996 37.5219 23.9238C37.5599 23.8248 37.9066 23.7925 38.934 23.7925H39.2956C39.8479 23.7925 40.2956 24.2402 40.2956 24.7925V25.2041ZM20.0692 31.5409V31.9497C20.0692 32.502 19.6215 32.9497 19.0692 32.9497H18.6604H18.2516C17.6993 32.9497 17.2516 32.502 17.2516 31.9497V31.5409V31.1321C17.2516 30.5798 17.6993 30.1321 18.2516 30.1321H18.6604H19.0692C19.6215 30.1321 20.0692 30.5798 20.0692 31.1321V31.5409ZM34.0566 31.5437V31.9349C34.0566 32.4951 33.5965 32.946 33.0364 32.9347L32.673 32.9273L32.2495 32.9188C31.713 32.9079 31.2807 32.4757 31.2699 31.9392L31.2613 31.5157L31.254 31.1523C31.2427 30.5922 31.6936 30.1321 32.2538 30.1321H32.645H33.0566C33.6089 30.1321 34.0566 30.5798 34.0566 31.1321V31.5437ZM40.2956 31.5437V31.9349C40.2956 32.4951 39.8355 32.946 39.2754 32.9347L38.9119 32.9273L38.4885 32.9188C37.952 32.9079 37.5197 32.4757 37.5089 31.9392L37.5003 31.5157L37.493 31.1523C37.4817 30.5922 37.9326 30.1321 38.4928 30.1321H38.884H39.2956C39.8479 30.1321 40.2956 30.5798 40.2956 31.1321V31.5437ZM20.0468 38.2579L20.0387 38.6617C20.0277 39.206 19.5833 39.6415 19.0389 39.6415H18.6604H18.2819C17.7375 39.6415 17.2931 39.206 17.2821 38.6617L17.2739 38.2579L17.2666 37.8944C17.2552 37.3343 17.7062 36.8742 18.2664 36.8742H18.6604H19.0544C19.6146 36.8742 20.0655 37.3343 20.0542 37.8944L20.0468 38.2579ZM43.6164 48.5472V53.1824C43.6164 53.7347 43.1686 54.1824 42.6164 54.1824H42.2075H41.7987C41.2465 54.1824 40.7987 53.7347 40.7987 53.1824V48.5472V43.9119C40.7987 43.3597 41.2465 42.9119 41.7987 42.9119H42.2075H42.6164C43.1686 42.9119 43.6164 43.3597 43.6164 43.9119V48.5472ZM49.8553 48.5472V53.1824C49.8553 53.7347 49.4076 54.1824 48.8553 54.1824H48.4969H48.1384C47.5861 54.1824 47.1384 53.7347 47.1384 53.1824V48.5472V43.9119C47.1384 43.3597 47.5861 42.9119 48.1384 42.9119H48.4969H48.8553C49.4076 42.9119 49.8553 43.3597 49.8553 43.9119V48.5472ZM20.0468 44.9497L20.0542 45.3131C20.0655 45.8732 19.6146 46.3333 19.0544 46.3333H18.6632H18.2516C17.6993 46.3333 17.2516 45.8856 17.2516 45.3333V44.9217V44.5305C17.2516 43.9703 17.7117 43.5194 18.2718 43.5307L18.6352 43.5381L19.0587 43.5466C19.5952 43.5575 20.0274 43.9898 20.0383 44.5262L20.0468 44.9497ZM20.0692 51.6667V52.0755C20.0692 52.6278 19.6215 53.0755 19.0692 53.0755H18.6604H18.2516C17.6993 53.0755 17.2516 52.6278 17.2516 52.0755V51.6667V51.2579C17.2516 50.7056 17.6993 50.2579 18.2516 50.2579H18.6604H19.0692C19.6215 50.2579 20.0692 50.7056 20.0692 51.2579V51.6667Z"/>
</mask>
<path fill-rule="evenodd" clip-rule="evenodd" d="M34.4256 9.06712C34.3887 9.10395 34.3585 10.236 34.3585 11.5828V13.0314C34.3585 13.5837 33.9108 14.0314 33.3585 14.0314H32.5975H31.8365C31.2842 14.0314 30.8365 14.4792 30.8365 15.0314V17.2013V19.3711C30.8365 19.9234 30.3888 20.3711 29.8365 20.3711H29.2264H28.6164C28.0641 20.3711 27.6164 20.8188 27.6164 21.3711V37.2795V53.1676C27.6164 53.7278 27.1562 54.1787 26.5961 54.1674L26.2327 54.16L25.827 54.1518C25.2834 54.1409 24.8482 53.6976 24.8472 53.1539L24.8235 40.3711L24.7999 27.6082C24.7989 27.0567 24.3514 26.6101 23.7999 26.6101H18.7107H13.6215C13.0699 26.6101 12.6225 27.0567 12.6215 27.6082L12.5979 40.3711L12.5742 53.1492C12.5731 53.6947 12.135 54.1388 11.5895 54.1472L10.7862 54.1595L9.98462 54.1719C9.4384 54.1803 9 54.6255 9 55.1718V55.5935V56C9 56.5523 9.44772 57 10 57H33H56C56.5523 57 57 56.5523 57 56V55.5912V55.1824C57 54.6301 56.5523 54.1824 56 54.1824H55.1887H54.3774C53.8251 54.1824 53.3774 53.7347 53.3774 53.1824V46.6855V40.1887C53.3774 39.6364 52.9296 39.1887 52.3774 39.1887H45.327H38.2767C37.7244 39.1887 37.2767 39.6364 37.2767 40.1887V46.6855V53.1824C37.2767 53.7347 36.829 54.1824 36.2767 54.1824H35.8679H35.4591C34.9068 54.1824 34.4591 53.7347 34.4591 53.1824V45.2767V37.3711C34.4591 36.8188 34.9068 36.3711 35.4591 36.3711H39.1887H42.9182C43.4705 36.3711 43.9182 35.9234 43.9182 35.3711V28.3711V21.3711C43.9182 20.8188 43.4705 20.3711 42.9182 20.3711H42.3599H41.7931C41.2442 20.3711 40.7978 19.9285 40.7932 19.3795L40.775 17.2264L40.7567 15.0582C40.7521 14.5152 40.315 14.0751 39.7721 14.0667L38.9623 14.0543L38.1607 14.042C37.6145 14.0336 37.1761 13.5884 37.1761 13.0421V11.5134V10C37.1761 9.44772 36.7284 9 36.1761 9H35.8344C35.0964 9 34.4624 9.03019 34.4256 9.06712ZM37.1761 18.9651V19.3563C37.1761 19.9165 36.716 20.3674 36.1559 20.3561L35.7925 20.3487L35.369 20.3402C34.8325 20.3293 34.4002 19.897 34.3894 19.3606L34.3808 18.9371L34.3735 18.5737C34.3622 18.0136 34.8131 17.5535 35.3733 17.5535H35.7645H36.1761C36.7284 17.5535 37.1761 18.0012 37.1761 18.5535V18.9651ZM34.0566 25.2013V25.6101C34.0566 26.1623 33.6089 26.6101 33.0566 26.6101H32.6478H32.239C31.6867 26.6101 31.239 26.1623 31.239 25.6101V25.2684C31.239 24.5304 31.2692 23.8964 31.3061 23.8596C31.3429 23.8226 31.9769 23.7925 32.7149 23.7925H33.0566C33.6089 23.7925 34.0566 24.2402 34.0566 24.7925V25.2013ZM40.2956 25.2041V25.5953C40.2956 26.1555 39.8355 26.6064 39.2754 26.5951L38.9119 26.5877L38.4861 26.5791C37.9506 26.5683 37.5187 26.1375 37.5066 25.602L37.4999 25.3074C37.4842 24.6187 37.4942 23.996 37.5219 23.9238C37.5599 23.8248 37.9066 23.7925 38.934 23.7925H39.2956C39.8479 23.7925 40.2956 24.2402 40.2956 24.7925V25.2041ZM20.0692 31.5409V31.9497C20.0692 32.502 19.6215 32.9497 19.0692 32.9497H18.6604H18.2516C17.6993 32.9497 17.2516 32.502 17.2516 31.9497V31.5409V31.1321C17.2516 30.5798 17.6993 30.1321 18.2516 30.1321H18.6604H19.0692C19.6215 30.1321 20.0692 30.5798 20.0692 31.1321V31.5409ZM34.0566 31.5437V31.9349C34.0566 32.4951 33.5965 32.946 33.0364 32.9347L32.673 32.9273L32.2495 32.9188C31.713 32.9079 31.2807 32.4757 31.2699 31.9392L31.2613 31.5157L31.254 31.1523C31.2427 30.5922 31.6936 30.1321 32.2538 30.1321H32.645H33.0566C33.6089 30.1321 34.0566 30.5798 34.0566 31.1321V31.5437ZM40.2956 31.5437V31.9349C40.2956 32.4951 39.8355 32.946 39.2754 32.9347L38.9119 32.9273L38.4885 32.9188C37.952 32.9079 37.5197 32.4757 37.5089 31.9392L37.5003 31.5157L37.493 31.1523C37.4817 30.5922 37.9326 30.1321 38.4928 30.1321H38.884H39.2956C39.8479 30.1321 40.2956 30.5798 40.2956 31.1321V31.5437ZM20.0468 38.2579L20.0387 38.6617C20.0277 39.206 19.5833 39.6415 19.0389 39.6415H18.6604H18.2819C17.7375 39.6415 17.2931 39.206 17.2821 38.6617L17.2739 38.2579L17.2666 37.8944C17.2552 37.3343 17.7062 36.8742 18.2664 36.8742H18.6604H19.0544C19.6146 36.8742 20.0655 37.3343 20.0542 37.8944L20.0468 38.2579ZM43.6164 48.5472V53.1824C43.6164 53.7347 43.1686 54.1824 42.6164 54.1824H42.2075H41.7987C41.2465 54.1824 40.7987 53.7347 40.7987 53.1824V48.5472V43.9119C40.7987 43.3597 41.2465 42.9119 41.7987 42.9119H42.2075H42.6164C43.1686 42.9119 43.6164 43.3597 43.6164 43.9119V48.5472ZM49.8553 48.5472V53.1824C49.8553 53.7347 49.4076 54.1824 48.8553 54.1824H48.4969H48.1384C47.5861 54.1824 47.1384 53.7347 47.1384 53.1824V48.5472V43.9119C47.1384 43.3597 47.5861 42.9119 48.1384 42.9119H48.4969H48.8553C49.4076 42.9119 49.8553 43.3597 49.8553 43.9119V48.5472ZM20.0468 44.9497L20.0542 45.3131C20.0655 45.8732 19.6146 46.3333 19.0544 46.3333H18.6632H18.2516C17.6993 46.3333 17.2516 45.8856 17.2516 45.3333V44.9217V44.5305C17.2516 43.9703 17.7117 43.5194 18.2718 43.5307L18.6352 43.5381L19.0587 43.5466C19.5952 43.5575 20.0274 43.9898 20.0383 44.5262L20.0468 44.9497ZM20.0692 51.6667V52.0755C20.0692 52.6278 19.6215 53.0755 19.0692 53.0755H18.6604H18.2516C17.6993 53.0755 17.2516 52.6278 17.2516 52.0755V51.6667V51.2579C17.2516 50.7056 17.6993 50.2579 18.2516 50.2579H18.6604H19.0692C19.6215 50.2579 20.0692 50.7056 20.0692 51.2579V51.6667Z" stroke="#383838" stroke-width="2" mask="url(#path-2-inside-1_1155_16883)"/>
</svg>
