<svg width="29" height="18" viewBox="0 0 29 18" fill="none" xmlns="http://www.w3.org/2000/svg">
<path d="M12.5321 0.434433H7.03376C6.1153 0.4202 5.20315 0.587085 4.35043 0.925375C3.49771 1.26366 2.72146 1.7666 2.06686 2.40489C1.41227 3.04318 0.892421 3.80408 0.53758 4.64329C0.18274 5.48249 0 6.38323 0 7.29306C0 8.20288 0.18274 9.10362 0.53758 9.94283C0.892421 10.782 1.41227 11.5429 2.06686 12.1812C2.72146 12.8195 3.49771 13.3225 4.35043 13.6607C5.20315 13.999 6.1153 14.1659 7.03376 14.1517H12.5236C12.697 14.1517 12.8634 14.084 12.9868 13.9634C13.1102 13.8427 13.1807 13.6788 13.1829 13.507V9.52834C13.1806 9.36293 13.1152 9.20451 12.9998 9.08492C12.8844 8.96533 12.7276 8.89343 12.5609 8.88369H7.03376C6.81848 8.89062 6.60399 8.85461 6.40304 8.77779C6.20209 8.70097 6.01878 8.58492 5.86402 8.43653C5.70926 8.28814 5.5862 8.11045 5.50215 7.91401C5.41811 7.71757 5.3748 7.5064 5.3748 7.29306C5.3748 7.07971 5.41811 6.86854 5.50215 6.67211C5.5862 6.47567 5.70926 6.29798 5.86402 6.14959C6.01878 6.0012 6.20209 5.88515 6.40304 5.80833C6.60399 5.73151 6.81848 5.69549 7.03376 5.70242H12.5541C12.7219 5.69474 12.8804 5.62393 12.9972 5.50444C13.1141 5.38495 13.1805 5.22579 13.1829 5.05945V1.07908C13.1807 0.908786 13.1114 0.746079 12.9899 0.625652C12.8683 0.505225 12.704 0.436608 12.5321 0.434433Z" fill="#CC0020"/>
<path d="M21.9883 0.43457H16.5476C16.381 0.436827 16.2215 0.501437 16.1011 0.61542C15.9807 0.729402 15.9083 0.884308 15.8984 1.049V5.08813C15.9082 5.25225 15.9801 5.40668 16.0999 5.52058C16.2196 5.63448 16.3782 5.69946 16.5442 5.70256H21.9883C22.4153 5.70256 22.8249 5.87058 23.1268 6.16967C23.4288 6.46876 23.5984 6.87442 23.5984 7.29739C23.5984 7.72037 23.4288 8.12602 23.1268 8.42511C22.8249 8.7242 22.4153 8.89223 21.9883 8.89223H16.5645C16.3965 8.89236 16.2349 8.95603 16.1127 9.07023C15.9904 9.18442 15.9168 9.34053 15.9069 9.50666V17.276C15.9166 17.439 15.9876 17.5925 16.1058 17.7062C16.2241 17.82 16.3811 17.8857 16.5459 17.8904H17.4679C17.5345 17.8946 17.6011 17.8834 17.6625 17.8577C17.724 17.8321 17.7786 17.7927 17.8222 17.7427L21.2798 14.1585H21.9883C23.806 14.1304 25.5397 13.3954 26.8151 12.1122C28.0905 10.829 28.8053 9.10057 28.8053 7.29991C28.8053 5.49925 28.0905 3.7708 26.8151 2.48762C25.5397 1.20445 23.806 0.469456 21.9883 0.441287V0.43457Z" fill="#383938"/>
</svg>
