<svg width="48" height="47" viewBox="0 0 48 47" fill="none" xmlns="http://www.w3.org/2000/svg">
<path d="M38.8289 0.5L38.8294 6.60123C38.8296 9.64375 38.8334 11.3085 38.8595 12.2459C38.8724 12.7115 38.8913 13.0188 38.9218 13.233C38.954 13.4585 39.0043 13.62 39.1009 13.7697L39.101 13.7699C39.2478 13.9974 39.4905 14.219 40.2327 14.8121C41.001 15.426 42.3666 16.4821 44.8471 18.3943L45.1523 17.9983L44.8471 18.3943C46.1983 19.4359 46.8549 19.9659 47.19 20.3685C47.3434 20.5528 47.4107 20.6901 47.4473 20.823C47.4873 20.9679 47.5 21.1393 47.5 21.4196C47.5 22.3616 46.946 23.0633 46.0091 23.2881L46.1257 23.7743L46.0091 23.2881C45.7867 23.3414 45.6366 23.3594 45.4958 23.3476C45.358 23.3361 45.195 23.2931 44.9593 23.1752C44.4611 22.9261 43.7483 22.4035 42.4296 21.3782C41.1636 20.394 38.279 18.1587 36.0192 16.4107L35.7132 16.8061L36.0191 16.4106C33.7594 14.6628 30.3766 12.0454 28.5018 10.5941C27.5635 9.86765 26.6845 9.19329 26.024 8.69182C25.6939 8.4412 25.4174 8.23304 25.215 8.0829C25.114 8.00799 25.0299 7.94639 24.9662 7.90078C24.9174 7.86584 24.8472 7.81569 24.7961 7.78832L24.7958 7.78816C24.6748 7.7235 24.5296 7.68112 24.408 7.65473C24.2806 7.6271 24.1355 7.60769 24.0003 7.60769C23.9938 7.60769 23.9872 7.60745 23.97 7.60665L23.9699 7.60665C23.9581 7.6061 23.9352 7.60497 23.9108 7.60479C23.7262 7.60347 23.5729 7.65767 23.3831 7.76728C23.2103 7.86706 22.9636 8.03855 22.5783 8.32357C21.8006 8.89879 20.38 9.99553 17.685 12.0763L17.6721 12.0863L16.6176 12.9004L16.9231 13.2962L16.6176 12.9004L13.5408 15.2759L13.5406 15.276L13.5401 15.2764L13.5399 15.2766C8.50801 19.1618 5.91443 21.1644 4.53307 22.2035C3.83928 22.7254 3.46414 22.9945 3.24336 23.1363C3.13357 23.2069 3.07717 23.2359 3.04895 23.2483C3.0329 23.2553 3.0297 23.2558 3.02022 23.2573L3.01791 23.2577L3.01786 23.2577L2.99064 23.2617L2.99026 23.2618L2.98779 23.2621C2.95141 23.2673 2.89416 23.2754 2.82215 23.2927C1.42659 23.6274 0.135694 22.2126 0.595401 20.857L38.8289 0.5ZM38.8289 0.5H36.7541H34.6793M38.8289 0.5H34.6793M21.6773 3.52213L21.9821 3.9185C19.7683 5.6208 13.2906 10.6154 8.0801 14.6375L8.08005 14.6375L6.7243 15.6838L6.72427 15.6838C3.94513 17.8282 2.44675 18.9845 1.61873 19.6659C0.766726 20.3669 0.715055 20.5002 0.679638 20.5952C0.668742 20.6245 0.658726 20.6566 0.642306 20.7101L0.16433 20.5633L0.642305 20.7101L0.641733 20.7119C0.62941 20.7521 0.614179 20.8017 0.595412 20.857L21.6773 3.52213ZM21.6773 3.52213L21.9821 3.91849C23.0682 3.08328 23.6383 2.65186 23.9639 2.44181C24.0173 2.40735 24.059 2.38232 24.091 2.36425C24.1494 2.40753 24.2257 2.46474 24.3186 2.53478C24.5256 2.69087 24.8109 2.90797 25.1542 3.17049C25.8405 3.69538 26.7562 4.40013 27.7355 5.15793L28.0415 4.7625M21.6773 3.52213L28.0415 4.7625M28.0415 4.7625L27.7355 5.15794C29.6943 6.67365 31.5375 8.09744 31.8301 8.32077L28.0415 4.7625ZM34.6793 0.5V3.73063C34.6793 5.73274 34.6754 6.8286 34.5922 7.4485C34.5502 7.76159 34.4798 8.03282 34.3223 8.24975C34.1564 8.47833 33.939 8.58168 33.7872 8.65086L34.6793 0.5ZM13.8457 15.6722L13.8456 15.6721L13.8457 15.6722ZM13.8457 15.6722L13.8455 15.6723L13.8457 15.6722ZM18.8544 35.2312L18.693 34.758C18.7849 34.7267 18.9013 34.7128 18.9814 34.7042C19.0804 34.6936 19.2038 34.6842 19.345 34.6757C19.6282 34.6587 20.0015 34.6443 20.4322 34.6323C21.2946 34.6083 22.4017 34.594 23.5102 34.5902C24.6187 34.5863 25.7322 34.5928 26.6073 34.6108C27.0444 34.6197 27.4253 34.6316 27.7177 34.6467C27.8635 34.6542 27.9913 34.6627 28.0948 34.6724C28.186 34.681 28.2945 34.6934 28.3798 34.7171L28.3798 34.7171C28.5355 34.7604 28.6951 34.8316 28.8312 34.9083C28.8697 34.93 28.9099 34.9541 28.9502 34.9805C29.0305 34.974 29.1196 34.9856 29.2081 35.027C29.3269 35.0825 29.3939 35.1684 29.4266 35.2196C29.4853 35.3115 29.5044 35.4053 29.5111 35.4386C29.5209 35.4873 29.5275 35.54 29.5325 35.5922C29.5697 35.9786 29.5856 37.0942 29.6116 40.0799L29.662 45.9001H36.535H41.4036V35.4457V24.7366L39.3515 23.1481L39.6575 22.7527L39.3514 23.1481C38.1164 22.1919 35.8486 20.4393 34.3121 19.2537L34.6176 18.8578L34.3121 19.2537C32.7753 18.0676 29.7839 15.7551 27.6645 14.1148C26.6059 13.2956 25.6341 12.552 24.9212 12.014C24.5645 11.7448 24.2742 11.5283 24.0708 11.3799C24.0543 11.3678 24.0385 11.3563 24.0233 11.3453C23.9532 11.396 23.8709 11.4566 23.7779 11.5259C23.4675 11.7572 23.0497 12.077 22.5999 12.4291C21.6945 13.1381 19.45 14.8774 17.6119 16.2944L17.6118 16.2944C15.774 17.7111 12.5446 20.2014 10.4356 21.8281C8.33354 23.4495 6.46199 24.8858 6.28826 25.0099M18.8544 35.2312L10.1302 21.4322C8.02109 23.059 6.16147 24.486 5.99757 24.6031M18.8544 35.2312C18.5932 35.3203 18.4099 35.4843 18.2794 35.7455C18.2435 35.8174 18.2143 35.8138 18.1905 35.8109C18.0979 35.7997 18.0878 35.7985 18.0877 40.2919L18.0875 45.9549M18.8544 35.2312L18.0875 45.9549M18.8544 35.2312L18.693 34.758C18.351 34.8746 18.0933 35.0853 17.9099 35.3821M18.8544 35.2312L17.9099 35.3821M6.28826 25.0099L6.19975 24.8861L6.19969 25.0733M6.28826 25.0099L6.28844 25.0098L6.19975 24.8858L6.19977 24.8163L6.15001 24.8162L5.99757 24.6031M6.28826 25.0099L6.19969 25.0733M6.19969 25.0733L5.99065 25.2228L5.69977 24.8161M6.19969 25.0733L6.19627 35.6356L6.19303 45.9549M5.69977 24.8161L6.14987 24.8162L5.99757 24.6031M5.69977 24.8161L5.69627 35.6355L5.69303 45.9549H6.19303M5.69977 24.8161L5.99757 24.6031M6.19303 45.9549L6.19287 46.4549H11.3902H18.0875L17.5875 46.4548L17.5875 45.9549M6.19303 45.9549H11.3902H17.5875M17.5875 45.9549L17.5877 40.2919C17.5877 37.4822 17.5914 36.4076 17.6189 35.9991C17.6252 35.9041 17.6351 35.7963 17.6632 35.7039C17.6772 35.6578 17.7113 35.5603 17.797 35.4714C17.8325 35.4344 17.8707 35.4051 17.9099 35.3821M17.5875 45.9549H18.0875M18.0875 45.9549L17.9099 35.3821M18.5 22C18.5 21.7239 18.7239 21.5 19 21.5H28C28.2761 21.5 28.5 21.7239 28.5 22V29C28.5 29.2761 28.2761 29.5 28 29.5H19C18.7239 29.5 18.5 29.2761 18.5 29V22ZM19 20.5C18.1716 20.5 17.5 21.1716 17.5 22V29C17.5 29.8284 18.1716 30.5 19 30.5H28C28.8284 30.5 29.5 29.8284 29.5 29V22C29.5 21.1716 28.8284 20.5 28 20.5H19ZM23.9848 2.28661L23.9849 2.28666L23.9848 2.28661Z" stroke="#383838"/>
</svg>
