<svg width="1579" height="495" viewBox="0 0 1579 495" fill="none" xmlns="http://www.w3.org/2000/svg">
<g opacity="0.35">
<path d="M1526.85 449.848H1446.34V461.596H1526.85V449.848Z" stroke="#F4F4F4" stroke-miterlimit="10" stroke-linecap="round" stroke-linejoin="round"/>
<path d="M1526.85 468.428H1446.34V473.163H1526.85V468.428Z" stroke="#F4F4F4" stroke-miterlimit="10" stroke-linecap="round" stroke-linejoin="round"/>
<path d="M1515.8 485.45V446.372" stroke="#F4F4F4" stroke-miterlimit="10" stroke-linecap="round" stroke-linejoin="round"/>
<path d="M1457.65 485.45V446.372" stroke="#F4F4F4" stroke-miterlimit="10" stroke-linecap="round" stroke-linejoin="round"/>
<path d="M1446.34 479.996H1525.72" stroke="#F4F4F4" stroke-miterlimit="10" stroke-linecap="round" stroke-linejoin="round"/>
<path d="M1412.99 253.617C1412.99 253.617 1430.01 284.125 1430.01 325.661C1430.01 356.468 1424.17 381.521 1412.99 381.521" stroke="#F4F4F4" stroke-miterlimit="10" stroke-linecap="round" stroke-linejoin="round"/>
<path d="M1412.99 253.617C1412.99 253.617 1395.98 284.125 1395.98 325.661C1395.98 356.468 1401.82 381.521 1412.99 381.521" stroke="#F4F4F4" stroke-miterlimit="10" stroke-linecap="round" stroke-linejoin="round"/>
<path d="M1412.99 287.002C1412.99 287.002 1412.99 436.423 1412.99 471.605" stroke="#F4F4F4" stroke-miterlimit="10" stroke-linecap="round" stroke-linejoin="round"/>
<path d="M1412.99 323.743L1401.25 307.979" stroke="#F4F4F4" stroke-miterlimit="10" stroke-linecap="round" stroke-linejoin="round"/>
<path d="M1412.99 314.213C1412.99 314.213 1415.76 310.497 1418.65 306.661" stroke="#F4F4F4" stroke-miterlimit="10" stroke-linecap="round" stroke-linejoin="round"/>
<path d="M1412.99 333.752C1412.99 333.752 1417.33 327.938 1420.72 323.383" stroke="#F4F4F4" stroke-miterlimit="10" stroke-linecap="round" stroke-linejoin="round"/>
<path d="M1412.99 353.291C1412.99 353.291 1420.34 344.96 1422.16 342.562" stroke="#F4F4F4" stroke-miterlimit="10" stroke-linecap="round" stroke-linejoin="round"/>
<path d="M1412.99 372.83C1412.99 372.83 1415.57 369.354 1418.27 365.698" stroke="#F4F4F4" stroke-miterlimit="10" stroke-linecap="round" stroke-linejoin="round"/>
<path d="M1412.99 342.682C1412.99 342.682 1409.54 338.007 1406.4 333.752" stroke="#F4F4F4" stroke-miterlimit="10" stroke-linecap="round" stroke-linejoin="round"/>
<path d="M1412.99 361.562L1401.25 345.799" stroke="#F4F4F4" stroke-miterlimit="10" stroke-linecap="round" stroke-linejoin="round"/>
<path d="M1437.68 483.472C1432.9 480.775 1425.62 479.157 1417.77 479.516C1417.58 479.516 1417.45 479.516 1417.33 479.576C1417.52 478.797 1417.52 478.078 1417.39 477.239C1416.2 470.946 1404.77 466.271 1391.89 466.87C1385.17 467.17 1379.46 468.848 1375.63 471.245C1372.24 470.586 1368.47 470.226 1364.51 470.406C1361 470.586 1357.67 471.125 1354.84 471.905" stroke="#F4F4F4" stroke-miterlimit="10" stroke-linecap="round" stroke-linejoin="round"/>
<path d="M1388.44 487.608C1383.67 484.791 1376.26 483.113 1368.22 483.472C1368.03 483.472 1367.9 483.472 1367.78 483.532C1367.97 482.753 1367.97 482.034 1367.84 481.195C1366.65 474.901 1355.22 470.226 1342.34 470.826C1335.62 471.125 1329.91 472.804 1326.08 475.201C1322.69 474.542 1318.92 474.182 1314.96 474.362C1313.46 474.422 1311.95 474.542 1310.57 474.782" stroke="#F4F4F4" stroke-miterlimit="10" stroke-linecap="round" stroke-linejoin="round"/>
<path d="M1293.3 482.753C1293.17 482.753 1293.05 482.753 1292.92 482.753C1285.83 483.053 1279.73 484.911 1275.9 487.548" stroke="#F4F4F4" stroke-miterlimit="10" stroke-linecap="round" stroke-linejoin="round"/>
<path d="M1385.3 213.64C1387 212.022 1388.06 209.804 1388.06 207.287C1388.06 202.372 1383.86 198.476 1378.71 198.476C1374.75 198.476 1371.36 200.874 1370.04 204.23C1368.66 203.511 1367.09 203.091 1365.46 203.091H1365.39C1364.83 198.716 1360.87 195.299 1356.16 195.359C1351.01 195.359 1346.93 199.375 1346.93 204.29C1346.93 205.609 1347.24 206.867 1347.81 208.006C1345.67 208.725 1343.85 210.164 1342.78 212.022C1341.34 211.123 1339.58 210.583 1337.7 210.583C1332.55 210.583 1328.47 214.599 1328.47 219.514C1328.47 220.353 1328.59 221.132 1328.84 221.911C1328.03 221.731 1327.21 221.611 1326.33 221.611C1321.18 221.611 1317.1 225.627 1317.1 230.542C1317.1 231.741 1317.35 232.879 1317.79 233.898H1358.42C1368.03 234.258 1372.49 233.119 1376.88 229.463C1378.02 229.943 1379.33 230.242 1380.65 230.182C1385.8 230.182 1389.88 226.167 1389.88 221.252C1389.88 218.015 1388.06 215.198 1385.3 213.64Z" stroke="#F4F4F4" stroke-miterlimit="10" stroke-linecap="round" stroke-linejoin="round"/>
<path d="M1320.43 257.993H1386.62" stroke="#F4F4F4" stroke-miterlimit="10" stroke-linecap="round" stroke-linejoin="round"/>
<path d="M1310.76 273.756H1331.73" stroke="#F4F4F4" stroke-miterlimit="10" stroke-linecap="round" stroke-linejoin="round"/>
<path d="M1561.39 190.984C1561.39 190.984 1565.72 190.984 1571.19 190.984" stroke="#F4F4F4" stroke-miterlimit="10" stroke-linecap="round" stroke-linejoin="round"/>
<path d="M1577.09 174.802H1608.49" stroke="#F4F4F4" stroke-miterlimit="10" stroke-linecap="round" stroke-linejoin="round"/>
<path d="M1274.4 488.147H2461" stroke="#F4F4F4" stroke-miterlimit="10" stroke-linecap="round" stroke-linejoin="round"/>
<path d="M1282.18 443.435H1323.63C1323.63 454.343 1314.34 463.214 1302.91 463.214C1291.48 463.214 1282.18 454.343 1282.18 443.435Z" stroke="#F4F4F4" stroke-miterlimit="10" stroke-linecap="round" stroke-linejoin="round"/>
<path d="M1314.46 487.608C1312.52 483.352 1308.06 480.416 1302.91 480.416C1297.76 480.416 1293.36 483.352 1291.42 487.548" stroke="#F4F4F4" stroke-miterlimit="10" stroke-linecap="round" stroke-linejoin="round"/>
<path d="M1298.82 480.475V463.214" stroke="#F4F4F4" stroke-miterlimit="10" stroke-linecap="round" stroke-linejoin="round"/>
<path d="M1306.99 480.475V463.214" stroke="#F4F4F4" stroke-miterlimit="10" stroke-linecap="round" stroke-linejoin="round"/>
<path d="M1306.49 442.716C1309.06 438.64 1314.59 432.467 1324.2 432.467" stroke="#F4F4F4" stroke-miterlimit="10" stroke-linecap="round" stroke-linejoin="round"/>
<path d="M1304.67 438.101C1304.67 438.101 1311.2 421.019 1329.1 421.019" stroke="#F4F4F4" stroke-miterlimit="10" stroke-linecap="round" stroke-linejoin="round"/>
<path d="M1302.28 433.246C1302.28 433.246 1304.54 415.145 1321.87 411.249" stroke="#F4F4F4" stroke-miterlimit="10" stroke-linecap="round" stroke-linejoin="round"/>
<path d="M1298.2 442.896C1295.62 438.82 1290.1 432.527 1280.36 432.527" stroke="#F4F4F4" stroke-miterlimit="10" stroke-linecap="round" stroke-linejoin="round"/>
<path d="M1299.96 438.101C1299.96 438.101 1293.43 421.019 1275.53 421.019" stroke="#F4F4F4" stroke-miterlimit="10" stroke-linecap="round" stroke-linejoin="round"/>
<path d="M1302.28 433.246C1302.28 433.246 1300.02 415.145 1282.69 411.249" stroke="#F4F4F4" stroke-miterlimit="10" stroke-linecap="round" stroke-linejoin="round"/>
<path d="M1356.41 398.063C1356.41 398.063 1356.6 385.776 1336.19 380.922C1336.13 380.922 1342.16 400.101 1356.41 398.063Z" stroke="#F4F4F4" stroke-miterlimit="10" stroke-linecap="round" stroke-linejoin="round"/>
<path d="M1365.9 484.431V389.672" stroke="#F4F4F4" stroke-miterlimit="10" stroke-linecap="round" stroke-linejoin="round"/>
<path d="M1356.35 398.243C1356.35 398.243 1365.9 405.675 1365.9 415.025" stroke="#F4F4F4" stroke-miterlimit="10" stroke-linecap="round" stroke-linejoin="round"/>
<path d="M1356.41 422.158C1356.41 422.158 1356.6 409.871 1336.19 405.016C1336.13 405.016 1342.16 424.135 1356.41 422.158Z" stroke="#F4F4F4" stroke-miterlimit="10" stroke-linecap="round" stroke-linejoin="round"/>
<path d="M1356.35 422.278C1356.35 422.278 1365.9 429.71 1365.9 439.06" stroke="#F4F4F4" stroke-miterlimit="10" stroke-linecap="round" stroke-linejoin="round"/>
<path d="M1356.41 446.252C1356.41 446.252 1356.6 433.965 1336.19 429.11C1336.13 429.05 1342.16 448.23 1356.41 446.252Z" stroke="#F4F4F4" stroke-miterlimit="10" stroke-linecap="round" stroke-linejoin="round"/>
<path d="M1356.35 446.372C1356.35 446.372 1365.9 453.804 1365.9 463.154" stroke="#F4F4F4" stroke-miterlimit="10" stroke-linecap="round" stroke-linejoin="round"/>
<path d="M1375.44 398.063C1375.44 398.063 1375.26 385.776 1395.67 380.922C1395.67 380.922 1389.7 400.101 1375.44 398.063Z" stroke="#F4F4F4" stroke-miterlimit="10" stroke-linecap="round" stroke-linejoin="round"/>
<path d="M1365.9 389.672C1365.9 389.672 1355.35 380.922 1365.96 363.84C1365.9 363.84 1376.7 380.622 1365.9 389.672Z" stroke="#F4F4F4" stroke-miterlimit="10" stroke-linecap="round" stroke-linejoin="round"/>
<path d="M1375.44 398.243C1375.44 398.243 1365.9 405.675 1365.9 415.025" stroke="#F4F4F4" stroke-miterlimit="10" stroke-linecap="round" stroke-linejoin="round"/>
<path d="M1375.44 422.158C1375.44 422.158 1375.26 409.871 1395.67 405.016C1395.67 405.016 1389.7 424.135 1375.44 422.158Z" stroke="#F4F4F4" stroke-miterlimit="10" stroke-linecap="round" stroke-linejoin="round"/>
<path d="M1375.44 422.278C1375.44 422.278 1365.9 429.71 1365.9 439.06" stroke="#F4F4F4" stroke-miterlimit="10" stroke-linecap="round" stroke-linejoin="round"/>
<path d="M1375.44 446.252C1375.44 446.252 1375.26 433.965 1395.67 429.11C1395.67 429.05 1389.7 448.23 1375.44 446.252Z" stroke="#F4F4F4" stroke-miterlimit="10" stroke-linecap="round" stroke-linejoin="round"/>
<path d="M1375.44 446.372C1375.44 446.372 1365.9 453.804 1365.9 463.154" stroke="#F4F4F4" stroke-miterlimit="10" stroke-linecap="round" stroke-linejoin="round"/>
<path d="M1330.41 307.5C1330.54 306.601 1330.6 305.702 1330.6 304.803C1330.6 293.235 1320.8 283.885 1308.68 283.885C1297.63 283.885 1288.53 291.677 1287.02 301.806C1283.82 300.008 1280.05 298.989 1276.03 298.989C1263.91 298.989 1254.11 308.339 1254.11 319.907C1254.11 329.137 1260.39 336.988 1269.06 339.745C1269.06 340.105 1269.06 340.465 1269.06 340.824C1269.06 356.048 1281.99 368.395 1297.95 368.395C1304.79 368.395 1311.13 366.117 1316.09 362.281C1319.74 363.78 1323.69 364.619 1327.9 364.619C1344.48 364.619 1357.86 351.793 1357.86 336.029C1357.86 321.045 1345.8 308.758 1330.41 307.5Z" stroke="#F4F4F4" stroke-miterlimit="10" stroke-linecap="round" stroke-linejoin="round"/>
<path d="M1305.61 321.824V406.634" stroke="#F4F4F4" stroke-miterlimit="10" stroke-linecap="round" stroke-linejoin="round"/>
<path d="M1305.61 351.673C1305.61 351.673 1314.97 333.093 1334.12 331.055" stroke="#F4F4F4" stroke-miterlimit="10" stroke-linecap="round" stroke-linejoin="round"/>
<path d="M1305.61 342.562C1305.61 342.562 1296.25 323.982 1277.1 321.944" stroke="#F4F4F4" stroke-miterlimit="10" stroke-linecap="round" stroke-linejoin="round"/>
<path d="M1305.61 333.752C1305.61 333.392 1309.13 317.749 1320.68 311.276" stroke="#F4F4F4" stroke-miterlimit="10" stroke-linecap="round" stroke-linejoin="round"/>
<path d="M1284.69 309.657C1284.69 309.657 1292.73 314.992 1292.73 328.058" stroke="#F4F4F4" stroke-miterlimit="10" stroke-linecap="round" stroke-linejoin="round"/>
<path d="M1315.15 339.745C1315.15 339.745 1328.09 336.029 1337.38 342.502" stroke="#F4F4F4" stroke-miterlimit="10" stroke-linecap="round" stroke-linejoin="round"/>
<path d="M1535.02 282.387H1438.12V488.207H1535.02V282.387Z" stroke="#F4F4F4" stroke-miterlimit="10" stroke-linecap="round" stroke-linejoin="round"/>
<path d="M1572.63 377.446C1572.63 339.626 1572.63 306.661 1572.63 306.661L1535.08 282.387V488.207C1535.08 488.207 1553.1 488.207 1564.15 488.207" stroke="#F4F4F4" stroke-miterlimit="10" stroke-linecap="round" stroke-linejoin="round"/>
<path d="M1550.9 292.636C1550.9 266.504 1550.9 228.265 1550.9 228.265L1478.75 193.562C1478.75 193.562 1478.75 254.576 1478.75 281.368" stroke="#F4F4F4" stroke-miterlimit="10" stroke-linecap="round" stroke-linejoin="round"/>
<path d="M1478.68 210.284L1550.9 244.987" stroke="#F4F4F4" stroke-miterlimit="10" stroke-linecap="round" stroke-linejoin="round"/>
<path d="M1478.68 228.924L1550.9 262.428" stroke="#F4F4F4" stroke-miterlimit="10" stroke-linecap="round" stroke-linejoin="round"/>
<path d="M1478.68 246.965L1550.9 281.787" stroke="#F4F4F4" stroke-miterlimit="10" stroke-linecap="round" stroke-linejoin="round"/>
<path d="M1480.76 265.605C1480.76 265.605 1497.65 273.456 1515.11 281.548" stroke="#F4F4F4" stroke-miterlimit="10" stroke-linecap="round" stroke-linejoin="round"/>
<path d="M1450.11 436.303H1523.09" stroke="#F4F4F4" stroke-miterlimit="10" stroke-linecap="round" stroke-linejoin="round"/>
<path d="M1543.43 303.185L1566.16 315.951" stroke="#F4F4F4" stroke-miterlimit="10" stroke-linecap="round" stroke-linejoin="round"/>
<path d="M1543.43 315.471L1566.16 328.298" stroke="#F4F4F4" stroke-miterlimit="10" stroke-linecap="round" stroke-linejoin="round"/>
<path d="M1543.43 327.818L1566.16 340.645" stroke="#F4F4F4" stroke-miterlimit="10" stroke-linecap="round" stroke-linejoin="round"/>
<path d="M1543.43 340.165L1566.16 352.991" stroke="#F4F4F4" stroke-miterlimit="10" stroke-linecap="round" stroke-linejoin="round"/>
<path d="M1543.43 352.452L1566.16 365.278" stroke="#F4F4F4" stroke-miterlimit="10" stroke-linecap="round" stroke-linejoin="round"/>
<path d="M1543.43 364.799L1566.16 377.625" stroke="#F4F4F4" stroke-miterlimit="10" stroke-linecap="round" stroke-linejoin="round"/>
<path d="M1478.68 193.562L1456.26 208.905V281.787" stroke="#F4F4F4" stroke-miterlimit="10" stroke-linecap="round" stroke-linejoin="round"/>
<path d="M1463.8 296.172H1450.11V309.238H1463.8V296.172Z" stroke="#F4F4F4" stroke-miterlimit="10" stroke-linecap="round" stroke-linejoin="round"/>
<path d="M1486.66 296.172H1472.97V309.238H1486.66V296.172Z" stroke="#F4F4F4" stroke-miterlimit="10" stroke-linecap="round" stroke-linejoin="round"/>
<path d="M1509.46 296.172H1495.77V309.238H1509.46V296.172Z" stroke="#F4F4F4" stroke-miterlimit="10" stroke-linecap="round" stroke-linejoin="round"/>
<path d="M1463.8 315.951H1450.11V329.017H1463.8V315.951Z" stroke="#F4F4F4" stroke-miterlimit="10" stroke-linecap="round" stroke-linejoin="round"/>
<path d="M1486.66 315.951H1472.97V329.017H1486.66V315.951Z" stroke="#F4F4F4" stroke-miterlimit="10" stroke-linecap="round" stroke-linejoin="round"/>
<path d="M1509.46 315.951H1495.77V329.017H1509.46V315.951Z" stroke="#F4F4F4" stroke-miterlimit="10" stroke-linecap="round" stroke-linejoin="round"/>
<path d="M1463.8 335.79H1450.11V348.856H1463.8V335.79Z" stroke="#F4F4F4" stroke-miterlimit="10" stroke-linecap="round" stroke-linejoin="round"/>
<path d="M1486.66 335.79H1472.97V348.856H1486.66V335.79Z" stroke="#F4F4F4" stroke-miterlimit="10" stroke-linecap="round" stroke-linejoin="round"/>
<path d="M1509.46 335.79H1495.77V348.856H1509.46V335.79Z" stroke="#F4F4F4" stroke-miterlimit="10" stroke-linecap="round" stroke-linejoin="round"/>
<path d="M1463.8 355.569H1450.11V368.635H1463.8V355.569Z" stroke="#F4F4F4" stroke-miterlimit="10" stroke-linecap="round" stroke-linejoin="round"/>
<path d="M1486.66 355.569H1472.97V368.635H1486.66V355.569Z" stroke="#F4F4F4" stroke-miterlimit="10" stroke-linecap="round" stroke-linejoin="round"/>
<path d="M1509.46 355.569H1495.77V368.635H1509.46V355.569Z" stroke="#F4F4F4" stroke-miterlimit="10" stroke-linecap="round" stroke-linejoin="round"/>
<path d="M1463.8 375.408H1450.11V388.474H1463.8V375.408Z" stroke="#F4F4F4" stroke-miterlimit="10" stroke-linecap="round" stroke-linejoin="round"/>
<path d="M1486.66 375.408H1472.97V388.474H1486.66V375.408Z" stroke="#F4F4F4" stroke-miterlimit="10" stroke-linecap="round" stroke-linejoin="round"/>
<path d="M1509.46 375.408H1495.77V388.474H1509.46V375.408Z" stroke="#F4F4F4" stroke-miterlimit="10" stroke-linecap="round" stroke-linejoin="round"/>
<path d="M1463.8 395.187H1450.11V408.253H1463.8V395.187Z" stroke="#F4F4F4" stroke-miterlimit="10" stroke-linecap="round" stroke-linejoin="round"/>
<path d="M1486.66 395.187H1472.97V408.253H1486.66V395.187Z" stroke="#F4F4F4" stroke-miterlimit="10" stroke-linecap="round" stroke-linejoin="round"/>
<path d="M1509.46 395.187H1495.77V408.253H1509.46V395.187Z" stroke="#F4F4F4" stroke-miterlimit="10" stroke-linecap="round" stroke-linejoin="round"/>
<path d="M1463.8 415.025H1450.11V428.091H1463.8V415.025Z" stroke="#F4F4F4" stroke-miterlimit="10" stroke-linecap="round" stroke-linejoin="round"/>
<path d="M1486.66 415.025H1472.97V428.091H1486.66V415.025Z" stroke="#F4F4F4" stroke-miterlimit="10" stroke-linecap="round" stroke-linejoin="round"/>
<path d="M1509.46 415.025H1495.77V428.091H1509.46V415.025Z" stroke="#F4F4F4" stroke-miterlimit="10" stroke-linecap="round" stroke-linejoin="round"/>
<path d="M1467.7 201.233V281.787" stroke="#F4F4F4" stroke-miterlimit="10" stroke-linecap="round" stroke-linejoin="round"/>
<path d="M1629.9 488.147H1558.44V394.347L1594.17 353.891L1629.9 394.347V488.147Z" stroke="#F4F4F4" stroke-miterlimit="10" stroke-linecap="round" stroke-linejoin="round"/>
<path d="M1558.44 394.347H1629.9" stroke="#F4F4F4" stroke-miterlimit="10" stroke-linecap="round" stroke-linejoin="round"/>
<path d="M417.742 488.747V471.605L424.462 464.413L431.181 471.605V488.747" stroke="#F4F4F4" stroke-miterlimit="10" stroke-linecap="round" stroke-linejoin="round"/>
<path d="M420.128 468.249V450.867L424.462 446.252L428.795 450.867V468.249" stroke="#F4F4F4" stroke-miterlimit="10" stroke-linecap="round" stroke-linejoin="round"/>
<path d="M447.76 405.315C447.76 405.315 438.026 408.492 424.461 390.631C410.896 408.552 401.162 405.315 401.162 405.315" stroke="#F4F4F4" stroke-miterlimit="10" stroke-linecap="round" stroke-linejoin="round"/>
<path d="M445.939 391.291C445.939 391.291 436.959 394.228 424.461 377.745C411.964 394.228 402.984 391.291 402.984 391.291" stroke="#F4F4F4" stroke-miterlimit="10" stroke-linecap="round" stroke-linejoin="round"/>
<path d="M444.056 377.325C444.056 377.325 435.892 380.023 424.462 364.919C413.032 380.023 404.868 377.325 404.868 377.325" stroke="#F4F4F4" stroke-miterlimit="10" stroke-linecap="round" stroke-linejoin="round"/>
<path d="M442.235 363.3C442.235 363.3 434.824 365.758 424.462 352.092C414.1 365.758 406.69 363.3 406.69 363.3" stroke="#F4F4F4" stroke-miterlimit="10" stroke-linecap="round" stroke-linejoin="round"/>
<path d="M440.414 349.335C440.414 349.335 433.757 351.493 424.463 339.266C415.168 351.493 408.511 349.335 408.511 349.335" stroke="#F4F4F4" stroke-miterlimit="10" stroke-linecap="round" stroke-linejoin="round"/>
<path d="M438.527 335.31C438.527 335.31 432.624 337.228 424.46 326.44C416.233 337.288 410.393 335.31 410.393 335.31" stroke="#F4F4F4" stroke-miterlimit="10" stroke-linecap="round" stroke-linejoin="round"/>
<path d="M436.706 321.345C436.706 321.345 431.62 323.023 424.46 313.613C417.364 323.023 412.214 321.345 412.214 321.345" stroke="#F4F4F4" stroke-miterlimit="10" stroke-linecap="round" stroke-linejoin="round"/>
<path d="M434.885 307.38C434.885 307.38 430.552 308.819 424.461 300.787C418.432 308.759 414.036 307.38 414.036 307.38" stroke="#F4F4F4" stroke-miterlimit="10" stroke-linecap="round" stroke-linejoin="round"/>
<path d="M424.46 300.787C424.46 300.787 424.46 394.048 424.46 446.252" stroke="#F4F4F4" stroke-miterlimit="10" stroke-linecap="round" stroke-linejoin="round"/>
<path d="M1030.29 310.077C1030.29 310.077 1020.56 313.254 1006.99 295.393C993.428 313.314 983.694 310.077 983.694 310.077" stroke="#F4F4F4" stroke-miterlimit="10" stroke-linecap="round" stroke-linejoin="round"/>
<path d="M1028.47 296.052C1028.47 296.052 1019.49 298.989 1006.99 282.507C994.496 298.989 985.516 296.052 985.516 296.052" stroke="#F4F4F4" stroke-miterlimit="10" stroke-linecap="round" stroke-linejoin="round"/>
<path d="M1026.59 282.087C1026.59 282.087 1018.42 284.784 1006.99 269.68C995.564 284.784 987.4 282.087 987.4 282.087" stroke="#F4F4F4" stroke-miterlimit="10" stroke-linecap="round" stroke-linejoin="round"/>
<path d="M1024.77 268.062C1024.77 268.062 1017.36 270.519 1006.99 256.854C996.632 270.519 989.222 268.062 989.222 268.062" stroke="#F4F4F4" stroke-miterlimit="10" stroke-linecap="round" stroke-linejoin="round"/>
<path d="M1022.95 254.097C1022.95 254.097 1016.29 256.255 1006.99 244.028C997.7 256.255 991.043 254.097 991.043 254.097" stroke="#F4F4F4" stroke-miterlimit="10" stroke-linecap="round" stroke-linejoin="round"/>
<path d="M1021.06 240.072C1021.06 240.072 1015.16 241.99 1006.99 231.202C998.765 242.05 992.925 240.072 992.925 240.072" stroke="#F4F4F4" stroke-miterlimit="10" stroke-linecap="round" stroke-linejoin="round"/>
<path d="M1019.24 226.107C1019.24 226.107 1014.15 227.785 1006.99 218.375C999.896 227.785 994.746 226.107 994.746 226.107" stroke="#F4F4F4" stroke-miterlimit="10" stroke-linecap="round" stroke-linejoin="round"/>
<path d="M1017.42 212.142C1017.42 212.142 1013.08 213.58 1006.99 205.549C1000.96 213.52 996.568 212.142 996.568 212.142" stroke="#F4F4F4" stroke-miterlimit="10" stroke-linecap="round" stroke-linejoin="round"/>
<path d="M1006.99 205.549C1006.99 205.549 1006.99 284.365 1006.99 349.156" stroke="#F4F4F4" stroke-miterlimit="10" stroke-linecap="round" stroke-linejoin="round"/>
<path d="M1006.99 383.679C1006.99 425.874 1006.99 467.649 1006.99 486.169" stroke="#F4F4F4" stroke-miterlimit="10" stroke-linecap="round" stroke-linejoin="round"/>
<path d="M870.842 452.306H790.332V464.053H870.842V452.306Z" stroke="#F4F4F4" stroke-miterlimit="10" stroke-linecap="round" stroke-linejoin="round"/>
<path d="M870.842 470.886H790.332V475.621H870.842V470.886Z" stroke="#F4F4F4" stroke-miterlimit="10" stroke-linecap="round" stroke-linejoin="round"/>
<path d="M859.726 487.908V448.829" stroke="#F4F4F4" stroke-miterlimit="10" stroke-linecap="round" stroke-linejoin="round"/>
<path d="M801.637 487.908V448.829" stroke="#F4F4F4" stroke-miterlimit="10" stroke-linecap="round" stroke-linejoin="round"/>
<path d="M790.332 482.453H869.712" stroke="#F4F4F4" stroke-miterlimit="10" stroke-linecap="round" stroke-linejoin="round"/>
<path d="M549.684 276.873C549.684 276.873 562.119 299.229 562.119 329.556C562.119 352.092 557.848 370.433 549.684 370.433" stroke="#F4F4F4" stroke-miterlimit="10" stroke-linecap="round" stroke-linejoin="round"/>
<path d="M549.684 276.873C549.684 276.873 537.25 299.229 537.25 329.556C537.25 352.092 541.52 370.433 549.684 370.433" stroke="#F4F4F4" stroke-miterlimit="10" stroke-linecap="round" stroke-linejoin="round"/>
<path d="M549.685 301.326C549.685 301.326 549.685 358.326 549.685 384.038" stroke="#F4F4F4" stroke-miterlimit="10" stroke-linecap="round" stroke-linejoin="round"/>
<path d="M549.686 328.178L541.082 316.67" stroke="#F4F4F4" stroke-miterlimit="10" stroke-linecap="round" stroke-linejoin="round"/>
<path d="M549.685 321.225C549.685 321.225 551.694 318.468 553.829 315.711" stroke="#F4F4F4" stroke-miterlimit="10" stroke-linecap="round" stroke-linejoin="round"/>
<path d="M549.685 335.49C549.685 335.49 552.825 331.234 555.337 327.938" stroke="#F4F4F4" stroke-miterlimit="10" stroke-linecap="round" stroke-linejoin="round"/>
<path d="M549.685 349.815C549.685 349.815 550.689 348.436 552.008 346.638" stroke="#F4F4F4" stroke-miterlimit="10" stroke-linecap="round" stroke-linejoin="round"/>
<path d="M553.577 344.54C555.838 341.484 558.224 338.247 558.224 338.247" stroke="#F4F4F4" stroke-miterlimit="10" stroke-linecap="round" stroke-linejoin="round"/>
<path d="M549.685 364.139C549.685 364.139 551.569 361.622 553.578 358.925" stroke="#F4F4F4" stroke-miterlimit="10" stroke-linecap="round" stroke-linejoin="round"/>
<path d="M549.684 342.023C549.684 342.023 547.172 338.607 544.848 335.49" stroke="#F4F4F4" stroke-miterlimit="10" stroke-linecap="round" stroke-linejoin="round"/>
<path d="M549.686 355.868L541.082 344.361" stroke="#F4F4F4" stroke-miterlimit="10" stroke-linecap="round" stroke-linejoin="round"/>
<path d="M590.941 227.605C590.941 227.605 607.96 258.113 607.96 299.648C607.96 330.455 602.12 355.509 590.941 355.509" stroke="#F4F4F4" stroke-miterlimit="10" stroke-linecap="round" stroke-linejoin="round"/>
<path d="M590.941 227.605C590.941 227.605 573.923 258.113 573.923 299.648C573.923 330.455 579.763 355.509 590.941 355.509" stroke="#F4F4F4" stroke-miterlimit="10" stroke-linecap="round" stroke-linejoin="round"/>
<path d="M590.941 260.99C590.941 260.99 590.941 349.395 590.941 384.578" stroke="#F4F4F4" stroke-miterlimit="10" stroke-linecap="round" stroke-linejoin="round"/>
<path d="M590.942 297.73L579.261 281.967" stroke="#F4F4F4" stroke-miterlimit="10" stroke-linecap="round" stroke-linejoin="round"/>
<path d="M590.941 288.201C590.941 288.201 593.704 284.485 596.593 280.649" stroke="#F4F4F4" stroke-miterlimit="10" stroke-linecap="round" stroke-linejoin="round"/>
<path d="M590.941 307.74C590.941 307.74 595.274 301.926 598.666 297.371" stroke="#F4F4F4" stroke-miterlimit="10" stroke-linecap="round" stroke-linejoin="round"/>
<path d="M590.941 327.279C590.941 327.279 592.323 325.421 594.144 322.964" stroke="#F4F4F4" stroke-miterlimit="10" stroke-linecap="round" stroke-linejoin="round"/>
<path d="M596.342 320.087C599.42 315.951 602.748 311.516 602.748 311.516" stroke="#F4F4F4" stroke-miterlimit="10" stroke-linecap="round" stroke-linejoin="round"/>
<path d="M590.941 346.818C590.941 346.818 593.516 343.342 596.216 339.686" stroke="#F4F4F4" stroke-miterlimit="10" stroke-linecap="round" stroke-linejoin="round"/>
<path d="M590.941 316.61C590.941 316.61 587.487 311.935 584.347 307.68" stroke="#F4F4F4" stroke-miterlimit="10" stroke-linecap="round" stroke-linejoin="round"/>
<path d="M590.942 335.55L579.261 319.787" stroke="#F4F4F4" stroke-miterlimit="10" stroke-linecap="round" stroke-linejoin="round"/>
<path d="M1200.04 319.727C1200.04 319.727 1217.06 350.235 1217.06 391.77C1217.06 422.577 1211.22 447.631 1200.04 447.631" stroke="#F4F4F4" stroke-miterlimit="10" stroke-linecap="round" stroke-linejoin="round"/>
<path d="M1200.04 319.727C1200.04 319.727 1183.02 350.235 1183.02 391.77C1183.02 422.577 1188.86 447.631 1200.04 447.631" stroke="#F4F4F4" stroke-miterlimit="10" stroke-linecap="round" stroke-linejoin="round"/>
<path d="M1200.04 353.111C1200.04 353.111 1200.04 452.905 1200.04 488.087" stroke="#F4F4F4" stroke-miterlimit="10" stroke-linecap="round" stroke-linejoin="round"/>
<path d="M1200.04 389.852L1188.29 374.089" stroke="#F4F4F4" stroke-miterlimit="10" stroke-linecap="round" stroke-linejoin="round"/>
<path d="M1200.04 380.322C1200.04 380.322 1202.8 376.606 1205.69 372.77" stroke="#F4F4F4" stroke-miterlimit="10" stroke-linecap="round" stroke-linejoin="round"/>
<path d="M1200.04 399.862C1200.04 399.862 1204.37 394.048 1207.76 389.493" stroke="#F4F4F4" stroke-miterlimit="10" stroke-linecap="round" stroke-linejoin="round"/>
<path d="M1200.04 419.401C1200.04 419.401 1201.42 417.543 1203.24 415.085" stroke="#F4F4F4" stroke-miterlimit="10" stroke-linecap="round" stroke-linejoin="round"/>
<path d="M1205.38 412.208C1208.45 408.073 1211.78 403.637 1211.78 403.637" stroke="#F4F4F4" stroke-miterlimit="10" stroke-linecap="round" stroke-linejoin="round"/>
<path d="M1200.04 438.94C1200.04 438.94 1202.61 435.463 1205.31 431.807" stroke="#F4F4F4" stroke-miterlimit="10" stroke-linecap="round" stroke-linejoin="round"/>
<path d="M1200.04 408.732C1200.04 408.732 1196.58 404.057 1193.44 399.802" stroke="#F4F4F4" stroke-miterlimit="10" stroke-linecap="round" stroke-linejoin="round"/>
<path d="M1200.04 427.672L1188.29 411.909" stroke="#F4F4F4" stroke-miterlimit="10" stroke-linecap="round" stroke-linejoin="round"/>
<path d="M861.923 428.391C872.709 428.391 881.453 420.045 881.453 409.751C881.453 399.456 872.709 391.111 861.923 391.111C851.136 391.111 842.392 399.456 842.392 409.751C842.392 420.045 851.136 428.391 861.923 428.391Z" stroke="#F4F4F4" stroke-miterlimit="10" stroke-linecap="round" stroke-linejoin="round"/>
<path d="M828.2 391.111C842.663 391.111 854.388 379.921 854.388 366.117C854.388 352.314 842.663 341.124 828.2 341.124C813.737 341.124 802.013 352.314 802.013 366.117C802.013 379.921 813.737 391.111 828.2 391.111Z" stroke="#F4F4F4" stroke-miterlimit="10" stroke-linecap="round" stroke-linejoin="round"/>
<path d="M809.542 416.478C816.597 414.888 820.965 408.142 819.3 401.409C817.634 394.676 810.565 390.507 803.51 392.096C796.455 393.686 792.087 400.433 793.753 407.166C795.419 413.899 802.488 418.068 809.542 416.478Z" stroke="#F4F4F4" stroke-miterlimit="10" stroke-linecap="round" stroke-linejoin="round"/>
<path d="M828.199 366.117V487.128" stroke="#F4F4F4" stroke-miterlimit="10" stroke-linecap="round" stroke-linejoin="round"/>
<path d="M828.135 445.593C828.135 445.593 837.241 418.262 862.927 409.691" stroke="#F4F4F4" stroke-miterlimit="10" stroke-linecap="round" stroke-linejoin="round"/>
<path d="M828.263 436.063C828.263 436.063 823.679 422.457 811.998 411.429" stroke="#F4F4F4" stroke-miterlimit="10" stroke-linecap="round" stroke-linejoin="round"/>
<path d="M823.263 264.662C829.069 263.353 832.664 257.801 831.293 252.26C829.922 246.719 824.104 243.288 818.299 244.596C812.493 245.905 808.898 251.457 810.269 256.998C811.64 262.539 817.457 265.97 823.263 264.662Z" stroke="#F4F4F4" stroke-miterlimit="10" stroke-linecap="round" stroke-linejoin="round"/>
<path d="M802.077 244.327C810.089 244.327 816.584 238.129 816.584 230.482C816.584 222.836 810.089 216.637 802.077 216.637C794.065 216.637 787.57 222.836 787.57 230.482C787.57 238.129 794.065 244.327 802.077 244.327Z" stroke="#F4F4F4" stroke-miterlimit="10" stroke-linecap="round" stroke-linejoin="round"/>
<path d="M784.083 252.712C787.999 251.829 790.423 248.085 789.499 244.348C788.574 240.611 784.651 238.297 780.735 239.179C776.82 240.062 774.395 243.806 775.32 247.543C776.244 251.28 780.168 253.594 784.083 252.712Z" stroke="#F4F4F4" stroke-miterlimit="10" stroke-linecap="round" stroke-linejoin="round"/>
<path d="M802.076 230.482V314.692" stroke="#F4F4F4" stroke-miterlimit="10" stroke-linecap="round" stroke-linejoin="round"/>
<path d="M802.013 274.595C802.013 274.595 807.1 259.431 821.292 254.696" stroke="#F4F4F4" stroke-miterlimit="10" stroke-linecap="round" stroke-linejoin="round"/>
<path d="M802.077 265.065C802.077 265.065 796.99 249.901 782.797 245.167" stroke="#F4F4F4" stroke-miterlimit="10" stroke-linecap="round" stroke-linejoin="round"/>
<path d="M1162.42 377.325C1162.42 361.023 1148.54 347.777 1131.46 347.777C1131.27 347.777 1131.02 347.777 1130.83 347.837C1131.21 345.919 1131.46 343.941 1131.46 341.903C1131.46 325.601 1117.58 312.355 1100.5 312.355C1091.65 312.355 1083.67 315.951 1078.02 321.645C1073.69 319.487 1068.85 318.228 1063.64 318.228C1050.45 318.228 1039.15 326.14 1034.75 337.288C1034.06 337.228 1033.37 337.168 1032.68 337.168C1015.6 337.168 1001.72 350.414 1001.72 366.717C1001.72 381.641 1013.33 393.988 1028.47 395.966C1033.56 405.735 1044.04 412.448 1056.23 412.448C1058.74 412.448 1061.19 412.148 1063.57 411.549C1068.6 414.965 1074.75 416.943 1081.41 416.943C1088.51 416.943 1095.1 414.606 1100.31 410.77C1105.52 414.606 1112.12 416.943 1119.22 416.943C1129.89 416.943 1139.31 411.789 1144.9 403.937C1155.2 399.202 1162.42 389.073 1162.42 377.325Z" stroke="#F4F4F4" stroke-miterlimit="10" stroke-linecap="round" stroke-linejoin="round"/>
<path d="M1074.38 429.829C1071.67 424.795 1065.14 422.757 1059.87 425.334C1059.81 425.394 1059.74 425.394 1059.68 425.454C1059.49 424.795 1059.24 424.135 1058.86 423.536C1056.16 418.501 1049.63 416.464 1044.36 419.041C1041.59 420.359 1039.71 422.697 1038.96 425.334C1037.26 425.334 1035.56 425.694 1033.93 426.473C1029.85 428.451 1027.65 432.646 1028.15 436.722C1027.97 436.842 1027.72 436.902 1027.53 437.022C1022.25 439.599 1020.12 445.832 1022.82 450.867C1025.33 455.482 1030.98 457.58 1035.94 455.902C1039.14 458.179 1043.48 458.659 1047.31 456.801C1048.13 456.441 1048.82 455.961 1049.44 455.422C1051.58 455.722 1053.78 455.422 1055.85 454.403C1058.05 453.324 1059.68 451.586 1060.69 449.608C1062.95 450.028 1065.33 449.728 1067.59 448.649C1070.92 447.031 1072.93 444.034 1073.37 440.738C1075.76 437.681 1076.32 433.485 1074.38 429.829Z" stroke="#F4F4F4" stroke-miterlimit="10" stroke-linecap="round" stroke-linejoin="round"/>
<path d="M1082.04 344.001V488.807" stroke="#F4F4F4" stroke-miterlimit="10" stroke-linecap="round" stroke-linejoin="round"/>
<path d="M1082.04 398.483C1082.04 398.483 1104.84 370.013 1144.52 370.013" stroke="#F4F4F4" stroke-miterlimit="10" stroke-linecap="round" stroke-linejoin="round"/>
<path d="M1082.04 373.669C1082.04 373.669 1069.48 349.095 1037.33 349.095" stroke="#F4F4F4" stroke-miterlimit="10" stroke-linecap="round" stroke-linejoin="round"/>
<path d="M1082.04 461.476C1082.04 461.476 1071.17 441.996 1054.03 439.539" stroke="#F4F4F4" stroke-miterlimit="10" stroke-linecap="round" stroke-linejoin="round"/>
<path d="M190.469 227.665H118.437L139.224 258.472H211.255L190.469 227.665Z" stroke="#F4F4F4" stroke-miterlimit="10" stroke-linecap="round" stroke-linejoin="round"/>
<path d="M197.691 238.454C192.039 238.454 141.988 238.454 126.79 238.454" stroke="#F4F4F4" stroke-miterlimit="10" stroke-linecap="round" stroke-linejoin="round"/>
<path d="M204.911 248.942C199.133 248.942 146.57 248.942 132.88 248.942" stroke="#F4F4F4" stroke-miterlimit="10" stroke-linecap="round" stroke-linejoin="round"/>
<path d="M137.088 227.665L157.874 258.472" stroke="#F4F4F4" stroke-miterlimit="10" stroke-linecap="round" stroke-linejoin="round"/>
<path d="M153.481 227.665L174.331 258.472" stroke="#F4F4F4" stroke-miterlimit="10" stroke-linecap="round" stroke-linejoin="round"/>
<path d="M173.072 227.665L193.859 258.472" stroke="#F4F4F4" stroke-miterlimit="10" stroke-linecap="round" stroke-linejoin="round"/>
<path d="M278.766 180.555H383.139V447.93" stroke="#F4F4F4" stroke-miterlimit="10" stroke-linecap="round" stroke-linejoin="round"/>
<path d="M230.346 342.203C230.346 294.134 230.346 226.407 230.346 226.407L278.765 180.615V407.713" stroke="#F4F4F4" stroke-miterlimit="10" stroke-linecap="round" stroke-linejoin="round"/>
<path d="M287.242 179.956V102.339H359.902C359.902 102.339 359.902 138.78 359.902 180.256" stroke="#F4F4F4" stroke-miterlimit="10" stroke-linecap="round" stroke-linejoin="round"/>
<path d="M253.584 203.511C253.584 170.067 253.584 134.225 253.584 134.225L287.245 102.339C287.245 102.339 287.245 137.881 287.245 180.016" stroke="#F4F4F4" stroke-miterlimit="10" stroke-linecap="round" stroke-linejoin="round"/>
<path d="M320.213 200.634H299.301V220.593H320.213V200.634Z" stroke="#F4F4F4" stroke-miterlimit="10" stroke-linecap="round" stroke-linejoin="round"/>
<path d="M320.213 230.242H299.301V250.201H320.213V230.242Z" stroke="#F4F4F4" stroke-miterlimit="10" stroke-linecap="round" stroke-linejoin="round"/>
<path d="M352.366 200.634H331.453V250.261H352.366V200.634Z" stroke="#F4F4F4" stroke-miterlimit="10" stroke-linecap="round" stroke-linejoin="round"/>
<path d="M320.213 263.447H299.301V283.406H320.213V263.447Z" stroke="#F4F4F4" stroke-miterlimit="10" stroke-linecap="round" stroke-linejoin="round"/>
<path d="M320.213 293.115H299.301V313.074H320.213V293.115Z" stroke="#F4F4F4" stroke-miterlimit="10" stroke-linecap="round" stroke-linejoin="round"/>
<path d="M352.366 263.447H331.453V313.074H352.366V263.447Z" stroke="#F4F4F4" stroke-miterlimit="10" stroke-linecap="round" stroke-linejoin="round"/>
<path d="M320.213 326.32H299.301V346.279H320.213V326.32Z" stroke="#F4F4F4" stroke-miterlimit="10" stroke-linecap="round" stroke-linejoin="round"/>
<path d="M320.213 355.988H299.301V375.947H320.213V355.988Z" stroke="#F4F4F4" stroke-miterlimit="10" stroke-linecap="round" stroke-linejoin="round"/>
<path d="M352.366 326.32H331.453V375.947H352.366V326.32Z" stroke="#F4F4F4" stroke-miterlimit="10" stroke-linecap="round" stroke-linejoin="round"/>
<path d="M320.213 389.193H299.301V409.152H320.213V389.193Z" stroke="#F4F4F4" stroke-miterlimit="10" stroke-linecap="round" stroke-linejoin="round"/>
<path d="M352.366 389.193H331.453V438.82H352.366V389.193Z" stroke="#F4F4F4" stroke-miterlimit="10" stroke-linecap="round" stroke-linejoin="round"/>
<path d="M362.352 214.06H381.695" stroke="#F4F4F4" stroke-miterlimit="10" stroke-linecap="round" stroke-linejoin="round"/>
<path d="M362.352 234.378H381.695" stroke="#F4F4F4" stroke-miterlimit="10" stroke-linecap="round" stroke-linejoin="round"/>
<path d="M362.352 254.696H381.695" stroke="#F4F4F4" stroke-miterlimit="10" stroke-linecap="round" stroke-linejoin="round"/>
<path d="M362.352 275.015H381.695" stroke="#F4F4F4" stroke-miterlimit="10" stroke-linecap="round" stroke-linejoin="round"/>
<path d="M362.352 295.333H381.695" stroke="#F4F4F4" stroke-miterlimit="10" stroke-linecap="round" stroke-linejoin="round"/>
<path d="M362.352 315.651H381.695" stroke="#F4F4F4" stroke-miterlimit="10" stroke-linecap="round" stroke-linejoin="round"/>
<path d="M362.352 335.97H381.695" stroke="#F4F4F4" stroke-miterlimit="10" stroke-linecap="round" stroke-linejoin="round"/>
<path d="M362.352 356.348H381.695" stroke="#F4F4F4" stroke-miterlimit="10" stroke-linecap="round" stroke-linejoin="round"/>
<path d="M362.352 376.666H381.695" stroke="#F4F4F4" stroke-miterlimit="10" stroke-linecap="round" stroke-linejoin="round"/>
<path d="M362.352 396.985H381.695" stroke="#F4F4F4" stroke-miterlimit="10" stroke-linecap="round" stroke-linejoin="round"/>
<path d="M362.352 417.303H381.695" stroke="#F4F4F4" stroke-miterlimit="10" stroke-linecap="round" stroke-linejoin="round"/>
<path d="M320.34 110.071H303.635V126.014H320.34V110.071Z" stroke="#F4F4F4" stroke-miterlimit="10" stroke-linecap="round" stroke-linejoin="round"/>
<path d="M349.414 110.071H332.71V126.014H349.414V110.071Z" stroke="#F4F4F4" stroke-miterlimit="10" stroke-linecap="round" stroke-linejoin="round"/>
<path d="M320.34 133.146H303.635V149.089H320.34V133.146Z" stroke="#F4F4F4" stroke-miterlimit="10" stroke-linecap="round" stroke-linejoin="round"/>
<path d="M349.414 133.146H332.71V149.089H349.414V133.146Z" stroke="#F4F4F4" stroke-miterlimit="10" stroke-linecap="round" stroke-linejoin="round"/>
<path d="M320.34 156.221H303.635V172.164H320.34V156.221Z" stroke="#F4F4F4" stroke-miterlimit="10" stroke-linecap="round" stroke-linejoin="round"/>
<path d="M349.414 156.221H332.71V172.164H349.414V156.221Z" stroke="#F4F4F4" stroke-miterlimit="10" stroke-linecap="round" stroke-linejoin="round"/>
<path d="M85.9691 464.712C85.9691 448.589 86.0319 420.779 86.0319 418.322C86.0319 394.467 86.0319 370.613 86.0319 346.758L118.437 289.519L150.841 346.758V488.806" stroke="#F4F4F4" stroke-miterlimit="10" stroke-linecap="round" stroke-linejoin="round"/>
<path d="M97.7755 325.301C97.7755 314.992 97.8383 311.336 97.8383 309.777C97.8383 294.554 97.8383 279.39 97.8383 264.166L118.499 227.665" stroke="#F4F4F4" stroke-miterlimit="10" stroke-linecap="round" stroke-linejoin="round"/>
<path d="M97.7756 277.172C97.7756 277.172 117.558 242.229 121.765 234.737" stroke="#F4F4F4" stroke-miterlimit="10" stroke-linecap="round" stroke-linejoin="round"/>
<path d="M139.098 258.472C139.098 258.472 139.098 274.535 139.098 288.261" stroke="#F4F4F4" stroke-miterlimit="10" stroke-linecap="round" stroke-linejoin="round"/>
<path d="M196.373 258.472C196.373 258.472 196.373 274.535 196.373 288.261" stroke="#F4F4F4" stroke-miterlimit="10" stroke-linecap="round" stroke-linejoin="round"/>
<path d="M211.254 258.472C211.254 258.472 211.254 298.45 211.254 312.175" stroke="#F4F4F4" stroke-miterlimit="10" stroke-linecap="round" stroke-linejoin="round"/>
<path d="M150.842 488.807V346.758H233.235V488.807" stroke="#F4F4F4" stroke-miterlimit="10" stroke-linecap="round" stroke-linejoin="round"/>
<path d="M118.437 289.519H196.435L233.235 346.758H150.842L118.437 289.519Z" stroke="#F4F4F4" stroke-miterlimit="10" stroke-linecap="round" stroke-linejoin="round"/>
<path d="M114.418 389.133H96.5824V406.155H114.418V389.133Z" stroke="#F4F4F4" stroke-miterlimit="10" stroke-linecap="round" stroke-linejoin="round"/>
<path d="M140.354 389.133H122.519V428.93H140.354V389.133Z" stroke="#F4F4F4" stroke-miterlimit="10" stroke-linecap="round" stroke-linejoin="round"/>
<path d="M114.418 411.908H96.5824V428.93H114.418V411.908Z" stroke="#F4F4F4" stroke-miterlimit="10" stroke-linecap="round" stroke-linejoin="round"/>
<path d="M140.354 411.908H122.519V428.93H140.354V411.908Z" stroke="#F4F4F4" stroke-miterlimit="10" stroke-linecap="round" stroke-linejoin="round"/>
<path d="M114.418 411.908H96.5824V451.706H114.418V411.908Z" stroke="#F4F4F4" stroke-miterlimit="10" stroke-linecap="round" stroke-linejoin="round"/>
<path d="M140.354 434.684H122.519V451.706H140.354V434.684Z" stroke="#F4F4F4" stroke-miterlimit="10" stroke-linecap="round" stroke-linejoin="round"/>
<path d="M201.082 488.806V423.296H169.054V488.806" stroke="#F4F4F4" stroke-miterlimit="10" stroke-linecap="round" stroke-linejoin="round"/>
<path d="M126.537 303.005H205.1" stroke="#F4F4F4" stroke-miterlimit="10" stroke-linecap="round" stroke-linejoin="round"/>
<path d="M134.89 316.61H213.893" stroke="#F4F4F4" stroke-miterlimit="10" stroke-linecap="round" stroke-linejoin="round"/>
<path d="M142.678 330.815H222.999" stroke="#F4F4F4" stroke-miterlimit="10" stroke-linecap="round" stroke-linejoin="round"/>
<path d="M134.89 289.519L170.498 346.758" stroke="#F4F4F4" stroke-miterlimit="10" stroke-linecap="round" stroke-linejoin="round"/>
<path d="M150.842 289.519L186.449 346.758" stroke="#F4F4F4" stroke-miterlimit="10" stroke-linecap="round" stroke-linejoin="round"/>
<path d="M166.793 289.519L202.401 346.758" stroke="#F4F4F4" stroke-miterlimit="10" stroke-linecap="round" stroke-linejoin="round"/>
<path d="M86.4079 364.199C93.6927 351.313 123.585 298.51 123.585 298.51" stroke="#F4F4F4" stroke-miterlimit="10" stroke-linecap="round" stroke-linejoin="round"/>
<path d="M907.958 335.97H890.123V398.423H907.958V335.97Z" stroke="#F4F4F4" stroke-miterlimit="10" stroke-linecap="round" stroke-linejoin="round"/>
<path d="M907.958 362.521H890.123" stroke="#F4F4F4" stroke-miterlimit="10" stroke-linecap="round" stroke-linejoin="round"/>
<path d="M899.041 335.97V398.483" stroke="#F4F4F4" stroke-miterlimit="10" stroke-linecap="round" stroke-linejoin="round"/>
<path d="M182.742 289.519L218.286 346.758" stroke="#F4F4F4" stroke-miterlimit="10" stroke-linecap="round" stroke-linejoin="round"/>
<path d="M916.436 457.939V314.692H774.634V325.121V488.806" stroke="#F4F4F4" stroke-miterlimit="10" stroke-linecap="round" stroke-linejoin="round"/>
<path d="M916.436 325.121H774.634" stroke="#F4F4F4" stroke-miterlimit="10" stroke-linecap="round" stroke-linejoin="round"/>
<path d="M841.577 225.867L916.435 169.527V314.692H841.577V225.867Z" stroke="#F4F4F4" stroke-miterlimit="10" stroke-linecap="round" stroke-linejoin="round"/>
<path d="M898.726 242.11H859.35V253.078H898.726V242.11Z" stroke="#F4F4F4" stroke-miterlimit="10" stroke-linecap="round" stroke-linejoin="round"/>
<path d="M898.726 263.927H859.35V274.895H898.726V263.927Z" stroke="#F4F4F4" stroke-miterlimit="10" stroke-linecap="round" stroke-linejoin="round"/>
<path d="M898.726 285.683H859.35V296.651H898.726V285.683Z" stroke="#F4F4F4" stroke-miterlimit="10" stroke-linecap="round" stroke-linejoin="round"/>
<path d="M948.212 424.615C950.158 414.785 955.622 407.653 962.09 407.653C968.622 407.653 974.211 414.965 976.095 425.094" stroke="#F4F4F4" stroke-miterlimit="10" stroke-linecap="round" stroke-linejoin="round"/>
<path d="M962.907 439.539C964.791 436.303 967.365 433.006 970.631 430.009C980.93 420.419 993.93 417.123 999.519 422.697C1004.92 428.031 1001.65 439.539 992.234 448.949" stroke="#F4F4F4" stroke-miterlimit="10" stroke-linecap="round" stroke-linejoin="round"/>
<path d="M942.058 455.961C939.107 454.283 936.155 452.066 933.455 449.368C923.407 439.539 919.953 427.132 925.793 421.798C931.571 416.404 944.445 420.06 954.493 429.889C957.256 432.586 959.517 435.523 961.212 438.4" stroke="#F4F4F4" stroke-miterlimit="10" stroke-linecap="round" stroke-linejoin="round"/>
<path d="M980.303 447.93C984.762 446.552 988.844 446.851 991.23 449.189C995.626 453.504 992.674 462.974 984.636 470.406C981.308 473.463 977.665 475.74 974.211 476.999" stroke="#F4F4F4" stroke-miterlimit="10" stroke-linecap="round" stroke-linejoin="round"/>
<path d="M953.301 477.598C949.031 476.639 944.195 473.942 939.987 469.807C932.891 462.854 930.065 454.343 933.017 449.668" stroke="#F4F4F4" stroke-miterlimit="10" stroke-linecap="round" stroke-linejoin="round"/>
<path d="M962.783 479.217C974.263 479.217 983.569 470.335 983.569 459.378C983.569 448.421 974.263 439.539 962.783 439.539C951.302 439.539 941.996 448.421 941.996 459.378C941.996 470.335 951.302 479.217 962.783 479.217Z" stroke="#F4F4F4" stroke-miterlimit="10" stroke-linecap="round" stroke-linejoin="round"/>
<path d="M937.096 488.087C937.096 483.472 940.99 479.756 945.826 479.756H976.598C981.433 479.756 985.327 483.472 985.327 488.087" stroke="#F4F4F4" stroke-miterlimit="10" stroke-linecap="round" stroke-linejoin="round"/>
<path d="M264.443 424.615C266.39 414.785 271.854 407.653 278.322 407.653C284.853 407.653 290.443 414.965 292.327 425.094" stroke="#F4F4F4" stroke-miterlimit="10" stroke-linecap="round" stroke-linejoin="round"/>
<path d="M279.138 439.539C281.022 436.303 283.597 433.006 286.863 430.009C297.162 420.419 310.162 417.123 315.751 422.697C321.152 428.031 317.886 439.539 308.466 448.949" stroke="#F4F4F4" stroke-miterlimit="10" stroke-linecap="round" stroke-linejoin="round"/>
<path d="M258.227 455.961C255.275 454.283 252.324 452.066 249.623 449.368C239.575 439.539 236.121 427.132 241.962 421.798C247.739 416.404 260.613 420.06 270.661 429.889C273.425 432.586 275.685 435.523 277.381 438.4" stroke="#F4F4F4" stroke-miterlimit="10" stroke-linecap="round" stroke-linejoin="round"/>
<path d="M296.471 447.93C300.93 446.552 305.012 446.851 307.399 449.189C311.795 453.504 308.843 462.974 300.805 470.406C297.476 473.463 293.834 475.74 290.38 476.999" stroke="#F4F4F4" stroke-miterlimit="10" stroke-linecap="round" stroke-linejoin="round"/>
<path d="M269.47 477.598C265.199 476.639 260.364 473.942 256.156 469.807C249.06 462.854 246.234 454.343 249.185 449.668" stroke="#F4F4F4" stroke-miterlimit="10" stroke-linecap="round" stroke-linejoin="round"/>
<path d="M278.951 479.217C290.431 479.217 299.738 470.335 299.738 459.378C299.738 448.421 290.431 439.539 278.951 439.539C267.471 439.539 258.164 448.421 258.164 459.378C258.164 470.335 267.471 479.217 278.951 479.217Z" stroke="#F4F4F4" stroke-miterlimit="10" stroke-linecap="round" stroke-linejoin="round"/>
<path d="M253.265 488.087C253.265 483.472 257.159 479.756 261.994 479.756H292.766C297.602 479.756 301.495 483.472 301.495 488.087" stroke="#F4F4F4" stroke-miterlimit="10" stroke-linecap="round" stroke-linejoin="round"/>
<path d="M394.503 488.806C401.599 488.806 406.686 482.813 406.686 476.999C406.686 473.163 403.358 469.867 400.218 468.009C402.29 466.091 403.609 463.394 403.609 460.457C403.609 454.643 398.711 449.968 392.619 449.968C390.609 449.968 388.725 450.507 387.093 451.406C385.585 449.369 383.073 447.99 380.247 447.99C376.291 447.99 373.025 450.567 372.083 454.104C370.953 453.684 369.697 453.504 368.378 453.504C362.287 453.504 357.388 458.179 357.388 463.993C357.388 465.671 357.828 467.289 358.581 468.728C354.625 470.286 351.799 474.062 351.799 478.438C351.799 483.892 356.195 488.387 361.784 488.866" stroke="#F4F4F4" stroke-miterlimit="10" stroke-linecap="round" stroke-linejoin="round"/>
<path d="M328.375 100.96C328.752 96.4651 331.39 92.5693 335.221 90.3516C332.52 87.8942 330.825 84.358 330.825 80.5221C330.825 72.9701 337.23 66.9166 345.08 66.9166C347.718 66.9166 350.104 67.5759 352.239 68.7746C354.186 66.0775 357.452 64.3394 361.157 64.3394C366.244 64.3394 370.514 67.6958 371.707 72.2509C373.215 71.7714 374.785 71.4718 376.48 71.4718C384.393 71.4718 390.736 77.5852 390.736 85.0772C390.736 87.2949 390.17 89.3926 389.228 91.1907C394.378 93.2285 398.02 98.0834 398.02 103.777C398.02 110.85 392.369 116.664 385.084 117.323C383.639 123.376 377.987 127.932 371.142 127.932C369.007 127.932 366.997 127.512 365.176 126.673C363.732 127.632 362.162 128.411 360.403 128.831" stroke="#F4F4F4" stroke-miterlimit="10" stroke-linecap="round" stroke-linejoin="round"/>
<path d="M60.7868 448.11C60.8496 447.691 60.8496 447.271 60.8496 446.851C60.8496 441.937 56.7048 437.981 51.5552 437.981C49.8596 437.981 48.2896 438.401 46.908 439.18C45.652 437.442 43.5168 436.303 41.1304 436.303C37.802 436.303 35.0388 438.52 34.2852 441.457C33.3432 441.098 32.2756 440.918 31.1452 440.918C25.9956 440.918 21.8508 444.874 21.8508 449.788C21.8508 451.227 22.2276 452.605 22.8556 453.804C19.5272 455.123 17.1408 458.299 17.1408 462.015C17.1408 464.293 18.02 466.331 19.4644 467.889" stroke="#F4F4F4" stroke-miterlimit="10" stroke-linecap="round" stroke-linejoin="round"/>
<path d="M678.047 88.5535C678.047 88.5535 700.09 88.5535 732.683 88.5535" stroke="#F4F4F4" stroke-miterlimit="10" stroke-linecap="round" stroke-linejoin="round"/>
<path d="M818.466 88.5535C840.823 88.5535 863.808 88.5535 885.537 88.5535" stroke="#F4F4F4" stroke-miterlimit="10" stroke-linecap="round" stroke-linejoin="round"/>
<path d="M934.773 88.5535C974.023 88.5535 1001.78 88.5535 1001.78 88.5535" stroke="#F4F4F4" stroke-miterlimit="10" stroke-linecap="round" stroke-linejoin="round"/>
<path d="M592.952 115.045C606.391 115.045 621.275 115.045 636.975 115.045" stroke="#F4F4F4" stroke-miterlimit="10" stroke-linecap="round" stroke-linejoin="round"/>
<path d="M674.78 115.045C681.06 115.045 687.466 115.045 693.808 115.045" stroke="#F4F4F4" stroke-miterlimit="10" stroke-linecap="round" stroke-linejoin="round"/>
<path d="M704.798 115.045C711.644 115.045 718.489 115.045 725.271 115.045" stroke="#F4F4F4" stroke-miterlimit="10" stroke-linecap="round" stroke-linejoin="round"/>
<path d="M737.831 115.045C800.82 115.045 853.635 115.045 853.635 115.045" stroke="#F4F4F4" stroke-miterlimit="10" stroke-linecap="round" stroke-linejoin="round"/>
<path d="M78.8094 101.02H239.452" stroke="#F4F4F4" stroke-miterlimit="10" stroke-linecap="round" stroke-linejoin="round"/>
<path d="M177.154 79.0835H208.68" stroke="#F4F4F4" stroke-miterlimit="10" stroke-linecap="round" stroke-linejoin="round"/>
<path d="M241.335 79.0835H259.861" stroke="#F4F4F4" stroke-miterlimit="10" stroke-linecap="round" stroke-linejoin="round"/>
<path d="M416.861 79.0835H435.387" stroke="#F4F4F4" stroke-miterlimit="10" stroke-linecap="round" stroke-linejoin="round"/>
<path d="M849.428 133.925H864.186" stroke="#F4F4F4" stroke-miterlimit="10" stroke-linecap="round" stroke-linejoin="round"/>
<path d="M895.837 133.925H910.595" stroke="#F4F4F4" stroke-miterlimit="10" stroke-linecap="round" stroke-linejoin="round"/>
<path d="M942.245 133.925H956.94" stroke="#F4F4F4" stroke-miterlimit="10" stroke-linecap="round" stroke-linejoin="round"/>
<path d="M988.591 133.925H1003.35" stroke="#F4F4F4" stroke-miterlimit="10" stroke-linecap="round" stroke-linejoin="round"/>
<path d="M61.2259 161.016C69.9551 161.016 69.9551 172.464 78.7471 172.464C87.4763 172.464 87.4763 161.016 96.2683 161.016C103.867 161.016 104.872 169.707 110.775 171.925" stroke="#F4F4F4" stroke-miterlimit="10" stroke-linecap="round" stroke-linejoin="round"/>
<path d="M128.296 146.871C130.368 144.174 132.566 141.657 136.648 141.657C145.377 141.657 145.377 153.105 154.169 153.105C162.961 153.105 162.961 141.657 171.691 141.657C172.319 141.657 172.884 141.717 173.386 141.837" stroke="#F4F4F4" stroke-miterlimit="10" stroke-linecap="round" stroke-linejoin="round"/>
<path d="M638.732 141.717C647.524 141.717 647.524 153.165 656.254 153.165C665.045 153.165 665.045 141.717 673.775 141.717C682.567 141.717 682.567 153.165 691.296 153.165C700.088 153.165 700.088 141.717 708.817 141.717C717.609 141.717 717.609 153.165 726.338 153.165C735.13 153.165 735.13 141.717 743.859 141.717C744.487 141.717 745.053 141.777 745.555 141.897" stroke="#F4F4F4" stroke-miterlimit="10" stroke-linecap="round" stroke-linejoin="round"/>
<path d="M952.922 199.315H1018.23" stroke="#F4F4F4" stroke-miterlimit="10" stroke-linecap="round" stroke-linejoin="round"/>
<path d="M1058.8 247.564C1058.8 247.564 1060.31 247.564 1062.88 247.564" stroke="#F4F4F4" stroke-miterlimit="10" stroke-linecap="round" stroke-linejoin="round"/>
<path d="M1068.41 247.564C1070.23 247.564 1072.18 247.564 1074.31 247.564" stroke="#F4F4F4" stroke-miterlimit="10" stroke-linecap="round" stroke-linejoin="round"/>
<path d="M1097.93 247.564C1111.87 247.564 1124.11 247.564 1124.11 247.564" stroke="#F4F4F4" stroke-miterlimit="10" stroke-linecap="round" stroke-linejoin="round"/>
<path d="M561.428 424.435L600.804 385.237C600.804 385.237 618.011 417.123 621.402 423.416" stroke="#F4F4F4" stroke-miterlimit="10" stroke-linecap="round" stroke-linejoin="round"/>
<path d="M595.465 390.511C600.991 400.7 611.73 420.18 613.614 423.656C613.614 423.656 619.831 423.656 621.527 423.656" stroke="#F4F4F4" stroke-miterlimit="10" stroke-linecap="round" stroke-linejoin="round"/>
<path d="M561.428 488.627C561.428 488.627 561.428 436.003 561.428 424.435" stroke="#F4F4F4" stroke-miterlimit="10" stroke-linecap="round" stroke-linejoin="round"/>
<path d="M561.427 424.435L487.072 424.495V488.627" stroke="#F4F4F4" stroke-miterlimit="10" stroke-linecap="round" stroke-linejoin="round"/>
<path d="M600.803 385.117H527.892L487.072 424.435" stroke="#F4F4F4" stroke-miterlimit="10" stroke-linecap="round" stroke-linejoin="round"/>
<path d="M590.945 394.887H518.034" stroke="#F4F4F4" stroke-miterlimit="10" stroke-linecap="round" stroke-linejoin="round"/>
<path d="M581.211 404.477H507.986" stroke="#F4F4F4" stroke-miterlimit="10" stroke-linecap="round" stroke-linejoin="round"/>
<path d="M571.477 414.126H497.938" stroke="#F4F4F4" stroke-miterlimit="10" stroke-linecap="round" stroke-linejoin="round"/>
<path d="M541.771 385.177L500.7 424.435" stroke="#F4F4F4" stroke-miterlimit="10" stroke-linecap="round" stroke-linejoin="round"/>
<path d="M555.649 385.177L514.578 424.435" stroke="#F4F4F4" stroke-miterlimit="10" stroke-linecap="round" stroke-linejoin="round"/>
<path d="M569.529 385.177L528.458 424.435" stroke="#F4F4F4" stroke-miterlimit="10" stroke-linecap="round" stroke-linejoin="round"/>
<path d="M586.421 385.177L545.35 424.435" stroke="#F4F4F4" stroke-miterlimit="10" stroke-linecap="round" stroke-linejoin="round"/>
<path d="M586.479 454.523H596.715V436.542H586.479V454.523Z" stroke="#F4F4F4" stroke-miterlimit="10" stroke-linecap="round" stroke-linejoin="round"/>
<path d="M576.186 454.523H586.423V436.482H576.186V445.473V454.523Z" stroke="#F4F4F4" stroke-miterlimit="10" stroke-linecap="round" stroke-linejoin="round"/>
<path d="M540.328 488.627V444.094H522.618V488.627" stroke="#F4F4F4" stroke-miterlimit="10" stroke-linecap="round" stroke-linejoin="round"/>
<path d="M508.613 444.094H491.972" stroke="#F4F4F4" stroke-miterlimit="10" stroke-linecap="round" stroke-linejoin="round"/>
<path d="M514.39 449.608H497.748" stroke="#F4F4F4" stroke-miterlimit="10" stroke-linecap="round" stroke-linejoin="round"/>
<path d="M508.613 433.126H491.972" stroke="#F4F4F4" stroke-miterlimit="10" stroke-linecap="round" stroke-linejoin="round"/>
<path d="M514.39 438.64H497.748" stroke="#F4F4F4" stroke-miterlimit="10" stroke-linecap="round" stroke-linejoin="round"/>
<path d="M508.614 455.123H492.035" stroke="#F4F4F4" stroke-miterlimit="10" stroke-linecap="round" stroke-linejoin="round"/>
<path d="M514.39 460.816H497.748" stroke="#F4F4F4" stroke-miterlimit="10" stroke-linecap="round" stroke-linejoin="round"/>
<path d="M508.614 466.331H492.035" stroke="#F4F4F4" stroke-miterlimit="10" stroke-linecap="round" stroke-linejoin="round"/>
<path d="M514.39 471.965H497.748" stroke="#F4F4F4" stroke-miterlimit="10" stroke-linecap="round" stroke-linejoin="round"/>
<path d="M586.423 445.473H576.186" stroke="#F4F4F4" stroke-miterlimit="10" stroke-linecap="round" stroke-linejoin="round"/>
<path d="M613.55 423.656C613.55 426.413 613.55 488.567 613.55 488.567" stroke="#F4F4F4" stroke-miterlimit="10" stroke-linecap="round" stroke-linejoin="round"/>
<path d="M81.0087 463.514C81.5111 462.195 81.8251 460.757 81.8251 459.198C81.8251 452.186 75.8591 446.552 68.5743 446.552C62.1059 446.552 56.7679 450.987 55.5747 456.801C53.8791 453.085 49.9855 450.448 45.4011 450.448C39.3095 450.448 34.3483 455.183 34.3483 460.996C34.3483 461.296 34.3483 461.656 34.4111 461.955C34.1599 461.955 33.8459 461.955 33.5947 461.955C25.4935 461.955 18.9623 468.189 18.9623 475.92C18.9623 483.652 25.4935 489.886 33.5947 489.886C36.3579 489.886 38.8699 489.166 41.0679 487.908C44.2707 491.504 49.0435 493.781 54.3815 493.781C59.7195 493.781 64.4923 491.504 67.6951 487.908C70.2699 489.886 73.4727 491.084 77.0523 491.084C85.2163 491.084 91.8103 484.791 91.8103 476.999C91.8103 470.646 87.2259 465.192 81.0087 463.514Z" stroke="#F4F4F4" stroke-miterlimit="10" stroke-linecap="round" stroke-linejoin="round"/>
<path d="M22.666 343.641C22.666 343.641 22.8544 330.515 1 325.241C1 325.301 7.4056 345.799 22.666 343.641Z" stroke="#F4F4F4" stroke-miterlimit="10" stroke-linecap="round" stroke-linejoin="round"/>
<path d="M32.9029 438.7V334.651" stroke="#F4F4F4" stroke-miterlimit="10" stroke-linecap="round" stroke-linejoin="round"/>
<path d="M22.6653 343.821C22.6653 343.821 32.9017 351.793 32.9017 361.802" stroke="#F4F4F4" stroke-miterlimit="10" stroke-linecap="round" stroke-linejoin="round"/>
<path d="M22.666 369.414C22.666 369.414 22.8544 356.288 1 351.013C1 351.073 7.4056 371.571 22.666 369.414Z" stroke="#F4F4F4" stroke-miterlimit="10" stroke-linecap="round" stroke-linejoin="round"/>
<path d="M22.6653 369.594C22.6653 369.594 32.9017 377.565 32.9017 387.575" stroke="#F4F4F4" stroke-miterlimit="10" stroke-linecap="round" stroke-linejoin="round"/>
<path d="M22.666 395.186C22.666 395.186 22.8544 382.06 1 376.786C1 376.846 7.4056 397.344 22.666 395.186Z" stroke="#F4F4F4" stroke-miterlimit="10" stroke-linecap="round" stroke-linejoin="round"/>
<path d="M22.6653 395.366C22.6653 395.366 32.9017 403.338 32.9017 413.347" stroke="#F4F4F4" stroke-miterlimit="10" stroke-linecap="round" stroke-linejoin="round"/>
<path d="M43.0774 343.641C43.0774 343.641 42.889 330.515 64.7434 325.241C64.7434 325.301 58.3378 345.799 43.0774 343.641Z" stroke="#F4F4F4" stroke-miterlimit="10" stroke-linecap="round" stroke-linejoin="round"/>
<path d="M32.8384 334.651C32.8384 334.651 21.5345 325.301 32.9012 306.96C32.9012 306.96 44.4564 324.941 32.8384 334.651Z" stroke="#F4F4F4" stroke-miterlimit="10" stroke-linecap="round" stroke-linejoin="round"/>
<path d="M43.1393 343.821C43.1393 343.821 32.9029 351.793 32.9029 361.802" stroke="#F4F4F4" stroke-miterlimit="10" stroke-linecap="round" stroke-linejoin="round"/>
<path d="M43.0774 369.414C43.0774 369.414 42.889 356.288 64.7434 351.013C64.7434 351.073 58.3378 371.571 43.0774 369.414Z" stroke="#F4F4F4" stroke-miterlimit="10" stroke-linecap="round" stroke-linejoin="round"/>
<path d="M43.1393 369.594C43.1393 369.594 32.9029 377.565 32.9029 387.575" stroke="#F4F4F4" stroke-miterlimit="10" stroke-linecap="round" stroke-linejoin="round"/>
<path d="M43.0774 395.186C43.0774 395.186 42.889 382.06 64.7434 376.786C64.7434 376.846 58.3378 397.344 43.0774 395.186Z" stroke="#F4F4F4" stroke-miterlimit="10" stroke-linecap="round" stroke-linejoin="round"/>
<path d="M43.1393 395.366C43.1393 395.366 32.9029 403.338 32.9029 413.347" stroke="#F4F4F4" stroke-miterlimit="10" stroke-linecap="round" stroke-linejoin="round"/>
<path d="M86.0322 488.807H1274.4" stroke="#F4F4F4" stroke-miterlimit="10" stroke-linecap="round" stroke-linejoin="round"/>
<path d="M524.628 250.98C523.309 251.939 509.556 236.775 493.981 217.056C478.407 197.337 466.852 180.615 468.171 179.656C469.489 178.697 483.243 193.861 498.817 213.58C514.391 233.299 525.947 250.021 524.628 250.98Z" stroke="#F4F4F4" stroke-miterlimit="10" stroke-linecap="round" stroke-linejoin="round"/>
<path d="M526.198 109.531C527.517 110.55 515.585 127.032 499.571 146.392C483.557 165.751 469.49 180.675 468.171 179.656C466.852 178.637 478.784 162.155 494.798 142.796C510.812 123.436 524.879 108.512 526.198 109.531Z" stroke="#F4F4F4" stroke-miterlimit="10" stroke-linecap="round" stroke-linejoin="round"/>
<path d="M383.014 142.376C382.323 143.815 400.786 153.344 424.336 163.653C447.823 173.962 467.479 181.095 468.17 179.656C468.861 178.218 450.398 168.688 426.848 158.379C403.361 148.07 383.704 140.938 383.014 142.376Z" stroke="#F4F4F4" stroke-miterlimit="10" stroke-linecap="round" stroke-linejoin="round"/>
<path d="M511.186 161.016C515.08 170.126 515.771 180.555 512.505 190.684C510.119 198.057 505.911 204.41 500.448 209.385" stroke="#F4F4F4" stroke-miterlimit="10" stroke-linecap="round" stroke-linejoin="round"/>
<path d="M481.859 219.874C473.193 222.451 463.71 222.631 454.416 219.874C445.687 217.296 438.339 212.501 432.813 206.268" stroke="#F4F4F4" stroke-miterlimit="10" stroke-linecap="round" stroke-linejoin="round"/>
<path d="M424.397 192.303C421.195 183.612 420.755 173.902 423.832 164.433C425.967 157.84 429.547 152.086 434.131 147.411" stroke="#F4F4F4" stroke-miterlimit="10" stroke-linecap="round" stroke-linejoin="round"/>
<path d="M444.43 139.499C455.294 133.326 468.796 131.408 481.858 135.244C487.573 136.922 492.723 139.559 497.119 142.916" stroke="#F4F4F4" stroke-miterlimit="10" stroke-linecap="round" stroke-linejoin="round"/>
<path d="M441.668 163.474C442.986 161.196 444.619 159.158 446.44 157.36" stroke="#F4F4F4" stroke-miterlimit="10" stroke-linecap="round" stroke-linejoin="round"/>
<path d="M457.868 150.348C462.076 148.909 466.66 148.31 471.308 148.789" stroke="#F4F4F4" stroke-miterlimit="10" stroke-linecap="round" stroke-linejoin="round"/>
<path d="M493.916 162.335C497.307 167.549 498.94 173.783 498.375 180.136" stroke="#F4F4F4" stroke-miterlimit="10" stroke-linecap="round" stroke-linejoin="round"/>
<path d="M491.782 195.719C490.212 197.577 488.454 199.196 486.507 200.634" stroke="#F4F4F4" stroke-miterlimit="10" stroke-linecap="round" stroke-linejoin="round"/>
<path d="M477.149 205.189C472.941 206.448 468.483 206.807 463.961 206.208" stroke="#F4F4F4" stroke-miterlimit="10" stroke-linecap="round" stroke-linejoin="round"/>
<path d="M451.966 202.013C442.797 196.499 437.397 186.609 437.899 176.24" stroke="#F4F4F4" stroke-miterlimit="10" stroke-linecap="round" stroke-linejoin="round"/>
<path d="M459.191 488.207C459.191 483.412 463.273 164.253 468.297 164.253C473.321 164.253 477.403 483.412 477.403 488.207" stroke="#F4F4F4" stroke-miterlimit="10" stroke-linecap="round" stroke-linejoin="round"/>
<path d="M1188.86 250.98C1187.54 251.939 1173.79 236.775 1158.22 217.056C1142.64 197.337 1131.09 180.615 1132.4 179.656C1133.72 178.697 1147.48 193.861 1163.05 213.58C1178.63 233.299 1190.18 250.021 1188.86 250.98Z" stroke="#F4F4F4" stroke-miterlimit="10" stroke-linecap="round" stroke-linejoin="round"/>
<path d="M1190.43 109.531C1191.75 110.55 1179.82 127.032 1163.8 146.392C1147.79 165.751 1133.72 180.675 1132.4 179.656C1131.09 178.637 1143.02 162.155 1159.03 142.796C1175.05 123.436 1189.11 108.512 1190.43 109.531Z" stroke="#F4F4F4" stroke-miterlimit="10" stroke-linecap="round" stroke-linejoin="round"/>
<path d="M1047.25 142.376C1046.56 143.815 1065.02 153.344 1088.57 163.653C1112.06 173.962 1131.71 181.095 1132.4 179.656C1133.09 178.218 1114.63 168.688 1091.08 158.379C1067.59 148.07 1047.94 140.938 1047.25 142.376Z" stroke="#F4F4F4" stroke-miterlimit="10" stroke-linecap="round" stroke-linejoin="round"/>
<path d="M1175.42 161.016C1179.31 170.126 1180 180.555 1176.74 190.684C1174.35 198.057 1170.15 204.41 1164.68 209.385" stroke="#F4F4F4" stroke-miterlimit="10" stroke-linecap="round" stroke-linejoin="round"/>
<path d="M1146.09 219.874C1137.43 222.451 1127.94 222.631 1118.65 219.874C1109.92 217.296 1102.57 212.501 1097.05 206.268" stroke="#F4F4F4" stroke-miterlimit="10" stroke-linecap="round" stroke-linejoin="round"/>
<path d="M1088.63 192.303C1085.43 183.612 1084.99 173.902 1088.07 164.433C1090.2 157.84 1093.78 152.086 1098.37 147.411" stroke="#F4F4F4" stroke-miterlimit="10" stroke-linecap="round" stroke-linejoin="round"/>
<path d="M1108.66 139.499C1119.53 133.326 1133.03 131.408 1146.09 135.244C1151.81 136.922 1156.96 139.559 1161.35 142.916" stroke="#F4F4F4" stroke-miterlimit="10" stroke-linecap="round" stroke-linejoin="round"/>
<path d="M1105.9 163.474C1107.22 161.196 1108.85 159.158 1110.67 157.36" stroke="#F4F4F4" stroke-miterlimit="10" stroke-linecap="round" stroke-linejoin="round"/>
<path d="M1122.1 150.348C1126.31 148.909 1130.89 148.31 1135.54 148.789" stroke="#F4F4F4" stroke-miterlimit="10" stroke-linecap="round" stroke-linejoin="round"/>
<path d="M1158.15 162.335C1161.54 167.549 1163.17 173.783 1162.61 180.136" stroke="#F4F4F4" stroke-miterlimit="10" stroke-linecap="round" stroke-linejoin="round"/>
<path d="M1156.02 195.719C1154.45 197.577 1152.69 199.196 1150.74 200.634" stroke="#F4F4F4" stroke-miterlimit="10" stroke-linecap="round" stroke-linejoin="round"/>
<path d="M1141.38 205.189C1137.18 206.448 1132.72 206.807 1128.19 206.208" stroke="#F4F4F4" stroke-miterlimit="10" stroke-linecap="round" stroke-linejoin="round"/>
<path d="M1116.14 202.013C1106.97 196.499 1101.57 186.609 1102.07 176.24" stroke="#F4F4F4" stroke-miterlimit="10" stroke-linecap="round" stroke-linejoin="round"/>
<path d="M1123.42 488.207C1123.42 486.829 1123.8 456.261 1124.37 416.943" stroke="#F4F4F4" stroke-miterlimit="10" stroke-linecap="round" stroke-linejoin="round"/>
<path d="M1126.12 325.301C1127.76 246.305 1130.02 164.313 1132.47 164.313C1135.17 164.313 1137.62 262.188 1139.31 348.736" stroke="#F4F4F4" stroke-miterlimit="10" stroke-linecap="round" stroke-linejoin="round"/>
<path d="M1140.19 409.092C1140.82 450.028 1141.64 486.829 1141.64 488.267" stroke="#F4F4F4" stroke-miterlimit="10" stroke-linecap="round" stroke-linejoin="round"/>
<path d="M168.612 265.125H147.448V271.718H168.612V265.125Z" stroke="#F4F4F4" stroke-miterlimit="10" stroke-linecap="round" stroke-linejoin="round"/>
<path d="M187.139 265.125H175.269V271.718H187.139V265.125Z" stroke="#F4F4F4" stroke-miterlimit="10" stroke-linecap="round" stroke-linejoin="round"/>
<path d="M150.965 55.1092H237.503C248.619 55.1092 257.788 46.2387 257.097 35.63C257.097 35.3303 257.034 34.9707 257.034 34.671C255.904 24.8415 247.551 17.0498 237.252 16.1508C233.296 15.7911 229.528 16.5104 226.199 17.8889C219.731 8.65875 208.741 2.60521 196.244 2.60521C188.959 2.60521 182.239 4.64303 176.525 8.17926C174.201 4.04367 169.491 1.16675 164.09 1.16675C156.366 1.16675 150.086 6.92061 150.086 14.053C150.086 16.9299 151.153 19.6271 152.849 21.7848C143.052 23.3431 135.642 31.1348 135.642 40.6047C135.642 40.6646 135.642 40.7246 135.642 40.7845C135.705 48.756 142.613 55.1092 150.965 55.1092Z" stroke="#F4F4F4" stroke-miterlimit="10" stroke-linecap="round" stroke-linejoin="round"/>
<path d="M1271.44 160.776H1342.53C1350.26 160.776 1356.79 154.843 1356.73 147.471C1356.73 147.231 1356.73 146.931 1356.73 146.691C1356.29 137.641 1348.69 130.149 1339.21 129.43C1336.32 129.19 1333.55 129.61 1331.04 130.509C1326.02 124.995 1318.67 121.518 1310.38 121.518C1300.96 121.518 1292.67 126.073 1287.77 132.966C1284.32 130.509 1279.98 129.13 1275.27 129.37C1265.67 129.909 1257.82 137.401 1257.31 146.572C1257.31 146.871 1257.31 147.111 1257.31 147.411C1257.19 154.783 1263.72 160.776 1271.44 160.776Z" stroke="#F4F4F4" stroke-miterlimit="10" stroke-linecap="round" stroke-linejoin="round"/>
<path d="M916.936 488.747C925.849 488.747 933.075 481.85 933.075 473.343C933.075 464.836 925.849 457.939 916.936 457.939C908.022 457.939 900.796 464.836 900.796 473.343C900.796 481.85 908.022 488.747 916.936 488.747Z" stroke="#F4F4F4" stroke-miterlimit="10" stroke-linecap="round" stroke-linejoin="round"/>
<path d="M1179.07 488.747C1187.98 488.747 1195.21 481.85 1195.21 473.343C1195.21 464.836 1187.98 457.939 1179.07 457.939C1170.15 457.939 1162.93 464.836 1162.93 473.343C1162.93 481.85 1170.15 488.747 1179.07 488.747Z" stroke="#F4F4F4" stroke-miterlimit="10" stroke-linecap="round" stroke-linejoin="round"/>
<path d="M571.476 187.987C576.332 187.987 580.268 184.231 580.268 179.596C580.268 174.962 576.332 171.205 571.476 171.205C566.621 171.205 562.684 174.962 562.684 179.596C562.684 184.231 566.621 187.987 571.476 187.987Z" stroke="#F4F4F4" stroke-miterlimit="10" stroke-linecap="round" stroke-linejoin="round"/>
<path d="M207.302 201.647C210.735 198.37 210.735 193.057 207.302 189.781C203.868 186.504 198.301 186.504 194.868 189.781C191.435 193.057 191.435 198.37 194.868 201.647C198.301 204.924 203.868 204.924 207.302 201.647Z" stroke="#F4F4F4" stroke-miterlimit="10" stroke-linecap="round" stroke-linejoin="round"/>
<path d="M837.644 193.77C838.433 190.581 836.363 187.385 833.022 186.632C829.68 185.879 826.331 187.854 825.542 191.043C824.753 194.232 826.823 197.428 830.164 198.181C833.506 198.934 836.854 196.959 837.644 193.77Z" stroke="#F4F4F4" stroke-miterlimit="10" stroke-linecap="round" stroke-linejoin="round"/>
<path d="M1092.06 286.981C1092.85 283.791 1090.78 280.595 1087.44 279.842C1084.1 279.089 1080.75 281.064 1079.96 284.253C1079.17 287.443 1081.24 290.639 1084.59 291.392C1087.93 292.145 1091.28 290.17 1092.06 286.981Z" stroke="#F4F4F4" stroke-miterlimit="10" stroke-linecap="round" stroke-linejoin="round"/>
<path d="M619.204 206.028C619.204 206.028 620.963 189.066 640.054 185.41C640.117 185.41 641.31 202.912 619.204 206.028Z" stroke="#F4F4F4" stroke-miterlimit="10" stroke-linecap="round" stroke-linejoin="round"/>
<path d="M634.212 191.944C634.212 191.944 625.42 203.092 613.613 209.685" stroke="#F4F4F4" stroke-miterlimit="10" stroke-linecap="round" stroke-linejoin="round"/>
<path d="M1244.82 276.034C1244.82 276.034 1227.73 281.008 1216.81 265.605C1216.81 265.605 1233.26 257.753 1244.82 276.034Z" stroke="#F4F4F4" stroke-miterlimit="10" stroke-linecap="round" stroke-linejoin="round"/>
<path d="M1225.41 268.302C1225.41 268.302 1239.54 271.718 1250.53 279.57" stroke="#F4F4F4" stroke-miterlimit="10" stroke-linecap="round" stroke-linejoin="round"/>
<path d="M437.711 262.728C437.711 262.728 421.822 266.444 412.716 251.819C412.716 251.819 428.165 245.466 437.711 262.728Z" stroke="#F4F4F4" stroke-miterlimit="10" stroke-linecap="round" stroke-linejoin="round"/>
<path d="M420.441 254.696C420.441 254.696 433.189 258.532 442.798 266.264" stroke="#F4F4F4" stroke-miterlimit="10" stroke-linecap="round" stroke-linejoin="round"/>
<path d="M977.979 255.775C977.979 255.775 962.091 259.491 952.985 244.867C952.985 244.867 968.496 238.514 977.979 255.775Z" stroke="#F4F4F4" stroke-miterlimit="10" stroke-linecap="round" stroke-linejoin="round"/>
<path d="M960.709 247.744C960.709 247.744 973.458 251.58 983.066 259.311" stroke="#F4F4F4" stroke-miterlimit="10" stroke-linecap="round" stroke-linejoin="round"/>
<path d="M55.8232 258.952C55.8232 258.952 39.9348 262.668 30.8288 248.043C30.8288 247.983 46.2776 241.69 55.8232 258.952Z" stroke="#F4F4F4" stroke-miterlimit="10" stroke-linecap="round" stroke-linejoin="round"/>
<path d="M38.5536 250.86C38.5536 250.86 51.302 254.696 60.9104 262.428" stroke="#F4F4F4" stroke-miterlimit="10" stroke-linecap="round" stroke-linejoin="round"/>
<path d="M699.586 186.369L714.03 179.596" stroke="#F4F4F4" stroke-miterlimit="10" stroke-linecap="round" stroke-linejoin="round"/>
<path d="M916.435 169.527L942.56 206.328C942.56 206.328 942.56 270.639 942.56 329.017" stroke="#F4F4F4" stroke-miterlimit="10" stroke-linecap="round" stroke-linejoin="round"/>
<path d="M942.561 342.023C942.561 346.579 942.561 351.074 942.561 355.449" stroke="#F4F4F4" stroke-miterlimit="10" stroke-linecap="round" stroke-linejoin="round"/>
<path d="M942.561 368.035C942.561 372.71 942.561 376.187 942.561 380.442" stroke="#F4F4F4" stroke-miterlimit="10" stroke-linecap="round" stroke-linejoin="round"/>
<path d="M942.561 394.407C942.561 410.95 942.561 421.559 942.561 421.559" stroke="#F4F4F4" stroke-miterlimit="10" stroke-linecap="round" stroke-linejoin="round"/>
<path d="M952.733 343.641C952.733 343.641 952.922 330.515 931.067 325.241C931.005 325.301 937.473 345.799 952.733 343.641Z" stroke="#F4F4F4" stroke-miterlimit="10" stroke-linecap="round" stroke-linejoin="round"/>
<path d="M962.907 438.7V334.651" stroke="#F4F4F4" stroke-miterlimit="10" stroke-linecap="round" stroke-linejoin="round"/>
<path d="M952.669 343.821C952.669 343.821 962.905 351.793 962.905 361.802" stroke="#F4F4F4" stroke-miterlimit="10" stroke-linecap="round" stroke-linejoin="round"/>
<path d="M952.733 369.414C952.733 369.414 952.922 356.288 931.067 351.013C931.005 351.073 937.473 371.571 952.733 369.414Z" stroke="#F4F4F4" stroke-miterlimit="10" stroke-linecap="round" stroke-linejoin="round"/>
<path d="M952.669 369.594C952.669 369.594 962.905 377.565 962.905 387.575" stroke="#F4F4F4" stroke-miterlimit="10" stroke-linecap="round" stroke-linejoin="round"/>
<path d="M952.733 395.186C952.733 395.186 952.922 382.06 931.067 376.786C931.005 376.846 937.473 397.344 952.733 395.186Z" stroke="#F4F4F4" stroke-miterlimit="10" stroke-linecap="round" stroke-linejoin="round"/>
<path d="M952.669 395.366C952.669 395.366 962.905 403.338 962.905 413.347" stroke="#F4F4F4" stroke-miterlimit="10" stroke-linecap="round" stroke-linejoin="round"/>
<path d="M973.144 343.641C973.144 343.641 972.956 330.515 994.81 325.241C994.81 325.301 988.405 345.799 973.144 343.641Z" stroke="#F4F4F4" stroke-miterlimit="10" stroke-linecap="round" stroke-linejoin="round"/>
<path d="M962.845 334.651C962.845 334.651 951.541 325.301 962.908 306.96C962.908 306.96 974.463 324.941 962.845 334.651Z" stroke="#F4F4F4" stroke-miterlimit="10" stroke-linecap="round" stroke-linejoin="round"/>
<path d="M973.143 343.821C973.143 343.821 962.907 351.793 962.907 361.802" stroke="#F4F4F4" stroke-miterlimit="10" stroke-linecap="round" stroke-linejoin="round"/>
<path d="M973.144 369.414C973.144 369.414 972.956 356.288 994.81 351.013C994.81 351.073 988.405 371.571 973.144 369.414Z" stroke="#F4F4F4" stroke-miterlimit="10" stroke-linecap="round" stroke-linejoin="round"/>
<path d="M973.143 369.594C973.143 369.594 962.907 377.565 962.907 387.575" stroke="#F4F4F4" stroke-miterlimit="10" stroke-linecap="round" stroke-linejoin="round"/>
<path d="M973.144 395.186C973.144 395.186 972.956 382.06 994.81 376.786C994.81 376.846 988.405 397.344 973.144 395.186Z" stroke="#F4F4F4" stroke-miterlimit="10" stroke-linecap="round" stroke-linejoin="round"/>
<path d="M973.143 395.366C973.143 395.366 962.907 403.338 962.907 413.347" stroke="#F4F4F4" stroke-miterlimit="10" stroke-linecap="round" stroke-linejoin="round"/>
<path d="M692.24 488.807H627.431V267.822L659.836 210.583L692.24 267.822V488.807Z" stroke="#F4F4F4" stroke-miterlimit="10" stroke-linecap="round" stroke-linejoin="round"/>
<path d="M774.634 267.823H692.24V488.747H774.634V267.823Z" stroke="#F4F4F4" stroke-miterlimit="10" stroke-linecap="round" stroke-linejoin="round"/>
<path d="M659.836 210.583H739.717L774.634 267.822H692.24L659.836 210.583Z" stroke="#F4F4F4" stroke-miterlimit="10" stroke-linecap="round" stroke-linejoin="round"/>
<path d="M702.162 210.583L737.142 267.822" stroke="#F4F4F4" stroke-miterlimit="10" stroke-linecap="round" stroke-linejoin="round"/>
<path d="M676.036 239.053H718.678" stroke="#F4F4F4" stroke-miterlimit="10" stroke-linecap="round" stroke-linejoin="round"/>
<path d="M627.431 267.823H692.24" stroke="#F4F4F4" stroke-miterlimit="10" stroke-linecap="round" stroke-linejoin="round"/>
<path d="M739.717 179.596H714.032V210.583H739.717V179.596Z" stroke="#F4F4F4" stroke-miterlimit="10" stroke-linecap="round" stroke-linejoin="round"/>
<path d="M699.59 210.583V186.369" stroke="#F4F4F4" stroke-miterlimit="10" stroke-linecap="round" stroke-linejoin="round"/>
<path d="M754.288 268.242V487.907" stroke="#F4F4F4" stroke-miterlimit="10" stroke-linecap="round" stroke-linejoin="round"/>
<path d="M754.288 376.846H774.635" stroke="#F4F4F4" stroke-miterlimit="10" stroke-linecap="round" stroke-linejoin="round"/>
<path d="M720.501 285.563H700.028V305.102H720.501V285.563Z" stroke="#F4F4F4" stroke-miterlimit="10" stroke-linecap="round" stroke-linejoin="round"/>
<path d="M747.943 285.563H727.471V305.102H747.943V285.563Z" stroke="#F4F4F4" stroke-miterlimit="10" stroke-linecap="round" stroke-linejoin="round"/>
<path d="M720.501 313.014H700.028V332.553H720.501V313.014Z" stroke="#F4F4F4" stroke-miterlimit="10" stroke-linecap="round" stroke-linejoin="round"/>
<path d="M747.943 313.014H727.471V332.553H747.943V313.014Z" stroke="#F4F4F4" stroke-miterlimit="10" stroke-linecap="round" stroke-linejoin="round"/>
<path d="M720.501 340.405H700.028V359.944H720.501V340.405Z" stroke="#F4F4F4" stroke-miterlimit="10" stroke-linecap="round" stroke-linejoin="round"/>
<path d="M747.943 340.405H727.471V359.944H747.943V340.405Z" stroke="#F4F4F4" stroke-miterlimit="10" stroke-linecap="round" stroke-linejoin="round"/>
<path d="M720.501 367.856H700.028V387.395H720.501V367.856Z" stroke="#F4F4F4" stroke-miterlimit="10" stroke-linecap="round" stroke-linejoin="round"/>
<path d="M747.943 367.856H727.471V387.395H747.943V367.856Z" stroke="#F4F4F4" stroke-miterlimit="10" stroke-linecap="round" stroke-linejoin="round"/>
<path d="M720.501 395.306H700.028V414.846H720.501V395.306Z" stroke="#F4F4F4" stroke-miterlimit="10" stroke-linecap="round" stroke-linejoin="round"/>
<path d="M747.943 395.306H727.471V414.846H747.943V395.306Z" stroke="#F4F4F4" stroke-miterlimit="10" stroke-linecap="round" stroke-linejoin="round"/>
<path d="M655.063 218.974L681.753 267.822" stroke="#F4F4F4" stroke-miterlimit="10" stroke-linecap="round" stroke-linejoin="round"/>
<path d="M678.047 268.242C678.047 268.242 678.047 319.787 678.047 359.404" stroke="#F4F4F4" stroke-miterlimit="10" stroke-linecap="round" stroke-linejoin="round"/>
<path d="M678.047 367.316C678.047 383.439 678.047 400.101 678.047 415.505" stroke="#F4F4F4" stroke-miterlimit="10" stroke-linecap="round" stroke-linejoin="round"/>
<path d="M678.047 440.498C678.047 463.274 678.047 479.217 678.047 479.217" stroke="#F4F4F4" stroke-miterlimit="10" stroke-linecap="round" stroke-linejoin="round"/>
<path d="M664.356 268.242C664.356 268.242 664.356 295.932 664.356 311.755" stroke="#F4F4F4" stroke-miterlimit="10" stroke-linecap="round" stroke-linejoin="round"/>
<path d="M664.356 331.055C664.356 359.045 664.356 395.127 664.356 424.615" stroke="#F4F4F4" stroke-miterlimit="10" stroke-linecap="round" stroke-linejoin="round"/>
<path d="M664.356 438.82C664.356 462.495 664.356 479.217 664.356 479.217" stroke="#F4F4F4" stroke-miterlimit="10" stroke-linecap="round" stroke-linejoin="round"/>
<path d="M650.668 268.242C650.668 268.242 650.668 326.919 650.668 371.332" stroke="#F4F4F4" stroke-miterlimit="10" stroke-linecap="round" stroke-linejoin="round"/>
<path d="M650.668 394.587C650.668 438.64 650.668 479.217 650.668 479.217" stroke="#F4F4F4" stroke-miterlimit="10" stroke-linecap="round" stroke-linejoin="round"/>
<path d="M636.977 268.242V479.217" stroke="#F4F4F4" stroke-miterlimit="10" stroke-linecap="round" stroke-linejoin="round"/>
<path d="M731.489 179.596V210.583" stroke="#F4F4F4" stroke-miterlimit="10" stroke-linecap="round" stroke-linejoin="round"/>
<path d="M528.645 384.817V308.819H507.481V404.477" stroke="#F4F4F4" stroke-miterlimit="10" stroke-linecap="round" stroke-linejoin="round"/>
<path d="M507.48 308.819L493.225 326.26V417.303" stroke="#F4F4F4" stroke-miterlimit="10" stroke-linecap="round" stroke-linejoin="round"/>
<path d="M528.455 322.783H515.581" stroke="#F4F4F4" stroke-miterlimit="10" stroke-linecap="round" stroke-linejoin="round"/>
<path d="M528.455 331.055H515.581" stroke="#F4F4F4" stroke-miterlimit="10" stroke-linecap="round" stroke-linejoin="round"/>
<path d="M528.455 339.326H515.581" stroke="#F4F4F4" stroke-miterlimit="10" stroke-linecap="round" stroke-linejoin="round"/>
<path d="M528.455 347.597H515.581" stroke="#F4F4F4" stroke-miterlimit="10" stroke-linecap="round" stroke-linejoin="round"/>
<path d="M528.455 355.868H515.581" stroke="#F4F4F4" stroke-miterlimit="10" stroke-linecap="round" stroke-linejoin="round"/>
<path d="M528.455 364.14H515.581" stroke="#F4F4F4" stroke-miterlimit="10" stroke-linecap="round" stroke-linejoin="round"/>
<path d="M528.455 372.351H515.581" stroke="#F4F4F4" stroke-miterlimit="10" stroke-linecap="round" stroke-linejoin="round"/>
<path d="M498.25 320.086V411.549" stroke="#F4F4F4" stroke-miterlimit="10" stroke-linecap="round" stroke-linejoin="round"/>
</g>
</svg>
