<svg width="12" height="12" viewBox="0 0 12 12" fill="none" xmlns="http://www.w3.org/2000/svg">
<path d="M10.5346 6.76154C11.1443 6.76154 11.4492 7.06643 11.4492 7.67619V10.1559C11.4492 10.7657 11.1443 11.0706 10.5346 11.0706H8.17679C7.56703 11.0706 7.26214 10.7657 7.26214 10.1559V7.67619C7.26214 6.2534 7.4112 5.01354 7.7093 3.95661C8.02096 2.88612 8.62396 1.95115 9.51828 1.15167C9.81639 0.894213 10.0671 0.860337 10.2703 1.05004L11.185 1.90372C11.3882 2.09342 11.3408 2.32378 11.0427 2.59479C10.582 3.0013 10.2026 3.59075 9.90447 4.36312C9.61991 5.12194 9.47763 5.92142 9.47763 6.76154H10.5346ZM3.82711 6.76154C4.43688 6.76154 4.74176 7.06643 4.74176 7.67619V10.1559C4.74176 10.7657 4.43688 11.0706 3.82711 11.0706H1.46934C0.859572 11.0706 0.554688 10.7657 0.554688 10.1559V7.67619C0.554688 6.2534 0.703742 5.01354 1.00185 3.95661C1.31351 2.88612 1.9165 1.95115 2.81083 1.15167C3.10894 0.894213 3.35962 0.860337 3.56288 1.05004L4.47753 1.90372C4.68079 2.09342 4.63336 2.32378 4.33525 2.59479C3.87454 3.0013 3.49513 3.59075 3.19702 4.36312C2.91246 5.12194 2.77018 5.92142 2.77018 6.76154H3.82711Z" fill="#D50128"/>
</svg>
