<svg width="96" height="96" viewBox="0 0 96 96" fill="none" xmlns="http://www.w3.org/2000/svg">
<g clip-path="url(#clip0_4137_67479)">
<path d="M48 0C21.5335 0 0 21.5317 0 48C0 74.4683 21.5335 96 48 96C74.4665 96 96 74.4683 96 48C96 21.5317 74.4665 0 48 0ZM48 92.3077C23.5698 92.3077 3.69231 72.4302 3.69231 48C3.69231 23.5698 23.5698 3.69231 48 3.69231C72.4302 3.69231 92.3077 23.5698 92.3077 48C92.3077 72.4302 72.4302 92.3077 48 92.3077Z" fill="#FF2731"/>
<path d="M70.6218 28.3126L42.2482 60.2326L25.1547 46.5581C24.3608 45.9212 23.1959 46.0523 22.5608 46.8461C21.9239 47.6437 22.0531 48.8049 22.8488 49.4418L41.3104 64.211C41.6501 64.4824 42.0581 64.6154 42.4642 64.6154C42.9738 64.6154 43.4814 64.4049 43.8451 63.9951L73.3836 30.7643C74.0611 30.0037 73.9928 28.8351 73.2304 28.1594C72.4661 27.48 71.3011 27.5483 70.6218 28.3126Z" fill="#FF2731"/>
</g>
<defs>
<clipPath id="clip0_4137_67479">
<rect width="96" height="96" fill="white"/>
</clipPath>
</defs>
</svg>
