<svg width="33" height="32" viewBox="0 0 33 32" fill="none" xmlns="http://www.w3.org/2000/svg">
<rect x="5.99023" y="9.8374" width="20.5713" height="14.0059" fill="white" stroke="#383838"/>
<path d="M8.84212 6.75537H6.5503C5.21718 6.75537 4.13257 8.00809 4.13257 9.54783C4.13257 9.69791 4.13114 9.84634 4.12972 9.99349C4.11795 11.2178 4.10702 12.3541 4.9262 13.6151C5.4454 14.4142 6.15888 14.9843 6.98948 15.2636L15.0552 17.976C15.8537 18.2445 16.6979 18.2446 17.4965 17.976L25.5623 15.2636C26.3929 14.9843 27.1063 14.4142 27.6255 13.6151C28.4464 12.3515 28.4346 11.2069 28.4222 9.99731C28.4207 9.84858 28.4192 9.69887 28.4192 9.54783C28.4192 8.00809 27.3347 6.75537 26.0015 6.75537H25.8555V6.75558H8.84212V6.75537Z" fill="white" stroke="#383838"/>
</svg>
