<svg width="33" height="32" viewBox="0 0 33 32" fill="none" xmlns="http://www.w3.org/2000/svg">
<path fill-rule="evenodd" clip-rule="evenodd" d="M17.6152 25.2519C22.7249 25.2519 26.8671 21.1097 26.8671 16C26.8671 10.8903 22.7249 6.74805 17.6152 6.74805C12.5055 6.74805 8.36328 10.8903 8.36328 16C8.36328 21.1097 12.5055 25.2519 17.6152 25.2519ZM15.1313 12.8951C15.1313 12.0537 15.7233 11.7106 16.4534 12.1294L21.8804 15.2418C22.6108 15.6606 22.6108 16.3394 21.8804 16.7583L16.4534 19.8707C15.7233 20.2891 15.1313 19.9465 15.1313 19.1042V12.8951Z" fill="white" stroke="#383838"/>
<path d="M8.21316 9.9094C7.06426 9.25038 6.13281 9.79026 6.13281 11.1143V20.8851C6.13281 22.2104 7.06426 22.7496 8.21316 22.0912L16.7533 17.1935C17.9026 16.5342 17.9026 15.4661 16.7533 14.807L8.21316 9.9094Z" fill="white" stroke="#383838"/>
</svg>
